<?xml version="1.0" encoding="UTF-8"?>
<!-- mystery-cbn svg 1.0.0 -->
<svg xmlns="http://www.w3.org/2000/svg" version="1.1" width="215.900mm" height="279.400mm" viewBox="0 0 612.000 792.000">
<g id="regions" fill="none" stroke="#000" stroke-width="0.300" stroke-linecap="round" stroke-linejoin="round">
<path id="arc-0" data-left="0" data-right="1" d="M 36.000 126.000 C 216.000 126.000 396.000 126.000 576.000 126.000"/>
<path id="arc-1" data-left="1" data-right="0" d="M 36.000 126.000 C 36.000 306.000 36.000 486.000 36.000 666.000"/>
<path id="arc-2" data-left="0" data-right="1" d="M 576.000 126.000 C 576.000 306.000 576.000 486.000 576.000 666.000"/>
<path id="arc-3" data-left="1" data-right="2" d="M 390.375 187.172 C 395.648 187.172 400.922 187.172 406.195 187.172 C 406.195 187.523 406.195 187.875 406.195 188.227 C 408.656 188.227 411.117 188.227 413.578 188.227 C 413.578 188.578 413.578 188.930 413.578 189.281 C 414.984 189.281 416.391 189.281 417.797 189.281 C 417.797 189.633 417.797 189.984 417.797 190.336 C 418.852 190.336 419.906 190.336 420.961 190.336 C 420.961 190.688 420.961 191.039 420.961 191.391 C 422.016 191.391 423.070 191.391 424.125 191.391 C 424.125 191.742 424.125 192.094 424.125 192.445 C 425.180 192.445 426.234 192.445 427.289 192.445 C 427.289 192.797 427.289 193.148 427.289 193.500 C 427.992 193.500 428.695 193.500 429.398 193.500 C 429.398 193.852 429.398 194.203 429.398 194.555 C 430.102 194.555 430.805 194.555 431.508 194.555 C 431.508 194.906 431.508 195.258 431.508 195.609 C 432.211 195.609 432.914 195.609 433.617 195.609 C 433.617 195.961 433.617 196.312 433.617 196.664 C 434.320 196.664 435.023 196.664 435.727 196.664 C 435.727 197.016 435.727 197.367 435.727 197.719 C 436.078 197.719 436.430 197.719 436.781 197.719 C 436.781 198.070 436.781 198.422 436.781 198.773 C 437.484 198.773 438.188 198.773 438.891 198.773 C 438.891 199.125 438.891 199.477 438.891 199.828 C 439.242 199.828 439.594 199.828 439.945 199.828 C 439.945 200.180 439.945 200.531 439.945 200.883 C 440.648 200.883 441.352 200.883 442.055 200.883 C 442.055 201.234 442.055 201.586 442.055 201.938 C 442.406 201.938 442.758 201.938 443.109 201.938 C 443.109 202.289 443.109 202.641 443.109 202.992 C 443.461 202.992 443.812 202.992 444.164 202.992 C 444.164 203.344 444.164 203.695 444.164 204.047 C 444.516 204.047 444.867 204.047 445.219 204.047 C 445.219 204.398 445.219 204.750 445.219 205.102 C 445.922 205.102 446.625 205.102 447.328 205.102 C 447.328 205.453 447.328 205.805 447.328 206.156 C 447.680 206.156 448.031 206.156 448.383 206.156 C 448.383 206.508 448.383 206.859 448.383 207.211 C 448.734 207.211 449.086 207.211 449.438 207.211 C 449.438 207.562 449.438 207.914 449.438 208.266 C 449.789 208.266 450.141 208.266 450.492 208.266 C 450.492 208.617 450.492 208.969 450.492 209.320 C 450.844 209.320 451.195 209.320 451.547 209.320 C 451.547 209.672 451.547 210.023 451.547 210.375 C 451.898 210.375 452.250 210.375 452.602 210.375 C 452.602 210.727 452.602 211.078 452.602 211.430 C 452.953 211.430 453.305 211.430 453.656 211.430 C 453.656 211.781 453.656 212.133 453.656 212.484 C 454.008 212.484 454.359 212.484 454.711 212.484 C 454.711 213.188 454.711 213.891 454.711 214.594 C 455.062 214.594 455.414 214.594 455.766 214.594 C 455.766 214.945 455.766 215.297 455.766 215.648 C 456.117 215.648 456.469 215.648 456.820 215.648 C 456.820 216.000 456.820 216.352 456.820 216.703 C 457.172 216.703 457.523 216.703 457.875 216.703 C 457.875 217.406 457.875 218.109 457.875 218.812 C 458.227 218.812 458.578 218.812 458.930 218.812 C 458.930 219.164 458.930 219.516 458.930 219.867 C 459.281 219.867 459.633 219.867 459.984 219.867 C 459.984 220.219 459.984 220.570 459.984 220.922 C 460.336 220.922 460.688 220.922 461.039 220.922 C 461.039 221.625 461.039 222.328 461.039 223.031 C 461.391 223.031 461.742 223.031 462.094 223.031 C 462.094 223.383 462.094 223.734 462.094 224.086 C 462.445 224.086 462.797 224.086 463.148 224.086 C 463.148 224.789 463.148 225.492 463.148 226.195 C 463.500 226.195 463.852 226.195 464.203 226.195 C 464.203 226.898 464.203 227.602 464.203 228.305 C 464.555 228.305 464.906 228.305 465.258 228.305 C 465.258 229.008 465.258 229.711 465.258 230.414 C 465.609 230.414 465.961 230.414 466.312 230.414 C 466.312 231.117 466.312 231.820 466.312 232.523 C 466.664 232.523 467.016 232.523 467.367 232.523 C 467.367 233.227 467.367 233.930 467.367 234.633 C 467.719 234.633 468.070 234.633 468.422 234.633 C 468.422 235.336 468.422 236.039 468.422 236.742 C 468.773 236.742 469.125 236.742 469.477 236.742 C 469.477 237.445 469.477 238.148 469.477 238.852 C 469.828 238.852 470.180 238.852 470.531 238.852 C 470.531 239.555 470.531 240.258 470.531 240.961 C 470.883 240.961 471.234 240.961 471.586 240.961 C 471.586 242.016 471.586 243.070 471.586 244.125 C 471.938 244.125 472.289 244.125 472.641 244.125 C 472.641 245.180 472.641 246.234 472.641 247.289 C 472.992 247.289 473.344 247.289 473.695 247.289 C 473.695 248.344 473.695 249.398 473.695 250.453 C 474.047 250.453 474.398 250.453 474.750 250.453 C 474.750 251.508 474.750 252.563 474.750 253.617 C 475.102 253.617 475.453 253.617 475.805 253.617 C 475.805 255.023 475.805 256.430 475.805 257.836 C 476.156 257.836 476.508 257.836 476.859 257.836 C 476.859 259.242 476.859 260.648 476.859 262.055 C 477.211 262.055 477.562 262.055 477.914 262.055 C 477.914 263.461 477.914 264.867 477.914 266.273 C 478.266 266.273 478.617 266.273 478.969 266.273 C 478.969 268.031 478.969 269.789 478.969 271.547 C 479.320 271.547 479.672 271.547 480.023 271.547 C 480.023 273.656 480.023 275.766 480.023 277.875 C 480.375 277.875 480.727 277.875 481.078 277.875 C 481.078 279.984 481.078 282.094 481.078 284.203 C 481.430 284.203 481.781 284.203 482.133 284.203 C 482.133 286.664 482.133 289.125 482.133 291.586 C 482.484 291.586 482.836 291.586 483.188 291.586 C 483.188 294.047 483.188 296.508 483.188 298.969 C 483.539 298.969 483.891 298.969 484.242 298.969 C 484.242 301.430 484.242 303.891 484.242 306.352 C 484.594 306.352 484.945 306.352 485.297 306.352 C 485.297 308.109 485.297 309.867 485.297 311.625 C 485.648 311.625 486.000 311.625 486.352 311.625 C 486.352 313.383 486.352 315.141 486.352 316.898 C 486.703 316.898 487.055 316.898 487.406 316.898 C 487.406 318.305 487.406 319.711 487.406 321.117 C 487.758 321.117 488.109 321.117 488.461 321.117 C 488.461 322.172 488.461 323.227 488.461 324.281 C 488.812 324.281 489.164 324.281 489.516 324.281 C 489.516 325.336 489.516 326.391 489.516 327.445 C 489.867 327.445 490.219 327.445 490.570 327.445 C 490.570 328.500 490.570 329.555 490.570 330.609 C 490.922 330.609 491.273 330.609 491.625 330.609 C 491.625 331.312 491.625 332.016 491.625 332.719 C 491.977 332.719 492.328 332.719 492.680 332.719 C 492.680 333.773 492.680 334.828 492.680 335.883 C 493.031 335.883 493.383 335.883 493.734 335.883 C 493.734 336.586 493.734 337.289 493.734 337.992 C 494.086 337.992 494.438 337.992 494.789 337.992 C 494.789 338.695 494.789 339.398 494.789 340.102 C 495.141 340.102 495.492 340.102 495.844 340.102 C 495.844 340.453 495.844 340.805 495.844 341.156 C 496.195 341.156 496.547 341.156 496.898 341.156 C 496.898 341.859 496.898 342.562 496.898 343.266 C 497.250 343.266 497.602 343.266 497.953 343.266 C 497.953 343.969 497.953 344.672 497.953 345.375 C 498.305 345.375 498.656 345.375 499.008 345.375 C 499.008 345.727 499.008 346.078 499.008 346.430 C 499.359 346.430 499.711 346.430 500.062 346.430 C 500.062 347.133 500.062 347.836 500.062 348.539 C 500.414 348.539 500.766 348.539 501.117 348.539 C 501.117 349.242 501.117 349.945 501.117 350.648 C 501.469 350.648 501.820 350.648 502.172 350.648 C 502.172 351.000 502.172 351.352 502.172 351.703 C 502.523 351.703 502.875 351.703 503.227 351.703 C 503.227 352.055 503.227 352.406 503.227 352.758 C 503.578 352.758 503.930 352.758 504.281 352.758 C 504.281 353.461 504.281 354.164 504.281 354.867 C 504.633 354.867 504.984 354.867 505.336 354.867 C 505.336 355.219 505.336 355.570 505.336 355.922 C 505.688 355.922 506.039 355.922 506.391 355.922 C 506.391 356.625 506.391 357.328 506.391 358.031 C 506.742 358.031 507.094 358.031 507.445 358.031 C 507.445 358.383 507.445 358.734 507.445 359.086 C 507.797 359.086 508.148 359.086 508.500 359.086 C 508.500 359.438 508.500 359.789 508.500 360.141 C 508.852 360.141 509.203 360.141 509.555 360.141 C 509.555 360.844 509.555 361.547 509.555 362.250 C 509.906 362.250 510.258 362.250 510.609 362.250 C 510.609 362.602 510.609 362.953 510.609 363.305 C 510.961 363.305 511.312 363.305 511.664 363.305 C 511.664 363.656 511.664 364.008 511.664 364.359 C 512.016 364.359 512.367 364.359 512.719 364.359 C 512.719 365.062 512.719 365.766 512.719 366.469 C 513.070 366.469 513.422 366.469 513.773 366.469 C 513.773 366.820 513.773 367.172 513.773 367.523 C 514.125 367.523 514.477 367.523 514.828 367.523 C 514.828 367.875 514.828 368.227 514.828 368.578 C 515.180 368.578 515.531 368.578 515.883 368.578 C 515.883 369.281 515.883 369.984 515.883 370.688 C 516.234 370.688 516.586 370.688 516.938 370.688 C 516.938 371.039 516.938 371.391 516.938 371.742 C 517.289 371.742 517.641 371.742 517.992 371.742 C 517.992 372.094 517.992 372.445 517.992 372.797 C 518.344 372.797 518.695 372.797 519.047 372.797 C 519.047 373.500 519.047 374.203 519.047 374.906 C 519.398 374.906 519.750 374.906 520.102 374.906 C 520.102 375.258 520.102 375.609 520.102 375.961 C 520.453 375.961 520.805 375.961 521.156 375.961 C 521.156 376.312 521.156 376.664 521.156 377.016 C 521.508 377.016 521.859 377.016 522.211 377.016 C 522.211 377.719 522.211 378.422 522.211 379.125 C 522.562 379.125 522.914 379.125 523.266 379.125 C 523.266 379.477 523.266 379.828 523.266 380.180 C 523.617 380.180 523.969 380.180 524.320 380.180 C 524.320 380.883 524.320 381.586 524.320 382.289 C 524.672 382.289 525.023 382.289 525.375 382.289 C 525.375 382.641 525.375 382.992 525.375 383.344 C 525.727 383.344 526.078 383.344 526.430 383.344 C 526.430 384.047 526.430 384.750 526.430 385.453 C 526.781 385.453 527.133 385.453 527.484 385.453 C 527.484 385.805 527.484 386.156 527.484 386.508 C 527.836 386.508 528.188 386.508 528.539 386.508 C 528.539 387.211 528.539 387.914 528.539 388.617 C 528.891 388.617 529.242 388.617 529.594 388.617 C 529.594 388.969 529.594 389.320 529.594 389.672 C 529.945 389.672 530.297 389.672 530.648 389.672 C 530.648 390.375 530.648 391.078 530.648 391.781 C 531.000 391.781 531.352 391.781 531.703 391.781 C 531.703 392.133 531.703 392.484 531.703 392.836 C 532.055 392.836 532.406 392.836 532.758 392.836 C 532.758 393.539 532.758 394.242 532.758 394.945 C 533.109 394.945 533.461 394.945 533.812 394.945 C 533.812 395.648 533.812 396.352 533.812 397.055 C 534.164 397.055 534.516 397.055 534.867 397.055 C 534.867 397.758 534.867 398.461 534.867 399.164 C 535.219 399.164 535.570 399.164 535.922 399.164 C 535.922 399.867 535.922 400.570 535.922 401.273 C 536.273 401.273 536.625 401.273 536.977 401.273 C 536.977 401.977 536.977 402.680 536.977 403.383 C 537.328 403.383 537.680 403.383 538.031 403.383 C 538.031 404.086 538.031 404.789 538.031 405.492 C 538.383 405.492 538.734 405.492 539.086 405.492 C 539.086 406.195 539.086 406.898 539.086 407.602 C 539.438 407.602 539.789 407.602 540.141 407.602 C 540.141 408.305 540.141 409.008 540.141 409.711 C 540.492 409.711 540.844 409.711 541.195 409.711 C 541.195 410.414 541.195 411.117 541.195 411.820 C 541.547 411.820 541.898 411.820 542.250 411.820 C 542.250 412.875 542.250 413.930 542.250 414.984 C 542.602 414.984 542.953 414.984 543.305 414.984 C 543.305 415.688 543.305 416.391 543.305 417.094 C 543.656 417.094 544.008 417.094 544.359 417.094 C 544.359 418.148 544.359 419.203 544.359 420.258 C 544.711 420.258 545.062 420.258 545.414 420.258 C 545.414 421.664 545.414 423.070 545.414 424.477 C 545.766 424.477 546.117 424.477 546.469 424.477 C 546.469 425.531 546.469 426.586 546.469 427.641 C 546.820 427.641 547.172 427.641 547.523 427.641 C 547.523 429.398 547.523 431.156 547.523 432.914 C 547.875 432.914 548.227 432.914 548.578 432.914 C 548.578 435.375 548.578 437.836 548.578 440.297 C 548.930 440.297 549.281 440.297 549.633 440.297 C 549.633 445.570 549.633 450.844 549.633 456.117 C 549.281 456.117 548.930 456.117 548.578 456.117 C 548.578 458.578 548.578 461.039 548.578 463.500 C 548.227 463.500 547.875 463.500 547.523 463.500 C 547.523 464.906 547.523 466.312 547.523 467.719 C 547.172 467.719 546.820 467.719 546.469 467.719 C 546.469 468.773 546.469 469.828 546.469 470.883 C 546.117 470.883 545.766 470.883 545.414 470.883 C 545.414 471.937 545.414 472.992 545.414 474.047 C 545.062 474.047 544.711 474.047 544.359 474.047 C 544.359 475.102 544.359 476.156 544.359 477.211 C 544.008 477.211 543.656 477.211 543.305 477.211 C 543.305 477.914 543.305 478.617 543.305 479.320 C 542.953 479.320 542.602 479.320 542.250 479.320 C 542.250 480.023 542.250 480.727 542.250 481.430 C 541.898 481.430 541.547 481.430 541.195 481.430 C 541.195 482.133 541.195 482.836 541.195 483.539 C 540.844 483.539 540.492 483.539 540.141 483.539 C 540.141 484.242 540.141 484.945 540.141 485.648 C 539.789 485.648 539.438 485.648 539.086 485.648 C 539.086 486.000 539.086 486.352 539.086 486.703 C 538.734 486.703 538.383 486.703 538.031 486.703 C 538.031 487.406 538.031 488.109 538.031 488.812 C 537.680 488.812 537.328 488.812 536.977 488.812 C 536.977 489.164 536.977 489.516 536.977 489.867 C 536.625 489.867 536.273 489.867 535.922 489.867 C 535.922 490.570 535.922 491.273 535.922 491.977 C 535.570 491.977 535.219 491.977 534.867 491.977 C 534.867 492.328 534.867 492.680 534.867 493.031 C 534.516 493.031 534.164 493.031 533.812 493.031 C 533.812 493.383 533.812 493.734 533.812 494.086 C 533.461 494.086 533.109 494.086 532.758 494.086 C 532.758 494.438 532.758 494.789 532.758 495.141 C 532.406 495.141 532.055 495.141 531.703 495.141 C 531.703 495.844 531.703 496.547 531.703 497.250 C 531.352 497.250 531.000 497.250 530.648 497.250 C 530.648 497.602 530.648 497.953 530.648 498.305 C 530.297 498.305 529.945 498.305 529.594 498.305 C 529.594 498.656 529.594 499.008 529.594 499.359 C 529.242 499.359 528.891 499.359 528.539 499.359 C 528.539 499.711 528.539 500.062 528.539 500.414 C 528.188 500.414 527.836 500.414 527.484 500.414 C 527.484 500.766 527.484 501.117 527.484 501.469 C 527.133 501.469 526.781 501.469 526.430 501.469 C 526.430 501.820 526.430 502.172 526.430 502.523 C 526.078 502.523 525.727 502.523 525.375 502.523 C 525.375 502.875 525.375 503.227 525.375 503.578 C 525.023 503.578 524.672 503.578 524.320 503.578 C 524.320 503.930 524.320 504.281 524.320 504.633 C 523.617 504.633 522.914 504.633 522.211 504.633 C 522.211 504.984 522.211 505.336 522.211 505.688 C 521.859 505.688 521.508 505.688 521.156 505.688 C 521.156 506.039 521.156 506.391 521.156 506.742 C 520.805 506.742 520.453 506.742 520.102 506.742 C 520.102 507.094 520.102 507.445 520.102 507.797 C 519.398 507.797 518.695 507.797 517.992 507.797 C 517.992 508.148 517.992 508.500 517.992 508.852 C 517.641 508.852 517.289 508.852 516.938 508.852 C 516.938 509.203 516.938 509.555 516.938 509.906 C 516.586 509.906 516.234 509.906 515.883 509.906 C 515.883 510.258 515.883 510.609 515.883 510.961 C 515.180 510.961 514.477 510.961 513.773 510.961 C 513.773 511.312 513.773 511.664 513.773 512.016 C 513.422 512.016 513.070 512.016 512.719 512.016 C 512.719 512.367 512.719 512.719 512.719 513.070 C 512.016 513.070 511.312 513.070 510.609 513.070 C 510.609 513.422 510.609 513.773 510.609 514.125 C 509.906 514.125 509.203 514.125 508.500 514.125 C 508.500 514.477 508.500 514.828 508.500 515.180 C 507.797 515.180 507.094 515.180 506.391 515.180 C 506.391 515.531 506.391 515.883 506.391 516.234 C 505.688 516.234 504.984 516.234 504.281 516.234 C 504.281 516.586 504.281 516.938 504.281 517.289 C 503.578 517.289 502.875 517.289 502.172 517.289 C 502.172 517.641 502.172 517.992 502.172 518.344 C 501.469 518.344 500.766 518.344 500.062 518.344 C 500.062 518.695 500.062 519.047 500.062 519.398 C 499.359 519.398 498.656 519.398 497.953 519.398 C 497.953 519.750 497.953 520.102 497.953 520.453 C 497.250 520.453 496.547 520.453 495.844 520.453 C 495.844 520.805 495.844 521.156 495.844 521.508 C 494.789 521.508 493.734 521.508 492.680 521.508 C 492.680 521.859 492.680 522.211 492.680 522.562 C 491.625 522.562 490.570 522.562 489.516 522.562 C 489.516 522.914 489.516 523.266 489.516 523.617 C 488.461 523.617 487.406 523.617 486.352 523.617 C 486.352 523.969 486.352 524.320 486.352 524.672 C 485.297 524.672 484.242 524.672 483.188 524.672 C 483.188 525.023 483.188 525.375 483.188 525.727 C 481.781 525.727 480.375 525.727 478.969 525.727 C 478.969 526.078 478.969 526.430 478.969 526.781 C 477.562 526.781 476.156 526.781 474.750 526.781 C 474.750 527.133 474.750 527.484 474.750 527.836 C 473.344 527.836 471.938 527.836 470.531 527.836 C 470.531 528.188 470.531 528.539 470.531 528.891 C 468.773 528.891 467.016 528.891 465.258 528.891 C 465.258 529.242 465.258 529.594 465.258 529.945 C 463.148 529.945 461.039 529.945 458.930 529.945 C 458.930 530.297 458.930 530.648 458.930 531.000 C 456.820 531.000 454.711 531.000 452.602 531.000 C 452.602 531.352 452.602 531.703 452.602 532.055 C 450.141 532.055 447.680 532.055 445.219 532.055 C 445.219 532.406 445.219 532.758 445.219 533.109 C 442.758 533.109 440.297 533.109 437.836 533.109 C 437.836 533.461 437.836 533.812 437.836 534.164 C 435.375 534.164 432.914 534.164 430.453 534.164 C 430.453 534.516 430.453 534.867 430.453 535.219 C 428.695 535.219 426.938 535.219 425.180 535.219 C 425.180 535.570 425.180 535.922 425.180 536.273 C 423.422 536.273 421.664 536.273 419.906 536.273 C 419.906 536.625 419.906 536.977 419.906 537.328 C 418.500 537.328 417.094 537.328 415.688 537.328 C 415.688 537.680 415.688 538.031 415.688 538.383 C 414.633 538.383 413.578 538.383 412.523 538.383 C 412.523 538.734 412.523 539.086 412.523 539.438 C 411.469 539.438 410.414 539.438 409.359 539.438 C 409.359 539.789 409.359 540.141 409.359 540.492 C 408.305 540.492 407.250 540.492 406.195 540.492 C 406.195 540.844 406.195 541.195 406.195 541.547 C 405.492 541.547 404.789 541.547 404.086 541.547 C 404.086 541.898 404.086 542.250 404.086 542.602 C 403.031 542.602 401.977 542.602 400.922 542.602 C 400.922 542.953 400.922 543.305 400.922 543.656 C 400.219 543.656 399.516 543.656 398.812 543.656 C 398.812 544.008 398.812 544.359 398.812 544.711 C 398.109 544.711 397.406 544.711 396.703 544.711 C 396.703 545.062 396.703 545.414 396.703 545.766 C 396.352 545.766 396.000 545.766 395.648 545.766 C 395.648 546.117 395.648 546.469 395.648 546.820 C 394.945 546.820 394.242 546.820 393.539 546.820 C 393.539 547.172 393.539 547.523 393.539 547.875 C 392.836 547.875 392.133 547.875 391.430 547.875 C 391.430 548.227 391.430 548.578 391.430 548.930 C 391.078 548.930 390.727 548.930 390.375 548.930 C 390.375 549.281 390.375 549.633 390.375 549.984 C 389.672 549.984 388.969 549.984 388.266 549.984 C 388.266 550.336 388.266 550.688 388.266 551.039 C 387.562 551.039 386.859 551.039 386.156 551.039 C 386.156 551.391 386.156 551.742 386.156 552.094 C 385.805 552.094 385.453 552.094 385.102 552.094 C 385.102 552.445 385.102 552.797 385.102 553.148 C 384.750 553.148 384.398 553.148 384.047 553.148 C 384.047 553.500 384.047 553.852 384.047 554.203 C 383.344 554.203 382.641 554.203 381.938 554.203 C 381.938 554.555 381.938 554.906 381.938 555.258 C 381.586 555.258 381.234 555.258 380.883 555.258 C 380.883 555.609 380.883 555.961 380.883 556.312 C 380.180 556.312 379.477 556.312 378.773 556.312 C 378.773 556.664 378.773 557.016 378.773 557.367 C 378.422 557.367 378.070 557.367 377.719 557.367 C 377.719 557.719 377.719 558.070 377.719 558.422 C 377.367 558.422 377.016 558.422 376.664 558.422 C 376.664 558.773 376.664 559.125 376.664 559.477 C 375.961 559.477 375.258 559.477 374.555 559.477 C 374.555 559.828 374.555 560.180 374.555 560.531 C 374.203 560.531 373.852 560.531 373.500 560.531 C 373.500 560.883 373.500 561.234 373.500 561.586 C 373.148 561.586 372.797 561.586 372.445 561.586 C 372.445 561.938 372.445 562.289 372.445 562.641 C 371.742 562.641 371.039 562.641 370.336 562.641 C 370.336 562.992 370.336 563.344 370.336 563.695 C 369.984 563.695 369.633 563.695 369.281 563.695 C 369.281 564.047 369.281 564.398 369.281 564.750 C 368.930 564.750 368.578 564.750 368.227 564.750 C 368.227 565.102 368.227 565.453 368.227 565.805 C 367.523 565.805 366.820 565.805 366.117 565.805 C 366.117 566.156 366.117 566.508 366.117 566.859 C 365.766 566.859 365.414 566.859 365.062 566.859 C 365.062 567.211 365.062 567.562 365.062 567.914 C 364.711 567.914 364.359 567.914 364.008 567.914 C 364.008 568.266 364.008 568.617 364.008 568.969 C 363.305 568.969 362.602 568.969 361.898 568.969 C 361.898 569.320 361.898 569.672 361.898 570.023 C 361.547 570.023 361.195 570.023 360.844 570.023 C 360.844 570.375 360.844 570.727 360.844 571.078 C 360.492 571.078 360.141 571.078 359.789 571.078 C 359.789 571.430 359.789 571.781 359.789 572.133 C 359.086 572.133 358.383 572.133 357.680 572.133 C 357.680 572.484 357.680 572.836 357.680 573.188 C 357.328 573.188 356.977 573.188 356.625 573.188 C 356.625 573.539 356.625 573.891 356.625 574.242 C 355.922 574.242 355.219 574.242 354.516 574.242 C 354.516 574.594 354.516 574.945 354.516 575.297 C 354.164 575.297 353.812 575.297 353.461 575.297 C 353.461 575.648 353.461 576.000 353.461 576.352 C 352.758 576.352 352.055 576.352 351.352 576.352 C 351.352 576.703 351.352 577.055 351.352 577.406 C 351.000 577.406 350.648 577.406 350.297 577.406 C 350.297 577.758 350.297 578.109 350.297 578.461 C 349.594 578.461 348.891 578.461 348.188 578.461 C 348.188 578.812 348.188 579.164 348.188 579.516 C 347.836 579.516 347.484 579.516 347.133 579.516 C 347.133 579.867 347.133 580.219 347.133 580.570 C 346.430 580.570 345.727 580.570 345.023 580.570 C 345.023 580.922 345.023 581.273 345.023 581.625 C 344.672 581.625 344.320 581.625 343.969 581.625 C 343.969 581.977 343.969 582.328 343.969 582.680 C 343.266 582.680 342.562 582.680 341.859 582.680 C 341.859 583.031 341.859 583.383 341.859 583.734 C 341.156 583.734 340.453 583.734 339.750 583.734 C 339.750 584.086 339.750 584.438 339.750 584.789 C 339.047 584.789 338.344 584.789 337.641 584.789 C 337.641 585.141 337.641 585.492 337.641 585.844 C 336.938 585.844 336.234 585.844 335.531 585.844 C 335.531 586.195 335.531 586.547 335.531 586.898 C 334.828 586.898 334.125 586.898 333.422 586.898 C 333.422 587.250 333.422 587.602 333.422 587.953 C 332.719 587.953 332.016 587.953 331.312 587.953 C 331.312 588.305 331.312 588.656 331.312 589.008 C 330.609 589.008 329.906 589.008 329.203 589.008 C 329.203 589.359 329.203 589.711 329.203 590.062 C 328.500 590.062 327.797 590.062 327.094 590.062 C 327.094 590.414 327.094 590.766 327.094 591.117 C 326.391 591.117 325.688 591.117 324.984 591.117 C 324.984 591.469 324.984 591.820 324.984 592.172 C 323.930 592.172 322.875 592.172 321.820 592.172 C 321.820 592.523 321.820 592.875 321.820 593.227 C 321.117 593.227 320.414 593.227 319.711 593.227 C 319.711 593.578 319.711 593.930 319.711 594.281 C 318.656 594.281 317.602 594.281 316.547 594.281 C 316.547 594.633 316.547 594.984 316.547 595.336 C 315.141 595.336 313.734 595.336 312.328 595.336 C 312.328 595.688 312.328 596.039 312.328 596.391 C 311.273 596.391 310.219 596.391 309.164 596.391 C 309.164 596.742 309.164 597.094 309.164 597.445 C 307.406 597.445 305.648 597.445 303.891 597.445 C 303.891 597.797 303.891 598.148 303.891 598.500 C 301.430 598.500 298.969 598.500 296.508 598.500 C 296.508 598.852 296.508 599.203 296.508 599.555 C 291.234 599.555 285.961 599.555 280.688 599.555 C 280.688 599.203 280.688 598.852 280.688 598.500 C 278.227 598.500 275.766 598.500 273.305 598.500 C 273.305 598.148 273.305 597.797 273.305 597.445 C 271.898 597.445 270.492 597.445 269.086 597.445 C 269.086 597.094 269.086 596.742 269.086 596.391 C 268.031 596.391 266.977 596.391 265.922 596.391 C 265.922 596.039 265.922 595.688 265.922 595.336 C 264.867 595.336 263.813 595.336 262.758 595.336 C 262.758 594.984 262.758 594.633 262.758 594.281 C 261.703 594.281 260.648 594.281 259.594 594.281 C 259.594 593.930 259.594 593.578 259.594 593.227 C 258.891 593.227 258.188 593.227 257.484 593.227 C 257.484 592.875 257.484 592.523 257.484 592.172 C 256.781 592.172 256.078 592.172 255.375 592.172 C 255.375 591.820 255.375 591.469 255.375 591.117 C 254.672 591.117 253.969 591.117 253.266 591.117 C 253.266 590.766 253.266 590.414 253.266 590.062 C 252.562 590.062 251.859 590.062 251.156 590.062 C 251.156 589.711 251.156 589.359 251.156 589.008 C 250.805 589.008 250.453 589.008 250.102 589.008 C 250.102 588.656 250.102 588.305 250.102 587.953 C 249.398 587.953 248.695 587.953 247.992 587.953 C 247.992 587.602 247.992 587.250 247.992 586.898 C 247.641 586.898 247.289 586.898 246.938 586.898 C 246.938 586.547 246.938 586.195 246.938 585.844 C 246.234 585.844 245.531 585.844 244.828 585.844 C 244.828 585.492 244.828 585.141 244.828 584.789 C 244.477 584.789 244.125 584.789 243.773 584.789 C 243.773 584.438 243.773 584.086 243.773 583.734 C 243.422 583.734 243.070 583.734 242.719 583.734 C 242.719 583.383 242.719 583.031 242.719 582.680 C 242.367 582.680 242.016 582.680 241.664 582.680 C 241.664 582.328 241.664 581.977 241.664 581.625 C 240.961 581.625 240.258 581.625 239.555 581.625 C 239.555 581.273 239.555 580.922 239.555 580.570 C 239.203 580.570 238.852 580.570 238.500 580.570 C 238.500 580.219 238.500 579.867 238.500 579.516 C 238.148 579.516 237.797 579.516 237.445 579.516 C 237.445 579.164 237.445 578.812 237.445 578.461 C 237.094 578.461 236.742 578.461 236.391 578.461 C 236.391 578.109 236.391 577.758 236.391 577.406 C 236.039 577.406 235.688 577.406 235.336 577.406 C 235.336 577.055 235.336 576.703 235.336 576.352 C 234.984 576.352 234.633 576.352 234.281 576.352 C 234.281 576.000 234.281 575.648 234.281 575.297 C 233.930 575.297 233.578 575.297 233.227 575.297 C 233.227 574.945 233.227 574.594 233.227 574.242 C 232.875 574.242 232.523 574.242 232.172 574.242 C 232.172 573.539 232.172 572.836 232.172 572.133 C 231.820 572.133 231.469 572.133 231.117 572.133 C 231.117 571.781 231.117 571.430 231.117 571.078 C 230.766 571.078 230.414 571.078 230.062 571.078 C 230.062 570.727 230.062 570.375 230.062 570.023 C 229.711 570.023 229.359 570.023 229.008 570.023 C 229.008 569.320 229.008 568.617 229.008 567.914 C 228.656 567.914 228.305 567.914 227.953 567.914 C 227.953 567.562 227.953 567.211 227.953 566.859 C 227.602 566.859 227.250 566.859 226.898 566.859 C 226.898 566.508 226.898 566.156 226.898 565.805 C 226.547 565.805 226.195 565.805 225.844 565.805 C 225.844 565.102 225.844 564.398 225.844 563.695 C 225.492 563.695 225.141 563.695 224.789 563.695 C 224.789 563.344 224.789 562.992 224.789 562.641 C 224.438 562.641 224.086 562.641 223.734 562.641 C 223.734 561.938 223.734 561.234 223.734 560.531 C 223.383 560.531 223.031 560.531 222.680 560.531 C 222.680 559.828 222.680 559.125 222.680 558.422 C 222.328 558.422 221.977 558.422 221.625 558.422 C 221.625 557.719 221.625 557.016 221.625 556.312 C 221.273 556.312 220.922 556.312 220.570 556.312 C 220.570 555.609 220.570 554.906 220.570 554.203 C 220.219 554.203 219.867 554.203 219.516 554.203 C 219.516 553.500 219.516 552.797 219.516 552.094 C 219.164 552.094 218.812 552.094 218.461 552.094 C 218.461 551.391 218.461 550.688 218.461 549.984 C 218.109 549.984 217.758 549.984 217.406 549.984 C 217.406 549.281 217.406 548.578 217.406 547.875 C 217.055 547.875 216.703 547.875 216.352 547.875 C 216.352 547.172 216.352 546.469 216.352 545.766 C 216.000 545.766 215.648 545.766 215.297 545.766 C 215.297 544.711 215.297 543.656 215.297 542.602 C 214.945 542.602 214.594 542.602 214.242 542.602 C 214.242 541.547 214.242 540.492 214.242 539.438 C 213.891 539.438 213.539 539.438 213.188 539.438 C 213.188 538.383 213.188 537.328 213.188 536.273 C 212.836 536.273 212.484 536.273 212.133 536.273 C 212.133 535.219 212.133 534.164 212.133 533.109 C 211.781 533.109 211.430 533.109 211.078 533.109 C 211.078 531.703 211.078 530.297 211.078 528.891 C 210.727 528.891 210.375 528.891 210.023 528.891 C 210.023 527.484 210.023 526.078 210.023 524.672 C 209.672 524.672 209.320 524.672 208.969 524.672 C 208.969 523.266 208.969 521.859 208.969 520.453 C 208.617 520.453 208.266 520.453 207.914 520.453 C 207.914 518.695 207.914 516.937 207.914 515.180 C 207.562 515.180 207.211 515.180 206.859 515.180 C 206.859 513.070 206.859 510.961 206.859 508.852 C 206.508 508.852 206.156 508.852 205.805 508.852 C 205.805 506.742 205.805 504.633 205.805 502.523 C 205.453 502.523 205.102 502.523 204.750 502.523 C 204.750 500.063 204.750 497.602 204.750 495.141 C 204.398 495.141 204.047 495.141 203.695 495.141 C 203.695 492.680 203.695 490.219 203.695 487.758 C 203.344 487.758 202.992 487.758 202.641 487.758 C 202.641 485.297 202.641 482.836 202.641 480.375 C 202.289 480.375 201.938 480.375 201.586 480.375 C 201.586 478.617 201.586 476.859 201.586 475.102 C 201.234 475.102 200.883 475.102 200.531 475.102 C 200.531 473.344 200.531 471.586 200.531 469.828 C 200.180 469.828 199.828 469.828 199.477 469.828 C 199.477 468.422 199.477 467.016 199.477 465.609 C 199.125 465.609 198.773 465.609 198.422 465.609 C 198.422 464.555 198.422 463.500 198.422 462.445 C 198.070 462.445 197.719 462.445 197.367 462.445 C 197.367 461.391 197.367 460.336 197.367 459.281 C 197.016 459.281 196.664 459.281 196.312 459.281 C 196.312 458.227 196.312 457.172 196.312 456.117 C 195.961 456.117 195.609 456.117 195.258 456.117 C 195.258 455.414 195.258 454.711 195.258 454.008 C 194.906 454.008 194.555 454.008 194.203 454.008 C 194.203 452.953 194.203 451.898 194.203 450.844 C 193.852 450.844 193.500 450.844 193.148 450.844 C 193.148 450.141 193.148 449.438 193.148 448.734 C 192.797 448.734 192.445 448.734 192.094 448.734 C 192.094 448.031 192.094 447.328 192.094 446.625 C 191.742 446.625 191.391 446.625 191.039 446.625 C 191.039 446.273 191.039 445.922 191.039 445.570 C 190.688 445.570 190.336 445.570 189.984 445.570 C 189.984 444.867 189.984 444.164 189.984 443.461 C 189.633 443.461 189.281 443.461 188.930 443.461 C 188.930 442.758 188.930 442.055 188.930 441.352 C 188.578 441.352 188.227 441.352 187.875 441.352 C 187.875 441.000 187.875 440.648 187.875 440.297 C 187.523 440.297 187.172 440.297 186.820 440.297 C 186.820 439.594 186.820 438.891 186.820 438.188 C 186.469 438.188 186.117 438.188 185.766 438.188 C 185.766 437.484 185.766 436.781 185.766 436.078 C 185.414 436.078 185.062 436.078 184.711 436.078 C 184.711 435.727 184.711 435.375 184.711 435.023 C 184.359 435.023 184.008 435.023 183.656 435.023 C 183.656 434.672 183.656 434.320 183.656 433.969 C 183.305 433.969 182.953 433.969 182.602 433.969 C 182.602 433.266 182.602 432.562 182.602 431.859 C 182.250 431.859 181.898 431.859 181.547 431.859 C 181.547 431.508 181.547 431.156 181.547 430.805 C 181.195 430.805 180.844 430.805 180.492 430.805 C 180.492 430.102 180.492 429.398 180.492 428.695 C 180.141 428.695 179.789 428.695 179.438 428.695 C 179.438 428.344 179.438 427.992 179.438 427.641 C 179.086 427.641 178.734 427.641 178.383 427.641 C 178.383 427.289 178.383 426.938 178.383 426.586 C 178.031 426.586 177.680 426.586 177.328 426.586 C 177.328 425.883 177.328 425.180 177.328 424.477 C 176.977 424.477 176.625 424.477 176.273 424.477 C 176.273 424.125 176.273 423.773 176.273 423.422 C 175.922 423.422 175.570 423.422 175.219 423.422 C 175.219 423.070 175.219 422.719 175.219 422.367 C 174.867 422.367 174.516 422.367 174.164 422.367 C 174.164 421.664 174.164 420.961 174.164 420.258 C 173.812 420.258 173.461 420.258 173.109 420.258 C 173.109 419.906 173.109 419.555 173.109 419.203 C 172.758 419.203 172.406 419.203 172.055 419.203 C 172.055 418.852 172.055 418.500 172.055 418.148 C 171.703 418.148 171.352 418.148 171.000 418.148 C 171.000 417.445 171.000 416.742 171.000 416.039 C 170.648 416.039 170.297 416.039 169.945 416.039 C 169.945 415.688 169.945 415.336 169.945 414.984 C 169.594 414.984 169.242 414.984 168.891 414.984 C 168.891 414.633 168.891 414.281 168.891 413.930 C 168.539 413.930 168.188 413.930 167.836 413.930 C 167.836 413.227 167.836 412.523 167.836 411.820 C 167.484 411.820 167.133 411.820 166.781 411.820 C 166.781 411.469 166.781 411.117 166.781 410.766 C 166.430 410.766 166.078 410.766 165.727 410.766 C 165.727 410.414 165.727 410.062 165.727 409.711 C 165.375 409.711 165.023 409.711 164.672 409.711 C 164.672 409.008 164.672 408.305 164.672 407.602 C 164.320 407.602 163.969 407.602 163.617 407.602 C 163.617 407.250 163.617 406.898 163.617 406.547 C 163.266 406.547 162.914 406.547 162.562 406.547 C 162.562 405.844 162.562 405.141 162.562 404.438 C 162.211 404.438 161.859 404.438 161.508 404.438 C 161.508 404.086 161.508 403.734 161.508 403.383 C 161.156 403.383 160.805 403.383 160.453 403.383 C 160.453 402.680 160.453 401.977 160.453 401.273 C 160.102 401.273 159.750 401.273 159.398 401.273 C 159.398 400.922 159.398 400.570 159.398 400.219 C 159.047 400.219 158.695 400.219 158.344 400.219 C 158.344 399.516 158.344 398.812 158.344 398.109 C 157.992 398.109 157.641 398.109 157.289 398.109 C 157.289 397.758 157.289 397.406 157.289 397.055 C 156.938 397.055 156.586 397.055 156.234 397.055 C 156.234 396.352 156.234 395.648 156.234 394.945 C 155.883 394.945 155.531 394.945 155.180 394.945 C 155.180 394.242 155.180 393.539 155.180 392.836 C 154.828 392.836 154.477 392.836 154.125 392.836 C 154.125 392.484 154.125 392.133 154.125 391.781 C 153.773 391.781 153.422 391.781 153.070 391.781 C 153.070 391.078 153.070 390.375 153.070 389.672 C 152.719 389.672 152.367 389.672 152.016 389.672 C 152.016 388.969 152.016 388.266 152.016 387.562 C 151.664 387.562 151.312 387.562 150.961 387.562 C 150.961 386.859 150.961 386.156 150.961 385.453 C 150.609 385.453 150.258 385.453 149.906 385.453 C 149.906 384.750 149.906 384.047 149.906 383.344 C 149.555 383.344 149.203 383.344 148.852 383.344 C 148.852 382.641 148.852 381.938 148.852 381.234 C 148.500 381.234 148.148 381.234 147.797 381.234 C 147.797 380.531 147.797 379.828 147.797 379.125 C 147.445 379.125 147.094 379.125 146.742 379.125 C 146.742 378.422 146.742 377.719 146.742 377.016 C 146.391 377.016 146.039 377.016 145.688 377.016 C 145.688 376.312 145.688 375.609 145.688 374.906 C 145.336 374.906 144.984 374.906 144.633 374.906 C 144.633 373.852 144.633 372.797 144.633 371.742 C 144.281 371.742 143.930 371.742 143.578 371.742 C 143.578 371.039 143.578 370.336 143.578 369.633 C 143.227 369.633 142.875 369.633 142.523 369.633 C 142.523 368.578 142.523 367.523 142.523 366.469 C 142.172 366.469 141.820 366.469 141.469 366.469 C 141.469 365.062 141.469 363.656 141.469 362.250 C 141.117 362.250 140.766 362.250 140.414 362.250 C 140.414 361.195 140.414 360.141 140.414 359.086 C 140.062 359.086 139.711 359.086 139.359 359.086 C 139.359 357.328 139.359 355.570 139.359 353.812 C 139.008 353.812 138.656 353.812 138.305 353.812 C 138.305 351.352 138.305 348.891 138.305 346.430 C 137.953 346.430 137.602 346.430 137.250 346.430 C 137.250 341.156 137.250 335.883 137.250 330.609 C 137.602 330.609 137.953 330.609 138.305 330.609 C 138.305 328.148 138.305 325.688 138.305 323.227 C 138.656 323.227 139.008 323.227 139.359 323.227 C 139.359 321.820 139.359 320.414 139.359 319.008 C 139.711 319.008 140.062 319.008 140.414 319.008 C 140.414 317.953 140.414 316.898 140.414 315.844 C 140.766 315.844 141.117 315.844 141.469 315.844 C 141.469 314.789 141.469 313.734 141.469 312.680 C 141.820 312.680 142.172 312.680 142.523 312.680 C 142.523 311.625 142.523 310.570 142.523 309.516 C 142.875 309.516 143.227 309.516 143.578 309.516 C 143.578 308.812 143.578 308.109 143.578 307.406 C 143.930 307.406 144.281 307.406 144.633 307.406 C 144.633 306.703 144.633 306.000 144.633 305.297 C 144.984 305.297 145.336 305.297 145.688 305.297 C 145.688 304.594 145.688 303.891 145.688 303.188 C 146.039 303.188 146.391 303.188 146.742 303.188 C 146.742 302.484 146.742 301.781 146.742 301.078 C 147.094 301.078 147.445 301.078 147.797 301.078 C 147.797 300.727 147.797 300.375 147.797 300.023 C 148.148 300.023 148.500 300.023 148.852 300.023 C 148.852 299.320 148.852 298.617 148.852 297.914 C 149.203 297.914 149.555 297.914 149.906 297.914 C 149.906 297.562 149.906 297.211 149.906 296.859 C 150.258 296.859 150.609 296.859 150.961 296.859 C 150.961 296.156 150.961 295.453 150.961 294.750 C 151.312 294.750 151.664 294.750 152.016 294.750 C 152.016 294.398 152.016 294.047 152.016 293.695 C 152.367 293.695 152.719 293.695 153.070 293.695 C 153.070 293.344 153.070 292.992 153.070 292.641 C 153.422 292.641 153.773 292.641 154.125 292.641 C 154.125 292.289 154.125 291.938 154.125 291.586 C 154.477 291.586 154.828 291.586 155.180 291.586 C 155.180 290.883 155.180 290.180 155.180 289.477 C 155.531 289.477 155.883 289.477 156.234 289.477 C 156.234 289.125 156.234 288.773 156.234 288.422 C 156.586 288.422 156.938 288.422 157.289 288.422 C 157.289 288.070 157.289 287.719 157.289 287.367 C 157.641 287.367 157.992 287.367 158.344 287.367 C 158.344 287.016 158.344 286.664 158.344 286.312 C 158.695 286.312 159.047 286.312 159.398 286.312 C 159.398 285.961 159.398 285.609 159.398 285.258 C 159.750 285.258 160.102 285.258 160.453 285.258 C 160.453 284.906 160.453 284.555 160.453 284.203 C 160.805 284.203 161.156 284.203 161.508 284.203 C 161.508 283.852 161.508 283.500 161.508 283.148 C 161.859 283.148 162.211 283.148 162.562 283.148 C 162.562 282.797 162.562 282.445 162.562 282.094 C 163.266 282.094 163.969 282.094 164.672 282.094 C 164.672 281.742 164.672 281.391 164.672 281.039 C 165.023 281.039 165.375 281.039 165.727 281.039 C 165.727 280.688 165.727 280.336 165.727 279.984 C 166.078 279.984 166.430 279.984 166.781 279.984 C 166.781 279.633 166.781 279.281 166.781 278.930 C 167.484 278.930 168.188 278.930 168.891 278.930 C 168.891 278.578 168.891 278.227 168.891 277.875 C 169.242 277.875 169.594 277.875 169.945 277.875 C 169.945 277.523 169.945 277.172 169.945 276.820 C 170.297 276.820 170.648 276.820 171.000 276.820 C 171.000 276.469 171.000 276.117 171.000 275.766 C 171.703 275.766 172.406 275.766 173.109 275.766 C 173.109 275.414 173.109 275.062 173.109 274.711 C 173.461 274.711 173.812 274.711 174.164 274.711 C 174.164 274.359 174.164 274.008 174.164 273.656 C 174.867 273.656 175.570 273.656 176.273 273.656 C 176.273 273.305 176.273 272.953 176.273 272.602 C 176.977 272.602 177.680 272.602 178.383 272.602 C 178.383 272.250 178.383 271.898 178.383 271.547 C 179.086 271.547 179.789 271.547 180.492 271.547 C 180.492 271.195 180.492 270.844 180.492 270.492 C 181.195 270.492 181.898 270.492 182.602 270.492 C 182.602 270.141 182.602 269.789 182.602 269.438 C 183.305 269.438 184.008 269.438 184.711 269.438 C 184.711 269.086 184.711 268.734 184.711 268.383 C 185.414 268.383 186.117 268.383 186.820 268.383 C 186.820 268.031 186.820 267.680 186.820 267.328 C 187.523 267.328 188.227 267.328 188.930 267.328 C 188.930 266.977 188.930 266.625 188.930 266.273 C 189.633 266.273 190.336 266.273 191.039 266.273 C 191.039 265.922 191.039 265.570 191.039 265.219 C 192.094 265.219 193.148 265.219 194.203 265.219 C 194.203 264.867 194.203 264.516 194.203 264.164 C 195.258 264.164 196.313 264.164 197.367 264.164 C 197.367 263.812 197.367 263.461 197.367 263.109 C 198.422 263.109 199.477 263.109 200.531 263.109 C 200.531 262.758 200.531 262.406 200.531 262.055 C 201.586 262.055 202.641 262.055 203.695 262.055 C 203.695 261.703 203.695 261.352 203.695 261.000 C 205.102 261.000 206.508 261.000 207.914 261.000 C 207.914 260.648 207.914 260.297 207.914 259.945 C 209.320 259.945 210.727 259.945 212.133 259.945 C 212.133 259.594 212.133 259.242 212.133 258.891 C 213.539 258.891 214.945 258.891 216.352 258.891 C 216.352 258.539 216.352 258.188 216.352 257.836 C 218.109 257.836 219.867 257.836 221.625 257.836 C 221.625 257.484 221.625 257.133 221.625 256.781 C 223.734 256.781 225.844 256.781 227.953 256.781 C 227.953 256.430 227.953 256.078 227.953 255.727 C 230.062 255.727 232.172 255.727 234.281 255.727 C 234.281 255.375 234.281 255.023 234.281 254.672 C 236.742 254.672 239.203 254.672 241.664 254.672 C 241.664 254.320 241.664 253.969 241.664 253.617 C 244.125 253.617 246.586 253.617 249.047 253.617 C 249.047 253.266 249.047 252.914 249.047 252.562 C 251.508 252.562 253.969 252.562 256.430 252.562 C 256.430 252.211 256.430 251.859 256.430 251.508 C 258.187 251.508 259.945 251.508 261.703 251.508 C 261.703 251.156 261.703 250.805 261.703 250.453 C 263.461 250.453 265.219 250.453 266.977 250.453 C 266.977 250.102 266.977 249.750 266.977 249.398 C 268.383 249.398 269.789 249.398 271.195 249.398 C 271.195 249.047 271.195 248.695 271.195 248.344 C 272.250 248.344 273.305 248.344 274.359 248.344 C 274.359 247.992 274.359 247.641 274.359 247.289 C 275.414 247.289 276.469 247.289 277.523 247.289 C 277.523 246.938 277.523 246.586 277.523 246.234 C 278.578 246.234 279.633 246.234 280.688 246.234 C 280.688 245.883 280.688 245.531 280.688 245.180 C 281.391 245.180 282.094 245.180 282.797 245.180 C 282.797 244.828 282.797 244.477 282.797 244.125 C 283.852 244.125 284.906 244.125 285.961 244.125 C 285.961 243.773 285.961 243.422 285.961 243.070 C 286.664 243.070 287.367 243.070 288.070 243.070 C 288.070 242.719 288.070 242.367 288.070 242.016 C 288.773 242.016 289.477 242.016 290.180 242.016 C 290.180 241.664 290.180 241.312 290.180 240.961 C 290.531 240.961 290.883 240.961 291.234 240.961 C 291.234 240.609 291.234 240.258 291.234 239.906 C 291.938 239.906 292.641 239.906 293.344 239.906 C 293.344 239.555 293.344 239.203 293.344 238.852 C 294.047 238.852 294.750 238.852 295.453 238.852 C 295.453 238.500 295.453 238.148 295.453 237.797 C 295.805 237.797 296.156 237.797 296.508 237.797 C 296.508 237.445 296.508 237.094 296.508 236.742 C 297.211 236.742 297.914 236.742 298.617 236.742 C 298.617 236.391 298.617 236.039 298.617 235.688 C 299.320 235.688 300.023 235.688 300.727 235.688 C 300.727 235.336 300.727 234.984 300.727 234.633 C 301.078 234.633 301.430 234.633 301.781 234.633 C 301.781 234.281 301.781 233.930 301.781 233.578 C 302.133 233.578 302.484 233.578 302.836 233.578 C 302.836 233.227 302.836 232.875 302.836 232.523 C 303.539 232.523 304.242 232.523 304.945 232.523 C 304.945 232.172 304.945 231.820 304.945 231.469 C 305.297 231.469 305.648 231.469 306.000 231.469 C 306.000 231.117 306.000 230.766 306.000 230.414 C 306.703 230.414 307.406 230.414 308.109 230.414 C 308.109 230.062 308.109 229.711 308.109 229.359 C 308.461 229.359 308.812 229.359 309.164 229.359 C 309.164 229.008 309.164 228.656 309.164 228.305 C 309.516 228.305 309.867 228.305 310.219 228.305 C 310.219 227.953 310.219 227.602 310.219 227.250 C 310.922 227.250 311.625 227.250 312.328 227.250 C 312.328 226.898 312.328 226.547 312.328 226.195 C 312.680 226.195 313.031 226.195 313.383 226.195 C 313.383 225.844 313.383 225.492 313.383 225.141 C 313.734 225.141 314.086 225.141 314.438 225.141 C 314.438 224.789 314.438 224.438 314.438 224.086 C 315.141 224.086 315.844 224.086 316.547 224.086 C 316.547 223.734 316.547 223.383 316.547 223.031 C 316.898 223.031 317.250 223.031 317.602 223.031 C 317.602 222.680 317.602 222.328 317.602 221.977 C 317.953 221.977 318.305 221.977 318.656 221.977 C 318.656 221.625 318.656 221.273 318.656 220.922 C 319.359 220.922 320.062 220.922 320.766 220.922 C 320.766 220.570 320.766 220.219 320.766 219.867 C 321.117 219.867 321.469 219.867 321.820 219.867 C 321.820 219.516 321.820 219.164 321.820 218.812 C 322.172 218.812 322.523 218.812 322.875 218.812 C 322.875 218.461 322.875 218.109 322.875 217.758 C 323.578 217.758 324.281 217.758 324.984 217.758 C 324.984 217.406 324.984 217.055 324.984 216.703 C 325.336 216.703 325.688 216.703 326.039 216.703 C 326.039 216.352 326.039 216.000 326.039 215.648 C 326.391 215.648 326.742 215.648 327.094 215.648 C 327.094 215.297 327.094 214.945 327.094 214.594 C 327.797 214.594 328.500 214.594 329.203 214.594 C 329.203 214.242 329.203 213.891 329.203 213.539 C 329.555 213.539 329.906 213.539 330.258 213.539 C 330.258 213.188 330.258 212.836 330.258 212.484 C 330.961 212.484 331.664 212.484 332.367 212.484 C 332.367 212.133 332.367 211.781 332.367 211.430 C 332.719 211.430 333.070 211.430 333.422 211.430 C 333.422 211.078 333.422 210.727 333.422 210.375 C 334.125 210.375 334.828 210.375 335.531 210.375 C 335.531 210.023 335.531 209.672 335.531 209.320 C 335.883 209.320 336.234 209.320 336.586 209.320 C 336.586 208.969 336.586 208.617 336.586 208.266 C 337.289 208.266 337.992 208.266 338.695 208.266 C 338.695 207.914 338.695 207.562 338.695 207.211 C 339.047 207.211 339.398 207.211 339.750 207.211 C 339.750 206.859 339.750 206.508 339.750 206.156 C 340.453 206.156 341.156 206.156 341.859 206.156 C 341.859 205.805 341.859 205.453 341.859 205.102 C 342.211 205.102 342.562 205.102 342.914 205.102 C 342.914 204.750 342.914 204.398 342.914 204.047 C 343.617 204.047 344.320 204.047 345.023 204.047 C 345.023 203.695 345.023 203.344 345.023 202.992 C 345.727 202.992 346.430 202.992 347.133 202.992 C 347.133 202.641 347.133 202.289 347.133 201.938 C 347.836 201.938 348.539 201.938 349.242 201.938 C 349.242 201.586 349.242 201.234 349.242 200.883 C 349.945 200.883 350.648 200.883 351.352 200.883 C 351.352 200.531 351.352 200.180 351.352 199.828 C 352.055 199.828 352.758 199.828 353.461 199.828 C 353.461 199.477 353.461 199.125 353.461 198.773 C 354.164 198.773 354.867 198.773 355.570 198.773 C 355.570 198.422 355.570 198.070 355.570 197.719 C 356.273 197.719 356.977 197.719 357.680 197.719 C 357.680 197.367 357.680 197.016 357.680 196.664 C 358.383 196.664 359.086 196.664 359.789 196.664 C 359.789 196.312 359.789 195.961 359.789 195.609 C 360.492 195.609 361.195 195.609 361.898 195.609 C 361.898 195.258 361.898 194.906 361.898 194.555 C 362.953 194.555 364.008 194.555 365.062 194.555 C 365.062 194.203 365.062 193.852 365.062 193.500 C 365.766 193.500 366.469 193.500 367.172 193.500 C 367.172 193.148 367.172 192.797 367.172 192.445 C 368.227 192.445 369.281 192.445 370.336 192.445 C 370.336 192.094 370.336 191.742 370.336 191.391 C 371.742 191.391 373.148 191.391 374.555 191.391 C 374.555 191.039 374.555 190.688 374.555 190.336 C 375.609 190.336 376.664 190.336 377.719 190.336 C 377.719 189.984 377.719 189.633 377.719 189.281 C 379.477 189.281 381.234 189.281 382.992 189.281 C 382.992 188.930 382.992 188.578 382.992 188.227 C 385.453 188.227 387.914 188.227 390.375 188.227 C 390.375 187.875 390.375 187.523 390.375 187.172 Z"/>
<path id="arc-4" data-left="1" data-right="0" d="M 36.000 666.000 C 216.000 666.000 396.000 666.000 576.000 666.000"/>
</g>
<g id="labels" font-family="DejaVu Sans" fill="#000" text-anchor="middle" dominant-baseline="central">
<text id="label-0" x="127.758" y="574.242" font-size="14.000">1</text>
<text id="label-1" x="343.441" y="393.363" font-size="14.000">2</text>
</g>
<g id="leaders" stroke="#000" stroke-width="0.250">
</g>
<g id="legend" font-family="DejaVu Sans" font-size="8.000">
<rect id="chip-0" x="20.000" y="20.000" width="20.000" height="20.000" rx="1.500" fill="#ca6285" stroke="#000" stroke-width="0.300"/>
<text id="chip-number-0" x="42.000" y="30.000" fill="#000" dominant-baseline="central">1</text>
<rect id="chip-1" x="46.000" y="20.000" width="20.000" height="20.000" rx="1.500" fill="#c86858" stroke="#000" stroke-width="0.300"/>
<text id="chip-number-1" x="68.000" y="30.000" fill="#000" dominant-baseline="central">2</text>
<rect id="chip-2" x="72.000" y="20.000" width="20.000" height="20.000" rx="1.500" fill="#ad7938" stroke="#000" stroke-width="0.300"/>
<text id="chip-number-2" x="94.000" y="30.000" fill="#000" dominant-baseline="central">3</text>
<rect id="chip-3" x="98.000" y="20.000" width="20.000" height="20.000" rx="1.500" fill="#838936" stroke="#000" stroke-width="0.300"/>
<text id="chip-number-3" x="120.000" y="30.000" fill="#000" dominant-baseline="central">4</text>
<rect id="chip-4" x="124.000" y="20.000" width="20.000" height="20.000" rx="1.500" fill="#4b9354" stroke="#000" stroke-width="0.300"/>
<text id="chip-number-4" x="146.000" y="30.000" fill="#000" dominant-baseline="central">5</text>
<rect id="chip-5" x="150.000" y="20.000" width="20.000" height="20.000" rx="1.500" fill="#009782" stroke="#000" stroke-width="0.300"/>
<text id="chip-number-5" x="172.000" y="30.000" fill="#000" dominant-baseline="central">6</text>
<rect id="chip-6" x="176.000" y="20.000" width="20.000" height="20.000" rx="1.500" fill="#0096b0" stroke="#000" stroke-width="0.300"/>
<text id="chip-number-6" x="198.000" y="30.000" fill="#000" dominant-baseline="central">7</text>
<rect id="chip-7" x="202.000" y="20.000" width="20.000" height="20.000" rx="1.500" fill="#008ecd" stroke="#000" stroke-width="0.300"/>
<text id="chip-number-7" x="224.000" y="30.000" fill="#000" dominant-baseline="central">8</text>
<rect id="chip-8" x="228.000" y="20.000" width="20.000" height="20.000" rx="1.500" fill="#6c80ce" stroke="#000" stroke-width="0.300"/>
<text id="chip-number-8" x="250.000" y="30.000" fill="#000" dominant-baseline="central">9</text>
<rect id="chip-9" x="254.000" y="20.000" width="20.000" height="20.000" rx="1.500" fill="#ac6db2" stroke="#000" stroke-width="0.300"/>
<text id="chip-number-9" x="276.000" y="30.000" fill="#000" dominant-baseline="central">10</text>
</g>
<g id="frame" fill="none" stroke="#000" stroke-width="0.300">
<rect id="content-frame" x="36.000" y="36.000" width="540.000" height="720.000"/>
</g>
</svg>
