<?xml version="1.0" encoding="UTF-8"?>
<!-- mystery-cbn svg 1.0.0 -->
<svg xmlns="http://www.w3.org/2000/svg" version="1.1" width="215.900mm" height="279.400mm" viewBox="0 0 612.000 792.000">
<g id="regions" fill="none" stroke="#000" stroke-width="0.300" stroke-linecap="round" stroke-linejoin="round">
<path id="arc-0" data-left="0" data-right="5" d="M 36.000 126.000 C 81.000 126.000 126.000 126.000 171.000 126.000"/>
<path id="arc-1" data-left="5" data-right="0" d="M 36.000 126.000 C 36.000 171.000 36.000 216.000 36.000 261.000"/>
<path id="arc-2" data-left="0" data-right="8" d="M 171.000 126.000 C 199.828 126.000 228.656 126.000 257.484 126.000"/>
<path id="arc-3" data-left="8" data-right="5" d="M 171.000 126.000 C 171.000 156.234 171.000 186.469 171.000 216.703"/>
<path id="arc-4" data-left="2" data-right="8" d="M 257.484 126.000 C 257.484 126.352 257.484 126.703 257.484 127.055 C 256.430 127.055 255.375 127.055 254.320 127.055 C 254.320 127.406 254.320 127.758 254.320 128.109 C 253.617 128.109 252.914 128.109 252.211 128.109 C 252.211 128.461 252.211 128.812 252.211 129.164 C 251.508 129.164 250.805 129.164 250.102 129.164 C 250.102 129.516 250.102 129.867 250.102 130.219 C 249.750 130.219 249.398 130.219 249.047 130.219 C 249.047 130.570 249.047 130.922 249.047 131.273 C 248.344 131.273 247.641 131.273 246.938 131.273 C 246.938 131.625 246.938 131.977 246.938 132.328 C 246.234 132.328 245.531 132.328 244.828 132.328 C 244.828 132.680 244.828 133.031 244.828 133.383 C 244.125 133.383 243.422 133.383 242.719 133.383 C 242.719 133.734 242.719 134.086 242.719 134.438 C 242.367 134.438 242.016 134.438 241.664 134.438 C 241.664 134.789 241.664 135.141 241.664 135.492 C 240.961 135.492 240.258 135.492 239.555 135.492 C 239.555 135.844 239.555 136.195 239.555 136.547 C 238.852 136.547 238.148 136.547 237.445 136.547 C 237.445 136.898 237.445 137.250 237.445 137.602 C 237.094 137.602 236.742 137.602 236.391 137.602 C 236.391 137.953 236.391 138.305 236.391 138.656 C 235.688 138.656 234.984 138.656 234.281 138.656 C 234.281 139.008 234.281 139.359 234.281 139.711 C 233.930 139.711 233.578 139.711 233.227 139.711 C 233.227 140.062 233.227 140.414 233.227 140.766 C 232.875 140.766 232.523 140.766 232.172 140.766 C 232.172 141.117 232.172 141.469 232.172 141.820 C 231.469 141.820 230.766 141.820 230.062 141.820 C 230.062 142.172 230.062 142.523 230.062 142.875 C 229.711 142.875 229.359 142.875 229.008 142.875 C 229.008 143.227 229.008 143.578 229.008 143.930 C 228.656 143.930 228.305 143.930 227.953 143.930 C 227.953 144.281 227.953 144.633 227.953 144.984 C 227.250 144.984 226.547 144.984 225.844 144.984 C 225.844 145.336 225.844 145.688 225.844 146.039 C 225.492 146.039 225.141 146.039 224.789 146.039 C 224.789 146.391 224.789 146.742 224.789 147.094 C 224.438 147.094 224.086 147.094 223.734 147.094 C 223.734 147.445 223.734 147.797 223.734 148.148 C 223.383 148.148 223.031 148.148 222.680 148.148 C 222.680 148.500 222.680 148.852 222.680 149.203 C 222.328 149.203 221.977 149.203 221.625 149.203 C 221.625 149.555 221.625 149.906 221.625 150.258 C 220.922 150.258 220.219 150.258 219.516 150.258 C 219.516 150.609 219.516 150.961 219.516 151.312 C 219.164 151.312 218.812 151.312 218.461 151.312 C 218.461 151.664 218.461 152.016 218.461 152.367 C 218.109 152.367 217.758 152.367 217.406 152.367 C 217.406 152.719 217.406 153.070 217.406 153.422 C 217.055 153.422 216.703 153.422 216.352 153.422 C 216.352 153.773 216.352 154.125 216.352 154.477 C 216.000 154.477 215.648 154.477 215.297 154.477 C 215.297 154.828 215.297 155.180 215.297 155.531 C 214.945 155.531 214.594 155.531 214.242 155.531 C 214.242 155.883 214.242 156.234 214.242 156.586 C 213.891 156.586 213.539 156.586 213.188 156.586 C 213.188 156.938 213.188 157.289 213.188 157.641 C 212.836 157.641 212.484 157.641 212.133 157.641 C 212.133 157.992 212.133 158.344 212.133 158.695 C 211.781 158.695 211.430 158.695 211.078 158.695 C 211.078 159.047 211.078 159.398 211.078 159.750 C 210.727 159.750 210.375 159.750 210.023 159.750 C 210.023 160.102 210.023 160.453 210.023 160.805 C 209.672 160.805 209.320 160.805 208.969 160.805 C 208.969 161.156 208.969 161.508 208.969 161.859 C 208.617 161.859 208.266 161.859 207.914 161.859 C 207.914 162.211 207.914 162.562 207.914 162.914 C 207.562 162.914 207.211 162.914 206.859 162.914 C 206.859 163.266 206.859 163.617 206.859 163.969 C 206.508 163.969 206.156 163.969 205.805 163.969 C 205.805 164.320 205.805 164.672 205.805 165.023 C 205.453 165.023 205.102 165.023 204.750 165.023 C 204.750 165.727 204.750 166.430 204.750 167.133 C 204.398 167.133 204.047 167.133 203.695 167.133 C 203.695 167.484 203.695 167.836 203.695 168.188 C 203.344 168.188 202.992 168.188 202.641 168.188 C 202.641 168.539 202.641 168.891 202.641 169.242 C 202.289 169.242 201.938 169.242 201.586 169.242 C 201.586 169.594 201.586 169.945 201.586 170.297 C 201.234 170.297 200.883 170.297 200.531 170.297 C 200.531 170.648 200.531 171.000 200.531 171.352 C 200.180 171.352 199.828 171.352 199.477 171.352 C 199.477 172.055 199.477 172.758 199.477 173.461 C 199.125 173.461 198.773 173.461 198.422 173.461 C 198.422 173.812 198.422 174.164 198.422 174.516 C 198.070 174.516 197.719 174.516 197.367 174.516 C 197.367 174.867 197.367 175.219 197.367 175.570 C 197.016 175.570 196.664 175.570 196.312 175.570 C 196.312 175.922 196.312 176.273 196.312 176.625 C 195.961 176.625 195.609 176.625 195.258 176.625 C 195.258 177.328 195.258 178.031 195.258 178.734 C 194.906 178.734 194.555 178.734 194.203 178.734 C 194.203 179.086 194.203 179.438 194.203 179.789 C 193.852 179.789 193.500 179.789 193.148 179.789 C 193.148 180.141 193.148 180.492 193.148 180.844 C 192.797 180.844 192.445 180.844 192.094 180.844 C 192.094 181.547 192.094 182.250 192.094 182.953 C 191.742 182.953 191.391 182.953 191.039 182.953 C 191.039 183.305 191.039 183.656 191.039 184.008 C 190.688 184.008 190.336 184.008 189.984 184.008 C 189.984 184.711 189.984 185.414 189.984 186.117 C 189.633 186.117 189.281 186.117 188.930 186.117 C 188.930 186.469 188.930 186.820 188.930 187.172 C 188.578 187.172 188.227 187.172 187.875 187.172 C 187.875 187.875 187.875 188.578 187.875 189.281 C 187.523 189.281 187.172 189.281 186.820 189.281 C 186.820 189.633 186.820 189.984 186.820 190.336 C 186.469 190.336 186.117 190.336 185.766 190.336 C 185.766 191.039 185.766 191.742 185.766 192.445 C 185.414 192.445 185.062 192.445 184.711 192.445 C 184.711 192.797 184.711 193.148 184.711 193.500 C 184.359 193.500 184.008 193.500 183.656 193.500 C 183.656 194.203 183.656 194.906 183.656 195.609 C 183.305 195.609 182.953 195.609 182.602 195.609 C 182.602 196.312 182.602 197.016 182.602 197.719 C 182.250 197.719 181.898 197.719 181.547 197.719 C 181.547 198.070 181.547 198.422 181.547 198.773 C 181.195 198.773 180.844 198.773 180.492 198.773 C 180.492 199.477 180.492 200.180 180.492 200.883 C 180.141 200.883 179.789 200.883 179.438 200.883 C 179.438 201.586 179.438 202.289 179.438 202.992 C 179.086 202.992 178.734 202.992 178.383 202.992 C 178.383 203.695 178.383 204.398 178.383 205.102 C 178.031 205.102 177.680 205.102 177.328 205.102 C 177.328 205.805 177.328 206.508 177.328 207.211 C 176.977 207.211 176.625 207.211 176.273 207.211 C 176.273 207.562 176.273 207.914 176.273 208.266 C 175.922 208.266 175.570 208.266 175.219 208.266 C 175.219 208.969 175.219 209.672 175.219 210.375 C 174.867 210.375 174.516 210.375 174.164 210.375 C 174.164 211.078 174.164 211.781 174.164 212.484 C 173.812 212.484 173.461 212.484 173.109 212.484 C 173.109 213.188 173.109 213.891 173.109 214.594 C 172.758 214.594 172.406 214.594 172.055 214.594 C 172.055 215.297 172.055 216.000 172.055 216.703 C 171.703 216.703 171.352 216.703 171.000 216.703"/>
<path id="arc-5" data-left="0" data-right="2" d="M 257.484 126.000 C 290.180 126.000 322.875 126.000 355.570 126.000"/>
<path id="arc-6" data-left="0" data-right="7" d="M 355.570 126.000 C 384.047 126.000 412.523 126.000 441.000 126.000"/>
<path id="arc-7" data-left="7" data-right="2" d="M 355.570 126.000 C 355.570 126.352 355.570 126.703 355.570 127.055 C 356.625 127.055 357.680 127.055 358.734 127.055 C 358.734 127.406 358.734 127.758 358.734 128.109 C 359.438 128.109 360.141 128.109 360.844 128.109 C 360.844 128.461 360.844 128.812 360.844 129.164 C 361.547 129.164 362.250 129.164 362.953 129.164 C 362.953 129.516 362.953 129.867 362.953 130.219 C 363.305 130.219 363.656 130.219 364.008 130.219 C 364.008 130.570 364.008 130.922 364.008 131.273 C 364.711 131.273 365.414 131.273 366.117 131.273 C 366.117 131.625 366.117 131.977 366.117 132.328 C 366.820 132.328 367.523 132.328 368.227 132.328 C 368.227 132.680 368.227 133.031 368.227 133.383 C 368.930 133.383 369.633 133.383 370.336 133.383 C 370.336 133.734 370.336 134.086 370.336 134.438 C 370.688 134.438 371.039 134.438 371.391 134.438 C 371.391 134.789 371.391 135.141 371.391 135.492 C 372.094 135.492 372.797 135.492 373.500 135.492 C 373.500 135.844 373.500 136.195 373.500 136.547 C 374.203 136.547 374.906 136.547 375.609 136.547 C 375.609 136.898 375.609 137.250 375.609 137.602 C 375.961 137.602 376.312 137.602 376.664 137.602 C 376.664 137.953 376.664 138.305 376.664 138.656 C 377.367 138.656 378.070 138.656 378.773 138.656 C 378.773 139.008 378.773 139.359 378.773 139.711 C 379.125 139.711 379.477 139.711 379.828 139.711 C 379.828 140.062 379.828 140.414 379.828 140.766 C 380.180 140.766 380.531 140.766 380.883 140.766 C 380.883 141.117 380.883 141.469 380.883 141.820 C 381.586 141.820 382.289 141.820 382.992 141.820 C 382.992 142.172 382.992 142.523 382.992 142.875 C 383.344 142.875 383.695 142.875 384.047 142.875 C 384.047 143.227 384.047 143.578 384.047 143.930 C 384.398 143.930 384.750 143.930 385.102 143.930 C 385.102 144.281 385.102 144.633 385.102 144.984 C 385.805 144.984 386.508 144.984 387.211 144.984 C 387.211 145.336 387.211 145.688 387.211 146.039 C 387.562 146.039 387.914 146.039 388.266 146.039 C 388.266 146.391 388.266 146.742 388.266 147.094 C 388.617 147.094 388.969 147.094 389.320 147.094 C 389.320 147.445 389.320 147.797 389.320 148.148 C 389.672 148.148 390.023 148.148 390.375 148.148 C 390.375 148.500 390.375 148.852 390.375 149.203 C 390.727 149.203 391.078 149.203 391.430 149.203 C 391.430 149.555 391.430 149.906 391.430 150.258 C 392.133 150.258 392.836 150.258 393.539 150.258 C 393.539 150.609 393.539 150.961 393.539 151.312 C 393.891 151.312 394.242 151.312 394.594 151.312 C 394.594 151.664 394.594 152.016 394.594 152.367 C 394.945 152.367 395.297 152.367 395.648 152.367 C 395.648 152.719 395.648 153.070 395.648 153.422 C 396.000 153.422 396.352 153.422 396.703 153.422 C 396.703 153.773 396.703 154.125 396.703 154.477 C 397.055 154.477 397.406 154.477 397.758 154.477 C 397.758 154.828 397.758 155.180 397.758 155.531 C 398.109 155.531 398.461 155.531 398.812 155.531 C 398.812 155.883 398.812 156.234 398.812 156.586 C 399.164 156.586 399.516 156.586 399.867 156.586 C 399.867 156.938 399.867 157.289 399.867 157.641 C 400.219 157.641 400.570 157.641 400.922 157.641 C 400.922 157.992 400.922 158.344 400.922 158.695 C 401.273 158.695 401.625 158.695 401.977 158.695 C 401.977 159.047 401.977 159.398 401.977 159.750 C 402.328 159.750 402.680 159.750 403.031 159.750 C 403.031 160.102 403.031 160.453 403.031 160.805 C 403.383 160.805 403.734 160.805 404.086 160.805 C 404.086 161.156 404.086 161.508 404.086 161.859 C 404.438 161.859 404.789 161.859 405.141 161.859 C 405.141 162.211 405.141 162.562 405.141 162.914 C 405.492 162.914 405.844 162.914 406.195 162.914 C 406.195 163.266 406.195 163.617 406.195 163.969 C 406.547 163.969 406.898 163.969 407.250 163.969 C 407.250 164.320 407.250 164.672 407.250 165.023 C 407.602 165.023 407.953 165.023 408.305 165.023 C 408.305 165.727 408.305 166.430 408.305 167.133 C 408.656 167.133 409.008 167.133 409.359 167.133 C 409.359 167.484 409.359 167.836 409.359 168.188 C 409.711 168.188 410.062 168.188 410.414 168.188 C 410.414 168.539 410.414 168.891 410.414 169.242 C 410.766 169.242 411.117 169.242 411.469 169.242 C 411.469 169.594 411.469 169.945 411.469 170.297 C 411.820 170.297 412.172 170.297 412.523 170.297 C 412.523 170.648 412.523 171.000 412.523 171.352 C 412.875 171.352 413.227 171.352 413.578 171.352 C 413.578 172.055 413.578 172.758 413.578 173.461 C 413.930 173.461 414.281 173.461 414.633 173.461 C 414.633 173.812 414.633 174.164 414.633 174.516 C 414.984 174.516 415.336 174.516 415.688 174.516 C 415.688 174.867 415.688 175.219 415.688 175.570 C 416.039 175.570 416.391 175.570 416.742 175.570 C 416.742 175.922 416.742 176.273 416.742 176.625 C 417.094 176.625 417.445 176.625 417.797 176.625 C 417.797 177.328 417.797 178.031 417.797 178.734 C 418.148 178.734 418.500 178.734 418.852 178.734 C 418.852 179.086 418.852 179.438 418.852 179.789 C 419.203 179.789 419.555 179.789 419.906 179.789 C 419.906 180.141 419.906 180.492 419.906 180.844 C 420.258 180.844 420.609 180.844 420.961 180.844 C 420.961 181.547 420.961 182.250 420.961 182.953 C 421.312 182.953 421.664 182.953 422.016 182.953 C 422.016 183.305 422.016 183.656 422.016 184.008 C 422.367 184.008 422.719 184.008 423.070 184.008 C 423.070 184.711 423.070 185.414 423.070 186.117 C 423.422 186.117 423.773 186.117 424.125 186.117 C 424.125 186.469 424.125 186.820 424.125 187.172 C 424.477 187.172 424.828 187.172 425.180 187.172 C 425.180 187.875 425.180 188.578 425.180 189.281 C 425.531 189.281 425.883 189.281 426.234 189.281 C 426.234 189.633 426.234 189.984 426.234 190.336 C 426.586 190.336 426.938 190.336 427.289 190.336 C 427.289 191.039 427.289 191.742 427.289 192.445 C 427.641 192.445 427.992 192.445 428.344 192.445 C 428.344 192.797 428.344 193.148 428.344 193.500 C 428.695 193.500 429.047 193.500 429.398 193.500 C 429.398 194.203 429.398 194.906 429.398 195.609 C 429.750 195.609 430.102 195.609 430.453 195.609 C 430.453 196.312 430.453 197.016 430.453 197.719 C 430.805 197.719 431.156 197.719 431.508 197.719 C 431.508 198.070 431.508 198.422 431.508 198.773 C 431.859 198.773 432.211 198.773 432.562 198.773 C 432.562 199.477 432.562 200.180 432.562 200.883 C 432.914 200.883 433.266 200.883 433.617 200.883 C 433.617 201.586 433.617 202.289 433.617 202.992 C 433.969 202.992 434.320 202.992 434.672 202.992 C 434.672 203.695 434.672 204.398 434.672 205.102 C 435.023 205.102 435.375 205.102 435.727 205.102 C 435.727 205.805 435.727 206.508 435.727 207.211 C 436.078 207.211 436.430 207.211 436.781 207.211 C 436.781 207.562 436.781 207.914 436.781 208.266 C 437.133 208.266 437.484 208.266 437.836 208.266 C 437.836 208.969 437.836 209.672 437.836 210.375 C 438.188 210.375 438.539 210.375 438.891 210.375 C 438.891 211.078 438.891 211.781 438.891 212.484 C 439.242 212.484 439.594 212.484 439.945 212.484 C 439.945 213.188 439.945 213.891 439.945 214.594 C 440.297 214.594 440.648 214.594 441.000 214.594"/>
<path id="arc-8" data-left="0" data-right="10" d="M 441.000 126.000 C 486.000 126.000 531.000 126.000 576.000 126.000"/>
<path id="arc-9" data-left="10" data-right="7" d="M 441.000 126.000 C 441.000 155.531 441.000 185.062 441.000 214.594"/>
<path id="arc-10" data-left="0" data-right="10" d="M 576.000 126.000 C 576.000 171.000 576.000 216.000 576.000 261.000"/>
<path id="arc-11" data-left="2" data-right="3" d="M 296.508 191.391 C 303.188 191.391 309.867 191.391 316.547 191.391 C 316.547 191.742 316.547 192.094 316.547 192.445 C 318.656 192.445 320.766 192.445 322.875 192.445 C 322.875 192.797 322.875 193.148 322.875 193.500 C 324.281 193.500 325.688 193.500 327.094 193.500 C 327.094 193.852 327.094 194.203 327.094 194.555 C 328.148 194.555 329.203 194.555 330.258 194.555 C 330.258 194.906 330.258 195.258 330.258 195.609 C 331.312 195.609 332.367 195.609 333.422 195.609 C 333.422 195.961 333.422 196.312 333.422 196.664 C 334.477 196.664 335.531 196.664 336.586 196.664 C 336.586 197.016 336.586 197.367 336.586 197.719 C 337.289 197.719 337.992 197.719 338.695 197.719 C 338.695 198.070 338.695 198.422 338.695 198.773 C 339.398 198.773 340.102 198.773 340.805 198.773 C 340.805 199.125 340.805 199.477 340.805 199.828 C 341.508 199.828 342.211 199.828 342.914 199.828 C 342.914 200.180 342.914 200.531 342.914 200.883 C 343.617 200.883 344.320 200.883 345.023 200.883 C 345.023 201.234 345.023 201.586 345.023 201.938 C 345.727 201.938 346.430 201.938 347.133 201.938 C 347.133 202.289 347.133 202.641 347.133 202.992 C 347.836 202.992 348.539 202.992 349.242 202.992 C 349.242 203.344 349.242 203.695 349.242 204.047 C 349.594 204.047 349.945 204.047 350.297 204.047 C 350.297 204.398 350.297 204.750 350.297 205.102 C 351.000 205.102 351.703 205.102 352.406 205.102 C 352.406 205.453 352.406 205.805 352.406 206.156 C 352.758 206.156 353.109 206.156 353.461 206.156 C 353.461 206.508 353.461 206.859 353.461 207.211 C 354.164 207.211 354.867 207.211 355.570 207.211 C 355.570 207.562 355.570 207.914 355.570 208.266 C 355.922 208.266 356.273 208.266 356.625 208.266 C 356.625 208.617 356.625 208.969 356.625 209.320 C 357.328 209.320 358.031 209.320 358.734 209.320 C 358.734 209.672 358.734 210.023 358.734 210.375 C 359.086 210.375 359.438 210.375 359.789 210.375 C 359.789 210.727 359.789 211.078 359.789 211.430 C 360.141 211.430 360.492 211.430 360.844 211.430 C 360.844 211.781 360.844 212.133 360.844 212.484 C 361.195 212.484 361.547 212.484 361.898 212.484 C 361.898 212.836 361.898 213.188 361.898 213.539 C 362.602 213.539 363.305 213.539 364.008 213.539 C 364.008 213.891 364.008 214.242 364.008 214.594 C 364.359 214.594 364.711 214.594 365.062 214.594 C 365.062 214.945 365.062 215.297 365.062 215.648 C 365.414 215.648 365.766 215.648 366.117 215.648 C 366.117 216.000 366.117 216.352 366.117 216.703 C 366.469 216.703 366.820 216.703 367.172 216.703 C 367.172 217.055 367.172 217.406 367.172 217.758 C 367.523 217.758 367.875 217.758 368.227 217.758 C 368.227 218.109 368.227 218.461 368.227 218.812 C 368.578 218.812 368.930 218.812 369.281 218.812 C 369.281 219.164 369.281 219.516 369.281 219.867 C 369.633 219.867 369.984 219.867 370.336 219.867 C 370.336 220.219 370.336 220.570 370.336 220.922 C 370.688 220.922 371.039 220.922 371.391 220.922 C 371.391 221.273 371.391 221.625 371.391 221.977 C 371.742 221.977 372.094 221.977 372.445 221.977 C 372.445 222.328 372.445 222.680 372.445 223.031 C 372.797 223.031 373.148 223.031 373.500 223.031 C 373.500 223.383 373.500 223.734 373.500 224.086 C 373.852 224.086 374.203 224.086 374.555 224.086 C 374.555 224.789 374.555 225.492 374.555 226.195 C 374.906 226.195 375.258 226.195 375.609 226.195 C 375.609 226.547 375.609 226.898 375.609 227.250 C 375.961 227.250 376.312 227.250 376.664 227.250 C 376.664 227.602 376.664 227.953 376.664 228.305 C 377.016 228.305 377.367 228.305 377.719 228.305 C 377.719 228.656 377.719 229.008 377.719 229.359 C 378.070 229.359 378.422 229.359 378.773 229.359 C 378.773 229.711 378.773 230.062 378.773 230.414 C 379.125 230.414 379.477 230.414 379.828 230.414 C 379.828 231.117 379.828 231.820 379.828 232.523 C 380.180 232.523 380.531 232.523 380.883 232.523 C 380.883 232.875 380.883 233.227 380.883 233.578 C 381.234 233.578 381.586 233.578 381.938 233.578 C 381.938 233.930 381.938 234.281 381.938 234.633 C 382.289 234.633 382.641 234.633 382.992 234.633 C 382.992 235.336 382.992 236.039 382.992 236.742 C 383.344 236.742 383.695 236.742 384.047 236.742 C 384.047 237.094 384.047 237.445 384.047 237.797 C 384.398 237.797 384.750 237.797 385.102 237.797 C 385.102 238.500 385.102 239.203 385.102 239.906 C 385.453 239.906 385.805 239.906 386.156 239.906 C 386.156 240.258 386.156 240.609 386.156 240.961 C 386.508 240.961 386.859 240.961 387.211 240.961 C 387.211 241.664 387.211 242.367 387.211 243.070 C 387.562 243.070 387.914 243.070 388.266 243.070 C 388.266 243.422 388.266 243.773 388.266 244.125 C 388.617 244.125 388.969 244.125 389.320 244.125 C 389.320 244.828 389.320 245.531 389.320 246.234 C 389.672 246.234 390.023 246.234 390.375 246.234 C 390.375 246.938 390.375 247.641 390.375 248.344 C 390.727 248.344 391.078 248.344 391.430 248.344 C 391.430 249.047 391.430 249.750 391.430 250.453 C 391.781 250.453 392.133 250.453 392.484 250.453 C 392.484 250.805 392.484 251.156 392.484 251.508 C 392.836 251.508 393.188 251.508 393.539 251.508 C 393.539 252.211 393.539 252.914 393.539 253.617 C 393.891 253.617 394.242 253.617 394.594 253.617 C 394.594 254.320 394.594 255.023 394.594 255.727 C 394.945 255.727 395.297 255.727 395.648 255.727 C 395.648 256.430 395.648 257.133 395.648 257.836 C 396.000 257.836 396.352 257.836 396.703 257.836 C 396.703 258.539 396.703 259.242 396.703 259.945 C 397.055 259.945 397.406 259.945 397.758 259.945 C 397.758 261.000 397.758 262.055 397.758 263.109 C 398.109 263.109 398.461 263.109 398.812 263.109 C 398.812 263.812 398.812 264.516 398.812 265.219 C 399.164 265.219 399.516 265.219 399.867 265.219 C 399.867 265.922 399.867 266.625 399.867 267.328 C 400.219 267.328 400.570 267.328 400.922 267.328 C 400.922 268.383 400.922 269.438 400.922 270.492 C 401.273 270.492 401.625 270.492 401.977 270.492 C 401.977 271.547 401.977 272.602 401.977 273.656 C 402.328 273.656 402.680 273.656 403.031 273.656 C 403.031 274.359 403.031 275.062 403.031 275.766 C 403.383 275.766 403.734 275.766 404.086 275.766 C 404.086 276.820 404.086 277.875 404.086 278.930 C 404.438 278.930 404.789 278.930 405.141 278.930 C 405.141 279.984 405.141 281.039 405.141 282.094 C 405.492 282.094 405.844 282.094 406.195 282.094 C 406.195 283.500 406.195 284.906 406.195 286.312 C 406.547 286.312 406.898 286.312 407.250 286.312 C 407.250 287.367 407.250 288.422 407.250 289.477 C 407.602 289.477 407.953 289.477 408.305 289.477 C 408.305 290.883 408.305 292.289 408.305 293.695 C 408.656 293.695 409.008 293.695 409.359 293.695 C 409.359 295.453 409.359 297.211 409.359 298.969 C 409.711 298.969 410.062 298.969 410.414 298.969 C 410.414 300.727 410.414 302.484 410.414 304.242 C 410.766 304.242 411.117 304.242 411.469 304.242 C 411.469 306.000 411.469 307.758 411.469 309.516 C 411.820 309.516 412.172 309.516 412.523 309.516 C 412.523 312.328 412.523 315.141 412.523 317.953 C 412.875 317.953 413.227 317.953 413.578 317.953 C 413.578 321.820 413.578 325.687 413.578 329.555 C 413.930 329.555 414.281 329.555 414.633 329.555 C 414.633 338.344 414.633 347.133 414.633 355.922 C 414.281 355.922 413.930 355.922 413.578 355.922 C 413.578 359.789 413.578 363.656 413.578 367.523 C 413.227 367.523 412.875 367.523 412.523 367.523 C 412.523 369.984 412.523 372.445 412.523 374.906 C 412.172 374.906 411.820 374.906 411.469 374.906 C 411.469 377.016 411.469 379.125 411.469 381.234 C 411.117 381.234 410.766 381.234 410.414 381.234 C 410.414 382.992 410.414 384.750 410.414 386.508 C 410.062 386.508 409.711 386.508 409.359 386.508 C 409.359 387.914 409.359 389.320 409.359 390.727 C 409.008 390.727 408.656 390.727 408.305 390.727 C 408.305 392.133 408.305 393.539 408.305 394.945 C 407.953 394.945 407.602 394.945 407.250 394.945 C 407.250 396.352 407.250 397.758 407.250 399.164 C 406.898 399.164 406.547 399.164 406.195 399.164 C 406.195 400.219 406.195 401.273 406.195 402.328 C 405.844 402.328 405.492 402.328 405.141 402.328 C 405.141 403.383 405.141 404.438 405.141 405.492 C 404.789 405.492 404.438 405.492 404.086 405.492 C 404.086 406.547 404.086 407.602 404.086 408.656 C 403.734 408.656 403.383 408.656 403.031 408.656 C 403.031 409.711 403.031 410.766 403.031 411.820 C 402.680 411.820 402.328 411.820 401.977 411.820 C 401.977 412.875 401.977 413.930 401.977 414.984 C 401.625 414.984 401.273 414.984 400.922 414.984 C 400.922 415.688 400.922 416.391 400.922 417.094 C 400.570 417.094 400.219 417.094 399.867 417.094 C 399.867 418.148 399.867 419.203 399.867 420.258 C 399.516 420.258 399.164 420.258 398.812 420.258 C 398.812 420.961 398.812 421.664 398.812 422.367 C 398.461 422.367 398.109 422.367 397.758 422.367 C 397.758 423.070 397.758 423.773 397.758 424.477 C 397.406 424.477 397.055 424.477 396.703 424.477 C 396.703 425.180 396.703 425.883 396.703 426.586 C 396.352 426.586 396.000 426.586 395.648 426.586 C 395.648 427.289 395.648 427.992 395.648 428.695 C 395.297 428.695 394.945 428.695 394.594 428.695 C 394.594 429.398 394.594 430.102 394.594 430.805 C 394.242 430.805 393.891 430.805 393.539 430.805 C 393.539 431.508 393.539 432.211 393.539 432.914 C 393.188 432.914 392.836 432.914 392.484 432.914 C 392.484 433.617 392.484 434.320 392.484 435.023 C 392.133 435.023 391.781 435.023 391.430 435.023 C 391.430 435.727 391.430 436.430 391.430 437.133 C 391.078 437.133 390.727 437.133 390.375 437.133 C 390.375 437.836 390.375 438.539 390.375 439.242 C 390.023 439.242 389.672 439.242 389.320 439.242 C 389.320 439.594 389.320 439.945 389.320 440.297 C 388.969 440.297 388.617 440.297 388.266 440.297 C 388.266 441.000 388.266 441.703 388.266 442.406 C 387.914 442.406 387.562 442.406 387.211 442.406 C 387.211 442.758 387.211 443.109 387.211 443.461 C 386.859 443.461 386.508 443.461 386.156 443.461 C 386.156 444.164 386.156 444.867 386.156 445.570 C 385.805 445.570 385.453 445.570 385.102 445.570 C 385.102 445.922 385.102 446.273 385.102 446.625 C 384.750 446.625 384.398 446.625 384.047 446.625 C 384.047 447.328 384.047 448.031 384.047 448.734 C 383.695 448.734 383.344 448.734 382.992 448.734 C 382.992 449.086 382.992 449.438 382.992 449.789 C 382.641 449.789 382.289 449.789 381.938 449.789 C 381.938 450.492 381.938 451.195 381.938 451.898 C 381.586 451.898 381.234 451.898 380.883 451.898 C 380.883 452.250 380.883 452.602 380.883 452.953 C 380.531 452.953 380.180 452.953 379.828 452.953 C 379.828 453.305 379.828 453.656 379.828 454.008 C 379.477 454.008 379.125 454.008 378.773 454.008 C 378.773 454.359 378.773 454.711 378.773 455.062 C 378.422 455.062 378.070 455.062 377.719 455.062 C 377.719 455.766 377.719 456.469 377.719 457.172 C 377.367 457.172 377.016 457.172 376.664 457.172 C 376.664 457.523 376.664 457.875 376.664 458.227 C 376.312 458.227 375.961 458.227 375.609 458.227 C 375.609 458.578 375.609 458.930 375.609 459.281 C 375.258 459.281 374.906 459.281 374.555 459.281 C 374.555 459.633 374.555 459.984 374.555 460.336 C 374.203 460.336 373.852 460.336 373.500 460.336 C 373.500 460.688 373.500 461.039 373.500 461.391 C 373.148 461.391 372.797 461.391 372.445 461.391 C 372.445 461.742 372.445 462.094 372.445 462.445 C 372.094 462.445 371.742 462.445 371.391 462.445 C 371.391 462.797 371.391 463.148 371.391 463.500 C 371.039 463.500 370.688 463.500 370.336 463.500 C 370.336 463.852 370.336 464.203 370.336 464.555 C 369.984 464.555 369.633 464.555 369.281 464.555 C 369.281 464.906 369.281 465.258 369.281 465.609 C 368.930 465.609 368.578 465.609 368.227 465.609 C 368.227 465.961 368.227 466.312 368.227 466.664 C 367.875 466.664 367.523 466.664 367.172 466.664 C 367.172 467.016 367.172 467.367 367.172 467.719 C 366.820 467.719 366.469 467.719 366.117 467.719 C 366.117 468.070 366.117 468.422 366.117 468.773 C 365.766 468.773 365.414 468.773 365.062 468.773 C 365.062 469.125 365.062 469.477 365.062 469.828 C 364.711 469.828 364.359 469.828 364.008 469.828 C 364.008 470.180 364.008 470.531 364.008 470.883 C 363.656 470.883 363.305 470.883 362.953 470.883 C 362.953 471.234 362.953 471.586 362.953 471.938 C 362.602 471.938 362.250 471.938 361.898 471.938 C 361.898 472.289 361.898 472.641 361.898 472.992 C 361.547 472.992 361.195 472.992 360.844 472.992 C 360.844 473.344 360.844 473.695 360.844 474.047 C 360.141 474.047 359.438 474.047 358.734 474.047 C 358.734 474.398 358.734 474.750 358.734 475.102 C 358.383 475.102 358.031 475.102 357.680 475.102 C 357.680 475.453 357.680 475.805 357.680 476.156 C 357.328 476.156 356.977 476.156 356.625 476.156 C 356.625 476.508 356.625 476.859 356.625 477.211 C 355.922 477.211 355.219 477.211 354.516 477.211 C 354.516 477.562 354.516 477.914 354.516 478.266 C 354.164 478.266 353.812 478.266 353.461 478.266 C 353.461 478.617 353.461 478.969 353.461 479.320 C 352.758 479.320 352.055 479.320 351.352 479.320 C 351.352 479.672 351.352 480.023 351.352 480.375 C 351.000 480.375 350.648 480.375 350.297 480.375 C 350.297 480.727 350.297 481.078 350.297 481.430 C 349.594 481.430 348.891 481.430 348.188 481.430 C 348.188 481.781 348.188 482.133 348.188 482.484 C 347.484 482.484 346.781 482.484 346.078 482.484 C 346.078 482.836 346.078 483.188 346.078 483.539 C 345.727 483.539 345.375 483.539 345.023 483.539 C 345.023 483.891 345.023 484.242 345.023 484.594 C 344.320 484.594 343.617 484.594 342.914 484.594 C 342.914 484.945 342.914 485.297 342.914 485.648 C 341.859 485.648 340.805 485.648 339.750 485.648 C 339.750 486.000 339.750 486.352 339.750 486.703 C 339.047 486.703 338.344 486.703 337.641 486.703 C 337.641 487.055 337.641 487.406 337.641 487.758 C 336.938 487.758 336.234 487.758 335.531 487.758 C 335.531 488.109 335.531 488.461 335.531 488.812 C 334.477 488.812 333.422 488.812 332.367 488.812 C 332.367 489.164 332.367 489.516 332.367 489.867 C 331.312 489.867 330.258 489.867 329.203 489.867 C 329.203 490.219 329.203 490.570 329.203 490.922 C 327.797 490.922 326.391 490.922 324.984 490.922 C 324.984 491.273 324.984 491.625 324.984 491.977 C 323.578 491.977 322.172 491.977 320.766 491.977 C 320.766 492.328 320.766 492.680 320.766 493.031 C 317.602 493.031 314.438 493.031 311.273 493.031 C 311.273 493.383 311.273 493.734 311.273 494.086 C 308.109 494.086 304.945 494.086 301.781 494.086 C 301.781 493.734 301.781 493.383 301.781 493.031 C 298.617 493.031 295.453 493.031 292.289 493.031 C 292.289 492.680 292.289 492.328 292.289 491.977 C 290.883 491.977 289.477 491.977 288.070 491.977 C 288.070 491.625 288.070 491.273 288.070 490.922 C 286.664 490.922 285.258 490.922 283.852 490.922 C 283.852 490.570 283.852 490.219 283.852 489.867 C 282.797 489.867 281.742 489.867 280.688 489.867 C 280.688 489.516 280.688 489.164 280.688 488.812 C 279.633 488.812 278.578 488.812 277.523 488.812 C 277.523 488.461 277.523 488.109 277.523 487.758 C 276.820 487.758 276.117 487.758 275.414 487.758 C 275.414 487.406 275.414 487.055 275.414 486.703 C 274.711 486.703 274.008 486.703 273.305 486.703 C 273.305 486.352 273.305 486.000 273.305 485.648 C 272.250 485.648 271.195 485.648 270.141 485.648 C 270.141 485.297 270.141 484.945 270.141 484.594 C 269.438 484.594 268.734 484.594 268.031 484.594 C 268.031 484.242 268.031 483.891 268.031 483.539 C 267.680 483.539 267.328 483.539 266.977 483.539 C 266.977 483.188 266.977 482.836 266.977 482.484 C 266.273 482.484 265.570 482.484 264.867 482.484 C 264.867 482.133 264.867 481.781 264.867 481.430 C 264.164 481.430 263.461 481.430 262.758 481.430 C 262.758 481.078 262.758 480.727 262.758 480.375 C 262.406 480.375 262.055 480.375 261.703 480.375 C 261.703 480.023 261.703 479.672 261.703 479.320 C 261.000 479.320 260.297 479.320 259.594 479.320 C 259.594 478.969 259.594 478.617 259.594 478.266 C 259.242 478.266 258.891 478.266 258.539 478.266 C 258.539 477.914 258.539 477.562 258.539 477.211 C 257.836 477.211 257.133 477.211 256.430 477.211 C 256.430 476.859 256.430 476.508 256.430 476.156 C 256.078 476.156 255.727 476.156 255.375 476.156 C 255.375 475.805 255.375 475.453 255.375 475.102 C 255.023 475.102 254.672 475.102 254.320 475.102 C 254.320 474.750 254.320 474.398 254.320 474.047 C 253.617 474.047 252.914 474.047 252.211 474.047 C 252.211 473.695 252.211 473.344 252.211 472.992 C 251.859 472.992 251.508 472.992 251.156 472.992 C 251.156 472.641 251.156 472.289 251.156 471.938 C 250.805 471.938 250.453 471.938 250.102 471.938 C 250.102 471.586 250.102 471.234 250.102 470.883 C 249.750 470.883 249.398 470.883 249.047 470.883 C 249.047 470.531 249.047 470.180 249.047 469.828 C 248.695 469.828 248.344 469.828 247.992 469.828 C 247.992 469.477 247.992 469.125 247.992 468.773 C 247.641 468.773 247.289 468.773 246.938 468.773 C 246.938 468.422 246.938 468.070 246.938 467.719 C 246.586 467.719 246.234 467.719 245.883 467.719 C 245.883 467.367 245.883 467.016 245.883 466.664 C 245.531 466.664 245.180 466.664 244.828 466.664 C 244.828 466.312 244.828 465.961 244.828 465.609 C 244.477 465.609 244.125 465.609 243.773 465.609 C 243.773 465.258 243.773 464.906 243.773 464.555 C 243.422 464.555 243.070 464.555 242.719 464.555 C 242.719 464.203 242.719 463.852 242.719 463.500 C 242.367 463.500 242.016 463.500 241.664 463.500 C 241.664 463.148 241.664 462.797 241.664 462.445 C 241.312 462.445 240.961 462.445 240.609 462.445 C 240.609 462.094 240.609 461.742 240.609 461.391 C 240.258 461.391 239.906 461.391 239.555 461.391 C 239.555 461.039 239.555 460.688 239.555 460.336 C 239.203 460.336 238.852 460.336 238.500 460.336 C 238.500 459.984 238.500 459.633 238.500 459.281 C 238.148 459.281 237.797 459.281 237.445 459.281 C 237.445 458.930 237.445 458.578 237.445 458.227 C 237.094 458.227 236.742 458.227 236.391 458.227 C 236.391 457.875 236.391 457.523 236.391 457.172 C 236.039 457.172 235.688 457.172 235.336 457.172 C 235.336 456.469 235.336 455.766 235.336 455.062 C 234.984 455.062 234.633 455.062 234.281 455.062 C 234.281 454.711 234.281 454.359 234.281 454.008 C 233.930 454.008 233.578 454.008 233.227 454.008 C 233.227 453.656 233.227 453.305 233.227 452.953 C 232.875 452.953 232.523 452.953 232.172 452.953 C 232.172 452.602 232.172 452.250 232.172 451.898 C 231.820 451.898 231.469 451.898 231.117 451.898 C 231.117 451.195 231.117 450.492 231.117 449.789 C 230.766 449.789 230.414 449.789 230.062 449.789 C 230.062 449.438 230.062 449.086 230.062 448.734 C 229.711 448.734 229.359 448.734 229.008 448.734 C 229.008 448.031 229.008 447.328 229.008 446.625 C 228.656 446.625 228.305 446.625 227.953 446.625 C 227.953 446.273 227.953 445.922 227.953 445.570 C 227.602 445.570 227.250 445.570 226.898 445.570 C 226.898 444.867 226.898 444.164 226.898 443.461 C 226.547 443.461 226.195 443.461 225.844 443.461 C 225.844 443.109 225.844 442.758 225.844 442.406 C 225.492 442.406 225.141 442.406 224.789 442.406 C 224.789 441.703 224.789 441.000 224.789 440.297 C 224.438 440.297 224.086 440.297 223.734 440.297 C 223.734 439.945 223.734 439.594 223.734 439.242 C 223.383 439.242 223.031 439.242 222.680 439.242 C 222.680 438.539 222.680 437.836 222.680 437.133 C 222.328 437.133 221.977 437.133 221.625 437.133 C 221.625 436.430 221.625 435.727 221.625 435.023 C 221.273 435.023 220.922 435.023 220.570 435.023 C 220.570 434.320 220.570 433.617 220.570 432.914 C 220.219 432.914 219.867 432.914 219.516 432.914 C 219.516 432.211 219.516 431.508 219.516 430.805 C 219.164 430.805 218.812 430.805 218.461 430.805 C 218.461 430.102 218.461 429.398 218.461 428.695 C 218.109 428.695 217.758 428.695 217.406 428.695 C 217.406 427.992 217.406 427.289 217.406 426.586 C 217.055 426.586 216.703 426.586 216.352 426.586 C 216.352 425.883 216.352 425.180 216.352 424.477 C 216.000 424.477 215.648 424.477 215.297 424.477 C 215.297 423.773 215.297 423.070 215.297 422.367 C 214.945 422.367 214.594 422.367 214.242 422.367 C 214.242 421.664 214.242 420.961 214.242 420.258 C 213.891 420.258 213.539 420.258 213.188 420.258 C 213.188 419.203 213.188 418.148 213.188 417.094 C 212.836 417.094 212.484 417.094 212.133 417.094 C 212.133 416.391 212.133 415.688 212.133 414.984 C 211.781 414.984 211.430 414.984 211.078 414.984 C 211.078 413.930 211.078 412.875 211.078 411.820 C 210.727 411.820 210.375 411.820 210.023 411.820 C 210.023 410.766 210.023 409.711 210.023 408.656 C 209.672 408.656 209.320 408.656 208.969 408.656 C 208.969 407.602 208.969 406.547 208.969 405.492 C 208.617 405.492 208.266 405.492 207.914 405.492 C 207.914 404.437 207.914 403.383 207.914 402.328 C 207.562 402.328 207.211 402.328 206.859 402.328 C 206.859 401.273 206.859 400.219 206.859 399.164 C 206.508 399.164 206.156 399.164 205.805 399.164 C 205.805 397.758 205.805 396.352 205.805 394.945 C 205.453 394.945 205.102 394.945 204.750 394.945 C 204.750 393.539 204.750 392.133 204.750 390.727 C 204.398 390.727 204.047 390.727 203.695 390.727 C 203.695 389.320 203.695 387.914 203.695 386.508 C 203.344 386.508 202.992 386.508 202.641 386.508 C 202.641 384.750 202.641 382.992 202.641 381.234 C 202.289 381.234 201.938 381.234 201.586 381.234 C 201.586 379.125 201.586 377.016 201.586 374.906 C 201.234 374.906 200.883 374.906 200.531 374.906 C 200.531 372.445 200.531 369.984 200.531 367.523 C 200.180 367.523 199.828 367.523 199.477 367.523 C 199.477 363.656 199.477 359.789 199.477 355.922 C 199.125 355.922 198.773 355.922 198.422 355.922 C 198.422 347.133 198.422 338.344 198.422 329.555 C 198.773 329.555 199.125 329.555 199.477 329.555 C 199.477 325.688 199.477 321.820 199.477 317.953 C 199.828 317.953 200.180 317.953 200.531 317.953 C 200.531 315.141 200.531 312.328 200.531 309.516 C 200.883 309.516 201.234 309.516 201.586 309.516 C 201.586 307.758 201.586 306.000 201.586 304.242 C 201.938 304.242 202.289 304.242 202.641 304.242 C 202.641 302.484 202.641 300.727 202.641 298.969 C 202.992 298.969 203.344 298.969 203.695 298.969 C 203.695 297.211 203.695 295.453 203.695 293.695 C 204.047 293.695 204.398 293.695 204.750 293.695 C 204.750 292.289 204.750 290.883 204.750 289.477 C 205.102 289.477 205.453 289.477 205.805 289.477 C 205.805 288.422 205.805 287.367 205.805 286.312 C 206.156 286.312 206.508 286.312 206.859 286.312 C 206.859 284.906 206.859 283.500 206.859 282.094 C 207.211 282.094 207.562 282.094 207.914 282.094 C 207.914 281.039 207.914 279.984 207.914 278.930 C 208.266 278.930 208.617 278.930 208.969 278.930 C 208.969 277.875 208.969 276.820 208.969 275.766 C 209.320 275.766 209.672 275.766 210.023 275.766 C 210.023 275.062 210.023 274.359 210.023 273.656 C 210.375 273.656 210.727 273.656 211.078 273.656 C 211.078 272.602 211.078 271.547 211.078 270.492 C 211.430 270.492 211.781 270.492 212.133 270.492 C 212.133 269.438 212.133 268.383 212.133 267.328 C 212.484 267.328 212.836 267.328 213.188 267.328 C 213.188 266.625 213.188 265.922 213.188 265.219 C 213.539 265.219 213.891 265.219 214.242 265.219 C 214.242 264.516 214.242 263.812 214.242 263.109 C 214.594 263.109 214.945 263.109 215.297 263.109 C 215.297 262.055 215.297 261.000 215.297 259.945 C 215.648 259.945 216.000 259.945 216.352 259.945 C 216.352 259.242 216.352 258.539 216.352 257.836 C 216.703 257.836 217.055 257.836 217.406 257.836 C 217.406 257.133 217.406 256.430 217.406 255.727 C 217.758 255.727 218.109 255.727 218.461 255.727 C 218.461 255.023 218.461 254.320 218.461 253.617 C 218.812 253.617 219.164 253.617 219.516 253.617 C 219.516 252.914 219.516 252.211 219.516 251.508 C 219.867 251.508 220.219 251.508 220.570 251.508 C 220.570 251.156 220.570 250.805 220.570 250.453 C 220.922 250.453 221.273 250.453 221.625 250.453 C 221.625 249.750 221.625 249.047 221.625 248.344 C 221.977 248.344 222.328 248.344 222.680 248.344 C 222.680 247.641 222.680 246.938 222.680 246.234 C 223.031 246.234 223.383 246.234 223.734 246.234 C 223.734 245.531 223.734 244.828 223.734 244.125 C 224.086 244.125 224.438 244.125 224.789 244.125 C 224.789 243.773 224.789 243.422 224.789 243.070 C 225.141 243.070 225.492 243.070 225.844 243.070 C 225.844 242.367 225.844 241.664 225.844 240.961 C 226.195 240.961 226.547 240.961 226.898 240.961 C 226.898 240.609 226.898 240.258 226.898 239.906 C 227.250 239.906 227.602 239.906 227.953 239.906 C 227.953 239.203 227.953 238.500 227.953 237.797 C 228.305 237.797 228.656 237.797 229.008 237.797 C 229.008 237.445 229.008 237.094 229.008 236.742 C 229.359 236.742 229.711 236.742 230.062 236.742 C 230.062 236.039 230.062 235.336 230.062 234.633 C 230.414 234.633 230.766 234.633 231.117 234.633 C 231.117 234.281 231.117 233.930 231.117 233.578 C 231.469 233.578 231.820 233.578 232.172 233.578 C 232.172 233.227 232.172 232.875 232.172 232.523 C 232.523 232.523 232.875 232.523 233.227 232.523 C 233.227 231.820 233.227 231.117 233.227 230.414 C 233.578 230.414 233.930 230.414 234.281 230.414 C 234.281 230.062 234.281 229.711 234.281 229.359 C 234.633 229.359 234.984 229.359 235.336 229.359 C 235.336 229.008 235.336 228.656 235.336 228.305 C 235.688 228.305 236.039 228.305 236.391 228.305 C 236.391 227.953 236.391 227.602 236.391 227.250 C 236.742 227.250 237.094 227.250 237.445 227.250 C 237.445 226.898 237.445 226.547 237.445 226.195 C 237.797 226.195 238.148 226.195 238.500 226.195 C 238.500 225.492 238.500 224.789 238.500 224.086 C 238.852 224.086 239.203 224.086 239.555 224.086 C 239.555 223.734 239.555 223.383 239.555 223.031 C 239.906 223.031 240.258 223.031 240.609 223.031 C 240.609 222.680 240.609 222.328 240.609 221.977 C 240.961 221.977 241.312 221.977 241.664 221.977 C 241.664 221.625 241.664 221.273 241.664 220.922 C 242.016 220.922 242.367 220.922 242.719 220.922 C 242.719 220.570 242.719 220.219 242.719 219.867 C 243.070 219.867 243.422 219.867 243.773 219.867 C 243.773 219.516 243.773 219.164 243.773 218.812 C 244.125 218.812 244.477 218.812 244.828 218.812 C 244.828 218.461 244.828 218.109 244.828 217.758 C 245.180 217.758 245.531 217.758 245.883 217.758 C 245.883 217.406 245.883 217.055 245.883 216.703 C 246.234 216.703 246.586 216.703 246.938 216.703 C 246.938 216.352 246.938 216.000 246.938 215.648 C 247.289 215.648 247.641 215.648 247.992 215.648 C 247.992 215.297 247.992 214.945 247.992 214.594 C 248.344 214.594 248.695 214.594 249.047 214.594 C 249.047 214.242 249.047 213.891 249.047 213.539 C 249.750 213.539 250.453 213.539 251.156 213.539 C 251.156 213.188 251.156 212.836 251.156 212.484 C 251.508 212.484 251.859 212.484 252.211 212.484 C 252.211 212.133 252.211 211.781 252.211 211.430 C 252.562 211.430 252.914 211.430 253.266 211.430 C 253.266 211.078 253.266 210.727 253.266 210.375 C 253.617 210.375 253.969 210.375 254.320 210.375 C 254.320 210.023 254.320 209.672 254.320 209.320 C 255.023 209.320 255.727 209.320 256.430 209.320 C 256.430 208.969 256.430 208.617 256.430 208.266 C 256.781 208.266 257.133 208.266 257.484 208.266 C 257.484 207.914 257.484 207.562 257.484 207.211 C 258.188 207.211 258.891 207.211 259.594 207.211 C 259.594 206.859 259.594 206.508 259.594 206.156 C 259.945 206.156 260.297 206.156 260.648 206.156 C 260.648 205.805 260.648 205.453 260.648 205.102 C 261.352 205.102 262.055 205.102 262.758 205.102 C 262.758 204.750 262.758 204.398 262.758 204.047 C 263.109 204.047 263.461 204.047 263.812 204.047 C 263.812 203.695 263.812 203.344 263.812 202.992 C 264.516 202.992 265.219 202.992 265.922 202.992 C 265.922 202.641 265.922 202.289 265.922 201.938 C 266.625 201.938 267.328 201.938 268.031 201.938 C 268.031 201.586 268.031 201.234 268.031 200.883 C 268.734 200.883 269.438 200.883 270.141 200.883 C 270.141 200.531 270.141 200.180 270.141 199.828 C 270.844 199.828 271.547 199.828 272.250 199.828 C 272.250 199.477 272.250 199.125 272.250 198.773 C 272.953 198.773 273.656 198.773 274.359 198.773 C 274.359 198.422 274.359 198.070 274.359 197.719 C 275.062 197.719 275.766 197.719 276.469 197.719 C 276.469 197.367 276.469 197.016 276.469 196.664 C 277.523 196.664 278.578 196.664 279.633 196.664 C 279.633 196.312 279.633 195.961 279.633 195.609 C 280.687 195.609 281.742 195.609 282.797 195.609 C 282.797 195.258 282.797 194.906 282.797 194.555 C 283.852 194.555 284.906 194.555 285.961 194.555 C 285.961 194.203 285.961 193.852 285.961 193.500 C 287.367 193.500 288.773 193.500 290.180 193.500 C 290.180 193.148 290.180 192.797 290.180 192.445 C 292.289 192.445 294.398 192.445 296.508 192.445 C 296.508 192.094 296.508 191.742 296.508 191.391 Z"/>
<path id="arc-12" data-left="10" data-right="2" d="M 441.000 214.594 C 441.000 215.297 441.000 216.000 441.000 216.703 C 441.352 216.703 441.703 216.703 442.055 216.703 C 442.055 217.758 442.055 218.813 442.055 219.867 C 442.406 219.867 442.758 219.867 443.109 219.867 C 443.109 220.570 443.109 221.273 443.109 221.977 C 443.461 221.977 443.812 221.977 444.164 221.977 C 444.164 222.680 444.164 223.383 444.164 224.086 C 444.516 224.086 444.867 224.086 445.219 224.086 C 445.219 224.789 445.219 225.492 445.219 226.195 C 445.570 226.195 445.922 226.195 446.273 226.195 C 446.273 227.250 446.273 228.305 446.273 229.359 C 446.625 229.359 446.977 229.359 447.328 229.359 C 447.328 230.062 447.328 230.766 447.328 231.469 C 447.680 231.469 448.031 231.469 448.383 231.469 C 448.383 232.523 448.383 233.578 448.383 234.633 C 448.734 234.633 449.086 234.633 449.438 234.633 C 449.438 235.336 449.438 236.039 449.438 236.742 C 449.789 236.742 450.141 236.742 450.492 236.742 C 450.492 237.797 450.492 238.852 450.492 239.906 C 450.844 239.906 451.195 239.906 451.547 239.906 C 451.547 240.961 451.547 242.016 451.547 243.070 C 451.898 243.070 452.250 243.070 452.602 243.070 C 452.602 244.125 452.602 245.180 452.602 246.234 C 452.953 246.234 453.305 246.234 453.656 246.234 C 453.656 247.289 453.656 248.344 453.656 249.398 C 454.008 249.398 454.359 249.398 454.711 249.398 C 454.711 250.453 454.711 251.508 454.711 252.562 C 455.062 252.562 455.414 252.562 455.766 252.562 C 455.766 253.617 455.766 254.672 455.766 255.727 C 456.117 255.727 456.469 255.727 456.820 255.727 C 456.820 257.133 456.820 258.539 456.820 259.945 C 457.172 259.945 457.523 259.945 457.875 259.945 C 457.875 260.297 457.875 260.648 457.875 261.000"/>
<path id="arc-13" data-left="2" data-right="5" d="M 171.000 216.703 C 171.000 217.758 171.000 218.813 171.000 219.867 C 170.648 219.867 170.297 219.867 169.945 219.867 C 169.945 220.570 169.945 221.273 169.945 221.977 C 169.594 221.977 169.242 221.977 168.891 221.977 C 168.891 222.680 168.891 223.383 168.891 224.086 C 168.539 224.086 168.188 224.086 167.836 224.086 C 167.836 224.789 167.836 225.492 167.836 226.195 C 167.484 226.195 167.133 226.195 166.781 226.195 C 166.781 227.250 166.781 228.305 166.781 229.359 C 166.430 229.359 166.078 229.359 165.727 229.359 C 165.727 230.062 165.727 230.766 165.727 231.469 C 165.375 231.469 165.023 231.469 164.672 231.469 C 164.672 232.523 164.672 233.578 164.672 234.633 C 164.320 234.633 163.969 234.633 163.617 234.633 C 163.617 235.336 163.617 236.039 163.617 236.742 C 163.266 236.742 162.914 236.742 162.562 236.742 C 162.562 237.797 162.562 238.852 162.562 239.906 C 162.211 239.906 161.859 239.906 161.508 239.906 C 161.508 240.961 161.508 242.016 161.508 243.070 C 161.156 243.070 160.805 243.070 160.453 243.070 C 160.453 244.125 160.453 245.180 160.453 246.234 C 160.102 246.234 159.750 246.234 159.398 246.234 C 159.398 247.289 159.398 248.344 159.398 249.398 C 159.047 249.398 158.695 249.398 158.344 249.398 C 158.344 250.453 158.344 251.508 158.344 252.562 C 157.992 252.562 157.641 252.562 157.289 252.562 C 157.289 253.617 157.289 254.672 157.289 255.727 C 156.938 255.727 156.586 255.727 156.234 255.727 C 156.234 257.133 156.234 258.539 156.234 259.945 C 155.883 259.945 155.531 259.945 155.180 259.945 C 155.180 260.297 155.180 260.648 155.180 261.000 C 115.453 261.000 75.727 261.000 36.000 261.000"/>
<path id="arc-14" data-left="3" data-right="4" d="M 302.836 255.727 C 305.297 255.727 307.758 255.727 310.219 255.727 C 310.219 256.078 310.219 256.430 310.219 256.781 C 312.680 256.781 315.141 256.781 317.602 256.781 C 317.602 257.133 317.602 257.484 317.602 257.836 C 318.656 257.836 319.711 257.836 320.766 257.836 C 320.766 258.188 320.766 258.539 320.766 258.891 C 321.820 258.891 322.875 258.891 323.930 258.891 C 323.930 259.242 323.930 259.594 323.930 259.945 C 324.984 259.945 326.039 259.945 327.094 259.945 C 327.094 260.297 327.094 260.648 327.094 261.000 C 327.797 261.000 328.500 261.000 329.203 261.000 C 329.203 261.352 329.203 261.703 329.203 262.055 C 329.906 262.055 330.609 262.055 331.312 262.055 C 331.312 262.406 331.312 262.758 331.312 263.109 C 332.016 263.109 332.719 263.109 333.422 263.109 C 333.422 263.461 333.422 263.812 333.422 264.164 C 333.773 264.164 334.125 264.164 334.477 264.164 C 334.477 264.516 334.477 264.867 334.477 265.219 C 335.180 265.219 335.883 265.219 336.586 265.219 C 336.586 265.570 336.586 265.922 336.586 266.273 C 336.938 266.273 337.289 266.273 337.641 266.273 C 337.641 266.625 337.641 266.977 337.641 267.328 C 337.992 267.328 338.344 267.328 338.695 267.328 C 338.695 267.680 338.695 268.031 338.695 268.383 C 339.398 268.383 340.102 268.383 340.805 268.383 C 340.805 268.734 340.805 269.086 340.805 269.438 C 341.156 269.438 341.508 269.438 341.859 269.438 C 341.859 269.789 341.859 270.141 341.859 270.492 C 342.211 270.492 342.562 270.492 342.914 270.492 C 342.914 270.844 342.914 271.195 342.914 271.547 C 343.266 271.547 343.617 271.547 343.969 271.547 C 343.969 271.898 343.969 272.250 343.969 272.602 C 344.320 272.602 344.672 272.602 345.023 272.602 C 345.023 272.953 345.023 273.305 345.023 273.656 C 345.375 273.656 345.727 273.656 346.078 273.656 C 346.078 274.008 346.078 274.359 346.078 274.711 C 346.430 274.711 346.781 274.711 347.133 274.711 C 347.133 275.062 347.133 275.414 347.133 275.766 C 347.484 275.766 347.836 275.766 348.188 275.766 C 348.188 276.117 348.188 276.469 348.188 276.820 C 348.539 276.820 348.891 276.820 349.242 276.820 C 349.242 277.172 349.242 277.523 349.242 277.875 C 349.594 277.875 349.945 277.875 350.297 277.875 C 350.297 278.578 350.297 279.281 350.297 279.984 C 350.648 279.984 351.000 279.984 351.352 279.984 C 351.352 280.336 351.352 280.688 351.352 281.039 C 351.703 281.039 352.055 281.039 352.406 281.039 C 352.406 281.391 352.406 281.742 352.406 282.094 C 352.758 282.094 353.109 282.094 353.461 282.094 C 353.461 282.797 353.461 283.500 353.461 284.203 C 353.812 284.203 354.164 284.203 354.516 284.203 C 354.516 284.555 354.516 284.906 354.516 285.258 C 354.867 285.258 355.219 285.258 355.570 285.258 C 355.570 285.961 355.570 286.664 355.570 287.367 C 355.922 287.367 356.273 287.367 356.625 287.367 C 356.625 287.719 356.625 288.070 356.625 288.422 C 356.977 288.422 357.328 288.422 357.680 288.422 C 357.680 289.125 357.680 289.828 357.680 290.531 C 358.031 290.531 358.383 290.531 358.734 290.531 C 358.734 291.234 358.734 291.938 358.734 292.641 C 359.086 292.641 359.438 292.641 359.789 292.641 C 359.789 293.344 359.789 294.047 359.789 294.750 C 360.141 294.750 360.492 294.750 360.844 294.750 C 360.844 295.453 360.844 296.156 360.844 296.859 C 361.195 296.859 361.547 296.859 361.898 296.859 C 361.898 297.562 361.898 298.266 361.898 298.969 C 362.250 298.969 362.602 298.969 362.953 298.969 C 362.953 299.672 362.953 300.375 362.953 301.078 C 363.305 301.078 363.656 301.078 364.008 301.078 C 364.008 302.133 364.008 303.188 364.008 304.242 C 364.359 304.242 364.711 304.242 365.062 304.242 C 365.062 305.297 365.062 306.352 365.062 307.406 C 365.414 307.406 365.766 307.406 366.117 307.406 C 366.117 308.461 366.117 309.516 366.117 310.570 C 366.469 310.570 366.820 310.570 367.172 310.570 C 367.172 311.625 367.172 312.680 367.172 313.734 C 367.523 313.734 367.875 313.734 368.227 313.734 C 368.227 315.141 368.227 316.547 368.227 317.953 C 368.578 317.953 368.930 317.953 369.281 317.953 C 369.281 320.062 369.281 322.172 369.281 324.281 C 369.633 324.281 369.984 324.281 370.336 324.281 C 370.336 327.094 370.336 329.906 370.336 332.719 C 370.688 332.719 371.039 332.719 371.391 332.719 C 371.391 339.398 371.391 346.078 371.391 352.758 C 371.039 352.758 370.688 352.758 370.336 352.758 C 370.336 355.570 370.336 358.383 370.336 361.195 C 369.984 361.195 369.633 361.195 369.281 361.195 C 369.281 362.953 369.281 364.711 369.281 366.469 C 368.930 366.469 368.578 366.469 368.227 366.469 C 368.227 367.875 368.227 369.281 368.227 370.688 C 367.875 370.688 367.523 370.688 367.172 370.688 C 367.172 372.094 367.172 373.500 367.172 374.906 C 366.820 374.906 366.469 374.906 366.117 374.906 C 366.117 375.961 366.117 377.016 366.117 378.070 C 365.766 378.070 365.414 378.070 365.062 378.070 C 365.062 379.125 365.062 380.180 365.062 381.234 C 364.711 381.234 364.359 381.234 364.008 381.234 C 364.008 381.938 364.008 382.641 364.008 383.344 C 363.656 383.344 363.305 383.344 362.953 383.344 C 362.953 384.398 362.953 385.453 362.953 386.508 C 362.602 386.508 362.250 386.508 361.898 386.508 C 361.898 387.211 361.898 387.914 361.898 388.617 C 361.547 388.617 361.195 388.617 360.844 388.617 C 360.844 389.320 360.844 390.023 360.844 390.727 C 360.492 390.727 360.141 390.727 359.789 390.727 C 359.789 391.430 359.789 392.133 359.789 392.836 C 359.438 392.836 359.086 392.836 358.734 392.836 C 358.734 393.539 358.734 394.242 358.734 394.945 C 358.383 394.945 358.031 394.945 357.680 394.945 C 357.680 395.297 357.680 395.648 357.680 396.000 C 357.328 396.000 356.977 396.000 356.625 396.000 C 356.625 396.703 356.625 397.406 356.625 398.109 C 356.273 398.109 355.922 398.109 355.570 398.109 C 355.570 398.812 355.570 399.516 355.570 400.219 C 355.219 400.219 354.867 400.219 354.516 400.219 C 354.516 400.570 354.516 400.922 354.516 401.273 C 354.164 401.273 353.812 401.273 353.461 401.273 C 353.461 401.625 353.461 401.977 353.461 402.328 C 353.109 402.328 352.758 402.328 352.406 402.328 C 352.406 403.031 352.406 403.734 352.406 404.438 C 352.055 404.438 351.703 404.438 351.352 404.438 C 351.352 404.789 351.352 405.141 351.352 405.492 C 351.000 405.492 350.648 405.492 350.297 405.492 C 350.297 405.844 350.297 406.195 350.297 406.547 C 349.945 406.547 349.594 406.547 349.242 406.547 C 349.242 406.898 349.242 407.250 349.242 407.602 C 348.891 407.602 348.539 407.602 348.188 407.602 C 348.188 408.305 348.188 409.008 348.188 409.711 C 347.836 409.711 347.484 409.711 347.133 409.711 C 347.133 410.062 347.133 410.414 347.133 410.766 C 346.781 410.766 346.430 410.766 346.078 410.766 C 346.078 411.117 346.078 411.469 346.078 411.820 C 345.727 411.820 345.375 411.820 345.023 411.820 C 345.023 412.172 345.023 412.523 345.023 412.875 C 344.672 412.875 344.320 412.875 343.969 412.875 C 343.969 413.227 343.969 413.578 343.969 413.930 C 343.617 413.930 343.266 413.930 342.914 413.930 C 342.914 414.281 342.914 414.633 342.914 414.984 C 342.211 414.984 341.508 414.984 340.805 414.984 C 340.805 415.336 340.805 415.688 340.805 416.039 C 340.453 416.039 340.102 416.039 339.750 416.039 C 339.750 416.391 339.750 416.742 339.750 417.094 C 339.398 417.094 339.047 417.094 338.695 417.094 C 338.695 417.445 338.695 417.797 338.695 418.148 C 338.344 418.148 337.992 418.148 337.641 418.148 C 337.641 418.500 337.641 418.852 337.641 419.203 C 336.938 419.203 336.234 419.203 335.531 419.203 C 335.531 419.555 335.531 419.906 335.531 420.258 C 335.180 420.258 334.828 420.258 334.477 420.258 C 334.477 420.609 334.477 420.961 334.477 421.312 C 333.773 421.312 333.070 421.312 332.367 421.312 C 332.367 421.664 332.367 422.016 332.367 422.367 C 331.664 422.367 330.961 422.367 330.258 422.367 C 330.258 422.719 330.258 423.070 330.258 423.422 C 329.555 423.422 328.852 423.422 328.148 423.422 C 328.148 423.773 328.148 424.125 328.148 424.477 C 327.445 424.477 326.742 424.477 326.039 424.477 C 326.039 424.828 326.039 425.180 326.039 425.531 C 324.984 425.531 323.930 425.531 322.875 425.531 C 322.875 425.883 322.875 426.234 322.875 426.586 C 321.820 426.586 320.766 426.586 319.711 426.586 C 319.711 426.938 319.711 427.289 319.711 427.641 C 318.305 427.641 316.898 427.641 315.492 427.641 C 315.492 427.992 315.492 428.344 315.492 428.695 C 309.516 428.695 303.539 428.695 297.562 428.695 C 297.562 428.344 297.562 427.992 297.562 427.641 C 296.156 427.641 294.750 427.641 293.344 427.641 C 293.344 427.289 293.344 426.938 293.344 426.586 C 292.289 426.586 291.234 426.586 290.180 426.586 C 290.180 426.234 290.180 425.883 290.180 425.531 C 289.125 425.531 288.070 425.531 287.016 425.531 C 287.016 425.180 287.016 424.828 287.016 424.477 C 286.312 424.477 285.609 424.477 284.906 424.477 C 284.906 424.125 284.906 423.773 284.906 423.422 C 284.203 423.422 283.500 423.422 282.797 423.422 C 282.797 423.070 282.797 422.719 282.797 422.367 C 282.094 422.367 281.391 422.367 280.688 422.367 C 280.688 422.016 280.688 421.664 280.688 421.312 C 279.984 421.312 279.281 421.312 278.578 421.312 C 278.578 420.961 278.578 420.609 278.578 420.258 C 278.227 420.258 277.875 420.258 277.523 420.258 C 277.523 419.906 277.523 419.555 277.523 419.203 C 276.820 419.203 276.117 419.203 275.414 419.203 C 275.414 418.852 275.414 418.500 275.414 418.148 C 275.062 418.148 274.711 418.148 274.359 418.148 C 274.359 417.797 274.359 417.445 274.359 417.094 C 274.008 417.094 273.656 417.094 273.305 417.094 C 273.305 416.742 273.305 416.391 273.305 416.039 C 272.953 416.039 272.602 416.039 272.250 416.039 C 272.250 415.688 272.250 415.336 272.250 414.984 C 271.547 414.984 270.844 414.984 270.141 414.984 C 270.141 414.633 270.141 414.281 270.141 413.930 C 269.789 413.930 269.438 413.930 269.086 413.930 C 269.086 413.578 269.086 413.227 269.086 412.875 C 268.734 412.875 268.383 412.875 268.031 412.875 C 268.031 412.523 268.031 412.172 268.031 411.820 C 267.680 411.820 267.328 411.820 266.977 411.820 C 266.977 411.469 266.977 411.117 266.977 410.766 C 266.625 410.766 266.273 410.766 265.922 410.766 C 265.922 410.414 265.922 410.062 265.922 409.711 C 265.570 409.711 265.219 409.711 264.867 409.711 C 264.867 409.008 264.867 408.305 264.867 407.602 C 264.516 407.602 264.164 407.602 263.812 407.602 C 263.812 407.250 263.812 406.898 263.812 406.547 C 263.461 406.547 263.109 406.547 262.758 406.547 C 262.758 406.195 262.758 405.844 262.758 405.492 C 262.406 405.492 262.055 405.492 261.703 405.492 C 261.703 405.141 261.703 404.789 261.703 404.438 C 261.352 404.438 261.000 404.438 260.648 404.438 C 260.648 403.734 260.648 403.031 260.648 402.328 C 260.297 402.328 259.945 402.328 259.594 402.328 C 259.594 401.977 259.594 401.625 259.594 401.273 C 259.242 401.273 258.891 401.273 258.539 401.273 C 258.539 400.922 258.539 400.570 258.539 400.219 C 258.188 400.219 257.836 400.219 257.484 400.219 C 257.484 399.516 257.484 398.812 257.484 398.109 C 257.133 398.109 256.781 398.109 256.430 398.109 C 256.430 397.406 256.430 396.703 256.430 396.000 C 256.078 396.000 255.727 396.000 255.375 396.000 C 255.375 395.648 255.375 395.297 255.375 394.945 C 255.023 394.945 254.672 394.945 254.320 394.945 C 254.320 394.242 254.320 393.539 254.320 392.836 C 253.969 392.836 253.617 392.836 253.266 392.836 C 253.266 392.133 253.266 391.430 253.266 390.727 C 252.914 390.727 252.562 390.727 252.211 390.727 C 252.211 390.023 252.211 389.320 252.211 388.617 C 251.859 388.617 251.508 388.617 251.156 388.617 C 251.156 387.914 251.156 387.211 251.156 386.508 C 250.805 386.508 250.453 386.508 250.102 386.508 C 250.102 385.453 250.102 384.398 250.102 383.344 C 249.750 383.344 249.398 383.344 249.047 383.344 C 249.047 382.641 249.047 381.938 249.047 381.234 C 248.695 381.234 248.344 381.234 247.992 381.234 C 247.992 380.180 247.992 379.125 247.992 378.070 C 247.641 378.070 247.289 378.070 246.938 378.070 C 246.938 377.016 246.938 375.961 246.938 374.906 C 246.586 374.906 246.234 374.906 245.883 374.906 C 245.883 373.500 245.883 372.094 245.883 370.688 C 245.531 370.688 245.180 370.688 244.828 370.688 C 244.828 369.281 244.828 367.875 244.828 366.469 C 244.477 366.469 244.125 366.469 243.773 366.469 C 243.773 364.711 243.773 362.953 243.773 361.195 C 243.422 361.195 243.070 361.195 242.719 361.195 C 242.719 358.383 242.719 355.570 242.719 352.758 C 242.367 352.758 242.016 352.758 241.664 352.758 C 241.664 346.078 241.664 339.398 241.664 332.719 C 242.016 332.719 242.367 332.719 242.719 332.719 C 242.719 329.906 242.719 327.094 242.719 324.281 C 243.070 324.281 243.422 324.281 243.773 324.281 C 243.773 322.172 243.773 320.063 243.773 317.953 C 244.125 317.953 244.477 317.953 244.828 317.953 C 244.828 316.547 244.828 315.141 244.828 313.734 C 245.180 313.734 245.531 313.734 245.883 313.734 C 245.883 312.680 245.883 311.625 245.883 310.570 C 246.234 310.570 246.586 310.570 246.938 310.570 C 246.938 309.516 246.938 308.461 246.938 307.406 C 247.289 307.406 247.641 307.406 247.992 307.406 C 247.992 306.352 247.992 305.297 247.992 304.242 C 248.344 304.242 248.695 304.242 249.047 304.242 C 249.047 303.187 249.047 302.133 249.047 301.078 C 249.398 301.078 249.750 301.078 250.102 301.078 C 250.102 300.375 250.102 299.672 250.102 298.969 C 250.453 298.969 250.805 298.969 251.156 298.969 C 251.156 298.266 251.156 297.562 251.156 296.859 C 251.508 296.859 251.859 296.859 252.211 296.859 C 252.211 296.156 252.211 295.453 252.211 294.750 C 252.562 294.750 252.914 294.750 253.266 294.750 C 253.266 294.047 253.266 293.344 253.266 292.641 C 253.617 292.641 253.969 292.641 254.320 292.641 C 254.320 291.938 254.320 291.234 254.320 290.531 C 254.672 290.531 255.023 290.531 255.375 290.531 C 255.375 289.828 255.375 289.125 255.375 288.422 C 255.727 288.422 256.078 288.422 256.430 288.422 C 256.430 288.070 256.430 287.719 256.430 287.367 C 256.781 287.367 257.133 287.367 257.484 287.367 C 257.484 286.664 257.484 285.961 257.484 285.258 C 257.836 285.258 258.188 285.258 258.539 285.258 C 258.539 284.906 258.539 284.555 258.539 284.203 C 258.891 284.203 259.242 284.203 259.594 284.203 C 259.594 283.500 259.594 282.797 259.594 282.094 C 259.945 282.094 260.297 282.094 260.648 282.094 C 260.648 281.742 260.648 281.391 260.648 281.039 C 261.000 281.039 261.352 281.039 261.703 281.039 C 261.703 280.688 261.703 280.336 261.703 279.984 C 262.055 279.984 262.406 279.984 262.758 279.984 C 262.758 279.281 262.758 278.578 262.758 277.875 C 263.109 277.875 263.461 277.875 263.812 277.875 C 263.812 277.523 263.812 277.172 263.812 276.820 C 264.164 276.820 264.516 276.820 264.867 276.820 C 264.867 276.469 264.867 276.117 264.867 275.766 C 265.219 275.766 265.570 275.766 265.922 275.766 C 265.922 275.414 265.922 275.062 265.922 274.711 C 266.273 274.711 266.625 274.711 266.977 274.711 C 266.977 274.359 266.977 274.008 266.977 273.656 C 267.328 273.656 267.680 273.656 268.031 273.656 C 268.031 273.305 268.031 272.953 268.031 272.602 C 268.383 272.602 268.734 272.602 269.086 272.602 C 269.086 272.250 269.086 271.898 269.086 271.547 C 269.438 271.547 269.789 271.547 270.141 271.547 C 270.141 271.195 270.141 270.844 270.141 270.492 C 270.492 270.492 270.844 270.492 271.195 270.492 C 271.195 270.141 271.195 269.789 271.195 269.438 C 271.547 269.438 271.898 269.438 272.250 269.438 C 272.250 269.086 272.250 268.734 272.250 268.383 C 272.953 268.383 273.656 268.383 274.359 268.383 C 274.359 268.031 274.359 267.680 274.359 267.328 C 274.711 267.328 275.062 267.328 275.414 267.328 C 275.414 266.977 275.414 266.625 275.414 266.273 C 275.766 266.273 276.117 266.273 276.469 266.273 C 276.469 265.922 276.469 265.570 276.469 265.219 C 277.172 265.219 277.875 265.219 278.578 265.219 C 278.578 264.867 278.578 264.516 278.578 264.164 C 278.930 264.164 279.281 264.164 279.633 264.164 C 279.633 263.812 279.633 263.461 279.633 263.109 C 280.336 263.109 281.039 263.109 281.742 263.109 C 281.742 262.758 281.742 262.406 281.742 262.055 C 282.445 262.055 283.148 262.055 283.852 262.055 C 283.852 261.703 283.852 261.352 283.852 261.000 C 284.555 261.000 285.258 261.000 285.961 261.000 C 285.961 260.648 285.961 260.297 285.961 259.945 C 287.016 259.945 288.070 259.945 289.125 259.945 C 289.125 259.594 289.125 259.242 289.125 258.891 C 290.180 258.891 291.234 258.891 292.289 258.891 C 292.289 258.539 292.289 258.188 292.289 257.836 C 293.344 257.836 294.398 257.836 295.453 257.836 C 295.453 257.484 295.453 257.133 295.453 256.781 C 297.914 256.781 300.375 256.781 302.836 256.781 C 302.836 256.430 302.836 256.078 302.836 255.727 Z"/>
<path id="arc-15" data-left="2" data-right="0" d="M 36.000 261.000 C 36.000 306.000 36.000 351.000 36.000 396.000"/>
<path id="arc-16" data-left="10" data-right="5" d="M 457.875 261.000 C 497.250 261.000 536.625 261.000 576.000 261.000"/>
<path id="arc-17" data-left="5" data-right="2" d="M 457.875 261.000 C 457.875 261.703 457.875 262.406 457.875 263.109 C 458.227 263.109 458.578 263.109 458.930 263.109 C 458.930 264.516 458.930 265.922 458.930 267.328 C 459.281 267.328 459.633 267.328 459.984 267.328 C 459.984 268.734 459.984 270.141 459.984 271.547 C 460.336 271.547 460.688 271.547 461.039 271.547 C 461.039 273.305 461.039 275.063 461.039 276.820 C 461.391 276.820 461.742 276.820 462.094 276.820 C 462.094 278.578 462.094 280.336 462.094 282.094 C 462.445 282.094 462.797 282.094 463.148 282.094 C 463.148 283.852 463.148 285.609 463.148 287.367 C 463.500 287.367 463.852 287.367 464.203 287.367 C 464.203 289.477 464.203 291.586 464.203 293.695 C 464.555 293.695 464.906 293.695 465.258 293.695 C 465.258 296.156 465.258 298.617 465.258 301.078 C 465.609 301.078 465.961 301.078 466.312 301.078 C 466.312 303.891 466.312 306.703 466.312 309.516 C 466.664 309.516 467.016 309.516 467.367 309.516 C 467.367 313.734 467.367 317.953 467.367 322.172 C 467.719 322.172 468.070 322.172 468.422 322.172 C 468.422 335.531 468.422 348.891 468.422 362.250 C 468.070 362.250 467.719 362.250 467.367 362.250 C 467.367 366.469 467.367 370.688 467.367 374.906 C 467.016 374.906 466.664 374.906 466.312 374.906 C 466.312 378.070 466.312 381.234 466.312 384.398 C 465.961 384.398 465.609 384.398 465.258 384.398 C 465.258 386.859 465.258 389.320 465.258 391.781 C 464.906 391.781 464.555 391.781 464.203 391.781 C 464.203 393.188 464.203 394.594 464.203 396.000"/>
<path id="arc-18" data-left="0" data-right="5" d="M 576.000 261.000 C 576.000 306.000 576.000 351.000 576.000 396.000"/>
<path id="arc-19" data-left="4" data-right="5" d="M 303.891 298.969 C 305.648 298.969 307.406 298.969 309.164 298.969 C 309.164 299.320 309.164 299.672 309.164 300.023 C 310.922 300.023 312.680 300.023 314.438 300.023 C 314.438 300.375 314.438 300.727 314.438 301.078 C 315.141 301.078 315.844 301.078 316.547 301.078 C 316.547 301.430 316.547 301.781 316.547 302.133 C 317.250 302.133 317.953 302.133 318.656 302.133 C 318.656 302.484 318.656 302.836 318.656 303.188 C 319.359 303.188 320.062 303.188 320.766 303.188 C 320.766 303.539 320.766 303.891 320.766 304.242 C 321.117 304.242 321.469 304.242 321.820 304.242 C 321.820 304.594 321.820 304.945 321.820 305.297 C 322.523 305.297 323.227 305.297 323.930 305.297 C 323.930 305.648 323.930 306.000 323.930 306.352 C 324.281 306.352 324.633 306.352 324.984 306.352 C 324.984 306.703 324.984 307.055 324.984 307.406 C 325.336 307.406 325.688 307.406 326.039 307.406 C 326.039 307.758 326.039 308.109 326.039 308.461 C 326.391 308.461 326.742 308.461 327.094 308.461 C 327.094 308.812 327.094 309.164 327.094 309.516 C 327.445 309.516 327.797 309.516 328.148 309.516 C 328.148 309.867 328.148 310.219 328.148 310.570 C 328.500 310.570 328.852 310.570 329.203 310.570 C 329.203 311.273 329.203 311.977 329.203 312.680 C 329.555 312.680 329.906 312.680 330.258 312.680 C 330.258 313.031 330.258 313.383 330.258 313.734 C 330.609 313.734 330.961 313.734 331.312 313.734 C 331.312 314.438 331.312 315.141 331.312 315.844 C 331.664 315.844 332.016 315.844 332.367 315.844 C 332.367 316.195 332.367 316.547 332.367 316.898 C 332.719 316.898 333.070 316.898 333.422 316.898 C 333.422 317.602 333.422 318.305 333.422 319.008 C 333.773 319.008 334.125 319.008 334.477 319.008 C 334.477 320.062 334.477 321.117 334.477 322.172 C 334.828 322.172 335.180 322.172 335.531 322.172 C 335.531 322.875 335.531 323.578 335.531 324.281 C 335.883 324.281 336.234 324.281 336.586 324.281 C 336.586 325.688 336.586 327.094 336.586 328.500 C 336.938 328.500 337.289 328.500 337.641 328.500 C 337.641 329.906 337.641 331.312 337.641 332.719 C 337.992 332.719 338.344 332.719 338.695 332.719 C 338.695 339.047 338.695 345.375 338.695 351.703 C 338.344 351.703 337.992 351.703 337.641 351.703 C 337.641 353.461 337.641 355.219 337.641 356.977 C 337.289 356.977 336.938 356.977 336.586 356.977 C 336.586 358.031 336.586 359.086 336.586 360.141 C 336.234 360.141 335.883 360.141 335.531 360.141 C 335.531 361.195 335.531 362.250 335.531 363.305 C 335.180 363.305 334.828 363.305 334.477 363.305 C 334.477 364.008 334.477 364.711 334.477 365.414 C 334.125 365.414 333.773 365.414 333.422 365.414 C 333.422 366.117 333.422 366.820 333.422 367.523 C 333.070 367.523 332.719 367.523 332.367 367.523 C 332.367 368.227 332.367 368.930 332.367 369.633 C 332.016 369.633 331.664 369.633 331.312 369.633 C 331.312 369.984 331.312 370.336 331.312 370.688 C 330.961 370.688 330.609 370.688 330.258 370.688 C 330.258 371.391 330.258 372.094 330.258 372.797 C 329.906 372.797 329.555 372.797 329.203 372.797 C 329.203 373.148 329.203 373.500 329.203 373.852 C 328.852 373.852 328.500 373.852 328.148 373.852 C 328.148 374.203 328.148 374.555 328.148 374.906 C 327.797 374.906 327.445 374.906 327.094 374.906 C 327.094 375.258 327.094 375.609 327.094 375.961 C 326.742 375.961 326.391 375.961 326.039 375.961 C 326.039 376.312 326.039 376.664 326.039 377.016 C 325.688 377.016 325.336 377.016 324.984 377.016 C 324.984 377.367 324.984 377.719 324.984 378.070 C 324.633 378.070 324.281 378.070 323.930 378.070 C 323.930 378.422 323.930 378.773 323.930 379.125 C 323.578 379.125 323.227 379.125 322.875 379.125 C 322.875 379.477 322.875 379.828 322.875 380.180 C 322.523 380.180 322.172 380.180 321.820 380.180 C 321.820 380.531 321.820 380.883 321.820 381.234 C 321.117 381.234 320.414 381.234 319.711 381.234 C 319.711 381.586 319.711 381.938 319.711 382.289 C 319.359 382.289 319.008 382.289 318.656 382.289 C 318.656 382.641 318.656 382.992 318.656 383.344 C 317.602 383.344 316.547 383.344 315.492 383.344 C 315.492 383.695 315.492 384.047 315.492 384.398 C 314.437 384.398 313.383 384.398 312.328 384.398 C 312.328 384.750 312.328 385.102 312.328 385.453 C 308.461 385.453 304.594 385.453 300.727 385.453 C 300.727 385.102 300.727 384.750 300.727 384.398 C 299.672 384.398 298.617 384.398 297.562 384.398 C 297.562 384.047 297.562 383.695 297.562 383.344 C 296.508 383.344 295.453 383.344 294.398 383.344 C 294.398 382.992 294.398 382.641 294.398 382.289 C 294.047 382.289 293.695 382.289 293.344 382.289 C 293.344 381.938 293.344 381.586 293.344 381.234 C 292.641 381.234 291.938 381.234 291.234 381.234 C 291.234 380.883 291.234 380.531 291.234 380.180 C 290.883 380.180 290.531 380.180 290.180 380.180 C 290.180 379.828 290.180 379.477 290.180 379.125 C 289.828 379.125 289.477 379.125 289.125 379.125 C 289.125 378.773 289.125 378.422 289.125 378.070 C 288.773 378.070 288.422 378.070 288.070 378.070 C 288.070 377.719 288.070 377.367 288.070 377.016 C 287.719 377.016 287.367 377.016 287.016 377.016 C 287.016 376.664 287.016 376.312 287.016 375.961 C 286.664 375.961 286.312 375.961 285.961 375.961 C 285.961 375.609 285.961 375.258 285.961 374.906 C 285.609 374.906 285.258 374.906 284.906 374.906 C 284.906 374.555 284.906 374.203 284.906 373.852 C 284.555 373.852 284.203 373.852 283.852 373.852 C 283.852 373.500 283.852 373.148 283.852 372.797 C 283.500 372.797 283.148 372.797 282.797 372.797 C 282.797 372.094 282.797 371.391 282.797 370.688 C 282.445 370.688 282.094 370.688 281.742 370.688 C 281.742 370.336 281.742 369.984 281.742 369.633 C 281.391 369.633 281.039 369.633 280.688 369.633 C 280.688 368.930 280.688 368.227 280.688 367.523 C 280.336 367.523 279.984 367.523 279.633 367.523 C 279.633 366.820 279.633 366.117 279.633 365.414 C 279.281 365.414 278.930 365.414 278.578 365.414 C 278.578 364.711 278.578 364.008 278.578 363.305 C 278.227 363.305 277.875 363.305 277.523 363.305 C 277.523 362.250 277.523 361.195 277.523 360.141 C 277.172 360.141 276.820 360.141 276.469 360.141 C 276.469 359.086 276.469 358.031 276.469 356.977 C 276.117 356.977 275.766 356.977 275.414 356.977 C 275.414 355.219 275.414 353.461 275.414 351.703 C 275.062 351.703 274.711 351.703 274.359 351.703 C 274.359 345.375 274.359 339.047 274.359 332.719 C 274.711 332.719 275.062 332.719 275.414 332.719 C 275.414 331.312 275.414 329.906 275.414 328.500 C 275.766 328.500 276.117 328.500 276.469 328.500 C 276.469 327.094 276.469 325.688 276.469 324.281 C 276.820 324.281 277.172 324.281 277.523 324.281 C 277.523 323.578 277.523 322.875 277.523 322.172 C 277.875 322.172 278.227 322.172 278.578 322.172 C 278.578 321.117 278.578 320.063 278.578 319.008 C 278.930 319.008 279.281 319.008 279.633 319.008 C 279.633 318.305 279.633 317.602 279.633 316.898 C 279.984 316.898 280.336 316.898 280.688 316.898 C 280.688 316.547 280.688 316.195 280.688 315.844 C 281.039 315.844 281.391 315.844 281.742 315.844 C 281.742 315.141 281.742 314.438 281.742 313.734 C 282.094 313.734 282.445 313.734 282.797 313.734 C 282.797 313.383 282.797 313.031 282.797 312.680 C 283.148 312.680 283.500 312.680 283.852 312.680 C 283.852 311.977 283.852 311.273 283.852 310.570 C 284.203 310.570 284.555 310.570 284.906 310.570 C 284.906 310.219 284.906 309.867 284.906 309.516 C 285.258 309.516 285.609 309.516 285.961 309.516 C 285.961 309.164 285.961 308.812 285.961 308.461 C 286.312 308.461 286.664 308.461 287.016 308.461 C 287.016 308.109 287.016 307.758 287.016 307.406 C 287.367 307.406 287.719 307.406 288.070 307.406 C 288.070 307.055 288.070 306.703 288.070 306.352 C 288.422 306.352 288.773 306.352 289.125 306.352 C 289.125 306.000 289.125 305.648 289.125 305.297 C 289.828 305.297 290.531 305.297 291.234 305.297 C 291.234 304.945 291.234 304.594 291.234 304.242 C 291.586 304.242 291.938 304.242 292.289 304.242 C 292.289 303.891 292.289 303.539 292.289 303.188 C 292.992 303.188 293.695 303.188 294.398 303.188 C 294.398 302.836 294.398 302.484 294.398 302.133 C 295.102 302.133 295.805 302.133 296.508 302.133 C 296.508 301.781 296.508 301.430 296.508 301.078 C 297.211 301.078 297.914 301.078 298.617 301.078 C 298.617 300.727 298.617 300.375 298.617 300.023 C 300.375 300.023 302.133 300.023 303.891 300.023 C 303.891 299.672 303.891 299.320 303.891 298.969 Z"/>
<path id="arc-20" data-left="2" data-right="1" d="M 36.000 396.000 C 73.617 396.000 111.234 396.000 148.852 396.000 C 148.852 396.703 148.852 397.406 148.852 398.109 C 149.203 398.109 149.555 398.109 149.906 398.109 C 149.906 399.867 149.906 401.625 149.906 403.383 C 150.258 403.383 150.609 403.383 150.961 403.383 C 150.961 405.141 150.961 406.898 150.961 408.656 C 151.312 408.656 151.664 408.656 152.016 408.656 C 152.016 410.062 152.016 411.469 152.016 412.875 C 152.367 412.875 152.719 412.875 153.070 412.875 C 153.070 414.281 153.070 415.688 153.070 417.094 C 153.422 417.094 153.773 417.094 154.125 417.094 C 154.125 418.500 154.125 419.906 154.125 421.312 C 154.477 421.312 154.828 421.312 155.180 421.312 C 155.180 422.719 155.180 424.125 155.180 425.531 C 155.531 425.531 155.883 425.531 156.234 425.531 C 156.234 426.586 156.234 427.641 156.234 428.695 C 156.586 428.695 156.938 428.695 157.289 428.695 C 157.289 430.102 157.289 431.508 157.289 432.914 C 157.641 432.914 157.992 432.914 158.344 432.914 C 158.344 433.969 158.344 435.023 158.344 436.078 C 158.695 436.078 159.047 436.078 159.398 436.078 C 159.398 437.133 159.398 438.188 159.398 439.242 C 159.750 439.242 160.102 439.242 160.453 439.242 C 160.453 440.297 160.453 441.352 160.453 442.406 C 160.805 442.406 161.156 442.406 161.508 442.406 C 161.508 443.461 161.508 444.516 161.508 445.570 C 161.859 445.570 162.211 445.570 162.562 445.570 C 162.562 446.273 162.562 446.977 162.562 447.680 C 162.914 447.680 163.266 447.680 163.617 447.680 C 163.617 448.734 163.617 449.789 163.617 450.844 C 163.969 450.844 164.320 450.844 164.672 450.844 C 164.672 451.547 164.672 452.250 164.672 452.953 C 165.023 452.953 165.375 452.953 165.727 452.953 C 165.727 454.008 165.727 455.063 165.727 456.117 C 166.078 456.117 166.430 456.117 166.781 456.117 C 166.781 456.820 166.781 457.523 166.781 458.227 C 167.133 458.227 167.484 458.227 167.836 458.227 C 167.836 459.281 167.836 460.336 167.836 461.391 C 168.188 461.391 168.539 461.391 168.891 461.391 C 168.891 462.094 168.891 462.797 168.891 463.500 C 169.242 463.500 169.594 463.500 169.945 463.500 C 169.945 464.203 169.945 464.906 169.945 465.609 C 170.297 465.609 170.648 465.609 171.000 465.609 C 171.000 487.406 171.000 509.203 171.000 531.000"/>
<path id="arc-21" data-left="1" data-right="0" d="M 36.000 396.000 C 36.000 441.000 36.000 486.000 36.000 531.000"/>
<path id="arc-22" data-left="4" data-right="2" d="M 464.203 396.000 C 464.203 396.703 464.203 397.406 464.203 398.109 C 463.852 398.109 463.500 398.109 463.148 398.109 C 463.148 399.867 463.148 401.625 463.148 403.383 C 462.797 403.383 462.445 403.383 462.094 403.383 C 462.094 405.141 462.094 406.898 462.094 408.656 C 461.742 408.656 461.391 408.656 461.039 408.656 C 461.039 410.062 461.039 411.469 461.039 412.875 C 460.688 412.875 460.336 412.875 459.984 412.875 C 459.984 414.281 459.984 415.688 459.984 417.094 C 459.633 417.094 459.281 417.094 458.930 417.094 C 458.930 418.500 458.930 419.906 458.930 421.312 C 458.578 421.312 458.227 421.312 457.875 421.312 C 457.875 422.719 457.875 424.125 457.875 425.531 C 457.523 425.531 457.172 425.531 456.820 425.531 C 456.820 426.586 456.820 427.641 456.820 428.695 C 456.469 428.695 456.117 428.695 455.766 428.695 C 455.766 430.102 455.766 431.508 455.766 432.914 C 455.414 432.914 455.062 432.914 454.711 432.914 C 454.711 433.969 454.711 435.023 454.711 436.078 C 454.359 436.078 454.008 436.078 453.656 436.078 C 453.656 437.133 453.656 438.188 453.656 439.242 C 453.305 439.242 452.953 439.242 452.602 439.242 C 452.602 440.297 452.602 441.352 452.602 442.406 C 452.250 442.406 451.898 442.406 451.547 442.406 C 451.547 443.461 451.547 444.516 451.547 445.570 C 451.195 445.570 450.844 445.570 450.492 445.570 C 450.492 446.273 450.492 446.977 450.492 447.680 C 450.141 447.680 449.789 447.680 449.438 447.680 C 449.438 448.734 449.438 449.789 449.438 450.844 C 449.086 450.844 448.734 450.844 448.383 450.844 C 448.383 451.547 448.383 452.250 448.383 452.953 C 448.031 452.953 447.680 452.953 447.328 452.953 C 447.328 454.008 447.328 455.063 447.328 456.117 C 446.977 456.117 446.625 456.117 446.273 456.117 C 446.273 456.820 446.273 457.523 446.273 458.227 C 445.922 458.227 445.570 458.227 445.219 458.227 C 445.219 459.281 445.219 460.336 445.219 461.391 C 444.867 461.391 444.516 461.391 444.164 461.391 C 444.164 462.094 444.164 462.797 444.164 463.500 C 443.812 463.500 443.461 463.500 443.109 463.500 C 443.109 464.203 443.109 464.906 443.109 465.609 C 442.758 465.609 442.406 465.609 442.055 465.609 C 442.055 466.312 442.055 467.016 442.055 467.719 C 441.703 467.719 441.352 467.719 441.000 467.719 C 441.000 468.422 441.000 469.125 441.000 469.828"/>
<path id="arc-23" data-left="5" data-right="4" d="M 464.203 396.000 C 501.469 396.000 538.734 396.000 576.000 396.000"/>
<path id="arc-24" data-left="0" data-right="4" d="M 576.000 396.000 C 576.000 441.000 576.000 486.000 576.000 531.000"/>
<path id="arc-25" data-left="3" data-right="2" d="M 441.000 469.828 C 440.648 469.828 440.297 469.828 439.945 469.828 C 439.945 470.531 439.945 471.234 439.945 471.938 C 439.594 471.938 439.242 471.938 438.891 471.938 C 438.891 472.641 438.891 473.344 438.891 474.047 C 438.539 474.047 438.188 474.047 437.836 474.047 C 437.836 474.750 437.836 475.453 437.836 476.156 C 437.484 476.156 437.133 476.156 436.781 476.156 C 436.781 476.859 436.781 477.562 436.781 478.266 C 436.430 478.266 436.078 478.266 435.727 478.266 C 435.727 478.969 435.727 479.672 435.727 480.375 C 435.375 480.375 435.023 480.375 434.672 480.375 C 434.672 481.078 434.672 481.781 434.672 482.484 C 434.320 482.484 433.969 482.484 433.617 482.484 C 433.617 483.188 433.617 483.891 433.617 484.594 C 433.266 484.594 432.914 484.594 432.562 484.594 C 432.562 484.945 432.562 485.297 432.562 485.648 C 432.211 485.648 431.859 485.648 431.508 485.648 C 431.508 486.352 431.508 487.055 431.508 487.758 C 431.156 487.758 430.805 487.758 430.453 487.758 C 430.453 488.461 430.453 489.164 430.453 489.867 C 430.102 489.867 429.750 489.867 429.398 489.867 C 429.398 490.219 429.398 490.570 429.398 490.922 C 429.047 490.922 428.695 490.922 428.344 490.922 C 428.344 491.625 428.344 492.328 428.344 493.031 C 427.992 493.031 427.641 493.031 427.289 493.031 C 427.289 493.383 427.289 493.734 427.289 494.086 C 426.938 494.086 426.586 494.086 426.234 494.086 C 426.234 494.789 426.234 495.492 426.234 496.195 C 425.883 496.195 425.531 496.195 425.180 496.195 C 425.180 496.547 425.180 496.898 425.180 497.250 C 424.828 497.250 424.477 497.250 424.125 497.250 C 424.125 497.953 424.125 498.656 424.125 499.359 C 423.773 499.359 423.422 499.359 423.070 499.359 C 423.070 499.711 423.070 500.062 423.070 500.414 C 422.719 500.414 422.367 500.414 422.016 500.414 C 422.016 501.117 422.016 501.820 422.016 502.523 C 421.664 502.523 421.312 502.523 420.961 502.523 C 420.961 502.875 420.961 503.227 420.961 503.578 C 420.609 503.578 420.258 503.578 419.906 503.578 C 419.906 504.281 419.906 504.984 419.906 505.688 C 419.555 505.688 419.203 505.688 418.852 505.688 C 418.852 506.039 418.852 506.391 418.852 506.742 C 418.500 506.742 418.148 506.742 417.797 506.742 C 417.797 507.094 417.797 507.445 417.797 507.797 C 417.445 507.797 417.094 507.797 416.742 507.797 C 416.742 508.500 416.742 509.203 416.742 509.906 C 416.391 509.906 416.039 509.906 415.688 509.906 C 415.688 510.258 415.688 510.609 415.688 510.961 C 415.336 510.961 414.984 510.961 414.633 510.961 C 414.633 511.312 414.633 511.664 414.633 512.016 C 414.281 512.016 413.930 512.016 413.578 512.016 C 413.578 512.367 413.578 512.719 413.578 513.070 C 413.227 513.070 412.875 513.070 412.523 513.070 C 412.523 513.773 412.523 514.477 412.523 515.180 C 412.172 515.180 411.820 515.180 411.469 515.180 C 411.469 515.531 411.469 515.883 411.469 516.234 C 411.117 516.234 410.766 516.234 410.414 516.234 C 410.414 516.586 410.414 516.938 410.414 517.289 C 410.062 517.289 409.711 517.289 409.359 517.289 C 409.359 517.641 409.359 517.992 409.359 518.344 C 409.008 518.344 408.656 518.344 408.305 518.344 C 408.305 518.695 408.305 519.047 408.305 519.398 C 407.953 519.398 407.602 519.398 407.250 519.398 C 407.250 519.750 407.250 520.102 407.250 520.453 C 406.898 520.453 406.547 520.453 406.195 520.453 C 406.195 520.805 406.195 521.156 406.195 521.508 C 405.844 521.508 405.492 521.508 405.141 521.508 C 405.141 521.859 405.141 522.211 405.141 522.562 C 404.789 522.562 404.438 522.562 404.086 522.562 C 404.086 522.914 404.086 523.266 404.086 523.617 C 403.734 523.617 403.383 523.617 403.031 523.617 C 403.031 524.320 403.031 525.023 403.031 525.727 C 402.680 525.727 402.328 525.727 401.977 525.727 C 401.977 526.078 401.977 526.430 401.977 526.781 C 401.625 526.781 401.273 526.781 400.922 526.781 C 400.922 527.133 400.922 527.484 400.922 527.836 C 400.570 527.836 400.219 527.836 399.867 527.836 C 399.867 528.188 399.867 528.539 399.867 528.891 C 399.516 528.891 399.164 528.891 398.812 528.891 C 398.812 529.242 398.812 529.594 398.812 529.945 C 398.109 529.945 397.406 529.945 396.703 529.945 C 396.703 530.297 396.703 530.648 396.703 531.000"/>
<path id="arc-26" data-left="4" data-right="3" d="M 441.000 469.828 C 441.000 490.219 441.000 510.609 441.000 531.000"/>
<path id="arc-27" data-left="1" data-right="8" d="M 36.000 531.000 C 81.000 531.000 126.000 531.000 171.000 531.000"/>
<path id="arc-28" data-left="8" data-right="0" d="M 36.000 531.000 C 36.000 576.000 36.000 621.000 36.000 666.000"/>
<path id="arc-29" data-left="2" data-right="3" d="M 171.000 531.000 C 186.469 531.000 201.938 531.000 217.406 531.000 C 217.406 531.352 217.406 531.703 217.406 532.055 C 217.758 532.055 218.109 532.055 218.461 532.055 C 218.461 532.406 218.461 532.758 218.461 533.109 C 218.812 533.109 219.164 533.109 219.516 533.109 C 219.516 533.461 219.516 533.812 219.516 534.164 C 219.867 534.164 220.219 534.164 220.570 534.164 C 220.570 534.516 220.570 534.867 220.570 535.219 C 220.922 535.219 221.273 535.219 221.625 535.219 C 221.625 535.570 221.625 535.922 221.625 536.273 C 221.977 536.273 222.328 536.273 222.680 536.273 C 222.680 536.625 222.680 536.977 222.680 537.328 C 223.031 537.328 223.383 537.328 223.734 537.328 C 223.734 537.680 223.734 538.031 223.734 538.383 C 224.438 538.383 225.141 538.383 225.844 538.383 C 225.844 538.734 225.844 539.086 225.844 539.438 C 226.195 539.438 226.547 539.438 226.898 539.438 C 226.898 539.789 226.898 540.141 226.898 540.492 C 227.250 540.492 227.602 540.492 227.953 540.492 C 227.953 540.844 227.953 541.195 227.953 541.547 C 228.305 541.547 228.656 541.547 229.008 541.547 C 229.008 541.898 229.008 542.250 229.008 542.602 C 229.711 542.602 230.414 542.602 231.117 542.602 C 231.117 542.953 231.117 543.305 231.117 543.656 C 231.469 543.656 231.820 543.656 232.172 543.656 C 232.172 544.008 232.172 544.359 232.172 544.711 C 232.875 544.711 233.578 544.711 234.281 544.711 C 234.281 545.062 234.281 545.414 234.281 545.766 C 234.633 545.766 234.984 545.766 235.336 545.766 C 235.336 546.117 235.336 546.469 235.336 546.820 C 236.039 546.820 236.742 546.820 237.445 546.820 C 237.445 547.172 237.445 547.523 237.445 547.875 C 237.797 547.875 238.148 547.875 238.500 547.875 C 238.500 548.227 238.500 548.578 238.500 548.930 C 239.203 548.930 239.906 548.930 240.609 548.930 C 240.609 549.281 240.609 549.633 240.609 549.984 C 240.961 549.984 241.312 549.984 241.664 549.984 C 241.664 550.336 241.664 550.688 241.664 551.039 C 242.367 551.039 243.070 551.039 243.773 551.039 C 243.773 551.391 243.773 551.742 243.773 552.094 C 244.477 552.094 245.180 552.094 245.883 552.094 C 245.883 552.445 245.883 552.797 245.883 553.148 C 246.234 553.148 246.586 553.148 246.938 553.148 C 246.938 553.500 246.938 553.852 246.938 554.203 C 247.641 554.203 248.344 554.203 249.047 554.203 C 249.047 554.555 249.047 554.906 249.047 555.258 C 249.750 555.258 250.453 555.258 251.156 555.258 C 251.156 555.609 251.156 555.961 251.156 556.312 C 251.859 556.312 252.562 556.312 253.266 556.312 C 253.266 556.664 253.266 557.016 253.266 557.367 C 253.969 557.367 254.672 557.367 255.375 557.367 C 255.375 557.719 255.375 558.070 255.375 558.422 C 256.430 558.422 257.484 558.422 258.539 558.422 C 258.539 558.773 258.539 559.125 258.539 559.477 C 259.242 559.477 259.945 559.477 260.648 559.477 C 260.648 559.828 260.648 560.180 260.648 560.531 C 261.352 560.531 262.055 560.531 262.758 560.531 C 262.758 560.883 262.758 561.234 262.758 561.586 C 263.812 561.586 264.867 561.586 265.922 561.586 C 265.922 561.938 265.922 562.289 265.922 562.641 C 266.977 562.641 268.031 562.641 269.086 562.641 C 269.086 562.992 269.086 563.344 269.086 563.695 C 270.141 563.695 271.195 563.695 272.250 563.695 C 272.250 564.047 272.250 564.398 272.250 564.750 C 273.656 564.750 275.062 564.750 276.469 564.750 C 276.469 565.102 276.469 565.453 276.469 565.805 C 277.875 565.805 279.281 565.805 280.688 565.805 C 280.688 566.156 280.688 566.508 280.688 566.859 C 282.094 566.859 283.500 566.859 284.906 566.859 C 284.906 567.211 284.906 567.562 284.906 567.914 C 287.367 567.914 289.828 567.914 292.289 567.914 C 292.289 568.266 292.289 568.617 292.289 568.969 C 296.859 568.969 301.430 568.969 306.000 568.969"/>
<path id="arc-30" data-left="3" data-right="8" d="M 171.000 531.000 C 171.000 576.000 171.000 621.000 171.000 666.000"/>
<path id="arc-31" data-left="7" data-right="2" d="M 396.703 531.000 C 396.352 531.000 396.000 531.000 395.648 531.000 C 395.648 531.352 395.648 531.703 395.648 532.055 C 395.297 532.055 394.945 532.055 394.594 532.055 C 394.594 532.406 394.594 532.758 394.594 533.109 C 394.242 533.109 393.891 533.109 393.539 533.109 C 393.539 533.461 393.539 533.812 393.539 534.164 C 393.188 534.164 392.836 534.164 392.484 534.164 C 392.484 534.516 392.484 534.867 392.484 535.219 C 392.133 535.219 391.781 535.219 391.430 535.219 C 391.430 535.570 391.430 535.922 391.430 536.273 C 391.078 536.273 390.727 536.273 390.375 536.273 C 390.375 536.625 390.375 536.977 390.375 537.328 C 390.023 537.328 389.672 537.328 389.320 537.328 C 389.320 537.680 389.320 538.031 389.320 538.383 C 388.617 538.383 387.914 538.383 387.211 538.383 C 387.211 538.734 387.211 539.086 387.211 539.438 C 386.859 539.438 386.508 539.438 386.156 539.438 C 386.156 539.789 386.156 540.141 386.156 540.492 C 385.805 540.492 385.453 540.492 385.102 540.492 C 385.102 540.844 385.102 541.195 385.102 541.547 C 384.750 541.547 384.398 541.547 384.047 541.547 C 384.047 541.898 384.047 542.250 384.047 542.602 C 383.344 542.602 382.641 542.602 381.938 542.602 C 381.938 542.953 381.938 543.305 381.938 543.656 C 381.586 543.656 381.234 543.656 380.883 543.656 C 380.883 544.008 380.883 544.359 380.883 544.711 C 380.180 544.711 379.477 544.711 378.773 544.711 C 378.773 545.062 378.773 545.414 378.773 545.766 C 378.422 545.766 378.070 545.766 377.719 545.766 C 377.719 546.117 377.719 546.469 377.719 546.820 C 377.016 546.820 376.312 546.820 375.609 546.820 C 375.609 547.172 375.609 547.523 375.609 547.875 C 375.258 547.875 374.906 547.875 374.555 547.875 C 374.555 548.227 374.555 548.578 374.555 548.930 C 373.852 548.930 373.148 548.930 372.445 548.930 C 372.445 549.281 372.445 549.633 372.445 549.984 C 372.094 549.984 371.742 549.984 371.391 549.984 C 371.391 550.336 371.391 550.688 371.391 551.039 C 370.688 551.039 369.984 551.039 369.281 551.039 C 369.281 551.391 369.281 551.742 369.281 552.094 C 368.578 552.094 367.875 552.094 367.172 552.094 C 367.172 552.445 367.172 552.797 367.172 553.148 C 366.820 553.148 366.469 553.148 366.117 553.148 C 366.117 553.500 366.117 553.852 366.117 554.203 C 365.414 554.203 364.711 554.203 364.008 554.203 C 364.008 554.555 364.008 554.906 364.008 555.258 C 363.305 555.258 362.602 555.258 361.898 555.258 C 361.898 555.609 361.898 555.961 361.898 556.312 C 361.195 556.312 360.492 556.312 359.789 556.312 C 359.789 556.664 359.789 557.016 359.789 557.367 C 359.086 557.367 358.383 557.367 357.680 557.367 C 357.680 557.719 357.680 558.070 357.680 558.422 C 356.625 558.422 355.570 558.422 354.516 558.422 C 354.516 558.773 354.516 559.125 354.516 559.477 C 353.812 559.477 353.109 559.477 352.406 559.477 C 352.406 559.828 352.406 560.180 352.406 560.531 C 351.703 560.531 351.000 560.531 350.297 560.531 C 350.297 560.883 350.297 561.234 350.297 561.586 C 349.242 561.586 348.188 561.586 347.133 561.586 C 347.133 561.938 347.133 562.289 347.133 562.641 C 346.078 562.641 345.023 562.641 343.969 562.641 C 343.969 562.992 343.969 563.344 343.969 563.695 C 342.914 563.695 341.859 563.695 340.805 563.695 C 340.805 564.047 340.805 564.398 340.805 564.750 C 339.398 564.750 337.992 564.750 336.586 564.750 C 336.586 565.102 336.586 565.453 336.586 565.805 C 335.180 565.805 333.773 565.805 332.367 565.805 C 332.367 566.156 332.367 566.508 332.367 566.859 C 330.961 566.859 329.555 566.859 328.148 566.859 C 328.148 567.211 328.148 567.562 328.148 567.914 C 325.688 567.914 323.227 567.914 320.766 567.914 C 320.766 568.266 320.766 568.617 320.766 568.969 C 315.844 568.969 310.922 568.969 306.000 568.969"/>
<path id="arc-32" data-left="3" data-right="7" d="M 396.703 531.000 C 411.469 531.000 426.234 531.000 441.000 531.000"/>
<path id="arc-33" data-left="4" data-right="10" d="M 441.000 531.000 C 486.000 531.000 531.000 531.000 576.000 531.000"/>
<path id="arc-34" data-left="10" data-right="7" d="M 441.000 531.000 C 441.000 576.000 441.000 621.000 441.000 666.000"/>
<path id="arc-35" data-left="0" data-right="10" d="M 576.000 531.000 C 576.000 576.000 576.000 621.000 576.000 666.000"/>
<path id="arc-36" data-left="7" data-right="3" d="M 306.000 568.969 C 306.000 601.312 306.000 633.656 306.000 666.000"/>
<path id="arc-37" data-left="8" data-right="0" d="M 36.000 666.000 C 81.000 666.000 126.000 666.000 171.000 666.000"/>
<path id="arc-38" data-left="3" data-right="0" d="M 171.000 666.000 C 216.000 666.000 261.000 666.000 306.000 666.000"/>
<path id="arc-39" data-left="7" data-right="0" d="M 306.000 666.000 C 351.000 666.000 396.000 666.000 441.000 666.000"/>
<path id="arc-40" data-left="10" data-right="0" d="M 441.000 666.000 C 486.000 666.000 531.000 666.000 576.000 666.000"/>
</g>
<g id="labels" font-family="DejaVu Sans" fill="#000" text-anchor="middle" dominant-baseline="central">
<text id="label-0" x="103.500" y="193.500" font-size="14.000">5</text>
<text id="label-1" x="192.098" y="147.790" font-size="14.000">8</text>
<text id="label-2" x="122.435" y="328.451" font-size="14.000">2</text>
<text id="label-3" x="420.088" y="147.110" font-size="14.000">7</text>
<text id="label-4" x="508.500" y="193.500" font-size="14.000">10</text>
<text id="label-5" x="308.597" y="223.611" font-size="14.000">3</text>
<text id="label-6" x="309.568" y="406.736" font-size="14.000">4</text>
<text id="label-7" x="521.947" y="315.053" font-size="14.000">5</text>
<text id="label-8" x="306.527" y="342.211" font-size="14.000">5</text>
<text id="label-9" x="100.336" y="466.664" font-size="14.000">1</text>
<text id="label-10" x="511.928" y="466.928" font-size="14.000">4</text>
<text id="label-11" x="427.693" y="517.380" font-size="14.000">3</text>
<text id="label-12" x="103.500" y="598.500" font-size="14.000">8</text>
<text id="label-13" x="228.217" y="608.783" font-size="14.000">3</text>
<text id="label-14" x="384.047" y="609.047" font-size="14.000">7</text>
<text id="label-15" x="508.500" y="598.500" font-size="14.000">10</text>
</g>
<g id="leaders" stroke="#000" stroke-width="0.250">
</g>
<g id="legend" font-family="DejaVu Sans" font-size="8.000">
<rect id="chip-0" x="20.000" y="20.000" width="20.000" height="20.000" rx="1.500" fill="#ca6285" stroke="#000" stroke-width="0.300"/>
<text id="chip-number-0" x="42.000" y="30.000" fill="#000" dominant-baseline="central">1</text>
<rect id="chip-1" x="46.000" y="20.000" width="20.000" height="20.000" rx="1.500" fill="#c86858" stroke="#000" stroke-width="0.300"/>
<text id="chip-number-1" x="68.000" y="30.000" fill="#000" dominant-baseline="central">2</text>
<rect id="chip-2" x="72.000" y="20.000" width="20.000" height="20.000" rx="1.500" fill="#ad7938" stroke="#000" stroke-width="0.300"/>
<text id="chip-number-2" x="94.000" y="30.000" fill="#000" dominant-baseline="central">3</text>
<rect id="chip-3" x="98.000" y="20.000" width="20.000" height="20.000" rx="1.500" fill="#838936" stroke="#000" stroke-width="0.300"/>
<text id="chip-number-3" x="120.000" y="30.000" fill="#000" dominant-baseline="central">4</text>
<rect id="chip-4" x="124.000" y="20.000" width="20.000" height="20.000" rx="1.500" fill="#4b9354" stroke="#000" stroke-width="0.300"/>
<text id="chip-number-4" x="146.000" y="30.000" fill="#000" dominant-baseline="central">5</text>
<rect id="chip-5" x="150.000" y="20.000" width="20.000" height="20.000" rx="1.500" fill="#009782" stroke="#000" stroke-width="0.300"/>
<text id="chip-number-5" x="172.000" y="30.000" fill="#000" dominant-baseline="central">6</text>
<rect id="chip-6" x="176.000" y="20.000" width="20.000" height="20.000" rx="1.500" fill="#0096b0" stroke="#000" stroke-width="0.300"/>
<text id="chip-number-6" x="198.000" y="30.000" fill="#000" dominant-baseline="central">7</text>
<rect id="chip-7" x="202.000" y="20.000" width="20.000" height="20.000" rx="1.500" fill="#008ecd" stroke="#000" stroke-width="0.300"/>
<text id="chip-number-7" x="224.000" y="30.000" fill="#000" dominant-baseline="central">8</text>
<rect id="chip-8" x="228.000" y="20.000" width="20.000" height="20.000" rx="1.500" fill="#6c80ce" stroke="#000" stroke-width="0.300"/>
<text id="chip-number-8" x="250.000" y="30.000" fill="#000" dominant-baseline="central">9</text>
<rect id="chip-9" x="254.000" y="20.000" width="20.000" height="20.000" rx="1.500" fill="#ac6db2" stroke="#000" stroke-width="0.300"/>
<text id="chip-number-9" x="276.000" y="30.000" fill="#000" dominant-baseline="central">10</text>
</g>
<g id="frame" fill="none" stroke="#000" stroke-width="0.300">
<rect id="content-frame" x="36.000" y="36.000" width="540.000" height="720.000"/>
</g>
</svg>
