<?xml version="1.0" encoding="UTF-8"?>
<!-- mystery-cbn svg 1.0.0 -->
<svg xmlns="http://www.w3.org/2000/svg" version="1.1" width="215.900mm" height="279.400mm" viewBox="0 0 612.000 792.000">
<g id="regions" fill="none" stroke="#000" stroke-width="0.300" stroke-linecap="round" stroke-linejoin="round">
<path id="arc-0" data-left="0" data-right="3" d="M 36.000 126.000 C 49.008 126.000 62.016 126.000 75.023 126.000"/>
<path id="arc-1" data-left="3" data-right="0" d="M 36.000 126.000 C 36.000 171.703 36.000 217.406 36.000 263.109"/>
<path id="arc-2" data-left="0" data-right="2" d="M 75.023 126.000 C 88.031 126.000 101.039 126.000 114.047 126.000"/>
<path id="arc-3" data-left="2" data-right="3" d="M 75.023 126.000 C 75.023 126.352 75.023 126.703 75.023 127.055 C 75.727 127.055 76.430 127.055 77.133 127.055 C 77.133 127.406 77.133 127.758 77.133 128.109 C 78.187 128.109 79.242 128.109 80.297 128.109 C 80.297 128.461 80.297 128.812 80.297 129.164 C 81.000 129.164 81.703 129.164 82.406 129.164 C 82.406 129.516 82.406 129.867 82.406 130.219 C 83.109 130.219 83.812 130.219 84.516 130.219 C 84.516 130.570 84.516 130.922 84.516 131.273 C 85.219 131.273 85.922 131.273 86.625 131.273 C 86.625 131.625 86.625 131.977 86.625 132.328 C 87.328 132.328 88.031 132.328 88.734 132.328 C 88.734 132.680 88.734 133.031 88.734 133.383 C 89.438 133.383 90.141 133.383 90.844 133.383 C 90.844 133.734 90.844 134.086 90.844 134.438 C 91.195 134.438 91.547 134.438 91.898 134.438 C 91.898 134.789 91.898 135.141 91.898 135.492 C 92.602 135.492 93.305 135.492 94.008 135.492 C 94.008 135.844 94.008 136.195 94.008 136.547 C 94.711 136.547 95.414 136.547 96.117 136.547 C 96.117 136.898 96.117 137.250 96.117 137.602 C 97.172 137.602 98.227 137.602 99.281 137.602 C 99.281 137.953 99.281 138.305 99.281 138.656 C 99.984 138.656 100.688 138.656 101.391 138.656 C 101.391 139.008 101.391 139.359 101.391 139.711 C 102.094 139.711 102.797 139.711 103.500 139.711 C 103.500 140.062 103.500 140.414 103.500 140.766 C 104.203 140.766 104.906 140.766 105.609 140.766 C 105.609 141.117 105.609 141.469 105.609 141.820 C 106.312 141.820 107.016 141.820 107.719 141.820 C 107.719 142.172 107.719 142.523 107.719 142.875 C 108.422 142.875 109.125 142.875 109.828 142.875 C 109.828 143.227 109.828 143.578 109.828 143.930 C 110.531 143.930 111.234 143.930 111.938 143.930 C 111.938 144.281 111.938 144.633 111.938 144.984 C 112.641 144.984 113.344 144.984 114.047 144.984 C 114.047 145.336 114.047 145.688 114.047 146.039 C 114.750 146.039 115.453 146.039 116.156 146.039 C 116.156 146.391 116.156 146.742 116.156 147.094 C 116.859 147.094 117.562 147.094 118.266 147.094 C 118.266 147.445 118.266 147.797 118.266 148.148 C 118.969 148.148 119.672 148.148 120.375 148.148 C 120.375 148.500 120.375 148.852 120.375 149.203 C 121.430 149.203 122.484 149.203 123.539 149.203 C 123.539 149.555 123.539 149.906 123.539 150.258 C 124.594 150.258 125.648 150.258 126.703 150.258 C 126.703 150.609 126.703 150.961 126.703 151.312 C 128.109 151.312 129.516 151.312 130.922 151.312 C 130.922 151.664 130.922 152.016 130.922 152.367 C 132.680 152.367 134.438 152.367 136.195 152.367 C 136.195 152.719 136.195 153.070 136.195 153.422 C 140.414 153.422 144.633 153.422 148.852 153.422 C 148.852 153.070 148.852 152.719 148.852 152.367 C 150.961 152.367 153.070 152.367 155.180 152.367 C 155.180 152.016 155.180 151.664 155.180 151.312 C 156.586 151.312 157.992 151.312 159.398 151.312 C 159.398 150.961 159.398 150.609 159.398 150.258 C 160.453 150.258 161.508 150.258 162.562 150.258 C 162.562 149.906 162.562 149.555 162.562 149.203 C 163.266 149.203 163.969 149.203 164.672 149.203 C 164.672 148.852 164.672 148.500 164.672 148.148 C 165.727 148.148 166.781 148.148 167.836 148.148 C 167.836 147.797 167.836 147.445 167.836 147.094 C 168.539 147.094 169.242 147.094 169.945 147.094 C 169.945 146.742 169.945 146.391 169.945 146.039 C 170.648 146.039 171.352 146.039 172.055 146.039 C 172.055 145.688 172.055 145.336 172.055 144.984"/>
<path id="arc-4" data-left="0" data-right="1" d="M 114.047 126.000 C 146.391 126.000 178.734 126.000 211.078 126.000"/>
<path id="arc-5" data-left="1" data-right="2" d="M 114.047 126.000 C 114.047 126.352 114.047 126.703 114.047 127.055 C 115.102 127.055 116.156 127.055 117.211 127.055 C 117.211 127.406 117.211 127.758 117.211 128.109 C 118.266 128.109 119.320 128.109 120.375 128.109 C 120.375 128.461 120.375 128.812 120.375 129.164 C 121.078 129.164 121.781 129.164 122.484 129.164 C 122.484 129.516 122.484 129.867 122.484 130.219 C 123.539 130.219 124.594 130.219 125.648 130.219 C 125.648 130.570 125.648 130.922 125.648 131.273 C 127.406 131.273 129.164 131.273 130.922 131.273 C 130.922 131.625 130.922 131.977 130.922 132.328 C 131.977 132.328 133.031 132.328 134.086 132.328 C 134.086 132.680 134.086 133.031 134.086 133.383 C 135.141 133.383 136.195 133.383 137.250 133.383 C 137.250 133.734 137.250 134.086 137.250 134.438 C 137.953 134.438 138.656 134.438 139.359 134.438 C 139.359 134.789 139.359 135.141 139.359 135.492 C 140.414 135.492 141.469 135.492 142.523 135.492 C 142.523 135.844 142.523 136.195 142.523 136.547 C 143.578 136.547 144.633 136.547 145.688 136.547 C 145.688 136.898 145.688 137.250 145.688 137.602 C 146.742 137.602 147.797 137.602 148.852 137.602 C 148.852 137.953 148.852 138.305 148.852 138.656 C 149.906 138.656 150.961 138.656 152.016 138.656 C 152.016 139.008 152.016 139.359 152.016 139.711 C 153.070 139.711 154.125 139.711 155.180 139.711 C 155.180 140.062 155.180 140.414 155.180 140.766 C 156.586 140.766 157.992 140.766 159.398 140.766 C 159.398 141.117 159.398 141.469 159.398 141.820 C 160.453 141.820 161.508 141.820 162.562 141.820 C 162.562 142.172 162.562 142.523 162.562 142.875 C 163.969 142.875 165.375 142.875 166.781 142.875 C 166.781 143.227 166.781 143.578 166.781 143.930 C 168.539 143.930 170.297 143.930 172.055 143.930 C 172.055 144.281 172.055 144.633 172.055 144.984"/>
<path id="arc-6" data-left="3" data-right="1" d="M 211.078 126.000 C 211.078 126.352 211.078 126.703 211.078 127.055 C 210.023 127.055 208.969 127.055 207.914 127.055 C 207.914 127.406 207.914 127.758 207.914 128.109 C 207.211 128.109 206.508 128.109 205.805 128.109 C 205.805 128.461 205.805 128.812 205.805 129.164 C 205.102 129.164 204.398 129.164 203.695 129.164 C 203.695 129.516 203.695 129.867 203.695 130.219 C 202.992 130.219 202.289 130.219 201.586 130.219 C 201.586 130.570 201.586 130.922 201.586 131.273 C 200.883 131.273 200.180 131.273 199.477 131.273 C 199.477 131.625 199.477 131.977 199.477 132.328 C 198.773 132.328 198.070 132.328 197.367 132.328 C 197.367 132.680 197.367 133.031 197.367 133.383 C 196.664 133.383 195.961 133.383 195.258 133.383 C 195.258 133.734 195.258 134.086 195.258 134.438 C 194.555 134.438 193.852 134.438 193.148 134.438 C 193.148 134.789 193.148 135.141 193.148 135.492 C 192.797 135.492 192.445 135.492 192.094 135.492 C 192.094 135.844 192.094 136.195 192.094 136.547 C 191.391 136.547 190.688 136.547 189.984 136.547 C 189.984 136.898 189.984 137.250 189.984 137.602 C 188.578 137.602 187.172 137.602 185.766 137.602 C 185.766 137.953 185.766 138.305 185.766 138.656 C 185.062 138.656 184.359 138.656 183.656 138.656 C 183.656 139.008 183.656 139.359 183.656 139.711 C 183.305 139.711 182.953 139.711 182.602 139.711 C 182.602 140.062 182.602 140.414 182.602 140.766 C 181.898 140.766 181.195 140.766 180.492 140.766 C 180.492 141.117 180.492 141.469 180.492 141.820 C 179.789 141.820 179.086 141.820 178.383 141.820 C 178.383 142.172 178.383 142.523 178.383 142.875 C 177.680 142.875 176.977 142.875 176.273 142.875 C 176.273 143.227 176.273 143.578 176.273 143.930 C 175.570 143.930 174.867 143.930 174.164 143.930 C 174.164 144.281 174.164 144.633 174.164 144.984 C 173.461 144.984 172.758 144.984 172.055 144.984"/>
<path id="arc-7" data-left="0" data-right="3" d="M 211.078 126.000 C 225.844 126.000 240.609 126.000 255.375 126.000"/>
<path id="arc-8" data-left="0" data-right="1" d="M 255.375 126.000 C 262.758 126.000 270.141 126.000 277.523 126.000"/>
<path id="arc-9" data-left="1" data-right="3" d="M 255.375 126.000 C 255.375 126.352 255.375 126.703 255.375 127.055 C 256.078 127.055 256.781 127.055 257.484 127.055 C 257.484 127.406 257.484 127.758 257.484 128.109 C 258.188 128.109 258.891 128.109 259.594 128.109 C 259.594 128.461 259.594 128.812 259.594 129.164 C 260.297 129.164 261.000 129.164 261.703 129.164 C 261.703 129.516 261.703 129.867 261.703 130.219 C 262.406 130.219 263.109 130.219 263.812 130.219 C 263.812 130.570 263.812 130.922 263.812 131.273 C 264.516 131.273 265.219 131.273 265.922 131.273"/>
<path id="arc-10" data-left="2" data-right="1" d="M 277.523 126.000 C 277.523 126.352 277.523 126.703 277.523 127.055 C 276.469 127.055 275.414 127.055 274.359 127.055 C 274.359 127.406 274.359 127.758 274.359 128.109 C 273.656 128.109 272.953 128.109 272.250 128.109 C 272.250 128.461 272.250 128.812 272.250 129.164 C 271.195 129.164 270.141 129.164 269.086 129.164 C 269.086 129.516 269.086 129.867 269.086 130.219 C 268.031 130.219 266.977 130.219 265.922 130.219 C 265.922 130.570 265.922 130.922 265.922 131.273"/>
<path id="arc-11" data-left="0" data-right="2" d="M 277.523 126.000 C 313.031 126.000 348.539 126.000 384.047 126.000"/>
<path id="arc-12" data-left="0" data-right="1" d="M 384.047 126.000 C 386.156 126.000 388.266 126.000 390.375 126.000"/>
<path id="arc-13" data-left="1" data-right="2" d="M 384.047 126.000 C 384.047 126.352 384.047 126.703 384.047 127.055 C 385.102 127.055 386.156 127.055 387.211 127.055 C 387.211 127.406 387.211 127.758 387.211 128.109"/>
<path id="arc-14" data-left="3" data-right="1" d="M 390.375 126.000 C 390.375 126.352 390.375 126.703 390.375 127.055 C 389.672 127.055 388.969 127.055 388.266 127.055 C 388.266 127.406 388.266 127.758 388.266 128.109 C 387.914 128.109 387.562 128.109 387.211 128.109"/>
<path id="arc-15" data-left="0" data-right="3" d="M 390.375 126.000 C 405.141 126.000 419.906 126.000 434.672 126.000"/>
<path id="arc-16" data-left="0" data-right="1" d="M 434.672 126.000 C 472.289 126.000 509.906 126.000 547.523 126.000"/>
<path id="arc-17" data-left="1" data-right="3" d="M 434.672 126.000 C 434.672 126.352 434.672 126.703 434.672 127.055 C 435.727 127.055 436.781 127.055 437.836 127.055 C 437.836 127.406 437.836 127.758 437.836 128.109 C 438.539 128.109 439.242 128.109 439.945 128.109 C 439.945 128.461 439.945 128.812 439.945 129.164 C 440.648 129.164 441.352 129.164 442.055 129.164 C 442.055 129.516 442.055 129.867 442.055 130.219 C 442.758 130.219 443.461 130.219 444.164 130.219 C 444.164 130.570 444.164 130.922 444.164 131.273 C 444.867 131.273 445.570 131.273 446.273 131.273 C 446.273 131.625 446.273 131.977 446.273 132.328 C 446.977 132.328 447.680 132.328 448.383 132.328 C 448.383 132.680 448.383 133.031 448.383 133.383 C 449.086 133.383 449.789 133.383 450.492 133.383 C 450.492 133.734 450.492 134.086 450.492 134.438 C 451.195 134.438 451.898 134.438 452.602 134.438 C 452.602 134.789 452.602 135.141 452.602 135.492 C 452.953 135.492 453.305 135.492 453.656 135.492 C 453.656 135.844 453.656 136.195 453.656 136.547 C 454.359 136.547 455.062 136.547 455.766 136.547 C 455.766 136.898 455.766 137.250 455.766 137.602 C 457.172 137.602 458.578 137.602 459.984 137.602 C 459.984 137.953 459.984 138.305 459.984 138.656 C 460.688 138.656 461.391 138.656 462.094 138.656 C 462.094 139.008 462.094 139.359 462.094 139.711 C 462.445 139.711 462.797 139.711 463.148 139.711 C 463.148 140.062 463.148 140.414 463.148 140.766 C 463.852 140.766 464.555 140.766 465.258 140.766 C 465.258 141.117 465.258 141.469 465.258 141.820 C 465.961 141.820 466.664 141.820 467.367 141.820 C 467.367 142.172 467.367 142.523 467.367 142.875 C 468.070 142.875 468.773 142.875 469.477 142.875 C 469.477 143.227 469.477 143.578 469.477 143.930 C 470.180 143.930 470.883 143.930 471.586 143.930 C 471.586 144.281 471.586 144.633 471.586 144.984 C 472.289 144.984 472.992 144.984 473.695 144.984 C 473.695 145.336 473.695 145.688 473.695 146.039 C 474.398 146.039 475.102 146.039 475.805 146.039"/>
<path id="arc-18" data-left="3" data-right="2" d="M 570.727 126.000 C 570.727 126.352 570.727 126.703 570.727 127.055 C 570.023 127.055 569.320 127.055 568.617 127.055 C 568.617 127.406 568.617 127.758 568.617 128.109 C 567.562 128.109 566.508 128.109 565.453 128.109 C 565.453 128.461 565.453 128.812 565.453 129.164 C 564.750 129.164 564.047 129.164 563.344 129.164 C 563.344 129.516 563.344 129.867 563.344 130.219 C 562.641 130.219 561.938 130.219 561.234 130.219 C 561.234 130.570 561.234 130.922 561.234 131.273 C 560.531 131.273 559.828 131.273 559.125 131.273 C 559.125 131.625 559.125 131.977 559.125 132.328 C 558.422 132.328 557.719 132.328 557.016 132.328 C 557.016 132.680 557.016 133.031 557.016 133.383 C 556.312 133.383 555.609 133.383 554.906 133.383 C 554.906 133.734 554.906 134.086 554.906 134.438 C 554.555 134.438 554.203 134.438 553.852 134.438 C 553.852 134.789 553.852 135.141 553.852 135.492 C 553.148 135.492 552.445 135.492 551.742 135.492 C 551.742 135.844 551.742 136.195 551.742 136.547 C 551.039 136.547 550.336 136.547 549.633 136.547 C 549.633 136.898 549.633 137.250 549.633 137.602 C 548.578 137.602 547.523 137.602 546.469 137.602 C 546.469 137.953 546.469 138.305 546.469 138.656 C 545.766 138.656 545.062 138.656 544.359 138.656 C 544.359 139.008 544.359 139.359 544.359 139.711 C 543.656 139.711 542.953 139.711 542.250 139.711 C 542.250 140.062 542.250 140.414 542.250 140.766 C 541.547 140.766 540.844 140.766 540.141 140.766 C 540.141 141.117 540.141 141.469 540.141 141.820 C 539.438 141.820 538.734 141.820 538.031 141.820 C 538.031 142.172 538.031 142.523 538.031 142.875 C 537.328 142.875 536.625 142.875 535.922 142.875 C 535.922 143.227 535.922 143.578 535.922 143.930 C 535.219 143.930 534.516 143.930 533.812 143.930 C 533.812 144.281 533.812 144.633 533.812 144.984 C 533.109 144.984 532.406 144.984 531.703 144.984 C 531.703 145.336 531.703 145.688 531.703 146.039 C 531.000 146.039 530.297 146.039 529.594 146.039 C 529.594 146.391 529.594 146.742 529.594 147.094 C 528.891 147.094 528.188 147.094 527.484 147.094 C 527.484 147.445 527.484 147.797 527.484 148.148 C 526.781 148.148 526.078 148.148 525.375 148.148 C 525.375 148.500 525.375 148.852 525.375 149.203 C 524.320 149.203 523.266 149.203 522.211 149.203 C 522.211 149.555 522.211 149.906 522.211 150.258 C 521.156 150.258 520.102 150.258 519.047 150.258 C 519.047 150.609 519.047 150.961 519.047 151.312 C 517.641 151.312 516.234 151.312 514.828 151.312 C 514.828 151.664 514.828 152.016 514.828 152.367 C 513.070 152.367 511.312 152.367 509.555 152.367 C 509.555 152.719 509.555 153.070 509.555 153.422 C 505.336 153.422 501.117 153.422 496.898 153.422 C 496.898 153.070 496.898 152.719 496.898 152.367 C 494.789 152.367 492.680 152.367 490.570 152.367 C 490.570 152.016 490.570 151.664 490.570 151.312 C 489.164 151.312 487.758 151.312 486.352 151.312 C 486.352 150.961 486.352 150.609 486.352 150.258 C 485.297 150.258 484.242 150.258 483.188 150.258 C 483.188 149.906 483.188 149.555 483.188 149.203 C 482.484 149.203 481.781 149.203 481.078 149.203 C 481.078 148.852 481.078 148.500 481.078 148.148 C 480.023 148.148 478.969 148.148 477.914 148.148 C 477.914 147.797 477.914 147.445 477.914 147.094 C 477.211 147.094 476.508 147.094 475.805 147.094 C 475.805 146.742 475.805 146.391 475.805 146.039"/>
<path id="arc-19" data-left="2" data-right="1" d="M 547.523 126.000 C 547.523 126.352 547.523 126.703 547.523 127.055 C 546.469 127.055 545.414 127.055 544.359 127.055 C 544.359 127.406 544.359 127.758 544.359 128.109 C 543.656 128.109 542.953 128.109 542.250 128.109 C 542.250 128.461 542.250 128.812 542.250 129.164 C 541.195 129.164 540.141 129.164 539.086 129.164 C 539.086 129.516 539.086 129.867 539.086 130.219 C 538.031 130.219 536.977 130.219 535.922 130.219 C 535.922 130.570 535.922 130.922 535.922 131.273 C 534.164 131.273 532.406 131.273 530.648 131.273 C 530.648 131.625 530.648 131.977 530.648 132.328 C 529.594 132.328 528.539 132.328 527.484 132.328 C 527.484 132.680 527.484 133.031 527.484 133.383 C 526.781 133.383 526.078 133.383 525.375 133.383 C 525.375 133.734 525.375 134.086 525.375 134.438 C 524.320 134.438 523.266 134.438 522.211 134.438 C 522.211 134.789 522.211 135.141 522.211 135.492 C 521.156 135.492 520.102 135.492 519.047 135.492 C 519.047 135.844 519.047 136.195 519.047 136.547 C 517.992 136.547 516.938 136.547 515.883 136.547 C 515.883 136.898 515.883 137.250 515.883 137.602 C 514.828 137.602 513.773 137.602 512.719 137.602 C 512.719 137.953 512.719 138.305 512.719 138.656 C 511.664 138.656 510.609 138.656 509.555 138.656 C 509.555 139.008 509.555 139.359 509.555 139.711 C 508.500 139.711 507.445 139.711 506.391 139.711 C 506.391 140.062 506.391 140.414 506.391 140.766 C 505.336 140.766 504.281 140.766 503.227 140.766 C 503.227 141.117 503.227 141.469 503.227 141.820 C 501.820 141.820 500.414 141.820 499.008 141.820 C 499.008 142.172 499.008 142.523 499.008 142.875 C 497.602 142.875 496.195 142.875 494.789 142.875 C 494.789 143.227 494.789 143.578 494.789 143.930 C 493.383 143.930 491.977 143.930 490.570 143.930 C 490.570 144.281 490.570 144.633 490.570 144.984 C 488.461 144.984 486.352 144.984 484.242 144.984 C 484.242 145.336 484.242 145.688 484.242 146.039 C 481.430 146.039 478.617 146.039 475.805 146.039"/>
<path id="arc-20" data-left="0" data-right="2" d="M 547.523 126.000 C 555.258 126.000 562.992 126.000 570.727 126.000"/>
<path id="arc-21" data-left="0" data-right="3" d="M 570.727 126.000 C 572.484 126.000 574.242 126.000 576.000 126.000"/>
<path id="arc-22" data-left="0" data-right="3" d="M 576.000 126.000 C 576.000 171.703 576.000 217.406 576.000 263.109"/>
<path id="arc-23" data-left="3" data-right="2" d="M 387.211 128.109 C 386.859 128.109 386.508 128.109 386.156 128.109 C 386.156 128.461 386.156 128.812 386.156 129.164 C 385.453 129.164 384.750 129.164 384.047 129.164 C 384.047 129.516 384.047 129.867 384.047 130.219 C 383.344 130.219 382.641 130.219 381.938 130.219 C 381.938 130.570 381.938 130.922 381.938 131.273 C 381.234 131.273 380.531 131.273 379.828 131.273 C 379.828 131.625 379.828 131.977 379.828 132.328 C 379.125 132.328 378.422 132.328 377.719 132.328 C 377.719 132.680 377.719 133.031 377.719 133.383 C 377.016 133.383 376.312 133.383 375.609 133.383 C 375.609 133.734 375.609 134.086 375.609 134.438 C 374.906 134.438 374.203 134.438 373.500 134.438 C 373.500 134.789 373.500 135.141 373.500 135.492 C 372.797 135.492 372.094 135.492 371.391 135.492 C 371.391 135.844 371.391 136.195 371.391 136.547 C 370.688 136.547 369.984 136.547 369.281 136.547 C 369.281 136.898 369.281 137.250 369.281 137.602 C 368.227 137.602 367.172 137.602 366.117 137.602 C 366.117 137.953 366.117 138.305 366.117 138.656 C 365.414 138.656 364.711 138.656 364.008 138.656 C 364.008 139.008 364.008 139.359 364.008 139.711 C 363.305 139.711 362.602 139.711 361.898 139.711 C 361.898 140.062 361.898 140.414 361.898 140.766 C 361.547 140.766 361.195 140.766 360.844 140.766 C 360.844 141.117 360.844 141.469 360.844 141.820 C 360.141 141.820 359.438 141.820 358.734 141.820 C 358.734 142.172 358.734 142.523 358.734 142.875 C 358.031 142.875 357.328 142.875 356.625 142.875 C 356.625 143.227 356.625 143.578 356.625 143.930 C 355.922 143.930 355.219 143.930 354.516 143.930 C 354.516 144.281 354.516 144.633 354.516 144.984 C 353.812 144.984 353.109 144.984 352.406 144.984 C 352.406 145.336 352.406 145.688 352.406 146.039 C 351.703 146.039 351.000 146.039 350.297 146.039 C 350.297 146.391 350.297 146.742 350.297 147.094 C 349.242 147.094 348.188 147.094 347.133 147.094 C 347.133 147.445 347.133 147.797 347.133 148.148 C 346.430 148.148 345.727 148.148 345.023 148.148 C 345.023 148.500 345.023 148.852 345.023 149.203 C 343.969 149.203 342.914 149.203 341.859 149.203 C 341.859 149.555 341.859 149.906 341.859 150.258 C 340.805 150.258 339.750 150.258 338.695 150.258 C 338.695 150.609 338.695 150.961 338.695 151.312 C 337.641 151.312 336.586 151.312 335.531 151.312 C 335.531 151.664 335.531 152.016 335.531 152.367 C 333.422 152.367 331.313 152.367 329.203 152.367 C 329.203 152.719 329.203 153.070 329.203 153.422 C 324.984 153.422 320.766 153.422 316.547 153.422 C 316.547 153.070 316.547 152.719 316.547 152.367 C 314.437 152.367 312.328 152.367 310.219 152.367 C 310.219 152.016 310.219 151.664 310.219 151.312 C 309.164 151.312 308.109 151.312 307.055 151.312 C 307.055 150.961 307.055 150.609 307.055 150.258 C 306.000 150.258 304.945 150.258 303.891 150.258 C 303.891 149.906 303.891 149.555 303.891 149.203 C 302.836 149.203 301.781 149.203 300.727 149.203 C 300.727 148.852 300.727 148.500 300.727 148.148 C 300.023 148.148 299.320 148.148 298.617 148.148 C 298.617 147.797 298.617 147.445 298.617 147.094 C 297.562 147.094 296.508 147.094 295.453 147.094 C 295.453 146.742 295.453 146.391 295.453 146.039 C 294.750 146.039 294.047 146.039 293.344 146.039 C 293.344 145.688 293.344 145.336 293.344 144.984 C 292.641 144.984 291.938 144.984 291.234 144.984 C 291.234 144.633 291.234 144.281 291.234 143.930 C 290.531 143.930 289.828 143.930 289.125 143.930 C 289.125 143.578 289.125 143.227 289.125 142.875 C 288.422 142.875 287.719 142.875 287.016 142.875 C 287.016 142.523 287.016 142.172 287.016 141.820 C 286.312 141.820 285.609 141.820 284.906 141.820 C 284.906 141.469 284.906 141.117 284.906 140.766 C 284.555 140.766 284.203 140.766 283.852 140.766 C 283.852 140.414 283.852 140.062 283.852 139.711 C 283.148 139.711 282.445 139.711 281.742 139.711 C 281.742 139.359 281.742 139.008 281.742 138.656 C 281.039 138.656 280.336 138.656 279.633 138.656 C 279.633 138.305 279.633 137.953 279.633 137.602 C 278.578 137.602 277.523 137.602 276.469 137.602 C 276.469 137.250 276.469 136.898 276.469 136.547 C 275.766 136.547 275.062 136.547 274.359 136.547 C 274.359 136.195 274.359 135.844 274.359 135.492 C 273.656 135.492 272.953 135.492 272.250 135.492 C 272.250 135.141 272.250 134.789 272.250 134.438 C 271.547 134.438 270.844 134.438 270.141 134.438 C 270.141 134.086 270.141 133.734 270.141 133.383 C 269.438 133.383 268.734 133.383 268.031 133.383 C 268.031 133.031 268.031 132.680 268.031 132.328 C 267.328 132.328 266.625 132.328 265.922 132.328 C 265.922 131.977 265.922 131.625 265.922 131.273"/>
<path id="arc-24" data-left="3" data-right="4" d="M 36.000 263.109 C 36.352 263.109 36.703 263.109 37.055 263.109 C 37.055 262.758 37.055 262.406 37.055 262.055 C 37.758 262.055 38.461 262.055 39.164 262.055 C 39.164 261.703 39.164 261.352 39.164 261.000 C 40.922 261.000 42.680 261.000 44.438 261.000 C 44.438 260.648 44.438 260.297 44.438 259.945 C 47.602 259.945 50.766 259.945 53.930 259.945 C 53.930 260.297 53.930 260.648 53.930 261.000 C 55.336 261.000 56.742 261.000 58.148 261.000 C 58.148 261.352 58.148 261.703 58.148 262.055 C 59.203 262.055 60.258 262.055 61.312 262.055 C 61.312 262.406 61.312 262.758 61.312 263.109 C 62.016 263.109 62.719 263.109 63.422 263.109 C 63.422 263.461 63.422 263.812 63.422 264.164 C 64.125 264.164 64.828 264.164 65.531 264.164 C 65.531 264.516 65.531 264.867 65.531 265.219 C 66.234 265.219 66.938 265.219 67.641 265.219 C 67.641 265.570 67.641 265.922 67.641 266.273 C 67.992 266.273 68.344 266.273 68.695 266.273 C 68.695 266.625 68.695 266.977 68.695 267.328 C 69.398 267.328 70.102 267.328 70.805 267.328 C 70.805 267.680 70.805 268.031 70.805 268.383 C 71.156 268.383 71.508 268.383 71.859 268.383 C 71.859 268.734 71.859 269.086 71.859 269.438 C 72.562 269.438 73.266 269.438 73.969 269.438 C 73.969 269.789 73.969 270.141 73.969 270.492 C 74.320 270.492 74.672 270.492 75.023 270.492 C 75.023 270.844 75.023 271.195 75.023 271.547 C 75.727 271.547 76.430 271.547 77.133 271.547 C 77.133 271.898 77.133 272.250 77.133 272.602 C 77.484 272.602 77.836 272.602 78.188 272.602 C 78.188 272.953 78.188 273.305 78.188 273.656 C 78.539 273.656 78.891 273.656 79.242 273.656 C 79.242 274.008 79.242 274.359 79.242 274.711 C 79.945 274.711 80.648 274.711 81.352 274.711 C 81.352 275.062 81.352 275.414 81.352 275.766 C 82.055 275.766 82.758 275.766 83.461 275.766 C 83.461 276.117 83.461 276.469 83.461 276.820 C 84.164 276.820 84.867 276.820 85.570 276.820 C 85.570 277.172 85.570 277.523 85.570 277.875 C 85.922 277.875 86.273 277.875 86.625 277.875 C 86.625 278.227 86.625 278.578 86.625 278.930 C 86.977 278.930 87.328 278.930 87.680 278.930 C 87.680 279.281 87.680 279.633 87.680 279.984 C 88.383 279.984 89.086 279.984 89.789 279.984 C 89.789 280.336 89.789 280.688 89.789 281.039 C 90.141 281.039 90.492 281.039 90.844 281.039 C 90.844 281.391 90.844 281.742 90.844 282.094 C 91.547 282.094 92.250 282.094 92.953 282.094 C 92.953 282.445 92.953 282.797 92.953 283.148 C 93.305 283.148 93.656 283.148 94.008 283.148 C 94.008 283.500 94.008 283.852 94.008 284.203 C 94.711 284.203 95.414 284.203 96.117 284.203 C 96.117 284.555 96.117 284.906 96.117 285.258 C 96.820 285.258 97.523 285.258 98.227 285.258 C 98.227 285.609 98.227 285.961 98.227 286.312 C 98.578 286.312 98.930 286.312 99.281 286.312 C 99.281 286.664 99.281 287.016 99.281 287.367 C 99.984 287.367 100.688 287.367 101.391 287.367 C 101.391 287.719 101.391 288.070 101.391 288.422 C 102.445 288.422 103.500 288.422 104.555 288.422 C 104.555 288.773 104.555 289.125 104.555 289.477 C 105.258 289.477 105.961 289.477 106.664 289.477 C 106.664 289.828 106.664 290.180 106.664 290.531 C 108.422 290.531 110.180 290.531 111.938 290.531 C 111.938 290.883 111.938 291.234 111.938 291.586 C 115.102 291.586 118.266 291.586 121.430 291.586 C 121.430 291.234 121.430 290.883 121.430 290.531 C 122.836 290.531 124.242 290.531 125.648 290.531 C 125.648 290.180 125.648 289.828 125.648 289.477 C 126.703 289.477 127.758 289.477 128.812 289.477 C 128.812 289.125 128.812 288.773 128.812 288.422 C 129.516 288.422 130.219 288.422 130.922 288.422 C 130.922 288.070 130.922 287.719 130.922 287.367 C 131.625 287.367 132.328 287.367 133.031 287.367 C 133.031 287.016 133.031 286.664 133.031 286.312 C 133.734 286.312 134.438 286.312 135.141 286.312 C 135.141 285.961 135.141 285.609 135.141 285.258 C 135.492 285.258 135.844 285.258 136.195 285.258 C 136.195 284.906 136.195 284.555 136.195 284.203 C 136.898 284.203 137.602 284.203 138.305 284.203 C 138.305 283.852 138.305 283.500 138.305 283.148 C 138.656 283.148 139.008 283.148 139.359 283.148 C 139.359 282.797 139.359 282.445 139.359 282.094 C 140.062 282.094 140.766 282.094 141.469 282.094 C 141.469 281.742 141.469 281.391 141.469 281.039 C 141.820 281.039 142.172 281.039 142.523 281.039 C 142.523 280.688 142.523 280.336 142.523 279.984 C 143.227 279.984 143.930 279.984 144.633 279.984 C 144.633 279.633 144.633 279.281 144.633 278.930 C 144.984 278.930 145.336 278.930 145.688 278.930 C 145.688 278.578 145.688 278.227 145.688 277.875 C 146.039 277.875 146.391 277.875 146.742 277.875 C 146.742 277.523 146.742 277.172 146.742 276.820 C 147.445 276.820 148.148 276.820 148.852 276.820 C 148.852 276.469 148.852 276.117 148.852 275.766 C 149.555 275.766 150.258 275.766 150.961 275.766 C 150.961 275.414 150.961 275.062 150.961 274.711 C 151.664 274.711 152.367 274.711 153.070 274.711 C 153.070 274.359 153.070 274.008 153.070 273.656 C 153.422 273.656 153.773 273.656 154.125 273.656 C 154.125 273.305 154.125 272.953 154.125 272.602 C 154.477 272.602 154.828 272.602 155.180 272.602 C 155.180 272.250 155.180 271.898 155.180 271.547 C 155.883 271.547 156.586 271.547 157.289 271.547 C 157.289 271.195 157.289 270.844 157.289 270.492 C 157.641 270.492 157.992 270.492 158.344 270.492 C 158.344 270.141 158.344 269.789 158.344 269.438 C 159.047 269.438 159.750 269.438 160.453 269.438 C 160.453 269.086 160.453 268.734 160.453 268.383 C 160.805 268.383 161.156 268.383 161.508 268.383 C 161.508 268.031 161.508 267.680 161.508 267.328 C 162.211 267.328 162.914 267.328 163.617 267.328 C 163.617 266.977 163.617 266.625 163.617 266.273 C 164.320 266.273 165.023 266.273 165.727 266.273 C 165.727 265.922 165.727 265.570 165.727 265.219 C 166.078 265.219 166.430 265.219 166.781 265.219 C 166.781 264.867 166.781 264.516 166.781 264.164 C 167.484 264.164 168.188 264.164 168.891 264.164 C 168.891 263.812 168.891 263.461 168.891 263.109 C 169.945 263.109 171.000 263.109 172.055 263.109 C 172.055 262.758 172.055 262.406 172.055 262.055 C 172.758 262.055 173.461 262.055 174.164 262.055 C 174.164 261.703 174.164 261.352 174.164 261.000 C 175.922 261.000 177.680 261.000 179.438 261.000 C 179.438 260.648 179.438 260.297 179.438 259.945 C 182.602 259.945 185.766 259.945 188.930 259.945 C 188.930 260.297 188.930 260.648 188.930 261.000 C 190.336 261.000 191.742 261.000 193.148 261.000 C 193.148 261.352 193.148 261.703 193.148 262.055 C 194.203 262.055 195.258 262.055 196.312 262.055 C 196.312 262.406 196.312 262.758 196.312 263.109 C 197.016 263.109 197.719 263.109 198.422 263.109 C 198.422 263.461 198.422 263.812 198.422 264.164 C 199.125 264.164 199.828 264.164 200.531 264.164 C 200.531 264.516 200.531 264.867 200.531 265.219 C 201.234 265.219 201.938 265.219 202.641 265.219 C 202.641 265.570 202.641 265.922 202.641 266.273 C 202.992 266.273 203.344 266.273 203.695 266.273 C 203.695 266.625 203.695 266.977 203.695 267.328 C 204.398 267.328 205.102 267.328 205.805 267.328 C 205.805 267.680 205.805 268.031 205.805 268.383 C 206.156 268.383 206.508 268.383 206.859 268.383 C 206.859 268.734 206.859 269.086 206.859 269.438 C 207.562 269.438 208.266 269.438 208.969 269.438 C 208.969 269.789 208.969 270.141 208.969 270.492 C 209.320 270.492 209.672 270.492 210.023 270.492 C 210.023 270.844 210.023 271.195 210.023 271.547 C 210.727 271.547 211.430 271.547 212.133 271.547 C 212.133 271.898 212.133 272.250 212.133 272.602 C 212.484 272.602 212.836 272.602 213.188 272.602 C 213.188 272.953 213.188 273.305 213.188 273.656 C 213.539 273.656 213.891 273.656 214.242 273.656 C 214.242 274.008 214.242 274.359 214.242 274.711 C 214.945 274.711 215.648 274.711 216.352 274.711 C 216.352 275.062 216.352 275.414 216.352 275.766 C 217.055 275.766 217.758 275.766 218.461 275.766 C 218.461 276.117 218.461 276.469 218.461 276.820 C 219.164 276.820 219.867 276.820 220.570 276.820 C 220.570 277.172 220.570 277.523 220.570 277.875 C 220.922 277.875 221.273 277.875 221.625 277.875 C 221.625 278.227 221.625 278.578 221.625 278.930 C 221.977 278.930 222.328 278.930 222.680 278.930 C 222.680 279.281 222.680 279.633 222.680 279.984 C 223.383 279.984 224.086 279.984 224.789 279.984 C 224.789 280.336 224.789 280.688 224.789 281.039 C 225.141 281.039 225.492 281.039 225.844 281.039 C 225.844 281.391 225.844 281.742 225.844 282.094 C 226.547 282.094 227.250 282.094 227.953 282.094 C 227.953 282.445 227.953 282.797 227.953 283.148 C 228.305 283.148 228.656 283.148 229.008 283.148 C 229.008 283.500 229.008 283.852 229.008 284.203 C 229.711 284.203 230.414 284.203 231.117 284.203 C 231.117 284.555 231.117 284.906 231.117 285.258 C 231.820 285.258 232.523 285.258 233.227 285.258 C 233.227 285.609 233.227 285.961 233.227 286.312 C 233.578 286.312 233.930 286.312 234.281 286.312 C 234.281 286.664 234.281 287.016 234.281 287.367 C 234.984 287.367 235.688 287.367 236.391 287.367 C 236.391 287.719 236.391 288.070 236.391 288.422 C 237.445 288.422 238.500 288.422 239.555 288.422 C 239.555 288.773 239.555 289.125 239.555 289.477 C 240.258 289.477 240.961 289.477 241.664 289.477 C 241.664 289.828 241.664 290.180 241.664 290.531 C 243.422 290.531 245.180 290.531 246.938 290.531 C 246.938 290.883 246.938 291.234 246.938 291.586 C 250.102 291.586 253.266 291.586 256.430 291.586 C 256.430 291.234 256.430 290.883 256.430 290.531 C 257.836 290.531 259.242 290.531 260.648 290.531 C 260.648 290.180 260.648 289.828 260.648 289.477 C 261.703 289.477 262.758 289.477 263.812 289.477 C 263.812 289.125 263.812 288.773 263.812 288.422 C 264.516 288.422 265.219 288.422 265.922 288.422 C 265.922 288.070 265.922 287.719 265.922 287.367 C 266.625 287.367 267.328 287.367 268.031 287.367 C 268.031 287.016 268.031 286.664 268.031 286.312 C 268.734 286.312 269.438 286.312 270.141 286.312 C 270.141 285.961 270.141 285.609 270.141 285.258 C 270.492 285.258 270.844 285.258 271.195 285.258 C 271.195 284.906 271.195 284.555 271.195 284.203 C 271.898 284.203 272.602 284.203 273.305 284.203 C 273.305 283.852 273.305 283.500 273.305 283.148 C 273.656 283.148 274.008 283.148 274.359 283.148 C 274.359 282.797 274.359 282.445 274.359 282.094 C 275.062 282.094 275.766 282.094 276.469 282.094 C 276.469 281.742 276.469 281.391 276.469 281.039 C 276.820 281.039 277.172 281.039 277.523 281.039 C 277.523 280.688 277.523 280.336 277.523 279.984 C 278.227 279.984 278.930 279.984 279.633 279.984 C 279.633 279.633 279.633 279.281 279.633 278.930 C 279.984 278.930 280.336 278.930 280.688 278.930 C 280.688 278.578 280.688 278.227 280.688 277.875 C 281.039 277.875 281.391 277.875 281.742 277.875 C 281.742 277.523 281.742 277.172 281.742 276.820 C 282.445 276.820 283.148 276.820 283.852 276.820 C 283.852 276.469 283.852 276.117 283.852 275.766 C 284.555 275.766 285.258 275.766 285.961 275.766 C 285.961 275.414 285.961 275.062 285.961 274.711 C 286.664 274.711 287.367 274.711 288.070 274.711 C 288.070 274.359 288.070 274.008 288.070 273.656 C 288.422 273.656 288.773 273.656 289.125 273.656 C 289.125 273.305 289.125 272.953 289.125 272.602 C 289.477 272.602 289.828 272.602 290.180 272.602 C 290.180 272.250 290.180 271.898 290.180 271.547 C 290.883 271.547 291.586 271.547 292.289 271.547 C 292.289 271.195 292.289 270.844 292.289 270.492 C 292.641 270.492 292.992 270.492 293.344 270.492 C 293.344 270.141 293.344 269.789 293.344 269.438 C 294.047 269.438 294.750 269.438 295.453 269.438 C 295.453 269.086 295.453 268.734 295.453 268.383 C 295.805 268.383 296.156 268.383 296.508 268.383 C 296.508 268.031 296.508 267.680 296.508 267.328 C 297.211 267.328 297.914 267.328 298.617 267.328 C 298.617 266.977 298.617 266.625 298.617 266.273 C 299.320 266.273 300.023 266.273 300.727 266.273 C 300.727 265.922 300.727 265.570 300.727 265.219 C 301.078 265.219 301.430 265.219 301.781 265.219 C 301.781 264.867 301.781 264.516 301.781 264.164 C 302.484 264.164 303.188 264.164 303.891 264.164 C 303.891 263.812 303.891 263.461 303.891 263.109 C 304.945 263.109 306.000 263.109 307.055 263.109 C 307.055 262.758 307.055 262.406 307.055 262.055 C 307.758 262.055 308.461 262.055 309.164 262.055 C 309.164 261.703 309.164 261.352 309.164 261.000 C 310.922 261.000 312.680 261.000 314.438 261.000 C 314.438 260.648 314.438 260.297 314.438 259.945 C 317.602 259.945 320.766 259.945 323.930 259.945 C 323.930 260.297 323.930 260.648 323.930 261.000 C 325.336 261.000 326.742 261.000 328.148 261.000 C 328.148 261.352 328.148 261.703 328.148 262.055 C 329.203 262.055 330.258 262.055 331.312 262.055 C 331.312 262.406 331.312 262.758 331.312 263.109 C 332.016 263.109 332.719 263.109 333.422 263.109 C 333.422 263.461 333.422 263.812 333.422 264.164 C 334.125 264.164 334.828 264.164 335.531 264.164 C 335.531 264.516 335.531 264.867 335.531 265.219 C 336.234 265.219 336.938 265.219 337.641 265.219 C 337.641 265.570 337.641 265.922 337.641 266.273 C 337.992 266.273 338.344 266.273 338.695 266.273 C 338.695 266.625 338.695 266.977 338.695 267.328 C 339.398 267.328 340.102 267.328 340.805 267.328 C 340.805 267.680 340.805 268.031 340.805 268.383 C 341.156 268.383 341.508 268.383 341.859 268.383 C 341.859 268.734 341.859 269.086 341.859 269.438 C 342.562 269.438 343.266 269.438 343.969 269.438 C 343.969 269.789 343.969 270.141 343.969 270.492 C 344.320 270.492 344.672 270.492 345.023 270.492 C 345.023 270.844 345.023 271.195 345.023 271.547 C 345.727 271.547 346.430 271.547 347.133 271.547 C 347.133 271.898 347.133 272.250 347.133 272.602 C 347.484 272.602 347.836 272.602 348.188 272.602 C 348.188 272.953 348.188 273.305 348.188 273.656 C 348.539 273.656 348.891 273.656 349.242 273.656 C 349.242 274.008 349.242 274.359 349.242 274.711 C 349.945 274.711 350.648 274.711 351.352 274.711 C 351.352 275.062 351.352 275.414 351.352 275.766 C 352.055 275.766 352.758 275.766 353.461 275.766 C 353.461 276.117 353.461 276.469 353.461 276.820 C 354.164 276.820 354.867 276.820 355.570 276.820 C 355.570 277.172 355.570 277.523 355.570 277.875 C 355.922 277.875 356.273 277.875 356.625 277.875 C 356.625 278.227 356.625 278.578 356.625 278.930 C 356.977 278.930 357.328 278.930 357.680 278.930 C 357.680 279.281 357.680 279.633 357.680 279.984 C 358.383 279.984 359.086 279.984 359.789 279.984 C 359.789 280.336 359.789 280.688 359.789 281.039 C 360.141 281.039 360.492 281.039 360.844 281.039 C 360.844 281.391 360.844 281.742 360.844 282.094 C 361.547 282.094 362.250 282.094 362.953 282.094 C 362.953 282.445 362.953 282.797 362.953 283.148 C 363.305 283.148 363.656 283.148 364.008 283.148 C 364.008 283.500 364.008 283.852 364.008 284.203 C 364.711 284.203 365.414 284.203 366.117 284.203 C 366.117 284.555 366.117 284.906 366.117 285.258 C 366.820 285.258 367.523 285.258 368.227 285.258 C 368.227 285.609 368.227 285.961 368.227 286.312 C 368.578 286.312 368.930 286.312 369.281 286.312 C 369.281 286.664 369.281 287.016 369.281 287.367 C 369.984 287.367 370.688 287.367 371.391 287.367 C 371.391 287.719 371.391 288.070 371.391 288.422 C 372.445 288.422 373.500 288.422 374.555 288.422 C 374.555 288.773 374.555 289.125 374.555 289.477 C 375.258 289.477 375.961 289.477 376.664 289.477 C 376.664 289.828 376.664 290.180 376.664 290.531 C 378.422 290.531 380.180 290.531 381.938 290.531 C 381.938 290.883 381.938 291.234 381.938 291.586 C 385.102 291.586 388.266 291.586 391.430 291.586 C 391.430 291.234 391.430 290.883 391.430 290.531 C 392.836 290.531 394.242 290.531 395.648 290.531 C 395.648 290.180 395.648 289.828 395.648 289.477 C 396.703 289.477 397.758 289.477 398.812 289.477 C 398.812 289.125 398.812 288.773 398.812 288.422 C 399.516 288.422 400.219 288.422 400.922 288.422 C 400.922 288.070 400.922 287.719 400.922 287.367 C 401.625 287.367 402.328 287.367 403.031 287.367 C 403.031 287.016 403.031 286.664 403.031 286.312 C 403.734 286.312 404.438 286.312 405.141 286.312 C 405.141 285.961 405.141 285.609 405.141 285.258 C 405.492 285.258 405.844 285.258 406.195 285.258 C 406.195 284.906 406.195 284.555 406.195 284.203 C 406.898 284.203 407.602 284.203 408.305 284.203 C 408.305 283.852 408.305 283.500 408.305 283.148 C 408.656 283.148 409.008 283.148 409.359 283.148 C 409.359 282.797 409.359 282.445 409.359 282.094 C 410.062 282.094 410.766 282.094 411.469 282.094 C 411.469 281.742 411.469 281.391 411.469 281.039 C 411.820 281.039 412.172 281.039 412.523 281.039 C 412.523 280.688 412.523 280.336 412.523 279.984 C 413.227 279.984 413.930 279.984 414.633 279.984 C 414.633 279.633 414.633 279.281 414.633 278.930 C 414.984 278.930 415.336 278.930 415.688 278.930 C 415.688 278.578 415.688 278.227 415.688 277.875 C 416.039 277.875 416.391 277.875 416.742 277.875 C 416.742 277.523 416.742 277.172 416.742 276.820 C 417.445 276.820 418.148 276.820 418.852 276.820 C 418.852 276.469 418.852 276.117 418.852 275.766 C 419.555 275.766 420.258 275.766 420.961 275.766 C 420.961 275.414 420.961 275.062 420.961 274.711 C 421.664 274.711 422.367 274.711 423.070 274.711 C 423.070 274.359 423.070 274.008 423.070 273.656 C 423.422 273.656 423.773 273.656 424.125 273.656 C 424.125 273.305 424.125 272.953 424.125 272.602 C 424.477 272.602 424.828 272.602 425.180 272.602 C 425.180 272.250 425.180 271.898 425.180 271.547 C 425.883 271.547 426.586 271.547 427.289 271.547 C 427.289 271.195 427.289 270.844 427.289 270.492 C 427.641 270.492 427.992 270.492 428.344 270.492 C 428.344 270.141 428.344 269.789 428.344 269.438 C 429.047 269.438 429.750 269.438 430.453 269.438 C 430.453 269.086 430.453 268.734 430.453 268.383 C 430.805 268.383 431.156 268.383 431.508 268.383 C 431.508 268.031 431.508 267.680 431.508 267.328 C 432.211 267.328 432.914 267.328 433.617 267.328 C 433.617 266.977 433.617 266.625 433.617 266.273 C 434.320 266.273 435.023 266.273 435.727 266.273 C 435.727 265.922 435.727 265.570 435.727 265.219 C 436.078 265.219 436.430 265.219 436.781 265.219 C 436.781 264.867 436.781 264.516 436.781 264.164 C 437.484 264.164 438.188 264.164 438.891 264.164 C 438.891 263.812 438.891 263.461 438.891 263.109 C 439.945 263.109 441.000 263.109 442.055 263.109 C 442.055 262.758 442.055 262.406 442.055 262.055 C 442.758 262.055 443.461 262.055 444.164 262.055 C 444.164 261.703 444.164 261.352 444.164 261.000 C 445.922 261.000 447.680 261.000 449.438 261.000 C 449.438 260.648 449.438 260.297 449.438 259.945 C 452.602 259.945 455.766 259.945 458.930 259.945 C 458.930 260.297 458.930 260.648 458.930 261.000 C 460.336 261.000 461.742 261.000 463.148 261.000 C 463.148 261.352 463.148 261.703 463.148 262.055 C 464.203 262.055 465.258 262.055 466.312 262.055 C 466.312 262.406 466.312 262.758 466.312 263.109 C 467.016 263.109 467.719 263.109 468.422 263.109 C 468.422 263.461 468.422 263.812 468.422 264.164 C 469.125 264.164 469.828 264.164 470.531 264.164 C 470.531 264.516 470.531 264.867 470.531 265.219 C 471.234 265.219 471.938 265.219 472.641 265.219 C 472.641 265.570 472.641 265.922 472.641 266.273 C 472.992 266.273 473.344 266.273 473.695 266.273 C 473.695 266.625 473.695 266.977 473.695 267.328 C 474.398 267.328 475.102 267.328 475.805 267.328 C 475.805 267.680 475.805 268.031 475.805 268.383 C 476.156 268.383 476.508 268.383 476.859 268.383 C 476.859 268.734 476.859 269.086 476.859 269.438 C 477.562 269.438 478.266 269.438 478.969 269.438 C 478.969 269.789 478.969 270.141 478.969 270.492 C 479.320 270.492 479.672 270.492 480.023 270.492 C 480.023 270.844 480.023 271.195 480.023 271.547 C 480.727 271.547 481.430 271.547 482.133 271.547 C 482.133 271.898 482.133 272.250 482.133 272.602 C 482.484 272.602 482.836 272.602 483.188 272.602 C 483.188 272.953 483.188 273.305 483.188 273.656 C 483.539 273.656 483.891 273.656 484.242 273.656 C 484.242 274.008 484.242 274.359 484.242 274.711 C 484.945 274.711 485.648 274.711 486.352 274.711 C 486.352 275.062 486.352 275.414 486.352 275.766 C 487.055 275.766 487.758 275.766 488.461 275.766 C 488.461 276.117 488.461 276.469 488.461 276.820 C 489.164 276.820 489.867 276.820 490.570 276.820 C 490.570 277.172 490.570 277.523 490.570 277.875 C 490.922 277.875 491.273 277.875 491.625 277.875 C 491.625 278.227 491.625 278.578 491.625 278.930 C 491.977 278.930 492.328 278.930 492.680 278.930 C 492.680 279.281 492.680 279.633 492.680 279.984 C 493.383 279.984 494.086 279.984 494.789 279.984 C 494.789 280.336 494.789 280.688 494.789 281.039 C 495.141 281.039 495.492 281.039 495.844 281.039 C 495.844 281.391 495.844 281.742 495.844 282.094 C 496.547 282.094 497.250 282.094 497.953 282.094 C 497.953 282.445 497.953 282.797 497.953 283.148 C 498.305 283.148 498.656 283.148 499.008 283.148 C 499.008 283.500 499.008 283.852 499.008 284.203 C 499.711 284.203 500.414 284.203 501.117 284.203 C 501.117 284.555 501.117 284.906 501.117 285.258 C 501.820 285.258 502.523 285.258 503.227 285.258 C 503.227 285.609 503.227 285.961 503.227 286.312 C 503.578 286.312 503.930 286.312 504.281 286.312 C 504.281 286.664 504.281 287.016 504.281 287.367 C 504.984 287.367 505.688 287.367 506.391 287.367 C 506.391 287.719 506.391 288.070 506.391 288.422 C 507.445 288.422 508.500 288.422 509.555 288.422 C 509.555 288.773 509.555 289.125 509.555 289.477 C 510.258 289.477 510.961 289.477 511.664 289.477 C 511.664 289.828 511.664 290.180 511.664 290.531 C 513.422 290.531 515.180 290.531 516.938 290.531 C 516.938 290.883 516.938 291.234 516.938 291.586 C 520.102 291.586 523.266 291.586 526.430 291.586 C 526.430 291.234 526.430 290.883 526.430 290.531 C 527.836 290.531 529.242 290.531 530.648 290.531 C 530.648 290.180 530.648 289.828 530.648 289.477 C 531.703 289.477 532.758 289.477 533.812 289.477 C 533.812 289.125 533.812 288.773 533.812 288.422 C 534.516 288.422 535.219 288.422 535.922 288.422 C 535.922 288.070 535.922 287.719 535.922 287.367 C 536.625 287.367 537.328 287.367 538.031 287.367 C 538.031 287.016 538.031 286.664 538.031 286.312 C 538.734 286.312 539.438 286.312 540.141 286.312 C 540.141 285.961 540.141 285.609 540.141 285.258 C 540.492 285.258 540.844 285.258 541.195 285.258 C 541.195 284.906 541.195 284.555 541.195 284.203 C 541.898 284.203 542.602 284.203 543.305 284.203 C 543.305 283.852 543.305 283.500 543.305 283.148 C 543.656 283.148 544.008 283.148 544.359 283.148 C 544.359 282.797 544.359 282.445 544.359 282.094 C 545.062 282.094 545.766 282.094 546.469 282.094 C 546.469 281.742 546.469 281.391 546.469 281.039 C 546.820 281.039 547.172 281.039 547.523 281.039 C 547.523 280.688 547.523 280.336 547.523 279.984 C 548.227 279.984 548.930 279.984 549.633 279.984 C 549.633 279.633 549.633 279.281 549.633 278.930 C 549.984 278.930 550.336 278.930 550.688 278.930 C 550.688 278.578 550.688 278.227 550.688 277.875 C 551.039 277.875 551.391 277.875 551.742 277.875 C 551.742 277.523 551.742 277.172 551.742 276.820 C 552.445 276.820 553.148 276.820 553.852 276.820 C 553.852 276.469 553.852 276.117 553.852 275.766 C 554.555 275.766 555.258 275.766 555.961 275.766 C 555.961 275.414 555.961 275.062 555.961 274.711 C 556.664 274.711 557.367 274.711 558.070 274.711 C 558.070 274.359 558.070 274.008 558.070 273.656 C 558.422 273.656 558.773 273.656 559.125 273.656 C 559.125 273.305 559.125 272.953 559.125 272.602 C 559.477 272.602 559.828 272.602 560.180 272.602 C 560.180 272.250 560.180 271.898 560.180 271.547 C 560.883 271.547 561.586 271.547 562.289 271.547 C 562.289 271.195 562.289 270.844 562.289 270.492 C 562.641 270.492 562.992 270.492 563.344 270.492 C 563.344 270.141 563.344 269.789 563.344 269.438 C 564.047 269.438 564.750 269.438 565.453 269.438 C 565.453 269.086 565.453 268.734 565.453 268.383 C 565.805 268.383 566.156 268.383 566.508 268.383 C 566.508 268.031 566.508 267.680 566.508 267.328 C 567.211 267.328 567.914 267.328 568.617 267.328 C 568.617 266.977 568.617 266.625 568.617 266.273 C 569.320 266.273 570.023 266.273 570.727 266.273 C 570.727 265.922 570.727 265.570 570.727 265.219 C 571.078 265.219 571.430 265.219 571.781 265.219 C 571.781 264.867 571.781 264.516 571.781 264.164 C 572.484 264.164 573.188 264.164 573.891 264.164 C 573.891 263.812 573.891 263.461 573.891 263.109 C 574.594 263.109 575.297 263.109 576.000 263.109"/>
<path id="arc-25" data-left="4" data-right="0" d="M 36.000 263.109 C 36.000 284.555 36.000 306.000 36.000 327.445"/>
<path id="arc-26" data-left="0" data-right="4" d="M 576.000 263.109 C 576.000 284.555 576.000 306.000 576.000 327.445"/>
<path id="arc-27" data-left="4" data-right="5" d="M 36.000 327.445 C 36.352 327.445 36.703 327.445 37.055 327.445 C 37.055 327.094 37.055 326.742 37.055 326.391 C 37.758 326.391 38.461 326.391 39.164 326.391 C 39.164 326.039 39.164 325.688 39.164 325.336 C 40.219 325.336 41.273 325.336 42.328 325.336 C 42.328 324.984 42.328 324.633 42.328 324.281 C 44.789 324.281 47.250 324.281 49.711 324.281 C 49.711 324.633 49.711 324.984 49.711 325.336 C 51.117 325.336 52.523 325.336 53.930 325.336 C 53.930 325.688 53.930 326.039 53.930 326.391 C 54.633 326.391 55.336 326.391 56.039 326.391 C 56.039 326.742 56.039 327.094 56.039 327.445 C 56.742 327.445 57.445 327.445 58.148 327.445 C 58.148 327.797 58.148 328.148 58.148 328.500 C 58.500 328.500 58.852 328.500 59.203 328.500 C 59.203 328.852 59.203 329.203 59.203 329.555 C 59.906 329.555 60.609 329.555 61.312 329.555 C 61.312 329.906 61.312 330.258 61.312 330.609 C 61.664 330.609 62.016 330.609 62.367 330.609 C 62.367 330.961 62.367 331.312 62.367 331.664 C 62.719 331.664 63.070 331.664 63.422 331.664 C 63.422 332.016 63.422 332.367 63.422 332.719 C 64.125 332.719 64.828 332.719 65.531 332.719 C 65.531 333.070 65.531 333.422 65.531 333.773 C 65.883 333.773 66.234 333.773 66.586 333.773 C 66.586 334.125 66.586 334.477 66.586 334.828 C 66.938 334.828 67.289 334.828 67.641 334.828 C 67.641 335.180 67.641 335.531 67.641 335.883 C 67.992 335.883 68.344 335.883 68.695 335.883 C 68.695 336.234 68.695 336.586 68.695 336.938 C 69.047 336.938 69.398 336.938 69.750 336.938 C 69.750 337.289 69.750 337.641 69.750 337.992 C 70.102 337.992 70.453 337.992 70.805 337.992 C 70.805 338.344 70.805 338.695 70.805 339.047 C 71.156 339.047 71.508 339.047 71.859 339.047 C 71.859 339.398 71.859 339.750 71.859 340.102 C 72.562 340.102 73.266 340.102 73.969 340.102 C 73.969 340.453 73.969 340.805 73.969 341.156 C 74.672 341.156 75.375 341.156 76.078 341.156 C 76.078 341.508 76.078 341.859 76.078 342.211 C 76.430 342.211 76.781 342.211 77.133 342.211 C 77.133 342.562 77.133 342.914 77.133 343.266 C 77.484 343.266 77.836 343.266 78.188 343.266 C 78.188 343.617 78.188 343.969 78.188 344.320 C 78.539 344.320 78.891 344.320 79.242 344.320 C 79.242 344.672 79.242 345.023 79.242 345.375 C 79.594 345.375 79.945 345.375 80.297 345.375 C 80.297 345.727 80.297 346.078 80.297 346.430 C 80.648 346.430 81.000 346.430 81.352 346.430 C 81.352 346.781 81.352 347.133 81.352 347.484 C 81.703 347.484 82.055 347.484 82.406 347.484 C 82.406 347.836 82.406 348.188 82.406 348.539 C 83.109 348.539 83.812 348.539 84.516 348.539 C 84.516 348.891 84.516 349.242 84.516 349.594 C 84.867 349.594 85.219 349.594 85.570 349.594 C 85.570 349.945 85.570 350.297 85.570 350.648 C 85.922 350.648 86.273 350.648 86.625 350.648 C 86.625 351.000 86.625 351.352 86.625 351.703 C 87.328 351.703 88.031 351.703 88.734 351.703 C 88.734 352.055 88.734 352.406 88.734 352.758 C 89.438 352.758 90.141 352.758 90.844 352.758 C 90.844 353.109 90.844 353.461 90.844 353.812 C 91.547 353.812 92.250 353.812 92.953 353.812 C 92.953 354.164 92.953 354.516 92.953 354.867 C 94.008 354.867 95.063 354.867 96.117 354.867 C 96.117 355.219 96.117 355.570 96.117 355.922 C 98.930 355.922 101.742 355.922 104.555 355.922 C 104.555 355.570 104.555 355.219 104.555 354.867 C 105.609 354.867 106.664 354.867 107.719 354.867 C 107.719 354.516 107.719 354.164 107.719 353.812 C 108.422 353.812 109.125 353.812 109.828 353.812 C 109.828 353.461 109.828 353.109 109.828 352.758 C 110.531 352.758 111.234 352.758 111.938 352.758 C 111.938 352.406 111.938 352.055 111.938 351.703 C 112.641 351.703 113.344 351.703 114.047 351.703 C 114.047 351.352 114.047 351.000 114.047 350.648 C 114.398 350.648 114.750 350.648 115.102 350.648 C 115.102 350.297 115.102 349.945 115.102 349.594 C 115.453 349.594 115.805 349.594 116.156 349.594 C 116.156 349.242 116.156 348.891 116.156 348.539 C 116.859 348.539 117.562 348.539 118.266 348.539 C 118.266 348.188 118.266 347.836 118.266 347.484 C 118.617 347.484 118.969 347.484 119.320 347.484 C 119.320 347.133 119.320 346.781 119.320 346.430 C 119.672 346.430 120.023 346.430 120.375 346.430 C 120.375 346.078 120.375 345.727 120.375 345.375 C 120.727 345.375 121.078 345.375 121.430 345.375 C 121.430 345.023 121.430 344.672 121.430 344.320 C 121.781 344.320 122.133 344.320 122.484 344.320 C 122.484 343.969 122.484 343.617 122.484 343.266 C 122.836 343.266 123.188 343.266 123.539 343.266 C 123.539 342.914 123.539 342.562 123.539 342.211 C 123.891 342.211 124.242 342.211 124.594 342.211 C 124.594 341.859 124.594 341.508 124.594 341.156 C 125.297 341.156 126.000 341.156 126.703 341.156 C 126.703 340.805 126.703 340.453 126.703 340.102 C 127.406 340.102 128.109 340.102 128.812 340.102 C 128.812 339.750 128.812 339.398 128.812 339.047 C 129.164 339.047 129.516 339.047 129.867 339.047 C 129.867 338.695 129.867 338.344 129.867 337.992 C 130.219 337.992 130.570 337.992 130.922 337.992 C 130.922 337.641 130.922 337.289 130.922 336.938 C 131.273 336.938 131.625 336.938 131.977 336.938 C 131.977 336.586 131.977 336.234 131.977 335.883 C 132.328 335.883 132.680 335.883 133.031 335.883 C 133.031 335.531 133.031 335.180 133.031 334.828 C 133.383 334.828 133.734 334.828 134.086 334.828 C 134.086 334.477 134.086 334.125 134.086 333.773 C 134.438 333.773 134.789 333.773 135.141 333.773 C 135.141 333.422 135.141 333.070 135.141 332.719 C 135.844 332.719 136.547 332.719 137.250 332.719 C 137.250 332.367 137.250 332.016 137.250 331.664 C 137.602 331.664 137.953 331.664 138.305 331.664 C 138.305 331.312 138.305 330.961 138.305 330.609 C 138.656 330.609 139.008 330.609 139.359 330.609 C 139.359 330.258 139.359 329.906 139.359 329.555 C 140.062 329.555 140.766 329.555 141.469 329.555 C 141.469 329.203 141.469 328.852 141.469 328.500 C 141.820 328.500 142.172 328.500 142.523 328.500 C 142.523 328.148 142.523 327.797 142.523 327.445 C 143.227 327.445 143.930 327.445 144.633 327.445 C 144.633 327.094 144.633 326.742 144.633 326.391 C 145.336 326.391 146.039 326.391 146.742 326.391 C 146.742 326.039 146.742 325.688 146.742 325.336 C 148.148 325.336 149.555 325.336 150.961 325.336 C 150.961 324.984 150.961 324.633 150.961 324.281 C 153.422 324.281 155.883 324.281 158.344 324.281 C 158.344 324.633 158.344 324.984 158.344 325.336 C 159.398 325.336 160.453 325.336 161.508 325.336 C 161.508 325.688 161.508 326.039 161.508 326.391 C 162.211 326.391 162.914 326.391 163.617 326.391 C 163.617 326.742 163.617 327.094 163.617 327.445 C 164.320 327.445 165.023 327.445 165.727 327.445 C 165.727 327.797 165.727 328.148 165.727 328.500 C 166.430 328.500 167.133 328.500 167.836 328.500 C 167.836 328.852 167.836 329.203 167.836 329.555 C 168.188 329.555 168.539 329.555 168.891 329.555 C 168.891 329.906 168.891 330.258 168.891 330.609 C 169.594 330.609 170.297 330.609 171.000 330.609 C 171.000 330.961 171.000 331.312 171.000 331.664 C 171.352 331.664 171.703 331.664 172.055 331.664 C 172.055 332.016 172.055 332.367 172.055 332.719 C 172.406 332.719 172.758 332.719 173.109 332.719 C 173.109 333.070 173.109 333.422 173.109 333.773 C 173.461 333.773 173.812 333.773 174.164 333.773 C 174.164 334.125 174.164 334.477 174.164 334.828 C 174.516 334.828 174.867 334.828 175.219 334.828 C 175.219 335.180 175.219 335.531 175.219 335.883 C 175.922 335.883 176.625 335.883 177.328 335.883 C 177.328 336.234 177.328 336.586 177.328 336.938 C 177.680 336.938 178.031 336.938 178.383 336.938 C 178.383 337.289 178.383 337.641 178.383 337.992 C 178.734 337.992 179.086 337.992 179.438 337.992 C 179.438 338.344 179.438 338.695 179.438 339.047 C 179.789 339.047 180.141 339.047 180.492 339.047 C 180.492 339.398 180.492 339.750 180.492 340.102 C 181.195 340.102 181.898 340.102 182.602 340.102 C 182.602 340.453 182.602 340.805 182.602 341.156 C 182.953 341.156 183.305 341.156 183.656 341.156 C 183.656 341.508 183.656 341.859 183.656 342.211 C 184.008 342.211 184.359 342.211 184.711 342.211 C 184.711 342.562 184.711 342.914 184.711 343.266 C 185.062 343.266 185.414 343.266 185.766 343.266 C 185.766 343.617 185.766 343.969 185.766 344.320 C 186.117 344.320 186.469 344.320 186.820 344.320 C 186.820 344.672 186.820 345.023 186.820 345.375 C 187.172 345.375 187.523 345.375 187.875 345.375 C 187.875 345.727 187.875 346.078 187.875 346.430 C 188.578 346.430 189.281 346.430 189.984 346.430 C 189.984 346.781 189.984 347.133 189.984 347.484 C 190.336 347.484 190.688 347.484 191.039 347.484 C 191.039 347.836 191.039 348.188 191.039 348.539 C 191.391 348.539 191.742 348.539 192.094 348.539 C 192.094 348.891 192.094 349.242 192.094 349.594 C 192.445 349.594 192.797 349.594 193.148 349.594 C 193.148 349.945 193.148 350.297 193.148 350.648 C 193.852 350.648 194.555 350.648 195.258 350.648 C 195.258 351.000 195.258 351.352 195.258 351.703 C 195.609 351.703 195.961 351.703 196.312 351.703 C 196.312 352.055 196.312 352.406 196.312 352.758 C 197.016 352.758 197.719 352.758 198.422 352.758 C 198.422 353.109 198.422 353.461 198.422 353.812 C 199.125 353.812 199.828 353.812 200.531 353.812 C 200.531 354.164 200.531 354.516 200.531 354.867 C 201.938 354.867 203.344 354.867 204.750 354.867 C 204.750 355.219 204.750 355.570 204.750 355.922 C 207.211 355.922 209.672 355.922 212.133 355.922 C 212.133 355.570 212.133 355.219 212.133 354.867 C 213.187 354.867 214.242 354.867 215.297 354.867 C 215.297 354.516 215.297 354.164 215.297 353.812 C 216.352 353.812 217.406 353.812 218.461 353.812 C 218.461 353.461 218.461 353.109 218.461 352.758 C 218.812 352.758 219.164 352.758 219.516 352.758 C 219.516 352.406 219.516 352.055 219.516 351.703 C 220.219 351.703 220.922 351.703 221.625 351.703 C 221.625 351.352 221.625 351.000 221.625 350.648 C 221.977 350.648 222.328 350.648 222.680 350.648 C 222.680 350.297 222.680 349.945 222.680 349.594 C 223.383 349.594 224.086 349.594 224.789 349.594 C 224.789 349.242 224.789 348.891 224.789 348.539 C 225.141 348.539 225.492 348.539 225.844 348.539 C 225.844 348.188 225.844 347.836 225.844 347.484 C 226.195 347.484 226.547 347.484 226.898 347.484 C 226.898 347.133 226.898 346.781 226.898 346.430 C 227.250 346.430 227.602 346.430 227.953 346.430 C 227.953 346.078 227.953 345.727 227.953 345.375 C 228.656 345.375 229.359 345.375 230.062 345.375 C 230.062 345.023 230.062 344.672 230.062 344.320 C 230.414 344.320 230.766 344.320 231.117 344.320 C 231.117 343.969 231.117 343.617 231.117 343.266 C 231.469 343.266 231.820 343.266 232.172 343.266 C 232.172 342.914 232.172 342.562 232.172 342.211 C 232.523 342.211 232.875 342.211 233.227 342.211 C 233.227 341.859 233.227 341.508 233.227 341.156 C 233.578 341.156 233.930 341.156 234.281 341.156 C 234.281 340.805 234.281 340.453 234.281 340.102 C 234.984 340.102 235.688 340.102 236.391 340.102 C 236.391 339.750 236.391 339.398 236.391 339.047 C 236.742 339.047 237.094 339.047 237.445 339.047 C 237.445 338.695 237.445 338.344 237.445 337.992 C 237.797 337.992 238.148 337.992 238.500 337.992 C 238.500 337.641 238.500 337.289 238.500 336.938 C 238.852 336.938 239.203 336.938 239.555 336.938 C 239.555 336.586 239.555 336.234 239.555 335.883 C 239.906 335.883 240.258 335.883 240.609 335.883 C 240.609 335.531 240.609 335.180 240.609 334.828 C 241.312 334.828 242.016 334.828 242.719 334.828 C 242.719 334.477 242.719 334.125 242.719 333.773 C 243.070 333.773 243.422 333.773 243.773 333.773 C 243.773 333.422 243.773 333.070 243.773 332.719 C 244.125 332.719 244.477 332.719 244.828 332.719 C 244.828 332.367 244.828 332.016 244.828 331.664 C 245.180 331.664 245.531 331.664 245.883 331.664 C 245.883 331.312 245.883 330.961 245.883 330.609 C 246.586 330.609 247.289 330.609 247.992 330.609 C 247.992 330.258 247.992 329.906 247.992 329.555 C 248.344 329.555 248.695 329.555 249.047 329.555 C 249.047 329.203 249.047 328.852 249.047 328.500 C 249.750 328.500 250.453 328.500 251.156 328.500 C 251.156 328.148 251.156 327.797 251.156 327.445 C 251.508 327.445 251.859 327.445 252.211 327.445 C 252.211 327.094 252.211 326.742 252.211 326.391 C 253.266 326.391 254.320 326.391 255.375 326.391 C 255.375 326.039 255.375 325.688 255.375 325.336 C 256.430 325.336 257.484 325.336 258.539 325.336 C 258.539 324.984 258.539 324.633 258.539 324.281 C 261.000 324.281 263.461 324.281 265.922 324.281 C 265.922 324.633 265.922 324.984 265.922 325.336 C 267.328 325.336 268.734 325.336 270.141 325.336 C 270.141 325.688 270.141 326.039 270.141 326.391 C 270.844 326.391 271.547 326.391 272.250 326.391 C 272.250 326.742 272.250 327.094 272.250 327.445 C 272.953 327.445 273.656 327.445 274.359 327.445 C 274.359 327.797 274.359 328.148 274.359 328.500 C 274.711 328.500 275.062 328.500 275.414 328.500 C 275.414 328.852 275.414 329.203 275.414 329.555 C 276.117 329.555 276.820 329.555 277.523 329.555 C 277.523 329.906 277.523 330.258 277.523 330.609 C 277.875 330.609 278.227 330.609 278.578 330.609 C 278.578 330.961 278.578 331.312 278.578 331.664 C 278.930 331.664 279.281 331.664 279.633 331.664 C 279.633 332.016 279.633 332.367 279.633 332.719 C 279.984 332.719 280.336 332.719 280.688 332.719 C 280.688 333.070 280.688 333.422 280.688 333.773 C 281.391 333.773 282.094 333.773 282.797 333.773 C 282.797 334.125 282.797 334.477 282.797 334.828 C 283.148 334.828 283.500 334.828 283.852 334.828 C 283.852 335.180 283.852 335.531 283.852 335.883 C 284.203 335.883 284.555 335.883 284.906 335.883 C 284.906 336.234 284.906 336.586 284.906 336.938 C 285.258 336.938 285.609 336.938 285.961 336.938 C 285.961 337.289 285.961 337.641 285.961 337.992 C 286.312 337.992 286.664 337.992 287.016 337.992 C 287.016 338.344 287.016 338.695 287.016 339.047 C 287.367 339.047 287.719 339.047 288.070 339.047 C 288.070 339.398 288.070 339.750 288.070 340.102 C 288.773 340.102 289.477 340.102 290.180 340.102 C 290.180 340.453 290.180 340.805 290.180 341.156 C 290.531 341.156 290.883 341.156 291.234 341.156 C 291.234 341.508 291.234 341.859 291.234 342.211 C 291.586 342.211 291.938 342.211 292.289 342.211 C 292.289 342.562 292.289 342.914 292.289 343.266 C 292.641 343.266 292.992 343.266 293.344 343.266 C 293.344 343.617 293.344 343.969 293.344 344.320 C 294.047 344.320 294.750 344.320 295.453 344.320 C 295.453 344.672 295.453 345.023 295.453 345.375 C 295.805 345.375 296.156 345.375 296.508 345.375 C 296.508 345.727 296.508 346.078 296.508 346.430 C 296.859 346.430 297.211 346.430 297.562 346.430 C 297.562 346.781 297.562 347.133 297.562 347.484 C 297.914 347.484 298.266 347.484 298.617 347.484 C 298.617 347.836 298.617 348.188 298.617 348.539 C 298.969 348.539 299.320 348.539 299.672 348.539 C 299.672 348.891 299.672 349.242 299.672 349.594 C 300.375 349.594 301.078 349.594 301.781 349.594 C 301.781 349.945 301.781 350.297 301.781 350.648 C 302.133 350.648 302.484 350.648 302.836 350.648 C 302.836 351.000 302.836 351.352 302.836 351.703 C 303.539 351.703 304.242 351.703 304.945 351.703 C 304.945 352.055 304.945 352.406 304.945 352.758 C 305.648 352.758 306.352 352.758 307.055 352.758 C 307.055 353.109 307.055 353.461 307.055 353.812 C 307.758 353.812 308.461 353.812 309.164 353.812 C 309.164 354.164 309.164 354.516 309.164 354.867 C 310.219 354.867 311.273 354.867 312.328 354.867 C 312.328 355.219 312.328 355.570 312.328 355.922 C 314.789 355.922 317.250 355.922 319.711 355.922 C 319.711 355.570 319.711 355.219 319.711 354.867 C 321.117 354.867 322.523 354.867 323.930 354.867 C 323.930 354.516 323.930 354.164 323.930 353.812 C 324.633 353.812 325.336 353.812 326.039 353.812 C 326.039 353.461 326.039 353.109 326.039 352.758 C 326.742 352.758 327.445 352.758 328.148 352.758 C 328.148 352.406 328.148 352.055 328.148 351.703 C 328.500 351.703 328.852 351.703 329.203 351.703 C 329.203 351.352 329.203 351.000 329.203 350.648 C 329.906 350.648 330.609 350.648 331.312 350.648 C 331.312 350.297 331.312 349.945 331.312 349.594 C 331.664 349.594 332.016 349.594 332.367 349.594 C 332.367 349.242 332.367 348.891 332.367 348.539 C 332.719 348.539 333.070 348.539 333.422 348.539 C 333.422 348.188 333.422 347.836 333.422 347.484 C 334.125 347.484 334.828 347.484 335.531 347.484 C 335.531 347.133 335.531 346.781 335.531 346.430 C 335.883 346.430 336.234 346.430 336.586 346.430 C 336.586 346.078 336.586 345.727 336.586 345.375 C 336.938 345.375 337.289 345.375 337.641 345.375 C 337.641 345.023 337.641 344.672 337.641 344.320 C 337.992 344.320 338.344 344.320 338.695 344.320 C 338.695 343.969 338.695 343.617 338.695 343.266 C 339.047 343.266 339.398 343.266 339.750 343.266 C 339.750 342.914 339.750 342.562 339.750 342.211 C 340.102 342.211 340.453 342.211 340.805 342.211 C 340.805 341.859 340.805 341.508 340.805 341.156 C 341.156 341.156 341.508 341.156 341.859 341.156 C 341.859 340.805 341.859 340.453 341.859 340.102 C 342.562 340.102 343.266 340.102 343.969 340.102 C 343.969 339.750 343.969 339.398 343.969 339.047 C 344.672 339.047 345.375 339.047 346.078 339.047 C 346.078 338.695 346.078 338.344 346.078 337.992 C 346.430 337.992 346.781 337.992 347.133 337.992 C 347.133 337.641 347.133 337.289 347.133 336.938 C 347.484 336.938 347.836 336.938 348.188 336.938 C 348.188 336.586 348.188 336.234 348.188 335.883 C 348.539 335.883 348.891 335.883 349.242 335.883 C 349.242 335.531 349.242 335.180 349.242 334.828 C 349.594 334.828 349.945 334.828 350.297 334.828 C 350.297 334.477 350.297 334.125 350.297 333.773 C 350.648 333.773 351.000 333.773 351.352 333.773 C 351.352 333.422 351.352 333.070 351.352 332.719 C 351.703 332.719 352.055 332.719 352.406 332.719 C 352.406 332.367 352.406 332.016 352.406 331.664 C 353.109 331.664 353.812 331.664 354.516 331.664 C 354.516 331.312 354.516 330.961 354.516 330.609 C 354.867 330.609 355.219 330.609 355.570 330.609 C 355.570 330.258 355.570 329.906 355.570 329.555 C 355.922 329.555 356.273 329.555 356.625 329.555 C 356.625 329.203 356.625 328.852 356.625 328.500 C 357.328 328.500 358.031 328.500 358.734 328.500 C 358.734 328.148 358.734 327.797 358.734 327.445 C 359.438 327.445 360.141 327.445 360.844 327.445 C 360.844 327.094 360.844 326.742 360.844 326.391 C 361.547 326.391 362.250 326.391 362.953 326.391 C 362.953 326.039 362.953 325.688 362.953 325.336 C 364.008 325.336 365.063 325.336 366.117 325.336 C 366.117 324.984 366.117 324.633 366.117 324.281 C 368.930 324.281 371.742 324.281 374.555 324.281 C 374.555 324.633 374.555 324.984 374.555 325.336 C 375.609 325.336 376.664 325.336 377.719 325.336 C 377.719 325.688 377.719 326.039 377.719 326.391 C 378.422 326.391 379.125 326.391 379.828 326.391 C 379.828 326.742 379.828 327.094 379.828 327.445 C 380.531 327.445 381.234 327.445 381.938 327.445 C 381.938 327.797 381.938 328.148 381.938 328.500 C 382.641 328.500 383.344 328.500 384.047 328.500 C 384.047 328.852 384.047 329.203 384.047 329.555 C 384.398 329.555 384.750 329.555 385.102 329.555 C 385.102 329.906 385.102 330.258 385.102 330.609 C 385.453 330.609 385.805 330.609 386.156 330.609 C 386.156 330.961 386.156 331.312 386.156 331.664 C 386.859 331.664 387.562 331.664 388.266 331.664 C 388.266 332.016 388.266 332.367 388.266 332.719 C 388.617 332.719 388.969 332.719 389.320 332.719 C 389.320 333.070 389.320 333.422 389.320 333.773 C 389.672 333.773 390.023 333.773 390.375 333.773 C 390.375 334.125 390.375 334.477 390.375 334.828 C 390.727 334.828 391.078 334.828 391.430 334.828 C 391.430 335.180 391.430 335.531 391.430 335.883 C 391.781 335.883 392.133 335.883 392.484 335.883 C 392.484 336.234 392.484 336.586 392.484 336.938 C 392.836 336.938 393.188 336.938 393.539 336.938 C 393.539 337.289 393.539 337.641 393.539 337.992 C 393.891 337.992 394.242 337.992 394.594 337.992 C 394.594 338.344 394.594 338.695 394.594 339.047 C 395.297 339.047 396.000 339.047 396.703 339.047 C 396.703 339.398 396.703 339.750 396.703 340.102 C 397.406 340.102 398.109 340.102 398.812 340.102 C 398.812 340.453 398.812 340.805 398.812 341.156 C 399.164 341.156 399.516 341.156 399.867 341.156 C 399.867 341.508 399.867 341.859 399.867 342.211 C 400.219 342.211 400.570 342.211 400.922 342.211 C 400.922 342.562 400.922 342.914 400.922 343.266 C 401.273 343.266 401.625 343.266 401.977 343.266 C 401.977 343.617 401.977 343.969 401.977 344.320 C 402.328 344.320 402.680 344.320 403.031 344.320 C 403.031 344.672 403.031 345.023 403.031 345.375 C 403.383 345.375 403.734 345.375 404.086 345.375 C 404.086 345.727 404.086 346.078 404.086 346.430 C 404.438 346.430 404.789 346.430 405.141 346.430 C 405.141 346.781 405.141 347.133 405.141 347.484 C 405.844 347.484 406.547 347.484 407.250 347.484 C 407.250 347.836 407.250 348.188 407.250 348.539 C 407.602 348.539 407.953 348.539 408.305 348.539 C 408.305 348.891 408.305 349.242 408.305 349.594 C 408.656 349.594 409.008 349.594 409.359 349.594 C 409.359 349.945 409.359 350.297 409.359 350.648 C 410.062 350.648 410.766 350.648 411.469 350.648 C 411.469 351.000 411.469 351.352 411.469 351.703 C 411.820 351.703 412.172 351.703 412.523 351.703 C 412.523 352.055 412.523 352.406 412.523 352.758 C 413.227 352.758 413.930 352.758 414.633 352.758 C 414.633 353.109 414.633 353.461 414.633 353.812 C 415.336 353.812 416.039 353.812 416.742 353.812 C 416.742 354.164 416.742 354.516 416.742 354.867 C 418.148 354.867 419.555 354.867 420.961 354.867 C 420.961 355.219 420.961 355.570 420.961 355.922 C 423.422 355.922 425.883 355.922 428.344 355.922 C 428.344 355.570 428.344 355.219 428.344 354.867 C 429.398 354.867 430.453 354.867 431.508 354.867 C 431.508 354.516 431.508 354.164 431.508 353.812 C 432.211 353.812 432.914 353.812 433.617 353.812 C 433.617 353.461 433.617 353.109 433.617 352.758 C 434.320 352.758 435.023 352.758 435.727 352.758 C 435.727 352.406 435.727 352.055 435.727 351.703 C 436.430 351.703 437.133 351.703 437.836 351.703 C 437.836 351.352 437.836 351.000 437.836 350.648 C 438.188 350.648 438.539 350.648 438.891 350.648 C 438.891 350.297 438.891 349.945 438.891 349.594 C 439.594 349.594 440.297 349.594 441.000 349.594 C 441.000 349.242 441.000 348.891 441.000 348.539 C 441.352 348.539 441.703 348.539 442.055 348.539 C 442.055 348.188 442.055 347.836 442.055 347.484 C 442.406 347.484 442.758 347.484 443.109 347.484 C 443.109 347.133 443.109 346.781 443.109 346.430 C 443.461 346.430 443.812 346.430 444.164 346.430 C 444.164 346.078 444.164 345.727 444.164 345.375 C 444.516 345.375 444.867 345.375 445.219 345.375 C 445.219 345.023 445.219 344.672 445.219 344.320 C 445.922 344.320 446.625 344.320 447.328 344.320 C 447.328 343.969 447.328 343.617 447.328 343.266 C 447.680 343.266 448.031 343.266 448.383 343.266 C 448.383 342.914 448.383 342.562 448.383 342.211 C 448.734 342.211 449.086 342.211 449.438 342.211 C 449.438 341.859 449.438 341.508 449.438 341.156 C 449.789 341.156 450.141 341.156 450.492 341.156 C 450.492 340.805 450.492 340.453 450.492 340.102 C 451.195 340.102 451.898 340.102 452.602 340.102 C 452.602 339.750 452.602 339.398 452.602 339.047 C 452.953 339.047 453.305 339.047 453.656 339.047 C 453.656 338.695 453.656 338.344 453.656 337.992 C 454.008 337.992 454.359 337.992 454.711 337.992 C 454.711 337.641 454.711 337.289 454.711 336.938 C 455.062 336.938 455.414 336.938 455.766 336.938 C 455.766 336.586 455.766 336.234 455.766 335.883 C 456.117 335.883 456.469 335.883 456.820 335.883 C 456.820 335.531 456.820 335.180 456.820 334.828 C 457.172 334.828 457.523 334.828 457.875 334.828 C 457.875 334.477 457.875 334.125 457.875 333.773 C 458.578 333.773 459.281 333.773 459.984 333.773 C 459.984 333.422 459.984 333.070 459.984 332.719 C 460.336 332.719 460.688 332.719 461.039 332.719 C 461.039 332.367 461.039 332.016 461.039 331.664 C 461.391 331.664 461.742 331.664 462.094 331.664 C 462.094 331.312 462.094 330.961 462.094 330.609 C 462.445 330.609 462.797 330.609 463.148 330.609 C 463.148 330.258 463.148 329.906 463.148 329.555 C 463.852 329.555 464.555 329.555 465.258 329.555 C 465.258 329.203 465.258 328.852 465.258 328.500 C 465.609 328.500 465.961 328.500 466.312 328.500 C 466.312 328.148 466.312 327.797 466.312 327.445 C 467.016 327.445 467.719 327.445 468.422 327.445 C 468.422 327.094 468.422 326.742 468.422 326.391 C 469.125 326.391 469.828 326.391 470.531 326.391 C 470.531 326.039 470.531 325.688 470.531 325.336 C 471.938 325.336 473.344 325.336 474.750 325.336 C 474.750 324.984 474.750 324.633 474.750 324.281 C 477.211 324.281 479.672 324.281 482.133 324.281 C 482.133 324.633 482.133 324.984 482.133 325.336 C 483.187 325.336 484.242 325.336 485.297 325.336 C 485.297 325.688 485.297 326.039 485.297 326.391 C 486.352 326.391 487.406 326.391 488.461 326.391 C 488.461 326.742 488.461 327.094 488.461 327.445 C 488.812 327.445 489.164 327.445 489.516 327.445 C 489.516 327.797 489.516 328.148 489.516 328.500 C 490.219 328.500 490.922 328.500 491.625 328.500 C 491.625 328.852 491.625 329.203 491.625 329.555 C 491.977 329.555 492.328 329.555 492.680 329.555 C 492.680 329.906 492.680 330.258 492.680 330.609 C 493.383 330.609 494.086 330.609 494.789 330.609 C 494.789 330.961 494.789 331.312 494.789 331.664 C 495.141 331.664 495.492 331.664 495.844 331.664 C 495.844 332.016 495.844 332.367 495.844 332.719 C 496.195 332.719 496.547 332.719 496.898 332.719 C 496.898 333.070 496.898 333.422 496.898 333.773 C 497.250 333.773 497.602 333.773 497.953 333.773 C 497.953 334.125 497.953 334.477 497.953 334.828 C 498.656 334.828 499.359 334.828 500.062 334.828 C 500.062 335.180 500.062 335.531 500.062 335.883 C 500.414 335.883 500.766 335.883 501.117 335.883 C 501.117 336.234 501.117 336.586 501.117 336.938 C 501.469 336.938 501.820 336.938 502.172 336.938 C 502.172 337.289 502.172 337.641 502.172 337.992 C 502.523 337.992 502.875 337.992 503.227 337.992 C 503.227 338.344 503.227 338.695 503.227 339.047 C 503.578 339.047 503.930 339.047 504.281 339.047 C 504.281 339.398 504.281 339.750 504.281 340.102 C 504.984 340.102 505.688 340.102 506.391 340.102 C 506.391 340.453 506.391 340.805 506.391 341.156 C 506.742 341.156 507.094 341.156 507.445 341.156 C 507.445 341.508 507.445 341.859 507.445 342.211 C 507.797 342.211 508.148 342.211 508.500 342.211 C 508.500 342.562 508.500 342.914 508.500 343.266 C 508.852 343.266 509.203 343.266 509.555 343.266 C 509.555 343.617 509.555 343.969 509.555 344.320 C 509.906 344.320 510.258 344.320 510.609 344.320 C 510.609 344.672 510.609 345.023 510.609 345.375 C 511.312 345.375 512.016 345.375 512.719 345.375 C 512.719 345.727 512.719 346.078 512.719 346.430 C 513.070 346.430 513.422 346.430 513.773 346.430 C 513.773 346.781 513.773 347.133 513.773 347.484 C 514.125 347.484 514.477 347.484 514.828 347.484 C 514.828 347.836 514.828 348.188 514.828 348.539 C 515.180 348.539 515.531 348.539 515.883 348.539 C 515.883 348.891 515.883 349.242 515.883 349.594 C 516.586 349.594 517.289 349.594 517.992 349.594 C 517.992 349.945 517.992 350.297 517.992 350.648 C 518.344 350.648 518.695 350.648 519.047 350.648 C 519.047 351.000 519.047 351.352 519.047 351.703 C 519.750 351.703 520.453 351.703 521.156 351.703 C 521.156 352.055 521.156 352.406 521.156 352.758 C 521.508 352.758 521.859 352.758 522.211 352.758 C 522.211 353.109 522.211 353.461 522.211 353.812 C 523.266 353.812 524.320 353.812 525.375 353.812 C 525.375 354.164 525.375 354.516 525.375 354.867 C 526.430 354.867 527.484 354.867 528.539 354.867 C 528.539 355.219 528.539 355.570 528.539 355.922 C 531.000 355.922 533.461 355.922 535.922 355.922 C 535.922 355.570 535.922 355.219 535.922 354.867 C 537.328 354.867 538.734 354.867 540.141 354.867 C 540.141 354.516 540.141 354.164 540.141 353.812 C 540.844 353.812 541.547 353.812 542.250 353.812 C 542.250 353.461 542.250 353.109 542.250 352.758 C 542.953 352.758 543.656 352.758 544.359 352.758 C 544.359 352.406 544.359 352.055 544.359 351.703 C 544.711 351.703 545.062 351.703 545.414 351.703 C 545.414 351.352 545.414 351.000 545.414 350.648 C 546.117 350.648 546.820 350.648 547.523 350.648 C 547.523 350.297 547.523 349.945 547.523 349.594 C 547.875 349.594 548.227 349.594 548.578 349.594 C 548.578 349.242 548.578 348.891 548.578 348.539 C 548.930 348.539 549.281 348.539 549.633 348.539 C 549.633 348.188 549.633 347.836 549.633 347.484 C 549.984 347.484 550.336 347.484 550.688 347.484 C 550.688 347.133 550.688 346.781 550.688 346.430 C 551.391 346.430 552.094 346.430 552.797 346.430 C 552.797 346.078 552.797 345.727 552.797 345.375 C 553.148 345.375 553.500 345.375 553.852 345.375 C 553.852 345.023 553.852 344.672 553.852 344.320 C 554.203 344.320 554.555 344.320 554.906 344.320 C 554.906 343.969 554.906 343.617 554.906 343.266 C 555.258 343.266 555.609 343.266 555.961 343.266 C 555.961 342.914 555.961 342.562 555.961 342.211 C 556.312 342.211 556.664 342.211 557.016 342.211 C 557.016 341.859 557.016 341.508 557.016 341.156 C 557.367 341.156 557.719 341.156 558.070 341.156 C 558.070 340.805 558.070 340.453 558.070 340.102 C 558.773 340.102 559.477 340.102 560.180 340.102 C 560.180 339.750 560.180 339.398 560.180 339.047 C 560.531 339.047 560.883 339.047 561.234 339.047 C 561.234 338.695 561.234 338.344 561.234 337.992 C 561.586 337.992 561.938 337.992 562.289 337.992 C 562.289 337.641 562.289 337.289 562.289 336.938 C 562.641 336.938 562.992 336.938 563.344 336.938 C 563.344 336.586 563.344 336.234 563.344 335.883 C 564.047 335.883 564.750 335.883 565.453 335.883 C 565.453 335.531 565.453 335.180 565.453 334.828 C 565.805 334.828 566.156 334.828 566.508 334.828 C 566.508 334.477 566.508 334.125 566.508 333.773 C 566.859 333.773 567.211 333.773 567.562 333.773 C 567.562 333.422 567.562 333.070 567.562 332.719 C 567.914 332.719 568.266 332.719 568.617 332.719 C 568.617 332.367 568.617 332.016 568.617 331.664 C 568.969 331.664 569.320 331.664 569.672 331.664 C 569.672 331.312 569.672 330.961 569.672 330.609 C 570.375 330.609 571.078 330.609 571.781 330.609 C 571.781 330.258 571.781 329.906 571.781 329.555 C 572.133 329.555 572.484 329.555 572.836 329.555 C 572.836 329.203 572.836 328.852 572.836 328.500 C 573.539 328.500 574.242 328.500 574.945 328.500 C 574.945 328.148 574.945 327.797 574.945 327.445 C 575.297 327.445 575.648 327.445 576.000 327.445"/>
<path id="arc-28" data-left="5" data-right="0" d="M 36.000 327.445 C 36.000 440.297 36.000 553.148 36.000 666.000"/>
<path id="arc-29" data-left="0" data-right="5" d="M 576.000 327.445 C 576.000 440.297 576.000 553.148 576.000 666.000"/>
<path id="arc-30" data-left="5" data-right="0" d="M 36.000 666.000 C 216.000 666.000 396.000 666.000 576.000 666.000"/>
</g>
<g id="labels" font-family="DejaVu Sans" fill="#000" text-anchor="middle" dominant-baseline="central">
<text id="label-0" x="249.574" y="207.211" font-size="14.000">3</text>
<text id="label-1" x="129.983" y="141.606" font-size="14.000">2</text>
<text id="label-2" x="171.091" y="134.924" font-size="14.000">1</text>
<text id="label-3" x="255.195" y="118.767" font-size="6.000">1</text>
<text id="label-4" x="323.487" y="139.948" font-size="14.000">2</text>
<text id="label-5" x="376.614" y="122.106" font-size="6.000">1</text>
<text id="label-6" x="477.212" y="135.799" font-size="14.000">1</text>
<text id="label-7" x="521.968" y="142.492" font-size="13.651">2</text>
<text id="label-8" x="318.393" y="305.033" font-size="14.000">4</text>
<text id="label-9" x="261.967" y="507.006" font-size="14.000">5</text>
</g>
<g id="leaders" stroke="#000" stroke-width="0.250">
<line id="leader-3" x1="255.195" y1="118.767" x2="264.719" y2="128.291"/>
<line id="leader-5" x1="376.614" y1="122.106" x2="387.606" y2="126.659"/>
</g>
<g id="legend" font-family="DejaVu Sans" font-size="8.000">
<rect id="chip-0" x="20.000" y="20.000" width="20.000" height="20.000" rx="1.500" fill="#ca6285" stroke="#000" stroke-width="0.300"/>
<text id="chip-number-0" x="42.000" y="30.000" fill="#000" dominant-baseline="central">1</text>
<rect id="chip-1" x="46.000" y="20.000" width="20.000" height="20.000" rx="1.500" fill="#c86858" stroke="#000" stroke-width="0.300"/>
<text id="chip-number-1" x="68.000" y="30.000" fill="#000" dominant-baseline="central">2</text>
<rect id="chip-2" x="72.000" y="20.000" width="20.000" height="20.000" rx="1.500" fill="#ad7938" stroke="#000" stroke-width="0.300"/>
<text id="chip-number-2" x="94.000" y="30.000" fill="#000" dominant-baseline="central">3</text>
<rect id="chip-3" x="98.000" y="20.000" width="20.000" height="20.000" rx="1.500" fill="#838936" stroke="#000" stroke-width="0.300"/>
<text id="chip-number-3" x="120.000" y="30.000" fill="#000" dominant-baseline="central">4</text>
<rect id="chip-4" x="124.000" y="20.000" width="20.000" height="20.000" rx="1.500" fill="#4b9354" stroke="#000" stroke-width="0.300"/>
<text id="chip-number-4" x="146.000" y="30.000" fill="#000" dominant-baseline="central">5</text>
<rect id="chip-5" x="150.000" y="20.000" width="20.000" height="20.000" rx="1.500" fill="#009782" stroke="#000" stroke-width="0.300"/>
<text id="chip-number-5" x="172.000" y="30.000" fill="#000" dominant-baseline="central">6</text>
<rect id="chip-6" x="176.000" y="20.000" width="20.000" height="20.000" rx="1.500" fill="#0096b0" stroke="#000" stroke-width="0.300"/>
<text id="chip-number-6" x="198.000" y="30.000" fill="#000" dominant-baseline="central">7</text>
<rect id="chip-7" x="202.000" y="20.000" width="20.000" height="20.000" rx="1.500" fill="#008ecd" stroke="#000" stroke-width="0.300"/>
<text id="chip-number-7" x="224.000" y="30.000" fill="#000" dominant-baseline="central">8</text>
<rect id="chip-8" x="228.000" y="20.000" width="20.000" height="20.000" rx="1.500" fill="#6c80ce" stroke="#000" stroke-width="0.300"/>
<text id="chip-number-8" x="250.000" y="30.000" fill="#000" dominant-baseline="central">9</text>
<rect id="chip-9" x="254.000" y="20.000" width="20.000" height="20.000" rx="1.500" fill="#ac6db2" stroke="#000" stroke-width="0.300"/>
<text id="chip-number-9" x="276.000" y="30.000" fill="#000" dominant-baseline="central">10</text>
</g>
<g id="frame" fill="none" stroke="#000" stroke-width="0.300">
<rect id="content-frame" x="36.000" y="36.000" width="540.000" height="720.000"/>
</g>
</svg>
