<?xml version="1.0" encoding="UTF-8"?>
<!-- mystery-cbn svg 1.0.0 -->
<svg xmlns="http://www.w3.org/2000/svg" version="1.1" width="215.900mm" height="279.400mm" viewBox="0 0 612.000 792.000">
<g id="regions" fill="none" stroke="#000" stroke-width="0.300" stroke-linecap="round" stroke-linejoin="round">
<path id="arc-0" data-left="0" data-right="8" d="M 36.000 126.000 C 118.617 126.000 201.234 126.000 283.852 126.000"/>
<path id="arc-1" data-left="8" data-right="0" d="M 36.000 126.000 C 36.000 206.859 36.000 287.719 36.000 368.578"/>
<path id="arc-2" data-left="6" data-right="8" d="M 283.852 126.000 C 283.852 129.516 283.852 133.031 283.852 136.547 C 283.500 136.547 283.148 136.547 282.797 136.547 C 282.797 143.578 282.797 150.609 282.797 157.641 C 282.445 157.641 282.094 157.641 281.742 157.641 C 281.742 164.672 281.742 171.703 281.742 178.734 C 281.391 178.734 281.039 178.734 280.688 178.734 C 280.688 185.766 280.688 192.797 280.688 199.828 C 280.336 199.828 279.984 199.828 279.633 199.828 C 279.633 206.859 279.633 213.891 279.633 220.922 C 279.281 220.922 278.930 220.922 278.578 220.922 C 278.578 227.953 278.578 234.984 278.578 242.016 C 278.227 242.016 277.875 242.016 277.523 242.016 C 277.523 249.047 277.523 256.078 277.523 263.109 C 277.172 263.109 276.820 263.109 276.469 263.109 C 276.469 270.492 276.469 277.875 276.469 285.258 C 276.117 285.258 275.766 285.258 275.414 285.258 C 275.414 292.289 275.414 299.320 275.414 306.352 C 275.062 306.352 274.711 306.352 274.359 306.352 C 274.359 313.383 274.359 320.414 274.359 327.445 C 274.008 327.445 273.656 327.445 273.305 327.445 C 273.305 331.664 273.305 335.883 273.305 340.102"/>
<path id="arc-3" data-left="0" data-right="6" d="M 283.852 126.000 C 335.180 126.000 386.508 126.000 437.836 126.000"/>
<path id="arc-4" data-left="0" data-right="1" d="M 437.836 126.000 C 473.344 126.000 508.852 126.000 544.359 126.000"/>
<path id="arc-5" data-left="1" data-right="6" d="M 437.836 126.000 C 437.836 128.109 437.836 130.219 437.836 132.328"/>
<path id="arc-6" data-left="8" data-right="1" d="M 544.359 126.000 C 544.359 129.516 544.359 133.031 544.359 136.547 C 544.008 136.547 543.656 136.547 543.305 136.547 C 543.305 140.766 543.305 144.984 543.305 149.203 C 542.953 149.203 542.602 149.203 542.250 149.203 C 542.250 153.070 542.250 156.938 542.250 160.805 C 541.898 160.805 541.547 160.805 541.195 160.805 C 541.195 165.023 541.195 169.242 541.195 173.461 C 540.844 173.461 540.492 173.461 540.141 173.461 C 540.141 177.328 540.141 181.195 540.141 185.062 C 539.789 185.062 539.438 185.062 539.086 185.062 C 539.086 188.930 539.086 192.797 539.086 196.664 C 538.734 196.664 538.383 196.664 538.031 196.664 C 538.031 200.883 538.031 205.102 538.031 209.320 C 537.680 209.320 537.328 209.320 536.977 209.320 C 536.977 213.188 536.977 217.055 536.977 220.922 C 536.625 220.922 536.273 220.922 535.922 220.922 C 535.922 225.141 535.922 229.359 535.922 233.578 C 535.570 233.578 535.219 233.578 534.867 233.578 C 534.867 237.445 534.867 241.312 534.867 245.180 C 534.516 245.180 534.164 245.180 533.812 245.180 C 533.812 249.047 533.812 252.914 533.812 256.781 C 533.461 256.781 533.109 256.781 532.758 256.781 C 532.758 261.000 532.758 265.219 532.758 269.438 C 532.406 269.438 532.055 269.438 531.703 269.438 C 531.703 273.305 531.703 277.172 531.703 281.039 C 531.352 281.039 531.000 281.039 530.648 281.039 C 530.648 285.258 530.648 289.477 530.648 293.695 C 530.297 293.695 529.945 293.695 529.594 293.695 C 529.594 297.563 529.594 301.430 529.594 305.297 C 529.242 305.297 528.891 305.297 528.539 305.297 C 528.539 309.164 528.539 313.031 528.539 316.898 C 528.188 316.898 527.836 316.898 527.484 316.898 C 527.484 321.117 527.484 325.336 527.484 329.555 C 527.133 329.555 526.781 329.555 526.430 329.555 C 526.430 333.422 526.430 337.289 526.430 341.156 C 526.078 341.156 525.727 341.156 525.375 341.156 C 525.375 345.375 525.375 349.594 525.375 353.812 C 525.023 353.812 524.672 353.812 524.320 353.812 C 524.320 357.680 524.320 361.547 524.320 365.414 C 523.969 365.414 523.617 365.414 523.266 365.414 C 523.266 369.281 523.266 373.148 523.266 377.016 C 522.914 377.016 522.562 377.016 522.211 377.016 C 522.211 381.234 522.211 385.453 522.211 389.672 C 521.859 389.672 521.508 389.672 521.156 389.672 C 521.156 393.539 521.156 397.406 521.156 401.273 C 520.805 401.273 520.453 401.273 520.102 401.273 C 520.102 403.383 520.102 405.492 520.102 407.602"/>
<path id="arc-7" data-left="0" data-right="8" d="M 544.359 126.000 C 554.906 126.000 565.453 126.000 576.000 126.000"/>
<path id="arc-8" data-left="0" data-right="8" d="M 576.000 126.000 C 576.000 236.391 576.000 346.781 576.000 457.172"/>
<path id="arc-9" data-left="2" data-right="6" d="M 437.836 132.328 C 437.484 132.328 437.133 132.328 436.781 132.328 C 436.781 133.031 436.781 133.734 436.781 134.438 C 436.430 134.438 436.078 134.438 435.727 134.438 C 435.727 135.141 435.727 135.844 435.727 136.547 C 435.375 136.547 435.023 136.547 434.672 136.547 C 434.672 137.250 434.672 137.953 434.672 138.656 C 434.320 138.656 433.969 138.656 433.617 138.656 C 433.617 139.359 433.617 140.062 433.617 140.766 C 433.266 140.766 432.914 140.766 432.562 140.766 C 432.562 141.469 432.562 142.172 432.562 142.875 C 432.211 142.875 431.859 142.875 431.508 142.875 C 431.508 143.930 431.508 144.984 431.508 146.039 C 431.156 146.039 430.805 146.039 430.453 146.039 C 430.453 146.742 430.453 147.445 430.453 148.148 C 430.102 148.148 429.750 148.148 429.398 148.148 C 429.398 148.852 429.398 149.555 429.398 150.258 C 429.047 150.258 428.695 150.258 428.344 150.258 C 428.344 150.961 428.344 151.664 428.344 152.367 C 427.992 152.367 427.641 152.367 427.289 152.367 C 427.289 153.070 427.289 153.773 427.289 154.477 C 426.938 154.477 426.586 154.477 426.234 154.477 C 426.234 155.180 426.234 155.883 426.234 156.586 C 425.883 156.586 425.531 156.586 425.180 156.586 C 425.180 157.641 425.180 158.695 425.180 159.750 C 424.828 159.750 424.477 159.750 424.125 159.750 C 424.125 160.453 424.125 161.156 424.125 161.859 C 423.773 161.859 423.422 161.859 423.070 161.859 C 423.070 162.562 423.070 163.266 423.070 163.969 C 422.719 163.969 422.367 163.969 422.016 163.969 C 422.016 164.672 422.016 165.375 422.016 166.078 C 421.664 166.078 421.312 166.078 420.961 166.078 C 420.961 166.781 420.961 167.484 420.961 168.188 C 420.609 168.188 420.258 168.188 419.906 168.188 C 419.906 168.891 419.906 169.594 419.906 170.297 C 419.555 170.297 419.203 170.297 418.852 170.297 C 418.852 171.352 418.852 172.406 418.852 173.461 C 418.500 173.461 418.148 173.461 417.797 173.461 C 417.797 174.164 417.797 174.867 417.797 175.570 C 417.445 175.570 417.094 175.570 416.742 175.570 C 416.742 176.273 416.742 176.977 416.742 177.680 C 416.391 177.680 416.039 177.680 415.688 177.680 C 415.688 178.383 415.688 179.086 415.688 179.789 C 415.336 179.789 414.984 179.789 414.633 179.789 C 414.633 180.492 414.633 181.195 414.633 181.898 C 414.281 181.898 413.930 181.898 413.578 181.898 C 413.578 182.602 413.578 183.305 413.578 184.008 C 413.227 184.008 412.875 184.008 412.523 184.008 C 412.523 185.062 412.523 186.117 412.523 187.172 C 412.172 187.172 411.820 187.172 411.469 187.172 C 411.469 187.875 411.469 188.578 411.469 189.281 C 411.117 189.281 410.766 189.281 410.414 189.281 C 410.414 189.984 410.414 190.688 410.414 191.391 C 410.062 191.391 409.711 191.391 409.359 191.391 C 409.359 192.094 409.359 192.797 409.359 193.500 C 409.008 193.500 408.656 193.500 408.305 193.500 C 408.305 194.203 408.305 194.906 408.305 195.609 C 407.953 195.609 407.602 195.609 407.250 195.609 C 407.250 196.312 407.250 197.016 407.250 197.719 C 406.898 197.719 406.547 197.719 406.195 197.719 C 406.195 198.773 406.195 199.828 406.195 200.883 C 405.844 200.883 405.492 200.883 405.141 200.883 C 405.141 201.586 405.141 202.289 405.141 202.992 C 404.789 202.992 404.438 202.992 404.086 202.992 C 404.086 203.695 404.086 204.398 404.086 205.102 C 403.734 205.102 403.383 205.102 403.031 205.102 C 403.031 205.805 403.031 206.508 403.031 207.211 C 402.680 207.211 402.328 207.211 401.977 207.211 C 401.977 207.914 401.977 208.617 401.977 209.320 C 401.625 209.320 401.273 209.320 400.922 209.320 C 400.922 210.023 400.922 210.727 400.922 211.430 C 400.570 211.430 400.219 211.430 399.867 211.430 C 399.867 212.484 399.867 213.539 399.867 214.594 C 399.516 214.594 399.164 214.594 398.812 214.594 C 398.812 215.297 398.812 216.000 398.812 216.703 C 398.461 216.703 398.109 216.703 397.758 216.703 C 397.758 217.406 397.758 218.109 397.758 218.812 C 397.406 218.812 397.055 218.812 396.703 218.812 C 396.703 219.516 396.703 220.219 396.703 220.922 C 396.352 220.922 396.000 220.922 395.648 220.922 C 395.648 221.625 395.648 222.328 395.648 223.031 C 395.297 223.031 394.945 223.031 394.594 223.031 C 394.594 223.734 394.594 224.438 394.594 225.141 C 394.242 225.141 393.891 225.141 393.539 225.141 C 393.539 226.195 393.539 227.250 393.539 228.305 C 393.188 228.305 392.836 228.305 392.484 228.305 C 392.484 229.008 392.484 229.711 392.484 230.414 C 392.133 230.414 391.781 230.414 391.430 230.414 C 391.430 231.117 391.430 231.820 391.430 232.523 C 391.078 232.523 390.727 232.523 390.375 232.523 C 390.375 233.227 390.375 233.930 390.375 234.633 C 390.023 234.633 389.672 234.633 389.320 234.633 C 389.320 235.336 389.320 236.039 389.320 236.742 C 388.969 236.742 388.617 236.742 388.266 236.742 C 388.266 237.445 388.266 238.148 388.266 238.852 C 387.914 238.852 387.562 238.852 387.211 238.852 C 387.211 239.906 387.211 240.961 387.211 242.016 C 386.859 242.016 386.508 242.016 386.156 242.016 C 386.156 242.719 386.156 243.422 386.156 244.125 C 385.805 244.125 385.453 244.125 385.102 244.125 C 385.102 244.828 385.102 245.531 385.102 246.234 C 384.750 246.234 384.398 246.234 384.047 246.234 C 384.047 246.938 384.047 247.641 384.047 248.344 C 383.695 248.344 383.344 248.344 382.992 248.344 C 382.992 249.047 382.992 249.750 382.992 250.453 C 382.641 250.453 382.289 250.453 381.938 250.453 C 381.938 251.156 381.938 251.859 381.938 252.562 C 381.586 252.562 381.234 252.562 380.883 252.562 C 380.883 253.617 380.883 254.672 380.883 255.727 C 380.531 255.727 380.180 255.727 379.828 255.727 C 379.828 256.430 379.828 257.133 379.828 257.836 C 379.477 257.836 379.125 257.836 378.773 257.836 C 378.773 258.539 378.773 259.242 378.773 259.945 C 378.422 259.945 378.070 259.945 377.719 259.945 C 377.719 260.648 377.719 261.352 377.719 262.055 C 377.367 262.055 377.016 262.055 376.664 262.055 C 376.664 262.758 376.664 263.461 376.664 264.164 C 376.312 264.164 375.961 264.164 375.609 264.164 C 375.609 264.867 375.609 265.570 375.609 266.273 C 375.258 266.273 374.906 266.273 374.555 266.273 C 374.555 267.328 374.555 268.383 374.555 269.438 C 374.203 269.438 373.852 269.438 373.500 269.438 C 373.500 270.141 373.500 270.844 373.500 271.547 C 373.148 271.547 372.797 271.547 372.445 271.547 C 372.445 272.250 372.445 272.953 372.445 273.656 C 372.094 273.656 371.742 273.656 371.391 273.656 C 371.391 274.359 371.391 275.062 371.391 275.766 C 371.039 275.766 370.688 275.766 370.336 275.766 C 370.336 276.469 370.336 277.172 370.336 277.875 C 369.984 277.875 369.633 277.875 369.281 277.875 C 369.281 278.578 369.281 279.281 369.281 279.984 C 368.930 279.984 368.578 279.984 368.227 279.984 C 368.227 281.039 368.227 282.094 368.227 283.148 C 367.875 283.148 367.523 283.148 367.172 283.148 C 367.172 283.852 367.172 284.555 367.172 285.258 C 366.820 285.258 366.469 285.258 366.117 285.258 C 366.117 285.961 366.117 286.664 366.117 287.367 C 365.766 287.367 365.414 287.367 365.062 287.367 C 365.062 288.070 365.062 288.773 365.062 289.477 C 364.711 289.477 364.359 289.477 364.008 289.477 C 364.008 290.180 364.008 290.883 364.008 291.586 C 363.656 291.586 363.305 291.586 362.953 291.586 C 362.953 292.289 362.953 292.992 362.953 293.695 C 362.602 293.695 362.250 293.695 361.898 293.695 C 361.898 294.750 361.898 295.805 361.898 296.859 C 361.547 296.859 361.195 296.859 360.844 296.859 C 360.844 297.562 360.844 298.266 360.844 298.969 C 360.492 298.969 360.141 298.969 359.789 298.969 C 359.789 299.672 359.789 300.375 359.789 301.078 C 359.438 301.078 359.086 301.078 358.734 301.078 C 358.734 301.781 358.734 302.484 358.734 303.188 C 358.383 303.188 358.031 303.188 357.680 303.188 C 357.680 303.891 357.680 304.594 357.680 305.297 C 357.328 305.297 356.977 305.297 356.625 305.297 C 356.625 306.000 356.625 306.703 356.625 307.406 C 356.273 307.406 355.922 307.406 355.570 307.406 C 355.570 308.461 355.570 309.516 355.570 310.570 C 355.219 310.570 354.867 310.570 354.516 310.570 C 354.516 311.273 354.516 311.977 354.516 312.680 C 354.164 312.680 353.812 312.680 353.461 312.680 C 353.461 313.383 353.461 314.086 353.461 314.789 C 353.109 314.789 352.758 314.789 352.406 314.789 C 352.406 315.492 352.406 316.195 352.406 316.898 C 352.055 316.898 351.703 316.898 351.352 316.898 C 351.352 317.602 351.352 318.305 351.352 319.008 C 351.000 319.008 350.648 319.008 350.297 319.008 C 350.297 319.711 350.297 320.414 350.297 321.117 C 349.945 321.117 349.594 321.117 349.242 321.117 C 349.242 322.172 349.242 323.227 349.242 324.281 C 348.891 324.281 348.539 324.281 348.188 324.281 C 348.188 324.984 348.188 325.688 348.188 326.391 C 347.836 326.391 347.484 326.391 347.133 326.391 C 347.133 327.094 347.133 327.797 347.133 328.500 C 346.781 328.500 346.430 328.500 346.078 328.500 C 346.078 329.203 346.078 329.906 346.078 330.609 C 345.727 330.609 345.375 330.609 345.023 330.609 C 345.023 331.312 345.023 332.016 345.023 332.719 C 344.672 332.719 344.320 332.719 343.969 332.719 C 343.969 333.422 343.969 334.125 343.969 334.828 C 343.617 334.828 343.266 334.828 342.914 334.828 C 342.914 335.883 342.914 336.938 342.914 337.992 C 342.562 337.992 342.211 337.992 341.859 337.992 C 341.859 338.344 341.859 338.695 341.859 339.047"/>
<path id="arc-10" data-left="1" data-right="2" d="M 437.836 132.328 C 437.836 193.500 437.836 254.672 437.836 315.844"/>
<path id="arc-11" data-left="9" data-right="2" d="M 437.836 315.844 C 436.430 315.844 435.023 315.844 433.617 315.844 C 433.617 316.195 433.617 316.547 433.617 316.898 C 432.211 316.898 430.805 316.898 429.398 316.898 C 429.398 317.250 429.398 317.602 429.398 317.953 C 428.344 317.953 427.289 317.953 426.234 317.953 C 426.234 318.305 426.234 318.656 426.234 319.008 C 424.828 319.008 423.422 319.008 422.016 319.008 C 422.016 319.359 422.016 319.711 422.016 320.062 C 420.609 320.062 419.203 320.062 417.797 320.062 C 417.797 320.414 417.797 320.766 417.797 321.117 C 416.391 321.117 414.984 321.117 413.578 321.117 C 413.578 321.469 413.578 321.820 413.578 322.172 C 412.172 322.172 410.766 322.172 409.359 322.172 C 409.359 322.523 409.359 322.875 409.359 323.227 C 407.953 323.227 406.547 323.227 405.141 323.227 C 405.141 323.578 405.141 323.930 405.141 324.281 C 403.734 324.281 402.328 324.281 400.922 324.281 C 400.922 324.633 400.922 324.984 400.922 325.336 C 399.516 325.336 398.109 325.336 396.703 325.336 C 396.703 325.688 396.703 326.039 396.703 326.391 C 395.297 326.391 393.891 326.391 392.484 326.391 C 392.484 326.742 392.484 327.094 392.484 327.445 C 391.078 327.445 389.672 327.445 388.266 327.445 C 388.266 327.797 388.266 328.148 388.266 328.500 C 386.859 328.500 385.453 328.500 384.047 328.500 C 384.047 328.852 384.047 329.203 384.047 329.555 C 382.641 329.555 381.234 329.555 379.828 329.555 C 379.828 329.906 379.828 330.258 379.828 330.609 C 378.422 330.609 377.016 330.609 375.609 330.609 C 375.609 330.961 375.609 331.312 375.609 331.664 C 374.203 331.664 372.797 331.664 371.391 331.664 C 371.391 332.016 371.391 332.367 371.391 332.719 C 369.984 332.719 368.578 332.719 367.172 332.719 C 367.172 333.070 367.172 333.422 367.172 333.773 C 365.766 333.773 364.359 333.773 362.953 333.773 C 362.953 334.125 362.953 334.477 362.953 334.828 C 361.547 334.828 360.141 334.828 358.734 334.828 C 358.734 335.180 358.734 335.531 358.734 335.883 C 357.328 335.883 355.922 335.883 354.516 335.883 C 354.516 336.234 354.516 336.586 354.516 336.938 C 353.109 336.938 351.703 336.938 350.297 336.938 C 350.297 337.289 350.297 337.641 350.297 337.992 C 348.891 337.992 347.484 337.992 346.078 337.992 C 346.078 338.344 346.078 338.695 346.078 339.047 C 344.672 339.047 343.266 339.047 341.859 339.047"/>
<path id="arc-12" data-left="1" data-right="9" d="M 437.836 315.844 C 438.188 315.844 438.539 315.844 438.891 315.844 C 438.891 316.195 438.891 316.547 438.891 316.898 C 439.242 316.898 439.594 316.898 439.945 316.898 C 439.945 317.602 439.945 318.305 439.945 319.008 C 440.297 319.008 440.648 319.008 441.000 319.008 C 441.000 319.359 441.000 319.711 441.000 320.062 C 441.352 320.062 441.703 320.062 442.055 320.062 C 442.055 320.414 442.055 320.766 442.055 321.117 C 442.406 321.117 442.758 321.117 443.109 321.117 C 443.109 321.469 443.109 321.820 443.109 322.172 C 443.461 322.172 443.812 322.172 444.164 322.172 C 444.164 322.523 444.164 322.875 444.164 323.227 C 444.516 323.227 444.867 323.227 445.219 323.227 C 445.219 323.578 445.219 323.930 445.219 324.281 C 445.570 324.281 445.922 324.281 446.273 324.281 C 446.273 324.984 446.273 325.688 446.273 326.391 C 446.625 326.391 446.977 326.391 447.328 326.391 C 447.328 326.742 447.328 327.094 447.328 327.445 C 447.680 327.445 448.031 327.445 448.383 327.445 C 448.383 327.797 448.383 328.148 448.383 328.500 C 448.734 328.500 449.086 328.500 449.438 328.500 C 449.438 328.852 449.438 329.203 449.438 329.555 C 449.789 329.555 450.141 329.555 450.492 329.555 C 450.492 329.906 450.492 330.258 450.492 330.609 C 450.844 330.609 451.195 330.609 451.547 330.609 C 451.547 331.312 451.547 332.016 451.547 332.719 C 451.898 332.719 452.250 332.719 452.602 332.719 C 452.602 333.070 452.602 333.422 452.602 333.773 C 452.953 333.773 453.305 333.773 453.656 333.773 C 453.656 334.125 453.656 334.477 453.656 334.828 C 454.008 334.828 454.359 334.828 454.711 334.828 C 454.711 335.180 454.711 335.531 454.711 335.883 C 455.062 335.883 455.414 335.883 455.766 335.883 C 455.766 336.234 455.766 336.586 455.766 336.938 C 456.117 336.938 456.469 336.938 456.820 336.938 C 456.820 337.289 456.820 337.641 456.820 337.992 C 457.172 337.992 457.523 337.992 457.875 337.992 C 457.875 338.695 457.875 339.398 457.875 340.102 C 458.227 340.102 458.578 340.102 458.930 340.102 C 458.930 340.453 458.930 340.805 458.930 341.156 C 459.281 341.156 459.633 341.156 459.984 341.156 C 459.984 341.508 459.984 341.859 459.984 342.211 C 460.336 342.211 460.688 342.211 461.039 342.211 C 461.039 342.562 461.039 342.914 461.039 343.266 C 461.391 343.266 461.742 343.266 462.094 343.266 C 462.094 343.617 462.094 343.969 462.094 344.320 C 462.445 344.320 462.797 344.320 463.148 344.320 C 463.148 345.023 463.148 345.727 463.148 346.430 C 463.500 346.430 463.852 346.430 464.203 346.430 C 464.203 346.781 464.203 347.133 464.203 347.484 C 464.555 347.484 464.906 347.484 465.258 347.484 C 465.258 347.836 465.258 348.188 465.258 348.539 C 465.609 348.539 465.961 348.539 466.312 348.539 C 466.312 348.891 466.312 349.242 466.312 349.594 C 466.664 349.594 467.016 349.594 467.367 349.594 C 467.367 349.945 467.367 350.297 467.367 350.648 C 467.719 350.648 468.070 350.648 468.422 350.648 C 468.422 351.000 468.422 351.352 468.422 351.703 C 468.773 351.703 469.125 351.703 469.477 351.703 C 469.477 352.406 469.477 353.109 469.477 353.812 C 469.828 353.812 470.180 353.812 470.531 353.812 C 470.531 354.164 470.531 354.516 470.531 354.867 C 470.883 354.867 471.234 354.867 471.586 354.867 C 471.586 355.219 471.586 355.570 471.586 355.922 C 471.938 355.922 472.289 355.922 472.641 355.922 C 472.641 356.273 472.641 356.625 472.641 356.977 C 472.992 356.977 473.344 356.977 473.695 356.977 C 473.695 357.328 473.695 357.680 473.695 358.031 C 474.047 358.031 474.398 358.031 474.750 358.031 C 474.750 358.734 474.750 359.438 474.750 360.141 C 475.102 360.141 475.453 360.141 475.805 360.141 C 475.805 360.492 475.805 360.844 475.805 361.195 C 476.156 361.195 476.508 361.195 476.859 361.195 C 476.859 361.547 476.859 361.898 476.859 362.250 C 477.211 362.250 477.562 362.250 477.914 362.250 C 477.914 362.602 477.914 362.953 477.914 363.305 C 478.266 363.305 478.617 363.305 478.969 363.305 C 478.969 363.656 478.969 364.008 478.969 364.359 C 479.320 364.359 479.672 364.359 480.023 364.359 C 480.023 364.711 480.023 365.062 480.023 365.414 C 480.375 365.414 480.727 365.414 481.078 365.414 C 481.078 366.117 481.078 366.820 481.078 367.523 C 481.430 367.523 481.781 367.523 482.133 367.523 C 482.133 367.875 482.133 368.227 482.133 368.578 C 482.484 368.578 482.836 368.578 483.188 368.578 C 483.188 368.930 483.188 369.281 483.188 369.633 C 483.539 369.633 483.891 369.633 484.242 369.633 C 484.242 369.984 484.242 370.336 484.242 370.688 C 484.594 370.688 484.945 370.688 485.297 370.688 C 485.297 371.039 485.297 371.391 485.297 371.742 C 485.648 371.742 486.000 371.742 486.352 371.742 C 486.352 372.445 486.352 373.148 486.352 373.852 C 486.703 373.852 487.055 373.852 487.406 373.852 C 487.406 374.203 487.406 374.555 487.406 374.906 C 487.758 374.906 488.109 374.906 488.461 374.906 C 488.461 375.258 488.461 375.609 488.461 375.961 C 488.812 375.961 489.164 375.961 489.516 375.961 C 489.516 376.312 489.516 376.664 489.516 377.016 C 489.867 377.016 490.219 377.016 490.570 377.016 C 490.570 377.367 490.570 377.719 490.570 378.070 C 490.922 378.070 491.273 378.070 491.625 378.070 C 491.625 378.422 491.625 378.773 491.625 379.125 C 491.977 379.125 492.328 379.125 492.680 379.125 C 492.680 379.828 492.680 380.531 492.680 381.234 C 493.031 381.234 493.383 381.234 493.734 381.234 C 493.734 381.586 493.734 381.938 493.734 382.289 C 494.086 382.289 494.438 382.289 494.789 382.289 C 494.789 382.641 494.789 382.992 494.789 383.344 C 495.141 383.344 495.492 383.344 495.844 383.344 C 495.844 383.695 495.844 384.047 495.844 384.398 C 496.195 384.398 496.547 384.398 496.898 384.398 C 496.898 384.750 496.898 385.102 496.898 385.453 C 497.250 385.453 497.602 385.453 497.953 385.453 C 497.953 385.805 497.953 386.156 497.953 386.508 C 498.305 386.508 498.656 386.508 499.008 386.508 C 499.008 387.211 499.008 387.914 499.008 388.617 C 499.359 388.617 499.711 388.617 500.062 388.617 C 500.062 388.969 500.062 389.320 500.062 389.672 C 500.414 389.672 500.766 389.672 501.117 389.672 C 501.117 390.023 501.117 390.375 501.117 390.727 C 501.469 390.727 501.820 390.727 502.172 390.727 C 502.172 391.078 502.172 391.430 502.172 391.781 C 502.523 391.781 502.875 391.781 503.227 391.781 C 503.227 392.133 503.227 392.484 503.227 392.836 C 503.578 392.836 503.930 392.836 504.281 392.836 C 504.281 393.539 504.281 394.242 504.281 394.945 C 504.633 394.945 504.984 394.945 505.336 394.945 C 505.336 395.297 505.336 395.648 505.336 396.000 C 505.688 396.000 506.039 396.000 506.391 396.000 C 506.391 396.352 506.391 396.703 506.391 397.055 C 506.742 397.055 507.094 397.055 507.445 397.055 C 507.445 397.406 507.445 397.758 507.445 398.109 C 507.797 398.109 508.148 398.109 508.500 398.109 C 508.500 398.461 508.500 398.812 508.500 399.164 C 508.852 399.164 509.203 399.164 509.555 399.164 C 509.555 399.516 509.555 399.867 509.555 400.219 C 509.906 400.219 510.258 400.219 510.609 400.219 C 510.609 400.922 510.609 401.625 510.609 402.328 C 510.961 402.328 511.312 402.328 511.664 402.328 C 511.664 402.680 511.664 403.031 511.664 403.383"/>
<path id="arc-13" data-left="9" data-right="6" d="M 341.859 339.047 C 341.859 339.398 341.859 339.750 341.859 340.102 C 341.156 340.102 340.453 340.102 339.750 340.102 C 339.750 340.453 339.750 340.805 339.750 341.156 C 338.695 341.156 337.641 341.156 336.586 341.156 C 336.586 341.508 336.586 341.859 336.586 342.211 C 335.531 342.211 334.477 342.211 333.422 342.211 C 333.422 342.562 333.422 342.914 333.422 343.266 C 332.719 343.266 332.016 343.266 331.312 343.266 C 331.312 343.617 331.312 343.969 331.312 344.320 C 330.258 344.320 329.203 344.320 328.148 344.320 C 328.148 344.672 328.148 345.023 328.148 345.375 C 327.094 345.375 326.039 345.375 324.984 345.375 C 324.984 345.727 324.984 346.078 324.984 346.430 C 324.281 346.430 323.578 346.430 322.875 346.430 C 322.875 346.781 322.875 347.133 322.875 347.484 C 321.820 347.484 320.766 347.484 319.711 347.484 C 319.711 347.836 319.711 348.188 319.711 348.539 C 319.008 348.539 318.305 348.539 317.602 348.539 C 317.602 348.891 317.602 349.242 317.602 349.594 C 316.547 349.594 315.492 349.594 314.438 349.594 C 314.438 349.945 314.438 350.297 314.438 350.648 C 313.383 350.648 312.328 350.648 311.273 350.648 C 311.273 351.000 311.273 351.352 311.273 351.703 C 310.570 351.703 309.867 351.703 309.164 351.703 C 309.164 352.055 309.164 352.406 309.164 352.758 C 308.109 352.758 307.055 352.758 306.000 352.758 C 306.000 353.109 306.000 353.461 306.000 353.812 C 305.297 353.812 304.594 353.812 303.891 353.812 C 303.891 354.164 303.891 354.516 303.891 354.867 C 302.836 354.867 301.781 354.867 300.727 354.867 C 300.727 355.219 300.727 355.570 300.727 355.922 C 299.672 355.922 298.617 355.922 297.562 355.922 C 297.562 356.273 297.562 356.625 297.562 356.977 C 296.859 356.977 296.156 356.977 295.453 356.977 C 295.453 357.328 295.453 357.680 295.453 358.031 C 294.398 358.031 293.344 358.031 292.289 358.031 C 292.289 358.383 292.289 358.734 292.289 359.086 C 291.938 359.086 291.586 359.086 291.234 359.086"/>
<path id="arc-14" data-left="3" data-right="8" d="M 273.305 340.102 C 272.602 340.102 271.898 340.102 271.195 340.102 C 271.195 340.453 271.195 340.805 271.195 341.156 C 268.383 341.156 265.570 341.156 262.758 341.156 C 262.758 341.508 262.758 341.859 262.758 342.211 C 259.594 342.211 256.430 342.211 253.266 342.211 C 253.266 342.562 253.266 342.914 253.266 343.266 C 250.453 343.266 247.641 343.266 244.828 343.266 C 244.828 343.617 244.828 343.969 244.828 344.320 C 242.016 344.320 239.203 344.320 236.391 344.320 C 236.391 344.672 236.391 345.023 236.391 345.375 C 233.227 345.375 230.062 345.375 226.898 345.375 C 226.898 345.727 226.898 346.078 226.898 346.430 C 224.086 346.430 221.273 346.430 218.461 346.430 C 218.461 346.781 218.461 347.133 218.461 347.484 C 215.648 347.484 212.836 347.484 210.023 347.484 C 210.023 347.836 210.023 348.188 210.023 348.539 C 206.859 348.539 203.695 348.539 200.531 348.539 C 200.531 348.891 200.531 349.242 200.531 349.594 C 197.719 349.594 194.906 349.594 192.094 349.594 C 192.094 349.945 192.094 350.297 192.094 350.648 C 189.281 350.648 186.469 350.648 183.656 350.648 C 183.656 351.000 183.656 351.352 183.656 351.703 C 180.492 351.703 177.328 351.703 174.164 351.703 C 174.164 352.055 174.164 352.406 174.164 352.758 C 171.352 352.758 168.539 352.758 165.727 352.758 C 165.727 353.109 165.727 353.461 165.727 353.812 C 162.914 353.812 160.102 353.812 157.289 353.812 C 157.289 354.164 157.289 354.516 157.289 354.867 C 154.125 354.867 150.961 354.867 147.797 354.867 C 147.797 355.219 147.797 355.570 147.797 355.922 C 144.984 355.922 142.172 355.922 139.359 355.922 C 139.359 356.273 139.359 356.625 139.359 356.977 C 136.547 356.977 133.734 356.977 130.922 356.977 C 130.922 357.328 130.922 357.680 130.922 358.031 C 127.758 358.031 124.594 358.031 121.430 358.031 C 121.430 358.383 121.430 358.734 121.430 359.086 C 118.617 359.086 115.805 359.086 112.992 359.086 C 112.992 359.438 112.992 359.789 112.992 360.141 C 110.180 360.141 107.367 360.141 104.555 360.141 C 104.555 360.492 104.555 360.844 104.555 361.195 C 101.391 361.195 98.227 361.195 95.062 361.195 C 95.062 361.547 95.062 361.898 95.062 362.250 C 92.250 362.250 89.438 362.250 86.625 362.250 C 86.625 362.602 86.625 362.953 86.625 363.305 C 83.812 363.305 81.000 363.305 78.188 363.305 C 78.188 363.656 78.188 364.008 78.188 364.359 C 75.023 364.359 71.859 364.359 68.695 364.359 C 68.695 364.711 68.695 365.062 68.695 365.414 C 65.883 365.414 63.070 365.414 60.258 365.414 C 60.258 365.766 60.258 366.117 60.258 366.469 C 57.445 366.469 54.633 366.469 51.820 366.469 C 51.820 366.820 51.820 367.172 51.820 367.523 C 48.656 367.523 45.492 367.523 42.328 367.523 C 42.328 367.875 42.328 368.227 42.328 368.578 C 40.219 368.578 38.109 368.578 36.000 368.578"/>
<path id="arc-15" data-left="6" data-right="3" d="M 273.305 340.102 C 273.305 340.453 273.305 340.805 273.305 341.156 C 273.656 341.156 274.008 341.156 274.359 341.156 C 274.359 341.508 274.359 341.859 274.359 342.211 C 274.711 342.211 275.062 342.211 275.414 342.211 C 275.414 342.562 275.414 342.914 275.414 343.266 C 275.766 343.266 276.117 343.266 276.469 343.266 C 276.469 343.617 276.469 343.969 276.469 344.320 C 276.820 344.320 277.172 344.320 277.523 344.320 C 277.523 344.672 277.523 345.023 277.523 345.375 C 277.875 345.375 278.227 345.375 278.578 345.375 C 278.578 345.727 278.578 346.078 278.578 346.430 C 278.930 346.430 279.281 346.430 279.633 346.430 C 279.633 346.781 279.633 347.133 279.633 347.484 C 279.984 347.484 280.336 347.484 280.688 347.484 C 280.688 347.836 280.688 348.188 280.688 348.539 C 281.039 348.539 281.391 348.539 281.742 348.539 C 281.742 348.891 281.742 349.242 281.742 349.594 C 282.094 349.594 282.445 349.594 282.797 349.594 C 282.797 349.945 282.797 350.297 282.797 350.648 C 283.148 350.648 283.500 350.648 283.852 350.648 C 283.852 351.000 283.852 351.352 283.852 351.703 C 284.203 351.703 284.555 351.703 284.906 351.703 C 284.906 352.055 284.906 352.406 284.906 352.758 C 285.258 352.758 285.609 352.758 285.961 352.758 C 285.961 353.109 285.961 353.461 285.961 353.812 C 286.312 353.812 286.664 353.812 287.016 353.812 C 287.016 354.164 287.016 354.516 287.016 354.867 C 287.367 354.867 287.719 354.867 288.070 354.867 C 288.070 355.219 288.070 355.570 288.070 355.922 C 288.422 355.922 288.773 355.922 289.125 355.922 C 289.125 356.273 289.125 356.625 289.125 356.977 C 289.477 356.977 289.828 356.977 290.180 356.977 C 290.180 357.328 290.180 357.680 290.180 358.031 C 290.531 358.031 290.883 358.031 291.234 358.031 C 291.234 358.383 291.234 358.734 291.234 359.086"/>
<path id="arc-16" data-left="9" data-right="3" d="M 291.234 359.086 C 291.234 359.438 291.234 359.789 291.234 360.141 C 291.586 360.141 291.938 360.141 292.289 360.141 C 292.289 361.195 292.289 362.250 292.289 363.305 C 292.641 363.305 292.992 363.305 293.344 363.305 C 293.344 364.359 293.344 365.414 293.344 366.469 C 293.695 366.469 294.047 366.469 294.398 366.469 C 294.398 367.875 294.398 369.281 294.398 370.688 C 294.750 370.688 295.102 370.688 295.453 370.688 C 295.453 371.742 295.453 372.797 295.453 373.852 C 295.805 373.852 296.156 373.852 296.508 373.852 C 296.508 374.906 296.508 375.961 296.508 377.016 C 296.859 377.016 297.211 377.016 297.562 377.016 C 297.562 378.422 297.562 379.828 297.562 381.234 C 297.914 381.234 298.266 381.234 298.617 381.234 C 298.617 382.289 298.617 383.344 298.617 384.398 C 298.969 384.398 299.320 384.398 299.672 384.398 C 299.672 385.453 299.672 386.508 299.672 387.562 C 300.023 387.562 300.375 387.562 300.727 387.562 C 300.727 388.969 300.727 390.375 300.727 391.781 C 301.078 391.781 301.430 391.781 301.781 391.781 C 301.781 392.836 301.781 393.891 301.781 394.945 C 302.133 394.945 302.484 394.945 302.836 394.945 C 302.836 396.000 302.836 397.055 302.836 398.109 C 303.188 398.109 303.539 398.109 303.891 398.109 C 303.891 399.516 303.891 400.922 303.891 402.328 C 304.242 402.328 304.594 402.328 304.945 402.328 C 304.945 403.383 304.945 404.438 304.945 405.492 C 305.297 405.492 305.648 405.492 306.000 405.492 C 306.000 406.547 306.000 407.602 306.000 408.656 C 306.352 408.656 306.703 408.656 307.055 408.656 C 307.055 410.062 307.055 411.469 307.055 412.875 C 307.406 412.875 307.758 412.875 308.109 412.875 C 308.109 413.930 308.109 414.984 308.109 416.039 C 308.461 416.039 308.812 416.039 309.164 416.039 C 309.164 417.094 309.164 418.148 309.164 419.203"/>
<path id="arc-17" data-left="3" data-right="0" d="M 36.000 368.578 C 36.000 406.195 36.000 443.812 36.000 481.430"/>
<path id="arc-18" data-left="6" data-right="9" d="M 511.664 403.383 C 507.445 403.383 503.227 403.383 499.008 403.383 C 499.008 403.734 499.008 404.086 499.008 404.438 C 494.789 404.438 490.570 404.438 486.352 404.438 C 486.352 404.789 486.352 405.141 486.352 405.492 C 481.781 405.492 477.211 405.492 472.641 405.492 C 472.641 405.844 472.641 406.195 472.641 406.547 C 468.422 406.547 464.203 406.547 459.984 406.547 C 459.984 406.898 459.984 407.250 459.984 407.602 C 455.414 407.602 450.844 407.602 446.273 407.602 C 446.273 407.953 446.273 408.305 446.273 408.656 C 442.055 408.656 437.836 408.656 433.617 408.656 C 433.617 409.008 433.617 409.359 433.617 409.711 C 429.047 409.711 424.477 409.711 419.906 409.711 C 419.906 410.062 419.906 410.414 419.906 410.766 C 415.688 410.766 411.469 410.766 407.250 410.766 C 407.250 411.117 407.250 411.469 407.250 411.820 C 402.680 411.820 398.109 411.820 393.539 411.820 C 393.539 412.172 393.539 412.523 393.539 412.875 C 389.320 412.875 385.102 412.875 380.883 412.875 C 380.883 413.227 380.883 413.578 380.883 413.930 C 376.312 413.930 371.742 413.930 367.172 413.930 C 367.172 414.281 367.172 414.633 367.172 414.984 C 362.953 414.984 358.734 414.984 354.516 414.984 C 354.516 415.336 354.516 415.688 354.516 416.039 C 349.945 416.039 345.375 416.039 340.805 416.039 C 340.805 416.391 340.805 416.742 340.805 417.094 C 336.586 417.094 332.367 417.094 328.148 417.094 C 328.148 417.445 328.148 417.797 328.148 418.148 C 323.578 418.148 319.008 418.148 314.438 418.148 C 314.438 418.500 314.438 418.852 314.438 419.203 C 312.680 419.203 310.922 419.203 309.164 419.203"/>
<path id="arc-19" data-left="1" data-right="6" d="M 511.664 403.383 C 512.367 403.383 513.070 403.383 513.773 403.383 C 513.773 403.734 513.773 404.086 513.773 404.438 C 514.477 404.438 515.180 404.438 515.883 404.438 C 515.883 404.789 515.883 405.141 515.883 405.492 C 516.234 405.492 516.586 405.492 516.938 405.492 C 516.938 405.844 516.938 406.195 516.938 406.547 C 517.641 406.547 518.344 406.547 519.047 406.547 C 519.047 406.898 519.047 407.250 519.047 407.602 C 519.398 407.602 519.750 407.602 520.102 407.602"/>
<path id="arc-20" data-left="8" data-right="6" d="M 520.102 407.602 C 520.102 407.953 520.102 408.305 520.102 408.656 C 520.453 408.656 520.805 408.656 521.156 408.656 C 521.156 409.008 521.156 409.359 521.156 409.711 C 521.859 409.711 522.562 409.711 523.266 409.711 C 523.266 410.062 523.266 410.414 523.266 410.766 C 523.617 410.766 523.969 410.766 524.320 410.766 C 524.320 411.117 524.320 411.469 524.320 411.820 C 524.672 411.820 525.023 411.820 525.375 411.820 C 525.375 412.172 525.375 412.523 525.375 412.875 C 525.727 412.875 526.078 412.875 526.430 412.875 C 526.430 413.227 526.430 413.578 526.430 413.930 C 526.781 413.930 527.133 413.930 527.484 413.930 C 527.484 414.281 527.484 414.633 527.484 414.984 C 527.836 414.984 528.188 414.984 528.539 414.984 C 528.539 415.336 528.539 415.688 528.539 416.039 C 528.891 416.039 529.242 416.039 529.594 416.039 C 529.594 416.391 529.594 416.742 529.594 417.094 C 529.945 417.094 530.297 417.094 530.648 417.094 C 530.648 417.445 530.648 417.797 530.648 418.148 C 531.000 418.148 531.352 418.148 531.703 418.148 C 531.703 418.500 531.703 418.852 531.703 419.203 C 532.055 419.203 532.406 419.203 532.758 419.203 C 532.758 419.555 532.758 419.906 532.758 420.258 C 533.109 420.258 533.461 420.258 533.812 420.258 C 533.812 420.609 533.812 420.961 533.812 421.312 C 534.164 421.312 534.516 421.312 534.867 421.312 C 534.867 421.664 534.867 422.016 534.867 422.367 C 535.219 422.367 535.570 422.367 535.922 422.367 C 535.922 422.719 535.922 423.070 535.922 423.422 C 536.273 423.422 536.625 423.422 536.977 423.422 C 536.977 423.773 536.977 424.125 536.977 424.477 C 537.328 424.477 537.680 424.477 538.031 424.477 C 538.031 424.828 538.031 425.180 538.031 425.531 C 538.383 425.531 538.734 425.531 539.086 425.531 C 539.086 425.883 539.086 426.234 539.086 426.586 C 539.438 426.586 539.789 426.586 540.141 426.586 C 540.141 426.938 540.141 427.289 540.141 427.641 C 540.492 427.641 540.844 427.641 541.195 427.641 C 541.195 427.992 541.195 428.344 541.195 428.695 C 541.547 428.695 541.898 428.695 542.250 428.695 C 542.250 429.047 542.250 429.398 542.250 429.750 C 542.602 429.750 542.953 429.750 543.305 429.750 C 543.305 430.102 543.305 430.453 543.305 430.805 C 543.656 430.805 544.008 430.805 544.359 430.805 C 544.359 431.156 544.359 431.508 544.359 431.859 C 544.711 431.859 545.062 431.859 545.414 431.859 C 545.414 432.211 545.414 432.562 545.414 432.914 C 545.766 432.914 546.117 432.914 546.469 432.914 C 546.469 433.266 546.469 433.617 546.469 433.969 C 546.820 433.969 547.172 433.969 547.523 433.969 C 547.523 434.320 547.523 434.672 547.523 435.023 C 547.875 435.023 548.227 435.023 548.578 435.023 C 548.578 435.375 548.578 435.727 548.578 436.078 C 548.930 436.078 549.281 436.078 549.633 436.078 C 549.633 436.430 549.633 436.781 549.633 437.133 C 549.984 437.133 550.336 437.133 550.688 437.133 C 550.688 437.484 550.688 437.836 550.688 438.188 C 551.039 438.188 551.391 438.188 551.742 438.188 C 551.742 438.539 551.742 438.891 551.742 439.242 C 552.094 439.242 552.445 439.242 552.797 439.242 C 552.797 439.594 552.797 439.945 552.797 440.297 C 553.148 440.297 553.500 440.297 553.852 440.297 C 553.852 440.648 553.852 441.000 553.852 441.352 C 554.203 441.352 554.555 441.352 554.906 441.352 C 554.906 441.703 554.906 442.055 554.906 442.406 C 555.258 442.406 555.609 442.406 555.961 442.406 C 555.961 442.758 555.961 443.109 555.961 443.461 C 556.312 443.461 556.664 443.461 557.016 443.461 C 557.016 443.812 557.016 444.164 557.016 444.516 C 557.367 444.516 557.719 444.516 558.070 444.516 C 558.070 444.867 558.070 445.219 558.070 445.570 C 558.422 445.570 558.773 445.570 559.125 445.570 C 559.125 445.922 559.125 446.273 559.125 446.625 C 559.477 446.625 559.828 446.625 560.180 446.625 C 560.180 446.977 560.180 447.328 560.180 447.680 C 560.531 447.680 560.883 447.680 561.234 447.680 C 561.234 448.031 561.234 448.383 561.234 448.734 C 561.586 448.734 561.938 448.734 562.289 448.734 C 562.289 449.086 562.289 449.438 562.289 449.789 C 562.992 449.789 563.695 449.789 564.398 449.789 C 564.398 450.141 564.398 450.492 564.398 450.844 C 564.750 450.844 565.102 450.844 565.453 450.844 C 565.453 451.195 565.453 451.547 565.453 451.898 C 565.805 451.898 566.156 451.898 566.508 451.898 C 566.508 452.250 566.508 452.602 566.508 452.953 C 566.859 452.953 567.211 452.953 567.562 452.953 C 567.562 453.305 567.562 453.656 567.562 454.008 C 567.914 454.008 568.266 454.008 568.617 454.008 C 568.617 454.359 568.617 454.711 568.617 455.062 C 568.969 455.062 569.320 455.062 569.672 455.062 C 569.672 455.414 569.672 455.766 569.672 456.117 C 570.023 456.117 570.375 456.117 570.727 456.117 C 570.727 456.469 570.727 456.820 570.727 457.172"/>
<path id="arc-21" data-left="6" data-right="3" d="M 309.164 419.203 C 309.164 421.664 309.164 424.125 309.164 426.586 C 308.812 426.586 308.461 426.586 308.109 426.586 C 308.109 429.398 308.109 432.211 308.109 435.023 C 307.758 435.023 307.406 435.023 307.055 435.023 C 307.055 438.187 307.055 441.352 307.055 444.516 C 306.703 444.516 306.352 444.516 306.000 444.516 C 306.000 447.328 306.000 450.141 306.000 452.953 C 305.648 452.953 305.297 452.953 304.945 452.953 C 304.945 455.766 304.945 458.578 304.945 461.391 C 304.594 461.391 304.242 461.391 303.891 461.391 C 303.891 464.555 303.891 467.719 303.891 470.883 C 303.539 470.883 303.188 470.883 302.836 470.883 C 302.836 473.695 302.836 476.508 302.836 479.320 C 302.484 479.320 302.133 479.320 301.781 479.320 C 301.781 482.133 301.781 484.945 301.781 487.758 C 301.430 487.758 301.078 487.758 300.727 487.758 C 300.727 490.922 300.727 494.086 300.727 497.250 C 300.375 497.250 300.023 497.250 299.672 497.250 C 299.672 500.062 299.672 502.875 299.672 505.688 C 299.320 505.688 298.969 505.688 298.617 505.688 C 298.617 508.500 298.617 511.312 298.617 514.125 C 298.266 514.125 297.914 514.125 297.562 514.125 C 297.562 517.289 297.562 520.453 297.562 523.617 C 297.211 523.617 296.859 523.617 296.508 523.617 C 296.508 524.320 296.508 525.023 296.508 525.727"/>
<path id="arc-22" data-left="4" data-right="6" d="M 570.727 457.172 C 570.375 457.172 570.023 457.172 569.672 457.172 C 569.672 457.523 569.672 457.875 569.672 458.227 C 569.320 458.227 568.969 458.227 568.617 458.227 C 568.617 458.578 568.617 458.930 568.617 459.281 C 567.914 459.281 567.211 459.281 566.508 459.281 C 566.508 459.633 566.508 459.984 566.508 460.336 C 566.156 460.336 565.805 460.336 565.453 460.336 C 565.453 460.688 565.453 461.039 565.453 461.391 C 564.750 461.391 564.047 461.391 563.344 461.391 C 563.344 461.742 563.344 462.094 563.344 462.445 C 562.992 462.445 562.641 462.445 562.289 462.445 C 562.289 462.797 562.289 463.148 562.289 463.500 C 561.938 463.500 561.586 463.500 561.234 463.500 C 561.234 463.852 561.234 464.203 561.234 464.555 C 560.531 464.555 559.828 464.555 559.125 464.555 C 559.125 464.906 559.125 465.258 559.125 465.609 C 558.773 465.609 558.422 465.609 558.070 465.609 C 558.070 465.961 558.070 466.312 558.070 466.664 C 557.719 466.664 557.367 466.664 557.016 466.664 C 557.016 467.016 557.016 467.367 557.016 467.719 C 556.312 467.719 555.609 467.719 554.906 467.719 C 554.906 468.070 554.906 468.422 554.906 468.773 C 554.555 468.773 554.203 468.773 553.852 468.773 C 553.852 469.125 553.852 469.477 553.852 469.828 C 553.500 469.828 553.148 469.828 552.797 469.828 C 552.797 470.180 552.797 470.531 552.797 470.883 C 552.094 470.883 551.391 470.883 550.688 470.883 C 550.688 471.234 550.688 471.586 550.688 471.938 C 550.336 471.938 549.984 471.938 549.633 471.938 C 549.633 472.289 549.633 472.641 549.633 472.992 C 549.281 472.992 548.930 472.992 548.578 472.992 C 548.578 473.344 548.578 473.695 548.578 474.047 C 547.875 474.047 547.172 474.047 546.469 474.047 C 546.469 474.398 546.469 474.750 546.469 475.102 C 546.117 475.102 545.766 475.102 545.414 475.102 C 545.414 475.453 545.414 475.805 545.414 476.156 C 544.711 476.156 544.008 476.156 543.305 476.156 C 543.305 476.508 543.305 476.859 543.305 477.211 C 542.953 477.211 542.602 477.211 542.250 477.211 C 542.250 477.562 542.250 477.914 542.250 478.266 C 541.898 478.266 541.547 478.266 541.195 478.266 C 541.195 478.617 541.195 478.969 541.195 479.320 C 540.492 479.320 539.789 479.320 539.086 479.320 C 539.086 479.672 539.086 480.023 539.086 480.375 C 538.734 480.375 538.383 480.375 538.031 480.375 C 538.031 480.727 538.031 481.078 538.031 481.430 C 537.680 481.430 537.328 481.430 536.977 481.430 C 536.977 481.781 536.977 482.133 536.977 482.484 C 536.273 482.484 535.570 482.484 534.867 482.484 C 534.867 482.836 534.867 483.188 534.867 483.539 C 534.516 483.539 534.164 483.539 533.812 483.539 C 533.812 483.891 533.812 484.242 533.812 484.594 C 533.461 484.594 533.109 484.594 532.758 484.594 C 532.758 484.945 532.758 485.297 532.758 485.648 C 532.055 485.648 531.352 485.648 530.648 485.648 C 530.648 486.000 530.648 486.352 530.648 486.703 C 530.297 486.703 529.945 486.703 529.594 486.703 C 529.594 487.055 529.594 487.406 529.594 487.758 C 528.891 487.758 528.188 487.758 527.484 487.758 C 527.484 488.109 527.484 488.461 527.484 488.812 C 527.133 488.812 526.781 488.812 526.430 488.812 C 526.430 489.164 526.430 489.516 526.430 489.867 C 526.078 489.867 525.727 489.867 525.375 489.867 C 525.375 490.219 525.375 490.570 525.375 490.922 C 524.672 490.922 523.969 490.922 523.266 490.922 C 523.266 491.273 523.266 491.625 523.266 491.977 C 522.914 491.977 522.562 491.977 522.211 491.977 C 522.211 492.328 522.211 492.680 522.211 493.031 C 521.859 493.031 521.508 493.031 521.156 493.031 C 521.156 493.383 521.156 493.734 521.156 494.086 C 520.453 494.086 519.750 494.086 519.047 494.086 C 519.047 494.438 519.047 494.789 519.047 495.141 C 518.695 495.141 518.344 495.141 517.992 495.141 C 517.992 495.492 517.992 495.844 517.992 496.195 C 517.641 496.195 517.289 496.195 516.938 496.195 C 516.938 496.547 516.938 496.898 516.938 497.250 C 516.234 497.250 515.531 497.250 514.828 497.250 C 514.828 497.602 514.828 497.953 514.828 498.305 C 514.477 498.305 514.125 498.305 513.773 498.305 C 513.773 498.656 513.773 499.008 513.773 499.359 C 513.070 499.359 512.367 499.359 511.664 499.359 C 511.664 499.711 511.664 500.062 511.664 500.414 C 511.312 500.414 510.961 500.414 510.609 500.414 C 510.609 500.766 510.609 501.117 510.609 501.469 C 510.258 501.469 509.906 501.469 509.555 501.469 C 509.555 501.820 509.555 502.172 509.555 502.523 C 508.852 502.523 508.148 502.523 507.445 502.523 C 507.445 502.875 507.445 503.227 507.445 503.578 C 507.094 503.578 506.742 503.578 506.391 503.578 C 506.391 503.930 506.391 504.281 506.391 504.633 C 506.039 504.633 505.688 504.633 505.336 504.633 C 505.336 504.984 505.336 505.336 505.336 505.688 C 504.633 505.688 503.930 505.688 503.227 505.688 C 503.227 506.039 503.227 506.391 503.227 506.742 C 502.875 506.742 502.523 506.742 502.172 506.742 C 502.172 507.094 502.172 507.445 502.172 507.797 C 501.820 507.797 501.469 507.797 501.117 507.797 C 501.117 508.148 501.117 508.500 501.117 508.852 C 500.414 508.852 499.711 508.852 499.008 508.852 C 499.008 509.203 499.008 509.555 499.008 509.906 C 498.656 509.906 498.305 509.906 497.953 509.906 C 497.953 510.258 497.953 510.609 497.953 510.961 C 497.250 510.961 496.547 510.961 495.844 510.961 C 495.844 511.312 495.844 511.664 495.844 512.016 C 495.492 512.016 495.141 512.016 494.789 512.016 C 494.789 512.367 494.789 512.719 494.789 513.070 C 494.438 513.070 494.086 513.070 493.734 513.070 C 493.734 513.422 493.734 513.773 493.734 514.125 C 493.031 514.125 492.328 514.125 491.625 514.125 C 491.625 514.477 491.625 514.828 491.625 515.180 C 491.273 515.180 490.922 515.180 490.570 515.180 C 490.570 515.531 490.570 515.883 490.570 516.234 C 490.219 516.234 489.867 516.234 489.516 516.234 C 489.516 516.586 489.516 516.938 489.516 517.289 C 488.812 517.289 488.109 517.289 487.406 517.289 C 487.406 517.641 487.406 517.992 487.406 518.344 C 487.055 518.344 486.703 518.344 486.352 518.344 C 486.352 518.695 486.352 519.047 486.352 519.398 C 486.000 519.398 485.648 519.398 485.297 519.398 C 485.297 519.750 485.297 520.102 485.297 520.453 C 484.594 520.453 483.891 520.453 483.188 520.453 C 483.188 520.805 483.188 521.156 483.188 521.508 C 482.836 521.508 482.484 521.508 482.133 521.508 C 482.133 521.859 482.133 522.211 482.133 522.562 C 481.430 522.562 480.727 522.562 480.023 522.562 C 480.023 522.914 480.023 523.266 480.023 523.617 C 479.672 523.617 479.320 523.617 478.969 523.617 C 478.969 523.969 478.969 524.320 478.969 524.672 C 478.617 524.672 478.266 524.672 477.914 524.672 C 477.914 525.023 477.914 525.375 477.914 525.727 C 477.211 525.727 476.508 525.727 475.805 525.727 C 475.805 526.078 475.805 526.430 475.805 526.781 C 475.453 526.781 475.102 526.781 474.750 526.781 C 474.750 527.133 474.750 527.484 474.750 527.836 C 474.398 527.836 474.047 527.836 473.695 527.836 C 473.695 528.188 473.695 528.539 473.695 528.891 C 472.992 528.891 472.289 528.891 471.586 528.891 C 471.586 529.242 471.586 529.594 471.586 529.945 C 471.234 529.945 470.883 529.945 470.531 529.945 C 470.531 530.297 470.531 530.648 470.531 531.000 C 470.180 531.000 469.828 531.000 469.477 531.000 C 469.477 531.352 469.477 531.703 469.477 532.055 C 468.773 532.055 468.070 532.055 467.367 532.055 C 467.367 532.406 467.367 532.758 467.367 533.109 C 467.016 533.109 466.664 533.109 466.312 533.109 C 466.312 533.461 466.312 533.812 466.312 534.164 C 465.961 534.164 465.609 534.164 465.258 534.164 C 465.258 534.516 465.258 534.867 465.258 535.219 C 464.555 535.219 463.852 535.219 463.148 535.219 C 463.148 535.570 463.148 535.922 463.148 536.273 C 462.797 536.273 462.445 536.273 462.094 536.273 C 462.094 536.625 462.094 536.977 462.094 537.328 C 461.391 537.328 460.688 537.328 459.984 537.328 C 459.984 537.680 459.984 538.031 459.984 538.383 C 459.633 538.383 459.281 538.383 458.930 538.383 C 458.930 538.734 458.930 539.086 458.930 539.438 C 458.578 539.438 458.227 539.438 457.875 539.438 C 457.875 539.789 457.875 540.141 457.875 540.492 C 457.172 540.492 456.469 540.492 455.766 540.492 C 455.766 540.844 455.766 541.195 455.766 541.547 C 455.414 541.547 455.062 541.547 454.711 541.547 C 454.711 541.898 454.711 542.250 454.711 542.602 C 454.359 542.602 454.008 542.602 453.656 542.602 C 453.656 542.953 453.656 543.305 453.656 543.656"/>
<path id="arc-23" data-left="8" data-right="4" d="M 570.727 457.172 C 572.484 457.172 574.242 457.172 576.000 457.172"/>
<path id="arc-24" data-left="0" data-right="4" d="M 576.000 457.172 C 576.000 526.781 576.000 596.391 576.000 666.000"/>
<path id="arc-25" data-left="3" data-right="1" d="M 36.000 481.430 C 38.109 481.430 40.219 481.430 42.328 481.430 C 42.328 481.781 42.328 482.133 42.328 482.484 C 44.437 482.484 46.547 482.484 48.656 482.484 C 48.656 482.836 48.656 483.188 48.656 483.539 C 50.766 483.539 52.875 483.539 54.984 483.539 C 54.984 483.891 54.984 484.242 54.984 484.594 C 57.094 484.594 59.203 484.594 61.312 484.594 C 61.312 484.945 61.312 485.297 61.312 485.648 C 63.422 485.648 65.531 485.648 67.641 485.648 C 67.641 486.000 67.641 486.352 67.641 486.703 C 69.750 486.703 71.859 486.703 73.969 486.703 C 73.969 487.055 73.969 487.406 73.969 487.758 C 75.727 487.758 77.484 487.758 79.242 487.758 C 79.242 488.109 79.242 488.461 79.242 488.812 C 81.352 488.812 83.461 488.812 85.570 488.812 C 85.570 489.164 85.570 489.516 85.570 489.867 C 87.680 489.867 89.789 489.867 91.898 489.867 C 91.898 490.219 91.898 490.570 91.898 490.922 C 94.008 490.922 96.117 490.922 98.227 490.922 C 98.227 491.273 98.227 491.625 98.227 491.977 C 100.336 491.977 102.445 491.977 104.555 491.977 C 104.555 492.328 104.555 492.680 104.555 493.031 C 106.664 493.031 108.773 493.031 110.883 493.031 C 110.883 493.383 110.883 493.734 110.883 494.086 C 112.641 494.086 114.398 494.086 116.156 494.086 C 116.156 494.438 116.156 494.789 116.156 495.141 C 118.266 495.141 120.375 495.141 122.484 495.141 C 122.484 495.492 122.484 495.844 122.484 496.195 C 124.594 496.195 126.703 496.195 128.812 496.195 C 128.812 496.547 128.812 496.898 128.812 497.250 C 130.922 497.250 133.031 497.250 135.141 497.250 C 135.141 497.602 135.141 497.953 135.141 498.305 C 137.250 498.305 139.359 498.305 141.469 498.305 C 141.469 498.656 141.469 499.008 141.469 499.359 C 143.578 499.359 145.688 499.359 147.797 499.359 C 147.797 499.711 147.797 500.062 147.797 500.414 C 149.906 500.414 152.016 500.414 154.125 500.414 C 154.125 500.766 154.125 501.117 154.125 501.469 C 155.883 501.469 157.641 501.469 159.398 501.469 C 159.398 501.820 159.398 502.172 159.398 502.523 C 161.508 502.523 163.617 502.523 165.727 502.523 C 165.727 502.875 165.727 503.227 165.727 503.578 C 167.836 503.578 169.945 503.578 172.055 503.578 C 172.055 503.930 172.055 504.281 172.055 504.633 C 174.164 504.633 176.273 504.633 178.383 504.633 C 178.383 504.984 178.383 505.336 178.383 505.688 C 180.492 505.688 182.602 505.688 184.711 505.688 C 184.711 506.039 184.711 506.391 184.711 506.742 C 186.820 506.742 188.930 506.742 191.039 506.742 C 191.039 507.094 191.039 507.445 191.039 507.797 C 192.797 507.797 194.555 507.797 196.312 507.797 C 196.312 508.148 196.312 508.500 196.312 508.852 C 198.422 508.852 200.531 508.852 202.641 508.852 C 202.641 509.203 202.641 509.555 202.641 509.906 C 204.750 509.906 206.859 509.906 208.969 509.906 C 208.969 510.258 208.969 510.609 208.969 510.961 C 211.078 510.961 213.188 510.961 215.297 510.961 C 215.297 511.312 215.297 511.664 215.297 512.016 C 217.406 512.016 219.516 512.016 221.625 512.016 C 221.625 512.367 221.625 512.719 221.625 513.070 C 223.734 513.070 225.844 513.070 227.953 513.070 C 227.953 513.422 227.953 513.773 227.953 514.125 C 230.062 514.125 232.172 514.125 234.281 514.125 C 234.281 514.477 234.281 514.828 234.281 515.180 C 236.039 515.180 237.797 515.180 239.555 515.180 C 239.555 515.531 239.555 515.883 239.555 516.234 C 241.664 516.234 243.773 516.234 245.883 516.234 C 245.883 516.586 245.883 516.938 245.883 517.289 C 247.992 517.289 250.102 517.289 252.211 517.289 C 252.211 517.641 252.211 517.992 252.211 518.344 C 254.320 518.344 256.430 518.344 258.539 518.344 C 258.539 518.695 258.539 519.047 258.539 519.398 C 260.648 519.398 262.758 519.398 264.867 519.398 C 264.867 519.750 264.867 520.102 264.867 520.453 C 266.977 520.453 269.086 520.453 271.195 520.453 C 271.195 520.805 271.195 521.156 271.195 521.508 C 272.953 521.508 274.711 521.508 276.469 521.508 C 276.469 521.859 276.469 522.211 276.469 522.562 C 278.578 522.562 280.688 522.562 282.797 522.562 C 282.797 522.914 282.797 523.266 282.797 523.617 C 284.906 523.617 287.016 523.617 289.125 523.617 C 289.125 523.969 289.125 524.320 289.125 524.672 C 291.234 524.672 293.344 524.672 295.453 524.672 C 295.453 525.023 295.453 525.375 295.453 525.727 C 295.805 525.727 296.156 525.727 296.508 525.727"/>
<path id="arc-26" data-left="1" data-right="0" d="M 36.000 481.430 C 36.000 542.953 36.000 604.477 36.000 666.000"/>
<path id="arc-27" data-left="6" data-right="1" d="M 296.508 525.727 C 296.859 525.727 297.211 525.727 297.562 525.727 C 297.562 526.430 297.562 527.133 297.562 527.836 C 297.914 527.836 298.266 527.836 298.617 527.836 C 298.617 528.188 298.617 528.539 298.617 528.891 C 298.969 528.891 299.320 528.891 299.672 528.891 C 299.672 529.594 299.672 530.297 299.672 531.000 C 300.023 531.000 300.375 531.000 300.727 531.000 C 300.727 531.703 300.727 532.406 300.727 533.109 C 301.078 533.109 301.430 533.109 301.781 533.109 C 301.781 533.461 301.781 533.812 301.781 534.164 C 304.594 534.164 307.406 534.164 310.219 534.164 C 310.219 534.516 310.219 534.867 310.219 535.219 C 315.844 535.219 321.469 535.219 327.094 535.219 C 327.094 535.570 327.094 535.922 327.094 536.273 C 333.070 536.273 339.047 536.273 345.023 536.273 C 345.023 536.625 345.023 536.977 345.023 537.328 C 351.000 537.328 356.977 537.328 362.953 537.328 C 362.953 537.680 362.953 538.031 362.953 538.383 C 368.930 538.383 374.906 538.383 380.883 538.383 C 380.883 538.734 380.883 539.086 380.883 539.438 C 386.859 539.438 392.836 539.438 398.812 539.438 C 398.812 539.789 398.812 540.141 398.812 540.492 C 404.438 540.492 410.062 540.492 415.688 540.492 C 415.688 540.844 415.688 541.195 415.688 541.547 C 421.664 541.547 427.641 541.547 433.617 541.547 C 433.617 541.898 433.617 542.250 433.617 542.602 C 439.594 542.602 445.570 542.602 451.547 542.602 C 451.547 542.953 451.547 543.305 451.547 543.656 C 452.250 543.656 452.953 543.656 453.656 543.656"/>
<path id="arc-28" data-left="4" data-right="1" d="M 453.656 543.656 C 453.656 547.875 453.656 552.094 453.656 556.312 C 454.008 556.312 454.359 556.312 454.711 556.312 C 454.711 560.883 454.711 565.453 454.711 570.023 C 455.062 570.023 455.414 570.023 455.766 570.023 C 455.766 574.594 455.766 579.164 455.766 583.734 C 456.117 583.734 456.469 583.734 456.820 583.734 C 456.820 587.953 456.820 592.172 456.820 596.391 C 457.172 596.391 457.523 596.391 457.875 596.391 C 457.875 600.961 457.875 605.531 457.875 610.102 C 458.227 610.102 458.578 610.102 458.930 610.102 C 458.930 614.320 458.930 618.539 458.930 622.758 C 459.281 622.758 459.633 622.758 459.984 622.758 C 459.984 627.328 459.984 631.898 459.984 636.469 C 460.336 636.469 460.688 636.469 461.039 636.469 C 461.039 641.039 461.039 645.609 461.039 650.180 C 461.391 650.180 461.742 650.180 462.094 650.180 C 462.094 654.398 462.094 658.617 462.094 662.836 C 462.445 662.836 462.797 662.836 463.148 662.836 C 463.148 663.891 463.148 664.945 463.148 666.000"/>
<path id="arc-29" data-left="1" data-right="9" d="M 247.992 666.000 C 247.992 665.297 247.992 664.594 247.992 663.891 C 248.344 663.891 248.695 663.891 249.047 663.891 C 249.047 663.188 249.047 662.484 249.047 661.781 C 249.398 661.781 249.750 661.781 250.102 661.781 C 250.102 661.078 250.102 660.375 250.102 659.672 C 250.453 659.672 250.805 659.672 251.156 659.672 C 251.156 658.969 251.156 658.266 251.156 657.562 C 251.508 657.562 251.859 657.562 252.211 657.562 C 252.211 656.859 252.211 656.156 252.211 655.453 C 252.562 655.453 252.914 655.453 253.266 655.453 C 253.266 654.750 253.266 654.047 253.266 653.344 C 253.617 653.344 253.969 653.344 254.320 653.344 C 254.320 652.289 254.320 651.234 254.320 650.180 C 254.672 650.180 255.023 650.180 255.375 650.180 C 255.375 649.477 255.375 648.773 255.375 648.070 C 255.727 648.070 256.078 648.070 256.430 648.070 C 256.430 647.367 256.430 646.664 256.430 645.961 C 256.781 645.961 257.133 645.961 257.484 645.961 C 257.484 645.258 257.484 644.555 257.484 643.852 C 257.836 643.852 258.188 643.852 258.539 643.852 C 258.539 643.148 258.539 642.445 258.539 641.742 C 258.891 641.742 259.242 641.742 259.594 641.742 C 259.594 640.687 259.594 639.633 259.594 638.578 C 259.945 638.578 260.297 638.578 260.648 638.578 C 260.648 637.875 260.648 637.172 260.648 636.469 C 261.000 636.469 261.352 636.469 261.703 636.469 C 261.703 635.766 261.703 635.062 261.703 634.359 C 262.055 634.359 262.406 634.359 262.758 634.359 C 262.758 633.656 262.758 632.953 262.758 632.250 C 263.109 632.250 263.461 632.250 263.812 632.250 C 263.812 631.547 263.812 630.844 263.812 630.141 C 264.164 630.141 264.516 630.141 264.867 630.141 C 264.867 629.438 264.867 628.734 264.867 628.031 C 265.219 628.031 265.570 628.031 265.922 628.031 C 265.922 626.977 265.922 625.922 265.922 624.867 C 266.273 624.867 266.625 624.867 266.977 624.867 C 266.977 624.164 266.977 623.461 266.977 622.758 C 267.328 622.758 267.680 622.758 268.031 622.758 C 268.031 622.055 268.031 621.352 268.031 620.648 C 268.383 620.648 268.734 620.648 269.086 620.648 C 269.086 619.945 269.086 619.242 269.086 618.539 C 269.438 618.539 269.789 618.539 270.141 618.539 C 270.141 617.836 270.141 617.133 270.141 616.430 C 270.492 616.430 270.844 616.430 271.195 616.430 C 271.195 615.727 271.195 615.023 271.195 614.320 C 271.547 614.320 271.898 614.320 272.250 614.320 C 272.250 613.266 272.250 612.211 272.250 611.156 C 272.602 611.156 272.953 611.156 273.305 611.156 C 273.305 610.453 273.305 609.750 273.305 609.047 C 273.656 609.047 274.008 609.047 274.359 609.047 C 274.359 608.344 274.359 607.641 274.359 606.938 C 274.711 606.938 275.062 606.938 275.414 606.938 C 275.414 606.234 275.414 605.531 275.414 604.828 C 275.766 604.828 276.117 604.828 276.469 604.828 C 276.469 604.125 276.469 603.422 276.469 602.719 C 276.820 602.719 277.172 602.719 277.523 602.719 C 277.523 601.664 277.523 600.609 277.523 599.555 C 277.875 599.555 278.227 599.555 278.578 599.555 C 278.578 598.852 278.578 598.148 278.578 597.445 C 278.930 597.445 279.281 597.445 279.633 597.445 C 279.633 596.742 279.633 596.039 279.633 595.336 C 279.984 595.336 280.336 595.336 280.688 595.336 C 280.688 594.633 280.688 593.930 280.688 593.227 C 281.039 593.227 281.391 593.227 281.742 593.227 C 281.742 592.523 281.742 591.820 281.742 591.117 C 282.094 591.117 282.445 591.117 282.797 591.117 C 282.797 590.414 282.797 589.711 282.797 589.008 C 283.148 589.008 283.500 589.008 283.852 589.008 C 283.852 587.953 283.852 586.898 283.852 585.844 C 284.203 585.844 284.555 585.844 284.906 585.844 C 284.906 585.141 284.906 584.438 284.906 583.734 C 285.258 583.734 285.609 583.734 285.961 583.734 C 285.961 583.031 285.961 582.328 285.961 581.625 C 286.312 581.625 286.664 581.625 287.016 581.625 C 287.016 580.922 287.016 580.219 287.016 579.516 C 287.367 579.516 287.719 579.516 288.070 579.516 C 288.070 578.812 288.070 578.109 288.070 577.406 C 288.422 577.406 288.773 577.406 289.125 577.406 C 289.125 576.352 289.125 575.297 289.125 574.242 C 289.477 574.242 289.828 574.242 290.180 574.242 C 290.180 573.539 290.180 572.836 290.180 572.133 C 290.531 572.133 290.883 572.133 291.234 572.133 C 291.234 571.430 291.234 570.727 291.234 570.023 C 291.586 570.023 291.938 570.023 292.289 570.023 C 292.289 569.320 292.289 568.617 292.289 567.914 C 292.641 567.914 292.992 567.914 293.344 567.914 C 293.344 567.211 293.344 566.508 293.344 565.805 C 293.695 565.805 294.047 565.805 294.398 565.805 C 294.398 565.102 294.398 564.398 294.398 563.695 C 294.750 563.695 295.102 563.695 295.453 563.695 C 295.453 562.641 295.453 561.586 295.453 560.531 C 295.805 560.531 296.156 560.531 296.508 560.531 C 296.508 559.828 296.508 559.125 296.508 558.422 C 296.859 558.422 297.211 558.422 297.562 558.422 C 297.562 557.719 297.562 557.016 297.562 556.312 C 297.914 556.312 298.266 556.312 298.617 556.312 C 298.617 557.016 298.617 557.719 298.617 558.422 C 298.969 558.422 299.320 558.422 299.672 558.422 C 299.672 558.773 299.672 559.125 299.672 559.477 C 300.023 559.477 300.375 559.477 300.727 559.477 C 300.727 559.828 300.727 560.180 300.727 560.531 C 301.078 560.531 301.430 560.531 301.781 560.531 C 301.781 560.883 301.781 561.234 301.781 561.586 C 302.133 561.586 302.484 561.586 302.836 561.586 C 302.836 561.938 302.836 562.289 302.836 562.641 C 303.188 562.641 303.539 562.641 303.891 562.641 C 303.891 563.344 303.891 564.047 303.891 564.750 C 304.242 564.750 304.594 564.750 304.945 564.750 C 304.945 565.102 304.945 565.453 304.945 565.805 C 305.297 565.805 305.648 565.805 306.000 565.805 C 306.000 566.156 306.000 566.508 306.000 566.859 C 306.352 566.859 306.703 566.859 307.055 566.859 C 307.055 567.211 307.055 567.562 307.055 567.914 C 307.406 567.914 307.758 567.914 308.109 567.914 C 308.109 568.617 308.109 569.320 308.109 570.023 C 308.461 570.023 308.812 570.023 309.164 570.023 C 309.164 570.375 309.164 570.727 309.164 571.078 C 309.516 571.078 309.867 571.078 310.219 571.078 C 310.219 571.430 310.219 571.781 310.219 572.133 C 310.570 572.133 310.922 572.133 311.273 572.133 C 311.273 572.484 311.273 572.836 311.273 573.188 C 311.625 573.188 311.977 573.188 312.328 573.188 C 312.328 573.891 312.328 574.594 312.328 575.297 C 312.680 575.297 313.031 575.297 313.383 575.297 C 313.383 575.648 313.383 576.000 313.383 576.352 C 313.734 576.352 314.086 576.352 314.438 576.352 C 314.438 576.703 314.438 577.055 314.438 577.406 C 314.789 577.406 315.141 577.406 315.492 577.406 C 315.492 577.758 315.492 578.109 315.492 578.461 C 315.844 578.461 316.195 578.461 316.547 578.461 C 316.547 579.164 316.547 579.867 316.547 580.570 C 316.898 580.570 317.250 580.570 317.602 580.570 C 317.602 580.922 317.602 581.273 317.602 581.625 C 317.953 581.625 318.305 581.625 318.656 581.625 C 318.656 581.977 318.656 582.328 318.656 582.680 C 319.008 582.680 319.359 582.680 319.711 582.680 C 319.711 583.031 319.711 583.383 319.711 583.734 C 320.062 583.734 320.414 583.734 320.766 583.734 C 320.766 584.086 320.766 584.438 320.766 584.789 C 321.117 584.789 321.469 584.789 321.820 584.789 C 321.820 585.492 321.820 586.195 321.820 586.898 C 322.172 586.898 322.523 586.898 322.875 586.898 C 322.875 587.250 322.875 587.602 322.875 587.953 C 323.227 587.953 323.578 587.953 323.930 587.953 C 323.930 588.305 323.930 588.656 323.930 589.008 C 324.281 589.008 324.633 589.008 324.984 589.008 C 324.984 589.359 324.984 589.711 324.984 590.062 C 325.336 590.062 325.688 590.062 326.039 590.062 C 326.039 590.766 326.039 591.469 326.039 592.172 C 326.391 592.172 326.742 592.172 327.094 592.172 C 327.094 592.523 327.094 592.875 327.094 593.227 C 327.445 593.227 327.797 593.227 328.148 593.227 C 328.148 593.578 328.148 593.930 328.148 594.281 C 328.500 594.281 328.852 594.281 329.203 594.281 C 329.203 594.633 329.203 594.984 329.203 595.336 C 329.555 595.336 329.906 595.336 330.258 595.336 C 330.258 596.039 330.258 596.742 330.258 597.445 C 330.609 597.445 330.961 597.445 331.312 597.445 C 331.312 597.797 331.312 598.148 331.312 598.500 C 331.664 598.500 332.016 598.500 332.367 598.500 C 332.367 598.852 332.367 599.203 332.367 599.555 C 332.719 599.555 333.070 599.555 333.422 599.555 C 333.422 599.906 333.422 600.258 333.422 600.609 C 333.773 600.609 334.125 600.609 334.477 600.609 C 334.477 601.312 334.477 602.016 334.477 602.719 C 334.828 602.719 335.180 602.719 335.531 602.719 C 335.531 603.070 335.531 603.422 335.531 603.773 C 335.883 603.773 336.234 603.773 336.586 603.773 C 336.586 604.125 336.586 604.477 336.586 604.828 C 336.938 604.828 337.289 604.828 337.641 604.828 C 337.641 605.180 337.641 605.531 337.641 605.883 C 337.992 605.883 338.344 605.883 338.695 605.883 C 338.695 606.234 338.695 606.586 338.695 606.938 C 339.047 606.938 339.398 606.938 339.750 606.938 C 339.750 607.641 339.750 608.344 339.750 609.047 C 340.102 609.047 340.453 609.047 340.805 609.047 C 340.805 609.398 340.805 609.750 340.805 610.102 C 341.156 610.102 341.508 610.102 341.859 610.102 C 341.859 610.453 341.859 610.805 341.859 611.156 C 342.211 611.156 342.562 611.156 342.914 611.156 C 342.914 611.508 342.914 611.859 342.914 612.211 C 343.266 612.211 343.617 612.211 343.969 612.211 C 343.969 612.914 343.969 613.617 343.969 614.320 C 344.320 614.320 344.672 614.320 345.023 614.320 C 345.023 614.672 345.023 615.023 345.023 615.375 C 345.375 615.375 345.727 615.375 346.078 615.375 C 346.078 615.727 346.078 616.078 346.078 616.430 C 346.430 616.430 346.781 616.430 347.133 616.430 C 347.133 616.781 347.133 617.133 347.133 617.484 C 347.484 617.484 347.836 617.484 348.188 617.484 C 348.188 618.188 348.188 618.891 348.188 619.594 C 348.539 619.594 348.891 619.594 349.242 619.594 C 349.242 619.945 349.242 620.297 349.242 620.648 C 349.594 620.648 349.945 620.648 350.297 620.648 C 350.297 621.000 350.297 621.352 350.297 621.703 C 350.648 621.703 351.000 621.703 351.352 621.703 C 351.352 622.055 351.352 622.406 351.352 622.758 C 351.703 622.758 352.055 622.758 352.406 622.758 C 352.406 623.461 352.406 624.164 352.406 624.867 C 352.758 624.867 353.109 624.867 353.461 624.867 C 353.461 625.219 353.461 625.570 353.461 625.922 C 353.812 625.922 354.164 625.922 354.516 625.922 C 354.516 626.273 354.516 626.625 354.516 626.977 C 354.867 626.977 355.219 626.977 355.570 626.977 C 355.570 627.328 355.570 627.680 355.570 628.031 C 355.922 628.031 356.273 628.031 356.625 628.031 C 356.625 628.383 356.625 628.734 356.625 629.086 C 356.977 629.086 357.328 629.086 357.680 629.086 C 357.680 629.789 357.680 630.492 357.680 631.195 C 358.031 631.195 358.383 631.195 358.734 631.195 C 358.734 631.547 358.734 631.898 358.734 632.250 C 359.086 632.250 359.438 632.250 359.789 632.250 C 359.789 632.602 359.789 632.953 359.789 633.305 C 360.141 633.305 360.492 633.305 360.844 633.305 C 360.844 633.656 360.844 634.008 360.844 634.359 C 361.195 634.359 361.547 634.359 361.898 634.359 C 361.898 635.062 361.898 635.766 361.898 636.469 C 362.250 636.469 362.602 636.469 362.953 636.469 C 362.953 636.820 362.953 637.172 362.953 637.523 C 363.305 637.523 363.656 637.523 364.008 637.523 C 364.008 637.875 364.008 638.227 364.008 638.578 C 364.359 638.578 364.711 638.578 365.062 638.578 C 365.062 638.930 365.062 639.281 365.062 639.633 C 365.414 639.633 365.766 639.633 366.117 639.633 C 366.117 640.336 366.117 641.039 366.117 641.742 C 366.469 641.742 366.820 641.742 367.172 641.742 C 367.172 642.094 367.172 642.445 367.172 642.797 C 367.523 642.797 367.875 642.797 368.227 642.797 C 368.227 643.148 368.227 643.500 368.227 643.852 C 368.578 643.852 368.930 643.852 369.281 643.852 C 369.281 644.203 369.281 644.555 369.281 644.906 C 369.633 644.906 369.984 644.906 370.336 644.906 C 370.336 645.609 370.336 646.312 370.336 647.016 C 370.688 647.016 371.039 647.016 371.391 647.016 C 371.391 647.367 371.391 647.719 371.391 648.070 C 371.742 648.070 372.094 648.070 372.445 648.070 C 372.445 648.422 372.445 648.773 372.445 649.125 C 372.797 649.125 373.148 649.125 373.500 649.125 C 373.500 649.477 373.500 649.828 373.500 650.180 C 373.852 650.180 374.203 650.180 374.555 650.180 C 374.555 650.531 374.555 650.883 374.555 651.234 C 374.906 651.234 375.258 651.234 375.609 651.234 C 375.609 651.938 375.609 652.641 375.609 653.344 C 375.961 653.344 376.312 653.344 376.664 653.344 C 376.664 653.695 376.664 654.047 376.664 654.398 C 377.016 654.398 377.367 654.398 377.719 654.398 C 377.719 654.750 377.719 655.102 377.719 655.453 C 378.070 655.453 378.422 655.453 378.773 655.453 C 378.773 655.805 378.773 656.156 378.773 656.508 C 379.125 656.508 379.477 656.508 379.828 656.508 C 379.828 657.211 379.828 657.914 379.828 658.617 C 380.180 658.617 380.531 658.617 380.883 658.617 C 380.883 658.969 380.883 659.320 380.883 659.672 C 381.234 659.672 381.586 659.672 381.938 659.672 C 381.938 660.023 381.938 660.375 381.938 660.727 C 382.289 660.727 382.641 660.727 382.992 660.727 C 382.992 661.078 382.992 661.430 382.992 661.781 C 383.344 661.781 383.695 661.781 384.047 661.781 C 384.047 662.484 384.047 663.188 384.047 663.891 C 384.398 663.891 384.750 663.891 385.102 663.891 C 385.102 664.242 385.102 664.594 385.102 664.945 C 385.453 664.945 385.805 664.945 386.156 664.945 C 386.156 665.297 386.156 665.648 386.156 666.000"/>
<path id="arc-30" data-left="1" data-right="0" d="M 36.000 666.000 C 106.664 666.000 177.328 666.000 247.992 666.000"/>
<path id="arc-31" data-left="9" data-right="0" d="M 247.992 666.000 C 294.047 666.000 340.102 666.000 386.156 666.000"/>
<path id="arc-32" data-left="1" data-right="0" d="M 386.156 666.000 C 411.820 666.000 437.484 666.000 463.148 666.000"/>
<path id="arc-33" data-left="4" data-right="0" d="M 463.148 666.000 C 500.766 666.000 538.383 666.000 576.000 666.000"/>
</g>
<g id="labels" font-family="DejaVu Sans" fill="#000" text-anchor="middle" dominant-baseline="central">
<text id="label-0" x="150.002" y="239.786" font-size="14.000">8</text>
<text id="label-1" x="343.051" y="187.686" font-size="14.000">6</text>
<text id="label-2" x="488.623" y="177.975" font-size="14.000">1</text>
<text id="label-3" x="548.698" y="395.724" font-size="14.000">8</text>
<text id="label-4" x="403.575" y="288.175" font-size="14.000">2</text>
<text id="label-5" x="421.899" y="365.586" font-size="14.000">9</text>
<text id="label-6" x="225.134" y="429.446" font-size="14.000">3</text>
<text id="label-7" x="431.475" y="475.662" font-size="14.000">6</text>
<text id="label-8" x="515.848" y="572.394" font-size="14.000">4</text>
<text id="label-9" x="120.470" y="581.432" font-size="14.000">1</text>
<text id="label-10" x="307.090" y="628.157" font-size="14.000">9</text>
</g>
<g id="leaders" stroke="#000" stroke-width="0.250">
</g>
<g id="legend" font-family="DejaVu Sans" font-size="8.000">
<rect id="chip-0" x="20.000" y="20.000" width="20.000" height="20.000" rx="1.500" fill="#ca6285" stroke="#000" stroke-width="0.300"/>
<text id="chip-number-0" x="42.000" y="30.000" fill="#000" dominant-baseline="central">1</text>
<rect id="chip-1" x="46.000" y="20.000" width="20.000" height="20.000" rx="1.500" fill="#c86858" stroke="#000" stroke-width="0.300"/>
<text id="chip-number-1" x="68.000" y="30.000" fill="#000" dominant-baseline="central">2</text>
<rect id="chip-2" x="72.000" y="20.000" width="20.000" height="20.000" rx="1.500" fill="#ad7938" stroke="#000" stroke-width="0.300"/>
<text id="chip-number-2" x="94.000" y="30.000" fill="#000" dominant-baseline="central">3</text>
<rect id="chip-3" x="98.000" y="20.000" width="20.000" height="20.000" rx="1.500" fill="#838936" stroke="#000" stroke-width="0.300"/>
<text id="chip-number-3" x="120.000" y="30.000" fill="#000" dominant-baseline="central">4</text>
<rect id="chip-4" x="124.000" y="20.000" width="20.000" height="20.000" rx="1.500" fill="#4b9354" stroke="#000" stroke-width="0.300"/>
<text id="chip-number-4" x="146.000" y="30.000" fill="#000" dominant-baseline="central">5</text>
<rect id="chip-5" x="150.000" y="20.000" width="20.000" height="20.000" rx="1.500" fill="#009782" stroke="#000" stroke-width="0.300"/>
<text id="chip-number-5" x="172.000" y="30.000" fill="#000" dominant-baseline="central">6</text>
<rect id="chip-6" x="176.000" y="20.000" width="20.000" height="20.000" rx="1.500" fill="#0096b0" stroke="#000" stroke-width="0.300"/>
<text id="chip-number-6" x="198.000" y="30.000" fill="#000" dominant-baseline="central">7</text>
<rect id="chip-7" x="202.000" y="20.000" width="20.000" height="20.000" rx="1.500" fill="#008ecd" stroke="#000" stroke-width="0.300"/>
<text id="chip-number-7" x="224.000" y="30.000" fill="#000" dominant-baseline="central">8</text>
<rect id="chip-8" x="228.000" y="20.000" width="20.000" height="20.000" rx="1.500" fill="#6c80ce" stroke="#000" stroke-width="0.300"/>
<text id="chip-number-8" x="250.000" y="30.000" fill="#000" dominant-baseline="central">9</text>
<rect id="chip-9" x="254.000" y="20.000" width="20.000" height="20.000" rx="1.500" fill="#ac6db2" stroke="#000" stroke-width="0.300"/>
<text id="chip-number-9" x="276.000" y="30.000" fill="#000" dominant-baseline="central">10</text>
</g>
<g id="frame" fill="none" stroke="#000" stroke-width="0.300">
<rect id="content-frame" x="36.000" y="36.000" width="540.000" height="720.000"/>
</g>
</svg>
