<?xml version="1.0" encoding="UTF-8"?>
<!-- mystery-cbn svg 1.0.0 -->
<svg xmlns="http://www.w3.org/2000/svg" version="1.1" width="215.900mm" height="279.400mm" viewBox="0 0 612.000 792.000">
<g id="regions" fill="none" stroke="#000" stroke-width="0.300" stroke-linecap="round" stroke-linejoin="round">
<path id="arc-0" data-left="0" data-right="1" d="M 36.000 126.000 C 216.000 126.000 396.000 126.000 576.000 126.000"/>
<path id="arc-1" data-left="1" data-right="0" d="M 36.000 126.000 C 36.000 186.117 36.000 246.234 36.000 306.352"/>
<path id="arc-2" data-left="0" data-right="1" d="M 576.000 126.000 C 576.000 264.867 576.000 403.734 576.000 542.602"/>
<path id="arc-3" data-left="1" data-right="2" d="M 246.938 309.516 C 247.289 309.516 247.641 309.516 247.992 309.516 C 247.992 308.461 247.992 307.406 247.992 306.352 C 248.344 306.352 248.695 306.352 249.047 306.352 C 249.047 305.297 249.047 304.242 249.047 303.188 C 249.398 303.188 249.750 303.188 250.102 303.188 C 250.102 302.484 250.102 301.781 250.102 301.078 C 250.453 301.078 250.805 301.078 251.156 301.078 C 251.156 300.375 251.156 299.672 251.156 298.969 C 251.508 298.969 251.859 298.969 252.211 298.969 C 252.211 298.266 252.211 297.562 252.211 296.859 C 252.562 296.859 252.914 296.859 253.266 296.859 C 253.266 296.508 253.266 296.156 253.266 295.805 C 253.617 295.805 253.969 295.805 254.320 295.805 C 254.320 295.102 254.320 294.398 254.320 293.695 C 254.672 293.695 255.023 293.695 255.375 293.695 C 255.375 293.344 255.375 292.992 255.375 292.641 C 255.727 292.641 256.078 292.641 256.430 292.641 C 256.430 292.289 256.430 291.938 256.430 291.586 C 256.781 291.586 257.133 291.586 257.484 291.586 C 257.484 291.234 257.484 290.883 257.484 290.531 C 257.836 290.531 258.188 290.531 258.539 290.531 C 258.539 290.180 258.539 289.828 258.539 289.477 C 258.891 289.477 259.242 289.477 259.594 289.477 C 259.594 289.125 259.594 288.773 259.594 288.422 C 259.945 288.422 260.297 288.422 260.648 288.422 C 260.648 288.070 260.648 287.719 260.648 287.367 C 261.000 287.367 261.352 287.367 261.703 287.367 C 261.703 287.016 261.703 286.664 261.703 286.312 C 262.055 286.312 262.406 286.312 262.758 286.312 C 262.758 285.961 262.758 285.609 262.758 285.258 C 263.109 285.258 263.461 285.258 263.812 285.258 C 263.812 284.906 263.812 284.555 263.812 284.203 C 264.164 284.203 264.516 284.203 264.867 284.203 C 264.867 283.852 264.867 283.500 264.867 283.148 C 265.570 283.148 266.273 283.148 266.977 283.148 C 266.977 282.797 266.977 282.445 266.977 282.094 C 267.328 282.094 267.680 282.094 268.031 282.094 C 268.031 281.742 268.031 281.391 268.031 281.039 C 268.734 281.039 269.438 281.039 270.141 281.039 C 270.141 280.688 270.141 280.336 270.141 279.984 C 270.844 279.984 271.547 279.984 272.250 279.984 C 272.250 279.633 272.250 279.281 272.250 278.930 C 272.602 278.930 272.953 278.930 273.305 278.930 C 273.305 278.578 273.305 278.227 273.305 277.875 C 274.008 277.875 274.711 277.875 275.414 277.875 C 275.414 277.523 275.414 277.172 275.414 276.820 C 276.469 276.820 277.523 276.820 278.578 276.820 C 278.578 276.469 278.578 276.117 278.578 275.766 C 279.281 275.766 279.984 275.766 280.688 275.766 C 280.688 275.414 280.688 275.062 280.688 274.711 C 281.742 274.711 282.797 274.711 283.852 274.711 C 283.852 274.359 283.852 274.008 283.852 273.656 C 284.906 273.656 285.961 273.656 287.016 273.656 C 287.016 273.305 287.016 272.953 287.016 272.602 C 288.422 272.602 289.828 272.602 291.234 272.602 C 291.234 272.250 291.234 271.898 291.234 271.547 C 292.641 271.547 294.047 271.547 295.453 271.547 C 295.453 271.195 295.453 270.844 295.453 270.492 C 297.211 270.492 298.969 270.492 300.727 270.492 C 300.727 270.141 300.727 269.789 300.727 269.438 C 302.836 269.438 304.945 269.438 307.055 269.438 C 307.055 269.086 307.055 268.734 307.055 268.383 C 309.516 268.383 311.977 268.383 314.438 268.383 C 314.438 268.031 314.438 267.680 314.438 267.328 C 316.898 267.328 319.359 267.328 321.820 267.328 C 321.820 266.977 321.820 266.625 321.820 266.273 C 323.578 266.273 325.336 266.273 327.094 266.273 C 327.094 265.922 327.094 265.570 327.094 265.219 C 328.500 265.219 329.906 265.219 331.312 265.219 C 331.312 264.867 331.312 264.516 331.312 264.164 C 332.367 264.164 333.422 264.164 334.477 264.164 C 334.477 263.812 334.477 263.461 334.477 263.109 C 335.180 263.109 335.883 263.109 336.586 263.109 C 336.586 262.758 336.586 262.406 336.586 262.055 C 337.289 262.055 337.992 262.055 338.695 262.055 C 338.695 261.703 338.695 261.352 338.695 261.000 C 339.398 261.000 340.102 261.000 340.805 261.000 C 340.805 260.648 340.805 260.297 340.805 259.945 C 341.508 259.945 342.211 259.945 342.914 259.945 C 342.914 259.594 342.914 259.242 342.914 258.891 C 343.617 258.891 344.320 258.891 345.023 258.891 C 345.023 258.539 345.023 258.188 345.023 257.836 C 345.727 257.836 346.430 257.836 347.133 257.836 C 347.133 257.484 347.133 257.133 347.133 256.781 C 347.484 256.781 347.836 256.781 348.188 256.781 C 348.188 256.430 348.188 256.078 348.188 255.727 C 348.891 255.727 349.594 255.727 350.297 255.727 C 350.297 255.375 350.297 255.023 350.297 254.672 C 350.648 254.672 351.000 254.672 351.352 254.672 C 351.352 254.320 351.352 253.969 351.352 253.617 C 351.703 253.617 352.055 253.617 352.406 253.617 C 352.406 253.266 352.406 252.914 352.406 252.562 C 353.109 252.562 353.812 252.562 354.516 252.562 C 354.516 252.211 354.516 251.859 354.516 251.508 C 354.867 251.508 355.219 251.508 355.570 251.508 C 355.570 251.156 355.570 250.805 355.570 250.453 C 355.922 250.453 356.273 250.453 356.625 250.453 C 356.625 250.102 356.625 249.750 356.625 249.398 C 357.328 249.398 358.031 249.398 358.734 249.398 C 358.734 249.047 358.734 248.695 358.734 248.344 C 359.086 248.344 359.438 248.344 359.789 248.344 C 359.789 247.992 359.789 247.641 359.789 247.289 C 360.141 247.289 360.492 247.289 360.844 247.289 C 360.844 246.938 360.844 246.586 360.844 246.234 C 361.547 246.234 362.250 246.234 362.953 246.234 C 362.953 245.883 362.953 245.531 362.953 245.180 C 363.305 245.180 363.656 245.180 364.008 245.180 C 364.008 244.828 364.008 244.477 364.008 244.125 C 364.359 244.125 364.711 244.125 365.062 244.125 C 365.062 243.773 365.062 243.422 365.062 243.070 C 365.766 243.070 366.469 243.070 367.172 243.070 C 367.172 242.719 367.172 242.367 367.172 242.016 C 367.523 242.016 367.875 242.016 368.227 242.016 C 368.227 241.664 368.227 241.312 368.227 240.961 C 368.930 240.961 369.633 240.961 370.336 240.961 C 370.336 240.609 370.336 240.258 370.336 239.906 C 370.688 239.906 371.039 239.906 371.391 239.906 C 371.391 239.555 371.391 239.203 371.391 238.852 C 372.094 238.852 372.797 238.852 373.500 238.852 C 373.500 238.500 373.500 238.148 373.500 237.797 C 373.852 237.797 374.203 237.797 374.555 237.797 C 374.555 237.445 374.555 237.094 374.555 236.742 C 375.258 236.742 375.961 236.742 376.664 236.742 C 376.664 236.391 376.664 236.039 376.664 235.688 C 377.367 235.688 378.070 235.688 378.773 235.688 C 378.773 235.336 378.773 234.984 378.773 234.633 C 379.477 234.633 380.180 234.633 380.883 234.633 C 380.883 234.281 380.883 233.930 380.883 233.578 C 381.586 233.578 382.289 233.578 382.992 233.578 C 382.992 233.227 382.992 232.875 382.992 232.523 C 383.695 232.523 384.398 232.523 385.102 232.523 C 385.102 232.172 385.102 231.820 385.102 231.469 C 385.805 231.469 386.508 231.469 387.211 231.469 C 387.211 231.117 387.211 230.766 387.211 230.414 C 388.266 230.414 389.320 230.414 390.375 230.414 C 390.375 230.062 390.375 229.711 390.375 229.359 C 391.430 229.359 392.484 229.359 393.539 229.359 C 393.539 229.008 393.539 228.656 393.539 228.305 C 394.945 228.305 396.352 228.305 397.758 228.305 C 397.758 227.953 397.758 227.602 397.758 227.250 C 399.867 227.250 401.977 227.250 404.086 227.250 C 404.086 226.898 404.086 226.547 404.086 226.195 C 407.602 226.195 411.117 226.195 414.633 226.195 C 414.633 226.547 414.633 226.898 414.633 227.250 C 416.742 227.250 418.852 227.250 420.961 227.250 C 420.961 227.602 420.961 227.953 420.961 228.305 C 422.016 228.305 423.070 228.305 424.125 228.305 C 424.125 228.656 424.125 229.008 424.125 229.359 C 425.180 229.359 426.234 229.359 427.289 229.359 C 427.289 229.711 427.289 230.062 427.289 230.414 C 427.992 230.414 428.695 230.414 429.398 230.414 C 429.398 230.766 429.398 231.117 429.398 231.469 C 430.102 231.469 430.805 231.469 431.508 231.469 C 431.508 231.820 431.508 232.172 431.508 232.523 C 432.211 232.523 432.914 232.523 433.617 232.523 C 433.617 232.875 433.617 233.227 433.617 233.578 C 433.969 233.578 434.320 233.578 434.672 233.578 C 434.672 233.930 434.672 234.281 434.672 234.633 C 435.375 234.633 436.078 234.633 436.781 234.633 C 436.781 234.984 436.781 235.336 436.781 235.688 C 437.133 235.688 437.484 235.688 437.836 235.688 C 437.836 236.039 437.836 236.391 437.836 236.742 C 438.188 236.742 438.539 236.742 438.891 236.742 C 438.891 237.094 438.891 237.445 438.891 237.797 C 439.242 237.797 439.594 237.797 439.945 237.797 C 439.945 238.148 439.945 238.500 439.945 238.852 C 440.297 238.852 440.648 238.852 441.000 238.852 C 441.000 239.203 441.000 239.555 441.000 239.906 C 441.352 239.906 441.703 239.906 442.055 239.906 C 442.055 240.258 442.055 240.609 442.055 240.961 C 442.406 240.961 442.758 240.961 443.109 240.961 C 443.109 241.312 443.109 241.664 443.109 242.016 C 443.461 242.016 443.812 242.016 444.164 242.016 C 444.164 242.367 444.164 242.719 444.164 243.070 C 444.516 243.070 444.867 243.070 445.219 243.070 C 445.219 243.422 445.219 243.773 445.219 244.125 C 445.570 244.125 445.922 244.125 446.273 244.125 C 446.273 244.477 446.273 244.828 446.273 245.180 C 446.625 245.180 446.977 245.180 447.328 245.180 C 447.328 245.883 447.328 246.586 447.328 247.289 C 447.680 247.289 448.031 247.289 448.383 247.289 C 448.383 247.641 448.383 247.992 448.383 248.344 C 448.734 248.344 449.086 248.344 449.438 248.344 C 449.438 249.047 449.438 249.750 449.438 250.453 C 449.789 250.453 450.141 250.453 450.492 250.453 C 450.492 251.156 450.492 251.859 450.492 252.562 C 450.844 252.562 451.195 252.562 451.547 252.562 C 451.547 252.914 451.547 253.266 451.547 253.617 C 451.898 253.617 452.250 253.617 452.602 253.617 C 452.602 254.320 452.602 255.023 452.602 255.727 C 452.953 255.727 453.305 255.727 453.656 255.727 C 453.656 256.781 453.656 257.836 453.656 258.891 C 454.008 258.891 454.359 258.891 454.711 258.891 C 454.711 259.594 454.711 260.297 454.711 261.000 C 455.062 261.000 455.414 261.000 455.766 261.000 C 455.766 262.055 455.766 263.109 455.766 264.164 C 456.117 264.164 456.469 264.164 456.820 264.164 C 456.820 265.219 456.820 266.273 456.820 267.328 C 457.172 267.328 457.523 267.328 457.875 267.328 C 457.875 268.734 457.875 270.141 457.875 271.547 C 458.227 271.547 458.578 271.547 458.930 271.547 C 458.930 272.953 458.930 274.359 458.930 275.766 C 459.281 275.766 459.633 275.766 459.984 275.766 C 459.984 277.523 459.984 279.281 459.984 281.039 C 460.336 281.039 460.688 281.039 461.039 281.039 C 461.039 283.148 461.039 285.258 461.039 287.367 C 461.391 287.367 461.742 287.367 462.094 287.367 C 462.094 289.828 462.094 292.289 462.094 294.750 C 462.445 294.750 462.797 294.750 463.148 294.750 C 463.148 297.211 463.148 299.672 463.148 302.133 C 463.500 302.133 463.852 302.133 464.203 302.133 C 464.203 303.891 464.203 305.648 464.203 307.406 C 464.555 307.406 464.906 307.406 465.258 307.406 C 465.258 308.812 465.258 310.219 465.258 311.625 C 465.609 311.625 465.961 311.625 466.312 311.625 C 466.312 312.680 466.312 313.734 466.312 314.789 C 466.664 314.789 467.016 314.789 467.367 314.789 C 467.367 315.492 467.367 316.195 467.367 316.898 C 467.719 316.898 468.070 316.898 468.422 316.898 C 468.422 317.602 468.422 318.305 468.422 319.008 C 468.773 319.008 469.125 319.008 469.477 319.008 C 469.477 319.711 469.477 320.414 469.477 321.117 C 469.828 321.117 470.180 321.117 470.531 321.117 C 470.531 321.820 470.531 322.523 470.531 323.227 C 470.883 323.227 471.234 323.227 471.586 323.227 C 471.586 323.930 471.586 324.633 471.586 325.336 C 471.938 325.336 472.289 325.336 472.641 325.336 C 472.641 326.039 472.641 326.742 472.641 327.445 C 472.992 327.445 473.344 327.445 473.695 327.445 C 473.695 327.797 473.695 328.148 473.695 328.500 C 474.047 328.500 474.398 328.500 474.750 328.500 C 474.750 329.203 474.750 329.906 474.750 330.609 C 475.102 330.609 475.453 330.609 475.805 330.609 C 475.805 330.961 475.805 331.312 475.805 331.664 C 476.156 331.664 476.508 331.664 476.859 331.664 C 476.859 332.016 476.859 332.367 476.859 332.719 C 477.211 332.719 477.562 332.719 477.914 332.719 C 477.914 333.422 477.914 334.125 477.914 334.828 C 478.266 334.828 478.617 334.828 478.969 334.828 C 478.969 335.180 478.969 335.531 478.969 335.883 C 479.320 335.883 479.672 335.883 480.023 335.883 C 480.023 336.234 480.023 336.586 480.023 336.938 C 480.375 336.938 480.727 336.938 481.078 336.938 C 481.078 337.641 481.078 338.344 481.078 339.047 C 481.430 339.047 481.781 339.047 482.133 339.047 C 482.133 339.398 482.133 339.750 482.133 340.102 C 482.484 340.102 482.836 340.102 483.188 340.102 C 483.188 340.453 483.188 340.805 483.188 341.156 C 483.539 341.156 483.891 341.156 484.242 341.156 C 484.242 341.859 484.242 342.562 484.242 343.266 C 484.594 343.266 484.945 343.266 485.297 343.266 C 485.297 343.617 485.297 343.969 485.297 344.320 C 485.648 344.320 486.000 344.320 486.352 344.320 C 486.352 344.672 486.352 345.023 486.352 345.375 C 486.703 345.375 487.055 345.375 487.406 345.375 C 487.406 346.078 487.406 346.781 487.406 347.484 C 487.758 347.484 488.109 347.484 488.461 347.484 C 488.461 347.836 488.461 348.188 488.461 348.539 C 488.812 348.539 489.164 348.539 489.516 348.539 C 489.516 349.242 489.516 349.945 489.516 350.648 C 489.867 350.648 490.219 350.648 490.570 350.648 C 490.570 351.000 490.570 351.352 490.570 351.703 C 490.922 351.703 491.273 351.703 491.625 351.703 C 491.625 352.406 491.625 353.109 491.625 353.812 C 491.977 353.812 492.328 353.812 492.680 353.812 C 492.680 354.164 492.680 354.516 492.680 354.867 C 493.031 354.867 493.383 354.867 493.734 354.867 C 493.734 355.570 493.734 356.273 493.734 356.977 C 494.086 356.977 494.438 356.977 494.789 356.977 C 494.789 357.680 494.789 358.383 494.789 359.086 C 495.141 359.086 495.492 359.086 495.844 359.086 C 495.844 359.789 495.844 360.492 495.844 361.195 C 496.195 361.195 496.547 361.195 496.898 361.195 C 496.898 361.898 496.898 362.602 496.898 363.305 C 497.250 363.305 497.602 363.305 497.953 363.305 C 497.953 364.008 497.953 364.711 497.953 365.414 C 498.305 365.414 498.656 365.414 499.008 365.414 C 499.008 366.117 499.008 366.820 499.008 367.523 C 499.359 367.523 499.711 367.523 500.062 367.523 C 500.062 368.578 500.062 369.633 500.062 370.688 C 500.414 370.688 500.766 370.688 501.117 370.688 C 501.117 371.742 501.117 372.797 501.117 373.852 C 501.469 373.852 501.820 373.852 502.172 373.852 C 502.172 375.258 502.172 376.664 502.172 378.070 C 502.523 378.070 502.875 378.070 503.227 378.070 C 503.227 380.180 503.227 382.289 503.227 384.398 C 503.578 384.398 503.930 384.398 504.281 384.398 C 504.281 387.914 504.281 391.430 504.281 394.945 C 503.930 394.945 503.578 394.945 503.227 394.945 C 503.227 397.055 503.227 399.164 503.227 401.273 C 502.875 401.273 502.523 401.273 502.172 401.273 C 502.172 402.328 502.172 403.383 502.172 404.438 C 501.820 404.438 501.469 404.438 501.117 404.438 C 501.117 404.789 501.117 405.141 501.117 405.492"/>
<path id="arc-4" data-left="1" data-right="3" d="M 36.000 306.352 C 36.352 306.352 36.703 306.352 37.055 306.352 C 37.055 306.000 37.055 305.648 37.055 305.297 C 37.406 305.297 37.758 305.297 38.109 305.297 C 38.109 304.594 38.109 303.891 38.109 303.188 C 38.461 303.188 38.812 303.188 39.164 303.188 C 39.164 302.836 39.164 302.484 39.164 302.133 C 39.516 302.133 39.867 302.133 40.219 302.133 C 40.219 301.781 40.219 301.430 40.219 301.078 C 40.570 301.078 40.922 301.078 41.273 301.078 C 41.273 300.727 41.273 300.375 41.273 300.023 C 41.625 300.023 41.977 300.023 42.328 300.023 C 42.328 299.672 42.328 299.320 42.328 298.969 C 42.680 298.969 43.031 298.969 43.383 298.969 C 43.383 298.617 43.383 298.266 43.383 297.914 C 43.734 297.914 44.086 297.914 44.438 297.914 C 44.438 297.562 44.438 297.211 44.438 296.859 C 44.789 296.859 45.141 296.859 45.492 296.859 C 45.492 296.508 45.492 296.156 45.492 295.805 C 45.844 295.805 46.195 295.805 46.547 295.805 C 46.547 295.453 46.547 295.102 46.547 294.750 C 46.898 294.750 47.250 294.750 47.602 294.750 C 47.602 294.398 47.602 294.047 47.602 293.695 C 47.953 293.695 48.305 293.695 48.656 293.695 C 48.656 293.344 48.656 292.992 48.656 292.641 C 49.359 292.641 50.062 292.641 50.766 292.641 C 50.766 292.289 50.766 291.938 50.766 291.586 C 51.117 291.586 51.469 291.586 51.820 291.586 C 51.820 291.234 51.820 290.883 51.820 290.531 C 52.523 290.531 53.227 290.531 53.930 290.531 C 53.930 290.180 53.930 289.828 53.930 289.477 C 54.633 289.477 55.336 289.477 56.039 289.477 C 56.039 289.125 56.039 288.773 56.039 288.422 C 56.391 288.422 56.742 288.422 57.094 288.422 C 57.094 288.070 57.094 287.719 57.094 287.367 C 57.797 287.367 58.500 287.367 59.203 287.367 C 59.203 287.016 59.203 286.664 59.203 286.312 C 60.258 286.312 61.313 286.312 62.367 286.312 C 62.367 285.961 62.367 285.609 62.367 285.258 C 63.070 285.258 63.773 285.258 64.477 285.258 C 64.477 284.906 64.477 284.555 64.477 284.203 C 65.531 284.203 66.586 284.203 67.641 284.203 C 67.641 283.852 67.641 283.500 67.641 283.148 C 68.695 283.148 69.750 283.148 70.805 283.148 C 70.805 282.797 70.805 282.445 70.805 282.094 C 72.211 282.094 73.617 282.094 75.023 282.094 C 75.023 281.742 75.023 281.391 75.023 281.039 C 76.430 281.039 77.836 281.039 79.242 281.039 C 79.242 280.688 79.242 280.336 79.242 279.984 C 81.000 279.984 82.758 279.984 84.516 279.984 C 84.516 279.633 84.516 279.281 84.516 278.930 C 86.625 278.930 88.734 278.930 90.844 278.930 C 90.844 278.578 90.844 278.227 90.844 277.875 C 93.305 277.875 95.766 277.875 98.227 277.875 C 98.227 277.523 98.227 277.172 98.227 276.820 C 100.688 276.820 103.148 276.820 105.609 276.820 C 105.609 276.469 105.609 276.117 105.609 275.766 C 107.367 275.766 109.125 275.766 110.883 275.766 C 110.883 275.414 110.883 275.062 110.883 274.711 C 112.289 274.711 113.695 274.711 115.102 274.711 C 115.102 274.359 115.102 274.008 115.102 273.656 C 116.156 273.656 117.211 273.656 118.266 273.656 C 118.266 273.305 118.266 272.953 118.266 272.602 C 118.969 272.602 119.672 272.602 120.375 272.602 C 120.375 272.250 120.375 271.898 120.375 271.547 C 121.078 271.547 121.781 271.547 122.484 271.547 C 122.484 271.195 122.484 270.844 122.484 270.492 C 123.188 270.492 123.891 270.492 124.594 270.492 C 124.594 270.141 124.594 269.789 124.594 269.438 C 125.297 269.438 126.000 269.438 126.703 269.438 C 126.703 269.086 126.703 268.734 126.703 268.383 C 127.406 268.383 128.109 268.383 128.812 268.383 C 128.812 268.031 128.812 267.680 128.812 267.328 C 129.516 267.328 130.219 267.328 130.922 267.328 C 130.922 266.977 130.922 266.625 130.922 266.273 C 131.273 266.273 131.625 266.273 131.977 266.273 C 131.977 265.922 131.977 265.570 131.977 265.219 C 132.680 265.219 133.383 265.219 134.086 265.219 C 134.086 264.867 134.086 264.516 134.086 264.164 C 134.438 264.164 134.789 264.164 135.141 264.164 C 135.141 263.812 135.141 263.461 135.141 263.109 C 135.492 263.109 135.844 263.109 136.195 263.109 C 136.195 262.758 136.195 262.406 136.195 262.055 C 136.898 262.055 137.602 262.055 138.305 262.055 C 138.305 261.703 138.305 261.352 138.305 261.000 C 138.656 261.000 139.008 261.000 139.359 261.000 C 139.359 260.648 139.359 260.297 139.359 259.945 C 139.711 259.945 140.062 259.945 140.414 259.945 C 140.414 259.594 140.414 259.242 140.414 258.891 C 141.117 258.891 141.820 258.891 142.523 258.891 C 142.523 258.539 142.523 258.188 142.523 257.836 C 142.875 257.836 143.227 257.836 143.578 257.836 C 143.578 257.484 143.578 257.133 143.578 256.781 C 143.930 256.781 144.281 256.781 144.633 256.781 C 144.633 256.430 144.633 256.078 144.633 255.727 C 145.336 255.727 146.039 255.727 146.742 255.727 C 146.742 255.375 146.742 255.023 146.742 254.672 C 147.094 254.672 147.445 254.672 147.797 254.672 C 147.797 254.320 147.797 253.969 147.797 253.617 C 148.148 253.617 148.500 253.617 148.852 253.617 C 148.852 253.266 148.852 252.914 148.852 252.562 C 149.555 252.562 150.258 252.562 150.961 252.562 C 150.961 252.211 150.961 251.859 150.961 251.508 C 151.312 251.508 151.664 251.508 152.016 251.508 C 152.016 251.156 152.016 250.805 152.016 250.453 C 152.719 250.453 153.422 250.453 154.125 250.453 C 154.125 250.102 154.125 249.750 154.125 249.398 C 154.477 249.398 154.828 249.398 155.180 249.398 C 155.180 249.047 155.180 248.695 155.180 248.344 C 155.883 248.344 156.586 248.344 157.289 248.344 C 157.289 247.992 157.289 247.641 157.289 247.289 C 157.641 247.289 157.992 247.289 158.344 247.289 C 158.344 246.938 158.344 246.586 158.344 246.234 C 159.047 246.234 159.750 246.234 160.453 246.234 C 160.453 245.883 160.453 245.531 160.453 245.180 C 161.156 245.180 161.859 245.180 162.562 245.180 C 162.562 244.828 162.562 244.477 162.562 244.125 C 163.266 244.125 163.969 244.125 164.672 244.125 C 164.672 243.773 164.672 243.422 164.672 243.070 C 165.375 243.070 166.078 243.070 166.781 243.070 C 166.781 242.719 166.781 242.367 166.781 242.016 C 167.484 242.016 168.188 242.016 168.891 242.016 C 168.891 241.664 168.891 241.312 168.891 240.961 C 169.594 240.961 170.297 240.961 171.000 240.961 C 171.000 240.609 171.000 240.258 171.000 239.906 C 172.055 239.906 173.109 239.906 174.164 239.906 C 174.164 239.555 174.164 239.203 174.164 238.852 C 175.219 238.852 176.273 238.852 177.328 238.852 C 177.328 238.500 177.328 238.148 177.328 237.797 C 178.734 237.797 180.141 237.797 181.547 237.797 C 181.547 237.445 181.547 237.094 181.547 236.742 C 183.656 236.742 185.766 236.742 187.875 236.742 C 187.875 236.391 187.875 236.039 187.875 235.688 C 191.391 235.688 194.906 235.688 198.422 235.688 C 198.422 236.039 198.422 236.391 198.422 236.742 C 200.531 236.742 202.641 236.742 204.750 236.742 C 204.750 237.094 204.750 237.445 204.750 237.797 C 205.805 237.797 206.859 237.797 207.914 237.797 C 207.914 238.148 207.914 238.500 207.914 238.852 C 208.969 238.852 210.023 238.852 211.078 238.852 C 211.078 239.203 211.078 239.555 211.078 239.906 C 211.781 239.906 212.484 239.906 213.188 239.906 C 213.188 240.258 213.188 240.609 213.188 240.961 C 213.891 240.961 214.594 240.961 215.297 240.961 C 215.297 241.312 215.297 241.664 215.297 242.016 C 216.000 242.016 216.703 242.016 217.406 242.016 C 217.406 242.367 217.406 242.719 217.406 243.070 C 217.758 243.070 218.109 243.070 218.461 243.070 C 218.461 243.422 218.461 243.773 218.461 244.125 C 219.164 244.125 219.867 244.125 220.570 244.125 C 220.570 244.477 220.570 244.828 220.570 245.180 C 220.922 245.180 221.273 245.180 221.625 245.180 C 221.625 245.531 221.625 245.883 221.625 246.234 C 221.977 246.234 222.328 246.234 222.680 246.234 C 222.680 246.586 222.680 246.938 222.680 247.289 C 223.031 247.289 223.383 247.289 223.734 247.289 C 223.734 247.641 223.734 247.992 223.734 248.344 C 224.086 248.344 224.438 248.344 224.789 248.344 C 224.789 248.695 224.789 249.047 224.789 249.398 C 225.141 249.398 225.492 249.398 225.844 249.398 C 225.844 249.750 225.844 250.102 225.844 250.453 C 226.195 250.453 226.547 250.453 226.898 250.453 C 226.898 250.805 226.898 251.156 226.898 251.508 C 227.250 251.508 227.602 251.508 227.953 251.508 C 227.953 251.859 227.953 252.211 227.953 252.562 C 228.305 252.562 228.656 252.562 229.008 252.562 C 229.008 252.914 229.008 253.266 229.008 253.617 C 229.359 253.617 229.711 253.617 230.062 253.617 C 230.062 253.969 230.062 254.320 230.062 254.672 C 230.414 254.672 230.766 254.672 231.117 254.672 C 231.117 255.375 231.117 256.078 231.117 256.781 C 231.469 256.781 231.820 256.781 232.172 256.781 C 232.172 257.133 232.172 257.484 232.172 257.836 C 232.523 257.836 232.875 257.836 233.227 257.836 C 233.227 258.539 233.227 259.242 233.227 259.945 C 233.578 259.945 233.930 259.945 234.281 259.945 C 234.281 260.648 234.281 261.352 234.281 262.055 C 234.633 262.055 234.984 262.055 235.336 262.055 C 235.336 262.406 235.336 262.758 235.336 263.109 C 235.688 263.109 236.039 263.109 236.391 263.109 C 236.391 263.812 236.391 264.516 236.391 265.219 C 236.742 265.219 237.094 265.219 237.445 265.219 C 237.445 266.273 237.445 267.328 237.445 268.383 C 237.797 268.383 238.148 268.383 238.500 268.383 C 238.500 269.086 238.500 269.789 238.500 270.492 C 238.852 270.492 239.203 270.492 239.555 270.492 C 239.555 271.547 239.555 272.602 239.555 273.656 C 239.906 273.656 240.258 273.656 240.609 273.656 C 240.609 274.711 240.609 275.766 240.609 276.820 C 240.961 276.820 241.312 276.820 241.664 276.820 C 241.664 278.227 241.664 279.633 241.664 281.039 C 242.016 281.039 242.367 281.039 242.719 281.039 C 242.719 282.445 242.719 283.852 242.719 285.258 C 243.070 285.258 243.422 285.258 243.773 285.258 C 243.773 287.016 243.773 288.773 243.773 290.531 C 244.125 290.531 244.477 290.531 244.828 290.531 C 244.828 292.641 244.828 294.750 244.828 296.859 C 245.180 296.859 245.531 296.859 245.883 296.859 C 245.883 299.320 245.883 301.781 245.883 304.242 C 246.234 304.242 246.586 304.242 246.938 304.242 C 246.938 306.000 246.938 307.758 246.938 309.516"/>
<path id="arc-5" data-left="3" data-right="0" d="M 36.000 306.352 C 36.000 323.227 36.000 340.102 36.000 356.977"/>
<path id="arc-6" data-left="2" data-right="3" d="M 246.938 309.516 C 246.938 310.219 246.938 310.922 246.938 311.625 C 247.289 311.625 247.641 311.625 247.992 311.625 C 247.992 313.383 247.992 315.141 247.992 316.898 C 248.344 316.898 248.695 316.898 249.047 316.898 C 249.047 318.305 249.047 319.711 249.047 321.117 C 249.398 321.117 249.750 321.117 250.102 321.117 C 250.102 322.172 250.102 323.227 250.102 324.281 C 250.453 324.281 250.805 324.281 251.156 324.281 C 251.156 324.984 251.156 325.688 251.156 326.391 C 251.508 326.391 251.859 326.391 252.211 326.391 C 252.211 327.094 252.211 327.797 252.211 328.500 C 252.562 328.500 252.914 328.500 253.266 328.500 C 253.266 329.203 253.266 329.906 253.266 330.609 C 253.617 330.609 253.969 330.609 254.320 330.609 C 254.320 331.312 254.320 332.016 254.320 332.719 C 254.672 332.719 255.023 332.719 255.375 332.719 C 255.375 333.422 255.375 334.125 255.375 334.828 C 255.727 334.828 256.078 334.828 256.430 334.828 C 256.430 335.531 256.430 336.234 256.430 336.938 C 256.781 336.938 257.133 336.938 257.484 336.938 C 257.484 337.289 257.484 337.641 257.484 337.992 C 257.836 337.992 258.188 337.992 258.539 337.992 C 258.539 338.695 258.539 339.398 258.539 340.102 C 258.891 340.102 259.242 340.102 259.594 340.102 C 259.594 340.453 259.594 340.805 259.594 341.156 C 259.945 341.156 260.297 341.156 260.648 341.156 C 260.648 341.508 260.648 341.859 260.648 342.211 C 261.000 342.211 261.352 342.211 261.703 342.211 C 261.703 342.914 261.703 343.617 261.703 344.320 C 262.055 344.320 262.406 344.320 262.758 344.320 C 262.758 344.672 262.758 345.023 262.758 345.375 C 263.109 345.375 263.461 345.375 263.812 345.375 C 263.812 345.727 263.812 346.078 263.812 346.430 C 264.164 346.430 264.516 346.430 264.867 346.430 C 264.867 347.133 264.867 347.836 264.867 348.539 C 265.219 348.539 265.570 348.539 265.922 348.539 C 265.922 348.891 265.922 349.242 265.922 349.594 C 266.273 349.594 266.625 349.594 266.977 349.594 C 266.977 349.945 266.977 350.297 266.977 350.648 C 267.328 350.648 267.680 350.648 268.031 350.648 C 268.031 351.352 268.031 352.055 268.031 352.758 C 268.383 352.758 268.734 352.758 269.086 352.758 C 269.086 353.109 269.086 353.461 269.086 353.812 C 269.438 353.812 269.789 353.812 270.141 353.812 C 270.141 354.164 270.141 354.516 270.141 354.867 C 270.492 354.867 270.844 354.867 271.195 354.867 C 271.195 355.570 271.195 356.273 271.195 356.977 C 271.547 356.977 271.898 356.977 272.250 356.977 C 272.250 357.328 272.250 357.680 272.250 358.031 C 272.602 358.031 272.953 358.031 273.305 358.031 C 273.305 358.734 273.305 359.438 273.305 360.141 C 273.656 360.141 274.008 360.141 274.359 360.141 C 274.359 360.492 274.359 360.844 274.359 361.195 C 274.711 361.195 275.062 361.195 275.414 361.195 C 275.414 361.898 275.414 362.602 275.414 363.305 C 275.766 363.305 276.117 363.305 276.469 363.305 C 276.469 363.656 276.469 364.008 276.469 364.359 C 276.820 364.359 277.172 364.359 277.523 364.359 C 277.523 365.062 277.523 365.766 277.523 366.469 C 277.875 366.469 278.227 366.469 278.578 366.469 C 278.578 367.172 278.578 367.875 278.578 368.578 C 278.930 368.578 279.281 368.578 279.633 368.578 C 279.633 369.281 279.633 369.984 279.633 370.688 C 279.984 370.688 280.336 370.688 280.688 370.688 C 280.688 371.391 280.688 372.094 280.688 372.797 C 281.039 372.797 281.391 372.797 281.742 372.797 C 281.742 373.500 281.742 374.203 281.742 374.906 C 282.094 374.906 282.445 374.906 282.797 374.906 C 282.797 375.609 282.797 376.312 282.797 377.016 C 283.148 377.016 283.500 377.016 283.852 377.016 C 283.852 378.070 283.852 379.125 283.852 380.180 C 284.203 380.180 284.555 380.180 284.906 380.180 C 284.906 381.234 284.906 382.289 284.906 383.344 C 285.258 383.344 285.609 383.344 285.961 383.344 C 285.961 384.750 285.961 386.156 285.961 387.562 C 286.312 387.562 286.664 387.562 287.016 387.562 C 287.016 389.672 287.016 391.781 287.016 393.891 C 287.367 393.891 287.719 393.891 288.070 393.891 C 288.070 397.406 288.070 400.922 288.070 404.438 C 287.719 404.438 287.367 404.438 287.016 404.438 C 287.016 406.547 287.016 408.656 287.016 410.766"/>
<path id="arc-7" data-left="3" data-right="1" d="M 36.000 356.977 C 36.352 356.977 36.703 356.977 37.055 356.977 C 37.055 357.680 37.055 358.383 37.055 359.086 C 37.406 359.086 37.758 359.086 38.109 359.086 C 38.109 359.789 38.109 360.492 38.109 361.195 C 38.461 361.195 38.812 361.195 39.164 361.195 C 39.164 361.898 39.164 362.602 39.164 363.305 C 39.516 363.305 39.867 363.305 40.219 363.305 C 40.219 363.656 40.219 364.008 40.219 364.359 C 40.570 364.359 40.922 364.359 41.273 364.359 C 41.273 365.062 41.273 365.766 41.273 366.469 C 41.625 366.469 41.977 366.469 42.328 366.469 C 42.328 367.172 42.328 367.875 42.328 368.578 C 42.680 368.578 43.031 368.578 43.383 368.578 C 43.383 368.930 43.383 369.281 43.383 369.633 C 43.734 369.633 44.086 369.633 44.438 369.633 C 44.438 370.336 44.438 371.039 44.438 371.742 C 44.789 371.742 45.141 371.742 45.492 371.742 C 45.492 372.094 45.492 372.445 45.492 372.797 C 45.844 372.797 46.195 372.797 46.547 372.797 C 46.547 373.500 46.547 374.203 46.547 374.906 C 46.898 374.906 47.250 374.906 47.602 374.906 C 47.602 375.258 47.602 375.609 47.602 375.961 C 47.953 375.961 48.305 375.961 48.656 375.961 C 48.656 376.312 48.656 376.664 48.656 377.016 C 49.008 377.016 49.359 377.016 49.711 377.016 C 49.711 377.719 49.711 378.422 49.711 379.125 C 50.062 379.125 50.414 379.125 50.766 379.125 C 50.766 379.477 50.766 379.828 50.766 380.180 C 51.117 380.180 51.469 380.180 51.820 380.180 C 51.820 380.531 51.820 380.883 51.820 381.234 C 52.172 381.234 52.523 381.234 52.875 381.234 C 52.875 381.938 52.875 382.641 52.875 383.344 C 53.227 383.344 53.578 383.344 53.930 383.344 C 53.930 383.695 53.930 384.047 53.930 384.398 C 54.281 384.398 54.633 384.398 54.984 384.398 C 54.984 384.750 54.984 385.102 54.984 385.453 C 55.336 385.453 55.688 385.453 56.039 385.453 C 56.039 386.156 56.039 386.859 56.039 387.562 C 56.391 387.562 56.742 387.562 57.094 387.562 C 57.094 387.914 57.094 388.266 57.094 388.617 C 57.445 388.617 57.797 388.617 58.148 388.617 C 58.148 388.969 58.148 389.320 58.148 389.672 C 58.500 389.672 58.852 389.672 59.203 389.672 C 59.203 390.375 59.203 391.078 59.203 391.781 C 59.555 391.781 59.906 391.781 60.258 391.781 C 60.258 392.133 60.258 392.484 60.258 392.836 C 60.609 392.836 60.961 392.836 61.312 392.836 C 61.312 393.539 61.312 394.242 61.312 394.945 C 61.664 394.945 62.016 394.945 62.367 394.945 C 62.367 395.648 62.367 396.352 62.367 397.055 C 62.719 397.055 63.070 397.055 63.422 397.055 C 63.422 397.758 63.422 398.461 63.422 399.164 C 63.773 399.164 64.125 399.164 64.477 399.164 C 64.477 399.867 64.477 400.570 64.477 401.273 C 64.828 401.273 65.180 401.273 65.531 401.273 C 65.531 401.977 65.531 402.680 65.531 403.383 C 65.883 403.383 66.234 403.383 66.586 403.383 C 66.586 404.086 66.586 404.789 66.586 405.492 C 66.938 405.492 67.289 405.492 67.641 405.492 C 67.641 406.547 67.641 407.602 67.641 408.656 C 67.992 408.656 68.344 408.656 68.695 408.656 C 68.695 410.062 68.695 411.469 68.695 412.875 C 69.047 412.875 69.398 412.875 69.750 412.875 C 69.750 414.633 69.750 416.391 69.750 418.148 C 70.102 418.148 70.453 418.148 70.805 418.148 C 70.805 420.609 70.805 423.070 70.805 425.531 C 71.156 425.531 71.508 425.531 71.859 425.531 C 71.859 427.992 71.859 430.453 71.859 432.914 C 72.211 432.914 72.562 432.914 72.914 432.914 C 72.914 435.023 72.914 437.133 72.914 439.242 C 73.266 439.242 73.617 439.242 73.969 439.242 C 73.969 441.000 73.969 442.758 73.969 444.516 C 74.320 444.516 74.672 444.516 75.023 444.516 C 75.023 445.922 75.023 447.328 75.023 448.734 C 75.375 448.734 75.727 448.734 76.078 448.734 C 76.078 450.141 76.078 451.547 76.078 452.953 C 76.430 452.953 76.781 452.953 77.133 452.953 C 77.133 454.008 77.133 455.063 77.133 456.117 C 77.484 456.117 77.836 456.117 78.188 456.117 C 78.188 457.172 78.188 458.227 78.188 459.281 C 78.539 459.281 78.891 459.281 79.242 459.281 C 79.242 459.984 79.242 460.688 79.242 461.391 C 79.594 461.391 79.945 461.391 80.297 461.391 C 80.297 462.445 80.297 463.500 80.297 464.555 C 80.648 464.555 81.000 464.555 81.352 464.555 C 81.352 465.258 81.352 465.961 81.352 466.664 C 81.703 466.664 82.055 466.664 82.406 466.664 C 82.406 467.016 82.406 467.367 82.406 467.719 C 82.758 467.719 83.109 467.719 83.461 467.719 C 83.461 468.422 83.461 469.125 83.461 469.828 C 83.812 469.828 84.164 469.828 84.516 469.828 C 84.516 470.531 84.516 471.234 84.516 471.938 C 84.867 471.938 85.219 471.938 85.570 471.938 C 85.570 472.289 85.570 472.641 85.570 472.992 C 85.922 472.992 86.273 472.992 86.625 472.992 C 86.625 473.695 86.625 474.398 86.625 475.102 C 86.977 475.102 87.328 475.102 87.680 475.102 C 87.680 475.453 87.680 475.805 87.680 476.156 C 88.031 476.156 88.383 476.156 88.734 476.156 C 88.734 476.508 88.734 476.859 88.734 477.211 C 89.086 477.211 89.438 477.211 89.789 477.211 C 89.789 477.562 89.789 477.914 89.789 478.266 C 90.141 478.266 90.492 478.266 90.844 478.266 C 90.844 478.617 90.844 478.969 90.844 479.320 C 91.195 479.320 91.547 479.320 91.898 479.320 C 91.898 479.672 91.898 480.023 91.898 480.375 C 92.250 480.375 92.602 480.375 92.953 480.375 C 92.953 480.727 92.953 481.078 92.953 481.430 C 93.305 481.430 93.656 481.430 94.008 481.430 C 94.008 481.781 94.008 482.133 94.008 482.484 C 94.359 482.484 94.711 482.484 95.062 482.484 C 95.062 482.836 95.062 483.188 95.062 483.539 C 95.414 483.539 95.766 483.539 96.117 483.539 C 96.117 483.891 96.117 484.242 96.117 484.594 C 96.469 484.594 96.820 484.594 97.172 484.594 C 97.172 484.945 97.172 485.297 97.172 485.648 C 97.875 485.648 98.578 485.648 99.281 485.648 C 99.281 486.000 99.281 486.352 99.281 486.703 C 99.633 486.703 99.984 486.703 100.336 486.703 C 100.336 487.055 100.336 487.406 100.336 487.758 C 101.039 487.758 101.742 487.758 102.445 487.758 C 102.445 488.109 102.445 488.461 102.445 488.812 C 103.148 488.812 103.852 488.812 104.555 488.812 C 104.555 489.164 104.555 489.516 104.555 489.867 C 105.258 489.867 105.961 489.867 106.664 489.867 C 106.664 490.219 106.664 490.570 106.664 490.922 C 107.719 490.922 108.773 490.922 109.828 490.922 C 109.828 491.273 109.828 491.625 109.828 491.977 C 110.883 491.977 111.938 491.977 112.992 491.977 C 112.992 492.328 112.992 492.680 112.992 493.031 C 115.102 493.031 117.211 493.031 119.320 493.031 C 119.320 493.383 119.320 493.734 119.320 494.086 C 122.836 494.086 126.352 494.086 129.867 494.086 C 129.867 493.734 129.867 493.383 129.867 493.031 C 131.977 493.031 134.086 493.031 136.195 493.031 C 136.195 492.680 136.195 492.328 136.195 491.977 C 137.602 491.977 139.008 491.977 140.414 491.977 C 140.414 491.625 140.414 491.273 140.414 490.922 C 141.469 490.922 142.523 490.922 143.578 490.922 C 143.578 490.570 143.578 490.219 143.578 489.867 C 144.633 489.867 145.688 489.867 146.742 489.867 C 146.742 489.516 146.742 489.164 146.742 488.812 C 147.445 488.812 148.148 488.812 148.852 488.812 C 148.852 488.461 148.852 488.109 148.852 487.758 C 149.555 487.758 150.258 487.758 150.961 487.758 C 150.961 487.406 150.961 487.055 150.961 486.703 C 151.664 486.703 152.367 486.703 153.070 486.703 C 153.070 486.352 153.070 486.000 153.070 485.648 C 153.773 485.648 154.477 485.648 155.180 485.648 C 155.180 485.297 155.180 484.945 155.180 484.594 C 155.883 484.594 156.586 484.594 157.289 484.594 C 157.289 484.242 157.289 483.891 157.289 483.539 C 157.992 483.539 158.695 483.539 159.398 483.539 C 159.398 483.188 159.398 482.836 159.398 482.484 C 159.750 482.484 160.102 482.484 160.453 482.484 C 160.453 482.133 160.453 481.781 160.453 481.430 C 161.156 481.430 161.859 481.430 162.562 481.430 C 162.562 481.078 162.562 480.727 162.562 480.375 C 162.914 480.375 163.266 480.375 163.617 480.375 C 163.617 480.023 163.617 479.672 163.617 479.320 C 164.320 479.320 165.023 479.320 165.727 479.320 C 165.727 478.969 165.727 478.617 165.727 478.266 C 166.078 478.266 166.430 478.266 166.781 478.266 C 166.781 477.914 166.781 477.562 166.781 477.211 C 167.484 477.211 168.188 477.211 168.891 477.211 C 168.891 476.859 168.891 476.508 168.891 476.156 C 169.242 476.156 169.594 476.156 169.945 476.156 C 169.945 475.805 169.945 475.453 169.945 475.102 C 170.297 475.102 170.648 475.102 171.000 475.102 C 171.000 474.750 171.000 474.398 171.000 474.047 C 171.703 474.047 172.406 474.047 173.109 474.047 C 173.109 473.695 173.109 473.344 173.109 472.992 C 173.461 472.992 173.812 472.992 174.164 472.992 C 174.164 472.641 174.164 472.289 174.164 471.938 C 174.516 471.938 174.867 471.938 175.219 471.938 C 175.219 471.586 175.219 471.234 175.219 470.883 C 175.922 470.883 176.625 470.883 177.328 470.883 C 177.328 470.531 177.328 470.180 177.328 469.828 C 177.680 469.828 178.031 469.828 178.383 469.828 C 178.383 469.477 178.383 469.125 178.383 468.773 C 178.734 468.773 179.086 468.773 179.438 468.773 C 179.438 468.422 179.438 468.070 179.438 467.719 C 180.141 467.719 180.844 467.719 181.547 467.719 C 181.547 467.367 181.547 467.016 181.547 466.664 C 181.898 466.664 182.250 466.664 182.602 466.664 C 182.602 466.312 182.602 465.961 182.602 465.609 C 182.953 465.609 183.305 465.609 183.656 465.609 C 183.656 465.258 183.656 464.906 183.656 464.555 C 184.359 464.555 185.062 464.555 185.766 464.555 C 185.766 464.203 185.766 463.852 185.766 463.500 C 186.117 463.500 186.469 463.500 186.820 463.500 C 186.820 463.148 186.820 462.797 186.820 462.445 C 187.523 462.445 188.227 462.445 188.930 462.445 C 188.930 462.094 188.930 461.742 188.930 461.391 C 189.633 461.391 190.336 461.391 191.039 461.391 C 191.039 461.039 191.039 460.688 191.039 460.336 C 191.742 460.336 192.445 460.336 193.148 460.336 C 193.148 459.984 193.148 459.633 193.148 459.281 C 193.852 459.281 194.555 459.281 195.258 459.281 C 195.258 458.930 195.258 458.578 195.258 458.227 C 195.961 458.227 196.664 458.227 197.367 458.227 C 197.367 457.875 197.367 457.523 197.367 457.172 C 198.070 457.172 198.773 457.172 199.477 457.172 C 199.477 456.820 199.477 456.469 199.477 456.117 C 200.531 456.117 201.586 456.117 202.641 456.117 C 202.641 455.766 202.641 455.414 202.641 455.062 C 204.047 455.062 205.453 455.062 206.859 455.062 C 206.859 454.711 206.859 454.359 206.859 454.008 C 208.617 454.008 210.375 454.008 212.133 454.008 C 212.133 453.656 212.133 453.305 212.133 452.953 C 214.594 452.953 217.055 452.953 219.516 452.953 C 219.516 452.602 219.516 452.250 219.516 451.898 C 221.977 451.898 224.437 451.898 226.898 451.898 C 226.898 451.547 226.898 451.195 226.898 450.844 C 229.008 450.844 231.117 450.844 233.227 450.844 C 233.227 450.492 233.227 450.141 233.227 449.789 C 234.984 449.789 236.742 449.789 238.500 449.789 C 238.500 449.438 238.500 449.086 238.500 448.734 C 239.906 448.734 241.312 448.734 242.719 448.734 C 242.719 448.383 242.719 448.031 242.719 447.680 C 244.125 447.680 245.531 447.680 246.938 447.680 C 246.938 447.328 246.938 446.977 246.938 446.625 C 247.992 446.625 249.047 446.625 250.102 446.625 C 250.102 446.273 250.102 445.922 250.102 445.570 C 251.156 445.570 252.211 445.570 253.266 445.570 C 253.266 445.219 253.266 444.867 253.266 444.516 C 253.969 444.516 254.672 444.516 255.375 444.516 C 255.375 444.164 255.375 443.812 255.375 443.461 C 256.430 443.461 257.484 443.461 258.539 443.461 C 258.539 443.109 258.539 442.758 258.539 442.406 C 259.242 442.406 259.945 442.406 260.648 442.406 C 260.648 442.055 260.648 441.703 260.648 441.352 C 261.000 441.352 261.352 441.352 261.703 441.352 C 261.703 441.000 261.703 440.648 261.703 440.297 C 262.406 440.297 263.109 440.297 263.812 440.297 C 263.812 439.945 263.812 439.594 263.812 439.242 C 264.516 439.242 265.219 439.242 265.922 439.242 C 265.922 438.891 265.922 438.539 265.922 438.188 C 266.273 438.188 266.625 438.188 266.977 438.188 C 266.977 437.836 266.977 437.484 266.977 437.133 C 267.680 437.133 268.383 437.133 269.086 437.133 C 269.086 436.781 269.086 436.430 269.086 436.078 C 269.438 436.078 269.789 436.078 270.141 436.078 C 270.141 435.727 270.141 435.375 270.141 435.023 C 270.492 435.023 270.844 435.023 271.195 435.023 C 271.195 434.672 271.195 434.320 271.195 433.969 C 271.547 433.969 271.898 433.969 272.250 433.969 C 272.250 433.617 272.250 433.266 272.250 432.914 C 272.602 432.914 272.953 432.914 273.305 432.914 C 273.305 432.562 273.305 432.211 273.305 431.859 C 273.656 431.859 274.008 431.859 274.359 431.859 C 274.359 431.508 274.359 431.156 274.359 430.805 C 274.711 430.805 275.062 430.805 275.414 430.805 C 275.414 430.453 275.414 430.102 275.414 429.750 C 275.766 429.750 276.117 429.750 276.469 429.750 C 276.469 429.398 276.469 429.047 276.469 428.695 C 276.820 428.695 277.172 428.695 277.523 428.695 C 277.523 428.344 277.523 427.992 277.523 427.641 C 277.875 427.641 278.227 427.641 278.578 427.641 C 278.578 427.289 278.578 426.938 278.578 426.586 C 278.930 426.586 279.281 426.586 279.633 426.586 C 279.633 425.883 279.633 425.180 279.633 424.477 C 279.984 424.477 280.336 424.477 280.688 424.477 C 280.688 424.125 280.688 423.773 280.688 423.422 C 281.039 423.422 281.391 423.422 281.742 423.422 C 281.742 422.719 281.742 422.016 281.742 421.312 C 282.094 421.312 282.445 421.312 282.797 421.312 C 282.797 420.609 282.797 419.906 282.797 419.203 C 283.148 419.203 283.500 419.203 283.852 419.203 C 283.852 418.500 283.852 417.797 283.852 417.094 C 284.203 417.094 284.555 417.094 284.906 417.094 C 284.906 416.039 284.906 414.984 284.906 413.930 C 285.258 413.930 285.609 413.930 285.961 413.930 C 285.961 412.875 285.961 411.820 285.961 410.766 C 286.312 410.766 286.664 410.766 287.016 410.766"/>
<path id="arc-8" data-left="1" data-right="0" d="M 36.000 356.977 C 36.000 459.984 36.000 562.992 36.000 666.000"/>
<path id="arc-9" data-left="4" data-right="2" d="M 501.117 405.492 C 500.062 405.492 499.008 405.492 497.953 405.492 C 497.953 405.141 497.953 404.789 497.953 404.438 C 495.844 404.438 493.734 404.438 491.625 404.438 C 491.625 404.086 491.625 403.734 491.625 403.383 C 488.109 403.383 484.594 403.383 481.078 403.383 C 481.078 403.734 481.078 404.086 481.078 404.438 C 478.969 404.438 476.859 404.438 474.750 404.438 C 474.750 404.789 474.750 405.141 474.750 405.492 C 473.344 405.492 471.938 405.492 470.531 405.492 C 470.531 405.844 470.531 406.195 470.531 406.547 C 469.477 406.547 468.422 406.547 467.367 406.547 C 467.367 406.898 467.367 407.250 467.367 407.602 C 466.312 407.602 465.258 407.602 464.203 407.602 C 464.203 407.953 464.203 408.305 464.203 408.656 C 463.500 408.656 462.797 408.656 462.094 408.656 C 462.094 409.008 462.094 409.359 462.094 409.711 C 461.391 409.711 460.688 409.711 459.984 409.711 C 459.984 410.062 459.984 410.414 459.984 410.766 C 459.281 410.766 458.578 410.766 457.875 410.766 C 457.875 411.117 457.875 411.469 457.875 411.820 C 457.172 411.820 456.469 411.820 455.766 411.820 C 455.766 412.172 455.766 412.523 455.766 412.875 C 455.062 412.875 454.359 412.875 453.656 412.875 C 453.656 413.227 453.656 413.578 453.656 413.930 C 452.953 413.930 452.250 413.930 451.547 413.930 C 451.547 414.281 451.547 414.633 451.547 414.984 C 451.195 414.984 450.844 414.984 450.492 414.984 C 450.492 415.336 450.492 415.688 450.492 416.039 C 449.789 416.039 449.086 416.039 448.383 416.039 C 448.383 416.391 448.383 416.742 448.383 417.094 C 448.031 417.094 447.680 417.094 447.328 417.094 C 447.328 417.445 447.328 417.797 447.328 418.148 C 446.625 418.148 445.922 418.148 445.219 418.148 C 445.219 418.500 445.219 418.852 445.219 419.203 C 444.867 419.203 444.516 419.203 444.164 419.203 C 444.164 419.555 444.164 419.906 444.164 420.258 C 443.461 420.258 442.758 420.258 442.055 420.258 C 442.055 420.609 442.055 420.961 442.055 421.312 C 441.703 421.312 441.352 421.312 441.000 421.312 C 441.000 421.664 441.000 422.016 441.000 422.367 C 440.648 422.367 440.297 422.367 439.945 422.367 C 439.945 422.719 439.945 423.070 439.945 423.422 C 439.242 423.422 438.539 423.422 437.836 423.422 C 437.836 423.773 437.836 424.125 437.836 424.477 C 437.484 424.477 437.133 424.477 436.781 424.477 C 436.781 424.828 436.781 425.180 436.781 425.531 C 436.430 425.531 436.078 425.531 435.727 425.531 C 435.727 425.883 435.727 426.234 435.727 426.586 C 435.023 426.586 434.320 426.586 433.617 426.586 C 433.617 426.938 433.617 427.289 433.617 427.641 C 433.266 427.641 432.914 427.641 432.562 427.641 C 432.562 427.992 432.562 428.344 432.562 428.695 C 432.211 428.695 431.859 428.695 431.508 428.695 C 431.508 429.047 431.508 429.398 431.508 429.750 C 430.805 429.750 430.102 429.750 429.398 429.750 C 429.398 430.102 429.398 430.453 429.398 430.805 C 429.047 430.805 428.695 430.805 428.344 430.805 C 428.344 431.156 428.344 431.508 428.344 431.859 C 427.992 431.859 427.641 431.859 427.289 431.859 C 427.289 432.211 427.289 432.562 427.289 432.914 C 426.586 432.914 425.883 432.914 425.180 432.914 C 425.180 433.266 425.180 433.617 425.180 433.969 C 424.828 433.969 424.477 433.969 424.125 433.969 C 424.125 434.320 424.125 434.672 424.125 435.023 C 423.422 435.023 422.719 435.023 422.016 435.023 C 422.016 435.375 422.016 435.727 422.016 436.078 C 421.312 436.078 420.609 436.078 419.906 436.078 C 419.906 436.430 419.906 436.781 419.906 437.133 C 419.203 437.133 418.500 437.133 417.797 437.133 C 417.797 437.484 417.797 437.836 417.797 438.188 C 417.094 438.188 416.391 438.188 415.688 438.188 C 415.688 438.539 415.688 438.891 415.688 439.242 C 414.984 439.242 414.281 439.242 413.578 439.242 C 413.578 439.594 413.578 439.945 413.578 440.297 C 412.875 440.297 412.172 440.297 411.469 440.297 C 411.469 440.648 411.469 441.000 411.469 441.352 C 410.414 441.352 409.359 441.352 408.305 441.352 C 408.305 441.703 408.305 442.055 408.305 442.406 C 406.898 442.406 405.492 442.406 404.086 442.406 C 404.086 442.758 404.086 443.109 404.086 443.461 C 402.328 443.461 400.570 443.461 398.812 443.461 C 398.812 443.812 398.812 444.164 398.812 444.516 C 396.352 444.516 393.891 444.516 391.430 444.516 C 391.430 444.867 391.430 445.219 391.430 445.570 C 388.969 445.570 386.508 445.570 384.047 445.570 C 384.047 445.922 384.047 446.273 384.047 446.625 C 381.937 446.625 379.828 446.625 377.719 446.625 C 377.719 446.977 377.719 447.328 377.719 447.680 C 375.961 447.680 374.203 447.680 372.445 447.680 C 372.445 448.031 372.445 448.383 372.445 448.734 C 371.039 448.734 369.633 448.734 368.227 448.734 C 368.227 449.086 368.227 449.438 368.227 449.789 C 366.820 449.789 365.414 449.789 364.008 449.789 C 364.008 450.141 364.008 450.492 364.008 450.844 C 362.953 450.844 361.898 450.844 360.844 450.844 C 360.844 451.195 360.844 451.547 360.844 451.898 C 359.789 451.898 358.734 451.898 357.680 451.898 C 357.680 452.250 357.680 452.602 357.680 452.953 C 356.977 452.953 356.273 452.953 355.570 452.953 C 355.570 453.305 355.570 453.656 355.570 454.008 C 354.516 454.008 353.461 454.008 352.406 454.008 C 352.406 454.359 352.406 454.711 352.406 455.062 C 351.703 455.062 351.000 455.062 350.297 455.062 C 350.297 455.414 350.297 455.766 350.297 456.117 C 349.945 456.117 349.594 456.117 349.242 456.117 C 349.242 456.469 349.242 456.820 349.242 457.172 C 348.539 457.172 347.836 457.172 347.133 457.172 C 347.133 457.523 347.133 457.875 347.133 458.227 C 346.430 458.227 345.727 458.227 345.023 458.227 C 345.023 458.578 345.023 458.930 345.023 459.281 C 344.672 459.281 344.320 459.281 343.969 459.281 C 343.969 459.633 343.969 459.984 343.969 460.336 C 343.266 460.336 342.562 460.336 341.859 460.336 C 341.859 460.688 341.859 461.039 341.859 461.391 C 341.508 461.391 341.156 461.391 340.805 461.391 C 340.805 461.742 340.805 462.094 340.805 462.445 C 340.453 462.445 340.102 462.445 339.750 462.445 C 339.750 462.797 339.750 463.148 339.750 463.500 C 339.398 463.500 339.047 463.500 338.695 463.500 C 338.695 463.852 338.695 464.203 338.695 464.555 C 338.344 464.555 337.992 464.555 337.641 464.555 C 337.641 464.906 337.641 465.258 337.641 465.609 C 337.289 465.609 336.938 465.609 336.586 465.609 C 336.586 465.961 336.586 466.312 336.586 466.664 C 336.234 466.664 335.883 466.664 335.531 466.664 C 335.531 467.016 335.531 467.367 335.531 467.719 C 335.180 467.719 334.828 467.719 334.477 467.719 C 334.477 468.070 334.477 468.422 334.477 468.773 C 334.125 468.773 333.773 468.773 333.422 468.773 C 333.422 469.125 333.422 469.477 333.422 469.828 C 333.070 469.828 332.719 469.828 332.367 469.828 C 332.367 470.180 332.367 470.531 332.367 470.883 C 332.016 470.883 331.664 470.883 331.312 470.883 C 331.312 471.586 331.312 472.289 331.312 472.992 C 330.961 472.992 330.609 472.992 330.258 472.992 C 330.258 473.344 330.258 473.695 330.258 474.047 C 329.906 474.047 329.555 474.047 329.203 474.047 C 329.203 474.750 329.203 475.453 329.203 476.156 C 328.852 476.156 328.500 476.156 328.148 476.156 C 328.148 476.859 328.148 477.562 328.148 478.266 C 327.797 478.266 327.445 478.266 327.094 478.266 C 327.094 478.969 327.094 479.672 327.094 480.375 C 326.742 480.375 326.391 480.375 326.039 480.375 C 326.039 480.727 326.039 481.078 326.039 481.430"/>
<path id="arc-10" data-left="1" data-right="4" d="M 501.117 405.492 C 501.117 405.844 501.117 406.195 501.117 406.547 C 502.172 406.547 503.227 406.547 504.281 406.547 C 504.281 406.898 504.281 407.250 504.281 407.602 C 504.984 407.602 505.688 407.602 506.391 407.602 C 506.391 407.953 506.391 408.305 506.391 408.656 C 507.094 408.656 507.797 408.656 508.500 408.656 C 508.500 409.008 508.500 409.359 508.500 409.711 C 509.203 409.711 509.906 409.711 510.609 409.711 C 510.609 410.062 510.609 410.414 510.609 410.766 C 510.961 410.766 511.312 410.766 511.664 410.766 C 511.664 411.117 511.664 411.469 511.664 411.820 C 512.367 411.820 513.070 411.820 513.773 411.820 C 513.773 412.172 513.773 412.523 513.773 412.875 C 514.125 412.875 514.477 412.875 514.828 412.875 C 514.828 413.227 514.828 413.578 514.828 413.930 C 515.180 413.930 515.531 413.930 515.883 413.930 C 515.883 414.281 515.883 414.633 515.883 414.984 C 516.234 414.984 516.586 414.984 516.938 414.984 C 516.938 415.336 516.938 415.688 516.938 416.039 C 517.289 416.039 517.641 416.039 517.992 416.039 C 517.992 416.391 517.992 416.742 517.992 417.094 C 518.344 417.094 518.695 417.094 519.047 417.094 C 519.047 417.445 519.047 417.797 519.047 418.148 C 519.398 418.148 519.750 418.148 520.102 418.148 C 520.102 418.500 520.102 418.852 520.102 419.203 C 520.453 419.203 520.805 419.203 521.156 419.203 C 521.156 419.555 521.156 419.906 521.156 420.258 C 521.508 420.258 521.859 420.258 522.211 420.258 C 522.211 420.609 522.211 420.961 522.211 421.312 C 522.562 421.312 522.914 421.312 523.266 421.312 C 523.266 421.664 523.266 422.016 523.266 422.367 C 523.617 422.367 523.969 422.367 524.320 422.367 C 524.320 423.070 524.320 423.773 524.320 424.477 C 524.672 424.477 525.023 424.477 525.375 424.477 C 525.375 424.828 525.375 425.180 525.375 425.531 C 525.727 425.531 526.078 425.531 526.430 425.531 C 526.430 426.234 526.430 426.938 526.430 427.641 C 526.781 427.641 527.133 427.641 527.484 427.641 C 527.484 428.344 527.484 429.047 527.484 429.750 C 527.836 429.750 528.188 429.750 528.539 429.750 C 528.539 430.102 528.539 430.453 528.539 430.805 C 528.891 430.805 529.242 430.805 529.594 430.805 C 529.594 431.508 529.594 432.211 529.594 432.914 C 529.945 432.914 530.297 432.914 530.648 432.914 C 530.648 433.969 530.648 435.023 530.648 436.078 C 531.000 436.078 531.352 436.078 531.703 436.078 C 531.703 436.781 531.703 437.484 531.703 438.188 C 532.055 438.188 532.406 438.188 532.758 438.188 C 532.758 439.242 532.758 440.297 532.758 441.352 C 533.109 441.352 533.461 441.352 533.812 441.352 C 533.812 442.406 533.812 443.461 533.812 444.516 C 534.164 444.516 534.516 444.516 534.867 444.516 C 534.867 445.922 534.867 447.328 534.867 448.734 C 535.219 448.734 535.570 448.734 535.922 448.734 C 535.922 450.141 535.922 451.547 535.922 452.953 C 536.273 452.953 536.625 452.953 536.977 452.953 C 536.977 454.711 536.977 456.469 536.977 458.227 C 537.328 458.227 537.680 458.227 538.031 458.227 C 538.031 460.336 538.031 462.445 538.031 464.555 C 538.383 464.555 538.734 464.555 539.086 464.555 C 539.086 467.016 539.086 469.477 539.086 471.938 C 539.438 471.938 539.789 471.938 540.141 471.938 C 540.141 474.398 540.141 476.859 540.141 479.320 C 540.492 479.320 540.844 479.320 541.195 479.320 C 541.195 481.078 541.195 482.836 541.195 484.594 C 541.547 484.594 541.898 484.594 542.250 484.594 C 542.250 486.000 542.250 487.406 542.250 488.812 C 542.602 488.812 542.953 488.812 543.305 488.812 C 543.305 489.867 543.305 490.922 543.305 491.977 C 543.656 491.977 544.008 491.977 544.359 491.977 C 544.359 492.680 544.359 493.383 544.359 494.086 C 544.711 494.086 545.062 494.086 545.414 494.086 C 545.414 494.789 545.414 495.492 545.414 496.195 C 545.766 496.195 546.117 496.195 546.469 496.195 C 546.469 496.898 546.469 497.602 546.469 498.305 C 546.820 498.305 547.172 498.305 547.523 498.305 C 547.523 499.008 547.523 499.711 547.523 500.414 C 547.875 500.414 548.227 500.414 548.578 500.414 C 548.578 501.117 548.578 501.820 548.578 502.523 C 548.930 502.523 549.281 502.523 549.633 502.523 C 549.633 503.227 549.633 503.930 549.633 504.633 C 549.984 504.633 550.336 504.633 550.688 504.633 C 550.688 504.984 550.688 505.336 550.688 505.688 C 551.039 505.688 551.391 505.688 551.742 505.688 C 551.742 506.391 551.742 507.094 551.742 507.797 C 552.094 507.797 552.445 507.797 552.797 507.797 C 552.797 508.148 552.797 508.500 552.797 508.852 C 553.148 508.852 553.500 508.852 553.852 508.852 C 553.852 509.203 553.852 509.555 553.852 509.906 C 554.203 509.906 554.555 509.906 554.906 509.906 C 554.906 510.609 554.906 511.312 554.906 512.016 C 555.258 512.016 555.609 512.016 555.961 512.016 C 555.961 512.367 555.961 512.719 555.961 513.070 C 556.312 513.070 556.664 513.070 557.016 513.070 C 557.016 513.422 557.016 513.773 557.016 514.125 C 557.367 514.125 557.719 514.125 558.070 514.125 C 558.070 514.828 558.070 515.531 558.070 516.234 C 558.422 516.234 558.773 516.234 559.125 516.234 C 559.125 516.586 559.125 516.938 559.125 517.289 C 559.477 517.289 559.828 517.289 560.180 517.289 C 560.180 517.641 560.180 517.992 560.180 518.344 C 560.531 518.344 560.883 518.344 561.234 518.344 C 561.234 519.047 561.234 519.750 561.234 520.453 C 561.586 520.453 561.938 520.453 562.289 520.453 C 562.289 520.805 562.289 521.156 562.289 521.508 C 562.641 521.508 562.992 521.508 563.344 521.508 C 563.344 521.859 563.344 522.211 563.344 522.562 C 563.695 522.562 564.047 522.562 564.398 522.562 C 564.398 523.266 564.398 523.969 564.398 524.672 C 564.750 524.672 565.102 524.672 565.453 524.672 C 565.453 525.023 565.453 525.375 565.453 525.727 C 565.805 525.727 566.156 525.727 566.508 525.727 C 566.508 526.430 566.508 527.133 566.508 527.836 C 566.859 527.836 567.211 527.836 567.562 527.836 C 567.562 528.188 567.562 528.539 567.562 528.891 C 567.914 528.891 568.266 528.891 568.617 528.891 C 568.617 529.594 568.617 530.297 568.617 531.000 C 568.969 531.000 569.320 531.000 569.672 531.000 C 569.672 531.352 569.672 531.703 569.672 532.055 C 570.023 532.055 570.375 532.055 570.727 532.055 C 570.727 532.758 570.727 533.461 570.727 534.164 C 571.078 534.164 571.430 534.164 571.781 534.164 C 571.781 534.867 571.781 535.570 571.781 536.273 C 572.133 536.273 572.484 536.273 572.836 536.273 C 572.836 536.977 572.836 537.680 572.836 538.383 C 573.188 538.383 573.539 538.383 573.891 538.383 C 573.891 539.086 573.891 539.789 573.891 540.492 C 574.242 540.492 574.594 540.492 574.945 540.492 C 574.945 541.195 574.945 541.898 574.945 542.602 C 575.297 542.602 575.648 542.602 576.000 542.602"/>
<path id="arc-11" data-left="2" data-right="1" d="M 287.016 410.766 C 287.016 412.523 287.016 414.281 287.016 416.039 C 287.367 416.039 287.719 416.039 288.070 416.039 C 288.070 418.500 288.070 420.961 288.070 423.422 C 288.422 423.422 288.773 423.422 289.125 423.422 C 289.125 425.531 289.125 427.641 289.125 429.750 C 289.477 429.750 289.828 429.750 290.180 429.750 C 290.180 431.508 290.180 433.266 290.180 435.023 C 290.531 435.023 290.883 435.023 291.234 435.023 C 291.234 436.430 291.234 437.836 291.234 439.242 C 291.586 439.242 291.938 439.242 292.289 439.242 C 292.289 440.648 292.289 442.055 292.289 443.461 C 292.641 443.461 292.992 443.461 293.344 443.461 C 293.344 444.516 293.344 445.570 293.344 446.625 C 293.695 446.625 294.047 446.625 294.398 446.625 C 294.398 447.680 294.398 448.734 294.398 449.789 C 294.750 449.789 295.102 449.789 295.453 449.789 C 295.453 450.492 295.453 451.195 295.453 451.898 C 295.805 451.898 296.156 451.898 296.508 451.898 C 296.508 452.953 296.508 454.008 296.508 455.062 C 296.859 455.062 297.211 455.062 297.562 455.062 C 297.562 455.766 297.562 456.469 297.562 457.172 C 297.914 457.172 298.266 457.172 298.617 457.172 C 298.617 457.523 298.617 457.875 298.617 458.227 C 298.969 458.227 299.320 458.227 299.672 458.227 C 299.672 458.930 299.672 459.633 299.672 460.336 C 300.023 460.336 300.375 460.336 300.727 460.336 C 300.727 461.039 300.727 461.742 300.727 462.445 C 301.078 462.445 301.430 462.445 301.781 462.445 C 301.781 462.797 301.781 463.148 301.781 463.500 C 302.133 463.500 302.484 463.500 302.836 463.500 C 302.836 464.203 302.836 464.906 302.836 465.609 C 303.188 465.609 303.539 465.609 303.891 465.609 C 303.891 465.961 303.891 466.312 303.891 466.664 C 304.242 466.664 304.594 466.664 304.945 466.664 C 304.945 467.016 304.945 467.367 304.945 467.719 C 305.297 467.719 305.648 467.719 306.000 467.719 C 306.000 468.070 306.000 468.422 306.000 468.773 C 306.352 468.773 306.703 468.773 307.055 468.773 C 307.055 469.125 307.055 469.477 307.055 469.828 C 307.406 469.828 307.758 469.828 308.109 469.828 C 308.109 470.180 308.109 470.531 308.109 470.883 C 308.461 470.883 308.812 470.883 309.164 470.883 C 309.164 471.234 309.164 471.586 309.164 471.938 C 309.516 471.938 309.867 471.938 310.219 471.938 C 310.219 472.289 310.219 472.641 310.219 472.992 C 310.570 472.992 310.922 472.992 311.273 472.992 C 311.273 473.344 311.273 473.695 311.273 474.047 C 311.625 474.047 311.977 474.047 312.328 474.047 C 312.328 474.398 312.328 474.750 312.328 475.102 C 312.680 475.102 313.031 475.102 313.383 475.102 C 313.383 475.453 313.383 475.805 313.383 476.156 C 314.086 476.156 314.789 476.156 315.492 476.156 C 315.492 476.508 315.492 476.859 315.492 477.211 C 315.844 477.211 316.195 477.211 316.547 477.211 C 316.547 477.562 316.547 477.914 316.547 478.266 C 317.250 478.266 317.953 478.266 318.656 478.266 C 318.656 478.617 318.656 478.969 318.656 479.320 C 319.359 479.320 320.062 479.320 320.766 479.320 C 320.766 479.672 320.766 480.023 320.766 480.375 C 321.469 480.375 322.172 480.375 322.875 480.375 C 322.875 480.727 322.875 481.078 322.875 481.430 C 323.930 481.430 324.984 481.430 326.039 481.430"/>
<path id="arc-12" data-left="4" data-right="1" d="M 326.039 481.430 C 326.039 482.133 326.039 482.836 326.039 483.539 C 325.688 483.539 325.336 483.539 324.984 483.539 C 324.984 484.594 324.984 485.648 324.984 486.703 C 324.633 486.703 324.281 486.703 323.930 486.703 C 323.930 488.812 323.930 490.922 323.930 493.031 C 323.578 493.031 323.227 493.031 322.875 493.031 C 322.875 496.547 322.875 500.063 322.875 503.578 C 323.227 503.578 323.578 503.578 323.930 503.578 C 323.930 505.687 323.930 507.797 323.930 509.906 C 324.281 509.906 324.633 509.906 324.984 509.906 C 324.984 511.312 324.984 512.719 324.984 514.125 C 325.336 514.125 325.688 514.125 326.039 514.125 C 326.039 515.180 326.039 516.234 326.039 517.289 C 326.391 517.289 326.742 517.289 327.094 517.289 C 327.094 518.344 327.094 519.398 327.094 520.453 C 327.445 520.453 327.797 520.453 328.148 520.453 C 328.148 521.156 328.148 521.859 328.148 522.562 C 328.500 522.562 328.852 522.562 329.203 522.562 C 329.203 523.266 329.203 523.969 329.203 524.672 C 329.555 524.672 329.906 524.672 330.258 524.672 C 330.258 525.375 330.258 526.078 330.258 526.781 C 330.609 526.781 330.961 526.781 331.312 526.781 C 331.312 527.484 331.312 528.188 331.312 528.891 C 331.664 528.891 332.016 528.891 332.367 528.891 C 332.367 529.594 332.367 530.297 332.367 531.000 C 332.719 531.000 333.070 531.000 333.422 531.000 C 333.422 531.352 333.422 531.703 333.422 532.055 C 333.773 532.055 334.125 532.055 334.477 532.055 C 334.477 532.758 334.477 533.461 334.477 534.164 C 334.828 534.164 335.180 534.164 335.531 534.164 C 335.531 534.867 335.531 535.570 335.531 536.273 C 335.883 536.273 336.234 536.273 336.586 536.273 C 336.586 536.625 336.586 536.977 336.586 537.328 C 336.938 537.328 337.289 537.328 337.641 537.328 C 337.641 538.031 337.641 538.734 337.641 539.438 C 337.992 539.438 338.344 539.438 338.695 539.438 C 338.695 539.789 338.695 540.141 338.695 540.492 C 339.047 540.492 339.398 540.492 339.750 540.492 C 339.750 541.195 339.750 541.898 339.750 542.602 C 340.102 542.602 340.453 542.602 340.805 542.602 C 340.805 542.953 340.805 543.305 340.805 543.656 C 341.156 543.656 341.508 543.656 341.859 543.656 C 341.859 544.008 341.859 544.359 341.859 544.711 C 342.211 544.711 342.562 544.711 342.914 544.711 C 342.914 545.414 342.914 546.117 342.914 546.820 C 343.266 546.820 343.617 546.820 343.969 546.820 C 343.969 547.172 343.969 547.523 343.969 547.875 C 344.320 547.875 344.672 547.875 345.023 547.875 C 345.023 548.227 345.023 548.578 345.023 548.930 C 345.375 548.930 345.727 548.930 346.078 548.930 C 346.078 549.633 346.078 550.336 346.078 551.039 C 346.430 551.039 346.781 551.039 347.133 551.039 C 347.133 551.391 347.133 551.742 347.133 552.094 C 347.484 552.094 347.836 552.094 348.188 552.094 C 348.188 552.445 348.188 552.797 348.188 553.148 C 348.539 553.148 348.891 553.148 349.242 553.148 C 349.242 553.852 349.242 554.555 349.242 555.258 C 349.594 555.258 349.945 555.258 350.297 555.258 C 350.297 555.609 350.297 555.961 350.297 556.312 C 350.648 556.312 351.000 556.312 351.352 556.312 C 351.352 556.664 351.352 557.016 351.352 557.367 C 351.703 557.367 352.055 557.367 352.406 557.367 C 352.406 558.070 352.406 558.773 352.406 559.477 C 352.758 559.477 353.109 559.477 353.461 559.477 C 353.461 559.828 353.461 560.180 353.461 560.531 C 353.812 560.531 354.164 560.531 354.516 560.531 C 354.516 561.234 354.516 561.938 354.516 562.641 C 354.867 562.641 355.219 562.641 355.570 562.641 C 355.570 563.344 355.570 564.047 355.570 564.750 C 355.922 564.750 356.273 564.750 356.625 564.750 C 356.625 565.453 356.625 566.156 356.625 566.859 C 356.977 566.859 357.328 566.859 357.680 566.859 C 357.680 567.562 357.680 568.266 357.680 568.969 C 358.031 568.969 358.383 568.969 358.734 568.969 C 358.734 569.672 358.734 570.375 358.734 571.078 C 359.086 571.078 359.438 571.078 359.789 571.078 C 359.789 571.781 359.789 572.484 359.789 573.188 C 360.141 573.188 360.492 573.188 360.844 573.188 C 360.844 574.242 360.844 575.297 360.844 576.352 C 361.195 576.352 361.547 576.352 361.898 576.352 C 361.898 577.758 361.898 579.164 361.898 580.570 C 362.250 580.570 362.602 580.570 362.953 580.570 C 362.953 582.328 362.953 584.086 362.953 585.844 C 363.305 585.844 363.656 585.844 364.008 585.844 C 364.008 588.305 364.008 590.766 364.008 593.227 C 364.359 593.227 364.711 593.227 365.062 593.227 C 365.062 595.688 365.062 598.148 365.062 600.609 C 365.414 600.609 365.766 600.609 366.117 600.609 C 366.117 602.719 366.117 604.828 366.117 606.938 C 366.469 606.938 366.820 606.938 367.172 606.938 C 367.172 608.695 367.172 610.453 367.172 612.211 C 367.523 612.211 367.875 612.211 368.227 612.211 C 368.227 613.617 368.227 615.023 368.227 616.430 C 368.578 616.430 368.930 616.430 369.281 616.430 C 369.281 617.836 369.281 619.242 369.281 620.648 C 369.633 620.648 369.984 620.648 370.336 620.648 C 370.336 621.703 370.336 622.758 370.336 623.812 C 370.688 623.812 371.039 623.812 371.391 623.812 C 371.391 624.867 371.391 625.922 371.391 626.977 C 371.742 626.977 372.094 626.977 372.445 626.977 C 372.445 627.680 372.445 628.383 372.445 629.086 C 372.797 629.086 373.148 629.086 373.500 629.086 C 373.500 630.141 373.500 631.195 373.500 632.250 C 373.852 632.250 374.203 632.250 374.555 632.250 C 374.555 632.953 374.555 633.656 374.555 634.359 C 374.906 634.359 375.258 634.359 375.609 634.359 C 375.609 634.711 375.609 635.062 375.609 635.414 C 375.961 635.414 376.312 635.414 376.664 635.414 C 376.664 636.117 376.664 636.820 376.664 637.523 C 377.016 637.523 377.367 637.523 377.719 637.523 C 377.719 638.227 377.719 638.930 377.719 639.633 C 378.070 639.633 378.422 639.633 378.773 639.633 C 378.773 639.984 378.773 640.336 378.773 640.688 C 379.125 640.688 379.477 640.688 379.828 640.688 C 379.828 641.391 379.828 642.094 379.828 642.797 C 380.180 642.797 380.531 642.797 380.883 642.797 C 380.883 643.148 380.883 643.500 380.883 643.852 C 381.234 643.852 381.586 643.852 381.938 643.852 C 381.938 644.203 381.938 644.555 381.938 644.906 C 382.289 644.906 382.641 644.906 382.992 644.906 C 382.992 645.258 382.992 645.609 382.992 645.961 C 383.344 645.961 383.695 645.961 384.047 645.961 C 384.047 646.312 384.047 646.664 384.047 647.016 C 384.398 647.016 384.750 647.016 385.102 647.016 C 385.102 647.367 385.102 647.719 385.102 648.070 C 385.453 648.070 385.805 648.070 386.156 648.070 C 386.156 648.422 386.156 648.773 386.156 649.125 C 386.508 649.125 386.859 649.125 387.211 649.125 C 387.211 649.477 387.211 649.828 387.211 650.180 C 387.562 650.180 387.914 650.180 388.266 650.180 C 388.266 650.531 388.266 650.883 388.266 651.234 C 388.617 651.234 388.969 651.234 389.320 651.234 C 389.320 651.586 389.320 651.938 389.320 652.289 C 389.672 652.289 390.023 652.289 390.375 652.289 C 390.375 652.641 390.375 652.992 390.375 653.344 C 391.078 653.344 391.781 653.344 392.484 653.344 C 392.484 653.695 392.484 654.047 392.484 654.398 C 392.836 654.398 393.188 654.398 393.539 654.398 C 393.539 654.750 393.539 655.102 393.539 655.453 C 394.242 655.453 394.945 655.453 395.648 655.453 C 395.648 655.805 395.648 656.156 395.648 656.508 C 396.352 656.508 397.055 656.508 397.758 656.508 C 397.758 656.859 397.758 657.211 397.758 657.562 C 398.461 657.562 399.164 657.562 399.867 657.562 C 399.867 657.914 399.867 658.266 399.867 658.617 C 400.922 658.617 401.977 658.617 403.031 658.617 C 403.031 658.969 403.031 659.320 403.031 659.672 C 404.086 659.672 405.141 659.672 406.195 659.672 C 406.195 660.023 406.195 660.375 406.195 660.727 C 408.305 660.727 410.414 660.727 412.523 660.727 C 412.523 661.078 412.523 661.430 412.523 661.781 C 416.039 661.781 419.555 661.781 423.070 661.781 C 423.070 661.430 423.070 661.078 423.070 660.727 C 425.180 660.727 427.289 660.727 429.398 660.727 C 429.398 660.375 429.398 660.023 429.398 659.672 C 430.805 659.672 432.211 659.672 433.617 659.672 C 433.617 659.320 433.617 658.969 433.617 658.617 C 434.672 658.617 435.727 658.617 436.781 658.617 C 436.781 658.266 436.781 657.914 436.781 657.562 C 437.836 657.562 438.891 657.562 439.945 657.562 C 439.945 657.211 439.945 656.859 439.945 656.508 C 440.648 656.508 441.352 656.508 442.055 656.508 C 442.055 656.156 442.055 655.805 442.055 655.453 C 442.758 655.453 443.461 655.453 444.164 655.453 C 444.164 655.102 444.164 654.750 444.164 654.398 C 444.867 654.398 445.570 654.398 446.273 654.398 C 446.273 654.047 446.273 653.695 446.273 653.344 C 446.977 653.344 447.680 653.344 448.383 653.344 C 448.383 652.992 448.383 652.641 448.383 652.289 C 449.086 652.289 449.789 652.289 450.492 652.289 C 450.492 651.938 450.492 651.586 450.492 651.234 C 451.195 651.234 451.898 651.234 452.602 651.234 C 452.602 650.883 452.602 650.531 452.602 650.180 C 452.953 650.180 453.305 650.180 453.656 650.180 C 453.656 649.828 453.656 649.477 453.656 649.125 C 454.359 649.125 455.062 649.125 455.766 649.125 C 455.766 648.773 455.766 648.422 455.766 648.070 C 456.117 648.070 456.469 648.070 456.820 648.070 C 456.820 647.719 456.820 647.367 456.820 647.016 C 457.523 647.016 458.227 647.016 458.930 647.016 C 458.930 646.664 458.930 646.312 458.930 645.961 C 459.281 645.961 459.633 645.961 459.984 645.961 C 459.984 645.609 459.984 645.258 459.984 644.906 C 460.688 644.906 461.391 644.906 462.094 644.906 C 462.094 644.555 462.094 644.203 462.094 643.852 C 462.445 643.852 462.797 643.852 463.148 643.852 C 463.148 643.500 463.148 643.148 463.148 642.797 C 463.500 642.797 463.852 642.797 464.203 642.797 C 464.203 642.445 464.203 642.094 464.203 641.742 C 464.906 641.742 465.609 641.742 466.312 641.742 C 466.312 641.391 466.312 641.039 466.312 640.688 C 466.664 640.688 467.016 640.688 467.367 640.688 C 467.367 640.336 467.367 639.984 467.367 639.633 C 467.719 639.633 468.070 639.633 468.422 639.633 C 468.422 639.281 468.422 638.930 468.422 638.578 C 469.125 638.578 469.828 638.578 470.531 638.578 C 470.531 638.227 470.531 637.875 470.531 637.523 C 470.883 637.523 471.234 637.523 471.586 637.523 C 471.586 637.172 471.586 636.820 471.586 636.469 C 471.938 636.469 472.289 636.469 472.641 636.469 C 472.641 636.117 472.641 635.766 472.641 635.414 C 473.344 635.414 474.047 635.414 474.750 635.414 C 474.750 635.062 474.750 634.711 474.750 634.359 C 475.102 634.359 475.453 634.359 475.805 634.359 C 475.805 634.008 475.805 633.656 475.805 633.305 C 476.156 633.305 476.508 633.305 476.859 633.305 C 476.859 632.953 476.859 632.602 476.859 632.250 C 477.562 632.250 478.266 632.250 478.969 632.250 C 478.969 631.898 478.969 631.547 478.969 631.195 C 479.320 631.195 479.672 631.195 480.023 631.195 C 480.023 630.844 480.023 630.492 480.023 630.141 C 480.727 630.141 481.430 630.141 482.133 630.141 C 482.133 629.789 482.133 629.438 482.133 629.086 C 482.836 629.086 483.539 629.086 484.242 629.086 C 484.242 628.734 484.242 628.383 484.242 628.031 C 484.945 628.031 485.648 628.031 486.352 628.031 C 486.352 627.680 486.352 627.328 486.352 626.977 C 487.055 626.977 487.758 626.977 488.461 626.977 C 488.461 626.625 488.461 626.273 488.461 625.922 C 489.164 625.922 489.867 625.922 490.570 625.922 C 490.570 625.570 490.570 625.219 490.570 624.867 C 491.273 624.867 491.977 624.867 492.680 624.867 C 492.680 624.516 492.680 624.164 492.680 623.812 C 493.734 623.812 494.789 623.812 495.844 623.812 C 495.844 623.461 495.844 623.109 495.844 622.758 C 497.250 622.758 498.656 622.758 500.062 622.758 C 500.062 622.406 500.062 622.055 500.062 621.703 C 501.820 621.703 503.578 621.703 505.336 621.703 C 505.336 621.352 505.336 621.000 505.336 620.648 C 507.797 620.648 510.258 620.648 512.719 620.648 C 512.719 620.297 512.719 619.945 512.719 619.594 C 515.180 619.594 517.641 619.594 520.102 619.594 C 520.102 619.242 520.102 618.891 520.102 618.539 C 522.211 618.539 524.320 618.539 526.430 618.539 C 526.430 618.188 526.430 617.836 526.430 617.484 C 528.187 617.484 529.945 617.484 531.703 617.484 C 531.703 617.133 531.703 616.781 531.703 616.430 C 533.109 616.430 534.516 616.430 535.922 616.430 C 535.922 616.078 535.922 615.727 535.922 615.375 C 537.328 615.375 538.734 615.375 540.141 615.375 C 540.141 615.023 540.141 614.672 540.141 614.320 C 541.195 614.320 542.250 614.320 543.305 614.320 C 543.305 613.969 543.305 613.617 543.305 613.266 C 544.359 613.266 545.414 613.266 546.469 613.266 C 546.469 612.914 546.469 612.562 546.469 612.211 C 547.172 612.211 547.875 612.211 548.578 612.211 C 548.578 611.859 548.578 611.508 548.578 611.156 C 549.633 611.156 550.688 611.156 551.742 611.156 C 551.742 610.805 551.742 610.453 551.742 610.102 C 552.445 610.102 553.148 610.102 553.852 610.102 C 553.852 609.750 553.852 609.398 553.852 609.047 C 554.203 609.047 554.555 609.047 554.906 609.047 C 554.906 608.695 554.906 608.344 554.906 607.992 C 555.609 607.992 556.312 607.992 557.016 607.992 C 557.016 607.641 557.016 607.289 557.016 606.938 C 557.719 606.938 558.422 606.938 559.125 606.938 C 559.125 606.586 559.125 606.234 559.125 605.883 C 559.477 605.883 559.828 605.883 560.180 605.883 C 560.180 605.531 560.180 605.180 560.180 604.828 C 560.883 604.828 561.586 604.828 562.289 604.828 C 562.289 604.477 562.289 604.125 562.289 603.773 C 562.641 603.773 562.992 603.773 563.344 603.773 C 563.344 603.422 563.344 603.070 563.344 602.719 C 563.695 602.719 564.047 602.719 564.398 602.719 C 564.398 602.367 564.398 602.016 564.398 601.664 C 564.750 601.664 565.102 601.664 565.453 601.664 C 565.453 601.312 565.453 600.961 565.453 600.609 C 565.805 600.609 566.156 600.609 566.508 600.609 C 566.508 600.258 566.508 599.906 566.508 599.555 C 566.859 599.555 567.211 599.555 567.562 599.555 C 567.562 599.203 567.562 598.852 567.562 598.500 C 567.914 598.500 568.266 598.500 568.617 598.500 C 568.617 598.148 568.617 597.797 568.617 597.445 C 568.969 597.445 569.320 597.445 569.672 597.445 C 569.672 597.094 569.672 596.742 569.672 596.391 C 570.023 596.391 570.375 596.391 570.727 596.391 C 570.727 596.039 570.727 595.688 570.727 595.336 C 571.078 595.336 571.430 595.336 571.781 595.336 C 571.781 594.984 571.781 594.633 571.781 594.281 C 572.133 594.281 572.484 594.281 572.836 594.281 C 572.836 593.578 572.836 592.875 572.836 592.172 C 573.188 592.172 573.539 592.172 573.891 592.172 C 573.891 591.820 573.891 591.469 573.891 591.117 C 574.242 591.117 574.594 591.117 574.945 591.117 C 574.945 590.414 574.945 589.711 574.945 589.008 C 575.297 589.008 575.648 589.008 576.000 589.008"/>
<path id="arc-13" data-left="0" data-right="4" d="M 576.000 542.602 C 576.000 558.070 576.000 573.539 576.000 589.008"/>
<path id="arc-14" data-left="0" data-right="1" d="M 576.000 589.008 C 576.000 614.672 576.000 640.336 576.000 666.000"/>
<path id="arc-15" data-left="1" data-right="0" d="M 36.000 666.000 C 216.000 666.000 396.000 666.000 576.000 666.000"/>
</g>
<g id="labels" font-family="DejaVu Sans" fill="#000" text-anchor="middle" dominant-baseline="central">
<text id="label-0" x="278.842" y="199.037" font-size="14.000">1</text>
<text id="label-1" x="376.363" y="350.043" font-size="14.000">2</text>
<text id="label-2" x="158.755" y="365.139" font-size="14.000">3</text>
<text id="label-3" x="230.854" y="561.322" font-size="14.000">1</text>
<text id="label-4" x="452.213" y="532.330" font-size="14.000">4</text>
</g>
<g id="leaders" stroke="#000" stroke-width="0.250">
</g>
<g id="legend" font-family="DejaVu Sans" font-size="8.000">
<rect id="chip-0" x="20.000" y="20.000" width="20.000" height="20.000" rx="1.500" fill="#ca6285" stroke="#000" stroke-width="0.300"/>
<text id="chip-number-0" x="42.000" y="30.000" fill="#000" dominant-baseline="central">1</text>
<rect id="chip-1" x="46.000" y="20.000" width="20.000" height="20.000" rx="1.500" fill="#c86858" stroke="#000" stroke-width="0.300"/>
<text id="chip-number-1" x="68.000" y="30.000" fill="#000" dominant-baseline="central">2</text>
<rect id="chip-2" x="72.000" y="20.000" width="20.000" height="20.000" rx="1.500" fill="#ad7938" stroke="#000" stroke-width="0.300"/>
<text id="chip-number-2" x="94.000" y="30.000" fill="#000" dominant-baseline="central">3</text>
<rect id="chip-3" x="98.000" y="20.000" width="20.000" height="20.000" rx="1.500" fill="#838936" stroke="#000" stroke-width="0.300"/>
<text id="chip-number-3" x="120.000" y="30.000" fill="#000" dominant-baseline="central">4</text>
<rect id="chip-4" x="124.000" y="20.000" width="20.000" height="20.000" rx="1.500" fill="#4b9354" stroke="#000" stroke-width="0.300"/>
<text id="chip-number-4" x="146.000" y="30.000" fill="#000" dominant-baseline="central">5</text>
<rect id="chip-5" x="150.000" y="20.000" width="20.000" height="20.000" rx="1.500" fill="#009782" stroke="#000" stroke-width="0.300"/>
<text id="chip-number-5" x="172.000" y="30.000" fill="#000" dominant-baseline="central">6</text>
<rect id="chip-6" x="176.000" y="20.000" width="20.000" height="20.000" rx="1.500" fill="#0096b0" stroke="#000" stroke-width="0.300"/>
<text id="chip-number-6" x="198.000" y="30.000" fill="#000" dominant-baseline="central">7</text>
<rect id="chip-7" x="202.000" y="20.000" width="20.000" height="20.000" rx="1.500" fill="#008ecd" stroke="#000" stroke-width="0.300"/>
<text id="chip-number-7" x="224.000" y="30.000" fill="#000" dominant-baseline="central">8</text>
<rect id="chip-8" x="228.000" y="20.000" width="20.000" height="20.000" rx="1.500" fill="#6c80ce" stroke="#000" stroke-width="0.300"/>
<text id="chip-number-8" x="250.000" y="30.000" fill="#000" dominant-baseline="central">9</text>
<rect id="chip-9" x="254.000" y="20.000" width="20.000" height="20.000" rx="1.500" fill="#ac6db2" stroke="#000" stroke-width="0.300"/>
<text id="chip-number-9" x="276.000" y="30.000" fill="#000" dominant-baseline="central">10</text>
</g>
<g id="frame" fill="none" stroke="#000" stroke-width="0.300">
<rect id="content-frame" x="36.000" y="36.000" width="540.000" height="720.000"/>
</g>
</svg>
