<?xml version="1.0" encoding="UTF-8"?>
<!-- mystery-cbn svg 1.0.0 -->
<svg xmlns="http://www.w3.org/2000/svg" version="1.1" width="215.900mm" height="279.400mm" viewBox="0 0 612.000 792.000">
<g id="regions" fill="none" stroke="#000" stroke-width="0.300" stroke-linecap="round" stroke-linejoin="round">
<path id="arc-0" data-left="0" data-right="1" d="M 36.000 126.000 C 216.000 126.000 396.000 126.000 576.000 126.000"/>
<path id="arc-1" data-left="1" data-right="0" d="M 36.000 126.000 C 36.000 143.930 36.000 161.859 36.000 179.789"/>
<path id="arc-2" data-left="0" data-right="1" d="M 576.000 126.000 C 576.000 306.000 576.000 486.000 576.000 666.000"/>
<path id="arc-3" data-left="1" data-right="3" d="M 36.000 179.789 C 36.352 179.789 36.703 179.789 37.055 179.789 C 37.055 179.438 37.055 179.086 37.055 178.734 C 37.406 178.734 37.758 178.734 38.109 178.734 C 38.109 178.383 38.109 178.031 38.109 177.680 C 38.461 177.680 38.812 177.680 39.164 177.680 C 39.164 177.328 39.164 176.977 39.164 176.625 C 39.516 176.625 39.867 176.625 40.219 176.625 C 40.219 176.273 40.219 175.922 40.219 175.570 C 40.570 175.570 40.922 175.570 41.273 175.570 C 41.273 175.219 41.273 174.867 41.273 174.516 C 41.977 174.516 42.680 174.516 43.383 174.516 C 43.383 174.164 43.383 173.812 43.383 173.461 C 43.734 173.461 44.086 173.461 44.438 173.461 C 44.438 173.109 44.438 172.758 44.438 172.406 C 45.141 172.406 45.844 172.406 46.547 172.406 C 46.547 172.055 46.547 171.703 46.547 171.352 C 47.602 171.352 48.656 171.352 49.711 171.352 C 49.711 171.000 49.711 170.648 49.711 170.297 C 50.766 170.297 51.820 170.297 52.875 170.297 C 52.875 169.945 52.875 169.594 52.875 169.242 C 54.633 169.242 56.391 169.242 58.148 169.242 C 58.148 168.891 58.148 168.539 58.148 168.188 C 60.609 168.188 63.070 168.188 65.531 168.188 C 65.531 167.836 65.531 167.484 65.531 167.133 C 67.289 167.133 69.047 167.133 70.805 167.133 C 70.805 166.781 70.805 166.430 70.805 166.078 C 71.859 166.078 72.914 166.078 73.969 166.078 C 73.969 165.727 73.969 165.375 73.969 165.023 C 74.672 165.023 75.375 165.023 76.078 165.023 C 76.078 164.672 76.078 164.320 76.078 163.969 C 76.781 163.969 77.484 163.969 78.188 163.969 C 78.188 163.617 78.188 163.266 78.188 162.914 C 78.539 162.914 78.891 162.914 79.242 162.914 C 79.242 162.562 79.242 162.211 79.242 161.859 C 79.945 161.859 80.648 161.859 81.352 161.859 C 81.352 161.508 81.352 161.156 81.352 160.805 C 81.703 160.805 82.055 160.805 82.406 160.805 C 82.406 160.453 82.406 160.102 82.406 159.750 C 82.758 159.750 83.109 159.750 83.461 159.750 C 83.461 159.398 83.461 159.047 83.461 158.695 C 84.164 158.695 84.867 158.695 85.570 158.695 C 85.570 158.344 85.570 157.992 85.570 157.641 C 85.922 157.641 86.273 157.641 86.625 157.641 C 86.625 157.289 86.625 156.938 86.625 156.586 C 86.977 156.586 87.328 156.586 87.680 156.586 C 87.680 156.234 87.680 155.883 87.680 155.531 C 88.383 155.531 89.086 155.531 89.789 155.531 C 89.789 155.180 89.789 154.828 89.789 154.477 C 90.141 154.477 90.492 154.477 90.844 154.477 C 90.844 154.125 90.844 153.773 90.844 153.422 C 91.547 153.422 92.250 153.422 92.953 153.422 C 92.953 153.070 92.953 152.719 92.953 152.367 C 93.656 152.367 94.359 152.367 95.062 152.367 C 95.062 152.016 95.062 151.664 95.062 151.312 C 96.117 151.312 97.172 151.312 98.227 151.312 C 98.227 150.961 98.227 150.609 98.227 150.258 C 99.281 150.258 100.336 150.258 101.391 150.258 C 101.391 149.906 101.391 149.555 101.391 149.203 C 105.258 149.203 109.125 149.203 112.992 149.203 C 112.992 149.555 112.992 149.906 112.992 150.258 C 113.695 150.258 114.398 150.258 115.102 150.258 C 115.102 150.609 115.102 150.961 115.102 151.312 C 115.805 151.312 116.508 151.312 117.211 151.312 C 117.211 151.664 117.211 152.016 117.211 152.367 C 117.914 152.367 118.617 152.367 119.320 152.367 C 119.320 152.719 119.320 153.070 119.320 153.422 C 119.672 153.422 120.023 153.422 120.375 153.422 C 120.375 153.773 120.375 154.125 120.375 154.477 C 120.727 154.477 121.078 154.477 121.430 154.477 C 121.430 154.828 121.430 155.180 121.430 155.531 C 121.781 155.531 122.133 155.531 122.484 155.531 C 122.484 155.883 122.484 156.234 122.484 156.586 C 122.836 156.586 123.188 156.586 123.539 156.586 C 123.539 156.938 123.539 157.289 123.539 157.641 C 123.891 157.641 124.242 157.641 124.594 157.641 C 124.594 158.344 124.594 159.047 124.594 159.750 C 124.945 159.750 125.297 159.750 125.648 159.750 C 125.648 160.102 125.648 160.453 125.648 160.805 C 126.000 160.805 126.352 160.805 126.703 160.805 C 126.703 161.508 126.703 162.211 126.703 162.914 C 127.055 162.914 127.406 162.914 127.758 162.914 C 127.758 163.969 127.758 165.023 127.758 166.078 C 128.109 166.078 128.461 166.078 128.812 166.078 C 128.812 167.133 128.812 168.188 128.812 169.242 C 129.164 169.242 129.516 169.242 129.867 169.242 C 129.867 171.000 129.867 172.758 129.867 174.516 C 130.219 174.516 130.570 174.516 130.922 174.516 C 130.922 176.977 130.922 179.437 130.922 181.898 C 131.273 181.898 131.625 181.898 131.977 181.898 C 131.977 182.953 131.977 184.008 131.977 185.062"/>
<path id="arc-4" data-left="3" data-right="0" d="M 36.000 179.789 C 36.000 188.578 36.000 197.367 36.000 206.156"/>
<path id="arc-5" data-left="5" data-right="3" d="M 131.977 185.062 C 131.977 185.414 131.977 185.766 131.977 186.117 C 130.922 186.117 129.867 186.117 128.812 186.117 C 128.812 186.469 128.812 186.820 128.812 187.172 C 127.758 187.172 126.703 187.172 125.648 187.172 C 125.648 187.523 125.648 187.875 125.648 188.227 C 124.945 188.227 124.242 188.227 123.539 188.227 C 123.539 188.578 123.539 188.930 123.539 189.281 C 122.836 189.281 122.133 189.281 121.430 189.281 C 121.430 189.633 121.430 189.984 121.430 190.336 C 121.078 190.336 120.727 190.336 120.375 190.336 C 120.375 190.688 120.375 191.039 120.375 191.391 C 119.672 191.391 118.969 191.391 118.266 191.391 C 118.266 191.742 118.266 192.094 118.266 192.445 C 117.914 192.445 117.562 192.445 117.211 192.445 C 117.211 192.797 117.211 193.148 117.211 193.500 C 116.859 193.500 116.508 193.500 116.156 193.500 C 116.156 193.852 116.156 194.203 116.156 194.555 C 115.453 194.555 114.750 194.555 114.047 194.555 C 114.047 194.906 114.047 195.258 114.047 195.609 C 113.695 195.609 113.344 195.609 112.992 195.609 C 112.992 195.961 112.992 196.312 112.992 196.664 C 112.641 196.664 112.289 196.664 111.938 196.664 C 111.938 197.016 111.938 197.367 111.938 197.719 C 111.234 197.719 110.531 197.719 109.828 197.719 C 109.828 198.070 109.828 198.422 109.828 198.773 C 109.477 198.773 109.125 198.773 108.773 198.773 C 108.773 199.125 108.773 199.477 108.773 199.828 C 108.070 199.828 107.367 199.828 106.664 199.828 C 106.664 200.180 106.664 200.531 106.664 200.883 C 105.961 200.883 105.258 200.883 104.555 200.883 C 104.555 201.234 104.555 201.586 104.555 201.938 C 103.500 201.938 102.445 201.938 101.391 201.938 C 101.391 202.289 101.391 202.641 101.391 202.992 C 99.633 202.992 97.875 202.992 96.117 202.992 C 96.117 203.344 96.117 203.695 96.117 204.047 C 93.656 204.047 91.195 204.047 88.734 204.047 C 88.734 204.398 88.734 204.750 88.734 205.102 C 86.977 205.102 85.219 205.102 83.461 205.102 C 83.461 205.453 83.461 205.805 83.461 206.156 C 82.406 206.156 81.352 206.156 80.297 206.156 C 80.297 206.508 80.297 206.859 80.297 207.211 C 79.242 207.211 78.188 207.211 77.133 207.211 C 77.133 207.562 77.133 207.914 77.133 208.266 C 76.430 208.266 75.727 208.266 75.023 208.266 C 75.023 208.617 75.023 208.969 75.023 209.320 C 74.672 209.320 74.320 209.320 73.969 209.320 C 73.969 209.672 73.969 210.023 73.969 210.375 C 73.266 210.375 72.562 210.375 71.859 210.375 C 71.859 210.727 71.859 211.078 71.859 211.430 C 71.508 211.430 71.156 211.430 70.805 211.430 C 70.805 211.781 70.805 212.133 70.805 212.484 C 70.453 212.484 70.102 212.484 69.750 212.484 C 69.750 212.836 69.750 213.188 69.750 213.539 C 69.398 213.539 69.047 213.539 68.695 213.539 C 68.695 213.891 68.695 214.242 68.695 214.594 C 68.344 214.594 67.992 214.594 67.641 214.594 C 67.641 214.945 67.641 215.297 67.641 215.648 C 67.289 215.648 66.938 215.648 66.586 215.648 C 66.586 216.352 66.586 217.055 66.586 217.758 C 66.234 217.758 65.883 217.758 65.531 217.758 C 65.531 218.461 65.531 219.164 65.531 219.867 C 65.180 219.867 64.828 219.867 64.477 219.867 C 64.477 220.570 64.477 221.273 64.477 221.977 C 64.125 221.977 63.773 221.977 63.422 221.977 C 63.422 225.844 63.422 229.711 63.422 233.578 C 63.773 233.578 64.125 233.578 64.477 233.578 C 64.477 234.633 64.477 235.688 64.477 236.742 C 64.828 236.742 65.180 236.742 65.531 236.742 C 65.531 237.797 65.531 238.852 65.531 239.906 C 65.883 239.906 66.234 239.906 66.586 239.906 C 66.586 240.609 66.586 241.312 66.586 242.016 C 66.938 242.016 67.289 242.016 67.641 242.016 C 67.641 242.367 67.641 242.719 67.641 243.070 C 67.992 243.070 68.344 243.070 68.695 243.070 C 68.695 243.773 68.695 244.477 68.695 245.180 C 69.047 245.180 69.398 245.180 69.750 245.180 C 69.750 245.883 69.750 246.586 69.750 247.289 C 70.102 247.289 70.453 247.289 70.805 247.289 C 70.805 247.641 70.805 247.992 70.805 248.344 C 71.156 248.344 71.508 248.344 71.859 248.344 C 71.859 248.695 71.859 249.047 71.859 249.398 C 72.211 249.398 72.562 249.398 72.914 249.398 C 72.914 250.102 72.914 250.805 72.914 251.508 C 73.266 251.508 73.617 251.508 73.969 251.508 C 73.969 251.859 73.969 252.211 73.969 252.562 C 74.320 252.562 74.672 252.562 75.023 252.562 C 75.023 252.914 75.023 253.266 75.023 253.617 C 75.375 253.617 75.727 253.617 76.078 253.617 C 76.078 254.320 76.078 255.023 76.078 255.727 C 76.430 255.727 76.781 255.727 77.133 255.727 C 77.133 256.078 77.133 256.430 77.133 256.781 C 77.484 256.781 77.836 256.781 78.188 256.781 C 78.188 257.484 78.188 258.188 78.188 258.891 C 78.539 258.891 78.891 258.891 79.242 258.891 C 79.242 259.594 79.242 260.297 79.242 261.000 C 79.594 261.000 79.945 261.000 80.297 261.000 C 80.297 262.055 80.297 263.109 80.297 264.164 C 80.648 264.164 81.000 264.164 81.352 264.164 C 81.352 264.867 81.352 265.570 81.352 266.273"/>
<path id="arc-6" data-left="1" data-right="5" d="M 131.977 185.062 C 135.844 185.062 139.711 185.062 143.578 185.062 C 143.578 185.414 143.578 185.766 143.578 186.117 C 144.281 186.117 144.984 186.117 145.688 186.117 C 145.688 186.469 145.688 186.820 145.688 187.172 C 146.391 187.172 147.094 187.172 147.797 187.172 C 147.797 187.523 147.797 187.875 147.797 188.227 C 148.500 188.227 149.203 188.227 149.906 188.227 C 149.906 188.578 149.906 188.930 149.906 189.281 C 150.258 189.281 150.609 189.281 150.961 189.281 C 150.961 189.633 150.961 189.984 150.961 190.336 C 151.312 190.336 151.664 190.336 152.016 190.336 C 152.016 190.688 152.016 191.039 152.016 191.391 C 152.367 191.391 152.719 191.391 153.070 191.391 C 153.070 191.742 153.070 192.094 153.070 192.445 C 153.422 192.445 153.773 192.445 154.125 192.445 C 154.125 192.797 154.125 193.148 154.125 193.500 C 154.477 193.500 154.828 193.500 155.180 193.500 C 155.180 194.203 155.180 194.906 155.180 195.609 C 155.531 195.609 155.883 195.609 156.234 195.609 C 156.234 195.961 156.234 196.312 156.234 196.664 C 156.586 196.664 156.938 196.664 157.289 196.664 C 157.289 197.367 157.289 198.070 157.289 198.773 C 157.641 198.773 157.992 198.773 158.344 198.773 C 158.344 199.828 158.344 200.883 158.344 201.938 C 158.695 201.938 159.047 201.938 159.398 201.938 C 159.398 202.992 159.398 204.047 159.398 205.102 C 159.750 205.102 160.102 205.102 160.453 205.102 C 160.453 206.859 160.453 208.617 160.453 210.375 C 160.805 210.375 161.156 210.375 161.508 210.375 C 161.508 212.836 161.508 215.297 161.508 217.758 C 161.859 217.758 162.211 217.758 162.562 217.758 C 162.562 219.516 162.562 221.273 162.562 223.031 C 162.914 223.031 163.266 223.031 163.617 223.031 C 163.617 224.086 163.617 225.141 163.617 226.195 C 163.969 226.195 164.320 226.195 164.672 226.195 C 164.672 226.898 164.672 227.602 164.672 228.305 C 165.023 228.305 165.375 228.305 165.727 228.305 C 165.727 229.008 165.727 229.711 165.727 230.414 C 166.078 230.414 166.430 230.414 166.781 230.414 C 166.781 230.766 166.781 231.117 166.781 231.469 C 167.133 231.469 167.484 231.469 167.836 231.469 C 167.836 232.172 167.836 232.875 167.836 233.578 C 168.188 233.578 168.539 233.578 168.891 233.578 C 168.891 233.930 168.891 234.281 168.891 234.633 C 169.242 234.633 169.594 234.633 169.945 234.633 C 169.945 234.984 169.945 235.336 169.945 235.688 C 170.297 235.688 170.648 235.688 171.000 235.688 C 171.000 236.391 171.000 237.094 171.000 237.797 C 171.352 237.797 171.703 237.797 172.055 237.797 C 172.055 238.148 172.055 238.500 172.055 238.852 C 172.406 238.852 172.758 238.852 173.109 238.852 C 173.109 239.203 173.109 239.555 173.109 239.906 C 173.461 239.906 173.812 239.906 174.164 239.906 C 174.164 240.609 174.164 241.312 174.164 242.016 C 174.516 242.016 174.867 242.016 175.219 242.016 C 175.219 242.367 175.219 242.719 175.219 243.070 C 175.570 243.070 175.922 243.070 176.273 243.070 C 176.273 243.773 176.273 244.477 176.273 245.180 C 176.625 245.180 176.977 245.180 177.328 245.180 C 177.328 245.883 177.328 246.586 177.328 247.289 C 177.680 247.289 178.031 247.289 178.383 247.289 C 178.383 248.344 178.383 249.398 178.383 250.453 C 178.734 250.453 179.086 250.453 179.438 250.453 C 179.438 251.508 179.438 252.563 179.438 253.617 C 179.789 253.617 180.141 253.617 180.492 253.617 C 180.492 257.484 180.492 261.352 180.492 265.219 C 180.141 265.219 179.789 265.219 179.438 265.219 C 179.438 265.922 179.438 266.625 179.438 267.328 C 179.086 267.328 178.734 267.328 178.383 267.328 C 178.383 268.031 178.383 268.734 178.383 269.438 C 178.031 269.438 177.680 269.438 177.328 269.438 C 177.328 270.141 177.328 270.844 177.328 271.547 C 176.977 271.547 176.625 271.547 176.273 271.547 C 176.273 271.898 176.273 272.250 176.273 272.602 C 175.922 272.602 175.570 272.602 175.219 272.602 C 175.219 272.953 175.219 273.305 175.219 273.656 C 174.867 273.656 174.516 273.656 174.164 273.656 C 174.164 274.008 174.164 274.359 174.164 274.711 C 173.812 274.711 173.461 274.711 173.109 274.711 C 173.109 275.062 173.109 275.414 173.109 275.766 C 172.758 275.766 172.406 275.766 172.055 275.766 C 172.055 276.117 172.055 276.469 172.055 276.820 C 171.352 276.820 170.648 276.820 169.945 276.820 C 169.945 277.172 169.945 277.523 169.945 277.875 C 169.594 277.875 169.242 277.875 168.891 277.875 C 168.891 278.227 168.891 278.578 168.891 278.930 C 168.188 278.930 167.484 278.930 166.781 278.930 C 166.781 279.281 166.781 279.633 166.781 279.984 C 165.727 279.984 164.672 279.984 163.617 279.984 C 163.617 280.336 163.617 280.688 163.617 281.039 C 162.562 281.039 161.508 281.039 160.453 281.039 C 160.453 281.391 160.453 281.742 160.453 282.094 C 158.695 282.094 156.938 282.094 155.180 282.094 C 155.180 282.445 155.180 282.797 155.180 283.148 C 152.719 283.148 150.258 283.148 147.797 283.148 C 147.797 283.500 147.797 283.852 147.797 284.203 C 146.039 284.203 144.281 284.203 142.523 284.203 C 142.523 284.555 142.523 284.906 142.523 285.258 C 141.469 285.258 140.414 285.258 139.359 285.258 C 139.359 285.609 139.359 285.961 139.359 286.312 C 138.656 286.312 137.953 286.312 137.250 286.312 C 137.250 286.664 137.250 287.016 137.250 287.367 C 136.547 287.367 135.844 287.367 135.141 287.367 C 135.141 287.719 135.141 288.070 135.141 288.422 C 134.789 288.422 134.438 288.422 134.086 288.422 C 134.086 288.773 134.086 289.125 134.086 289.477 C 133.383 289.477 132.680 289.477 131.977 289.477 C 131.977 289.828 131.977 290.180 131.977 290.531 C 131.625 290.531 131.273 290.531 130.922 290.531 C 130.922 290.883 130.922 291.234 130.922 291.586 C 130.570 291.586 130.219 291.586 129.867 291.586 C 129.867 291.938 129.867 292.289 129.867 292.641 C 129.164 292.641 128.461 292.641 127.758 292.641 C 127.758 292.992 127.758 293.344 127.758 293.695 C 127.406 293.695 127.055 293.695 126.703 293.695 C 126.703 294.047 126.703 294.398 126.703 294.750 C 126.352 294.750 126.000 294.750 125.648 294.750 C 125.648 295.102 125.648 295.453 125.648 295.805 C 124.945 295.805 124.242 295.805 123.539 295.805 C 123.539 296.156 123.539 296.508 123.539 296.859 C 123.188 296.859 122.836 296.859 122.484 296.859 C 122.484 297.211 122.484 297.562 122.484 297.914 C 121.781 297.914 121.078 297.914 120.375 297.914 C 120.375 298.266 120.375 298.617 120.375 298.969 C 119.672 298.969 118.969 298.969 118.266 298.969 C 118.266 299.320 118.266 299.672 118.266 300.023 C 117.211 300.023 116.156 300.023 115.102 300.023 C 115.102 300.375 115.102 300.727 115.102 301.078 C 114.047 301.078 112.992 301.078 111.938 301.078 C 111.938 301.430 111.938 301.781 111.938 302.133 C 108.070 302.133 104.203 302.133 100.336 302.133 C 100.336 301.781 100.336 301.430 100.336 301.078 C 99.633 301.078 98.930 301.078 98.227 301.078 C 98.227 300.727 98.227 300.375 98.227 300.023 C 97.523 300.023 96.820 300.023 96.117 300.023 C 96.117 299.672 96.117 299.320 96.117 298.969 C 95.414 298.969 94.711 298.969 94.008 298.969 C 94.008 298.617 94.008 298.266 94.008 297.914 C 93.656 297.914 93.305 297.914 92.953 297.914 C 92.953 297.562 92.953 297.211 92.953 296.859 C 92.602 296.859 92.250 296.859 91.898 296.859 C 91.898 296.508 91.898 296.156 91.898 295.805 C 91.547 295.805 91.195 295.805 90.844 295.805 C 90.844 295.453 90.844 295.102 90.844 294.750 C 90.492 294.750 90.141 294.750 89.789 294.750 C 89.789 294.398 89.789 294.047 89.789 293.695 C 89.438 293.695 89.086 293.695 88.734 293.695 C 88.734 292.992 88.734 292.289 88.734 291.586 C 88.383 291.586 88.031 291.586 87.680 291.586 C 87.680 291.234 87.680 290.883 87.680 290.531 C 87.328 290.531 86.977 290.531 86.625 290.531 C 86.625 289.828 86.625 289.125 86.625 288.422 C 86.273 288.422 85.922 288.422 85.570 288.422 C 85.570 287.367 85.570 286.313 85.570 285.258 C 85.219 285.258 84.867 285.258 84.516 285.258 C 84.516 284.203 84.516 283.148 84.516 282.094 C 84.164 282.094 83.812 282.094 83.461 282.094 C 83.461 280.336 83.461 278.578 83.461 276.820 C 83.109 276.820 82.758 276.820 82.406 276.820 C 82.406 274.359 82.406 271.898 82.406 269.438 C 82.055 269.438 81.703 269.438 81.352 269.438 C 81.352 268.383 81.352 267.328 81.352 266.273"/>
<path id="arc-7" data-left="1" data-right="0" d="M 36.000 206.156 C 36.000 359.438 36.000 512.719 36.000 666.000"/>
<path id="arc-8" data-left="3" data-right="1" d="M 36.000 206.156 C 36.352 206.156 36.703 206.156 37.055 206.156 C 37.055 206.508 37.055 206.859 37.055 207.211 C 37.406 207.211 37.758 207.211 38.109 207.211 C 38.109 207.914 38.109 208.617 38.109 209.320 C 38.461 209.320 38.812 209.320 39.164 209.320 C 39.164 210.023 39.164 210.727 39.164 211.430 C 39.516 211.430 39.867 211.430 40.219 211.430 C 40.219 211.781 40.219 212.133 40.219 212.484 C 40.570 212.484 40.922 212.484 41.273 212.484 C 41.273 212.836 41.273 213.188 41.273 213.539 C 41.625 213.539 41.977 213.539 42.328 213.539 C 42.328 214.242 42.328 214.945 42.328 215.648 C 42.680 215.648 43.031 215.648 43.383 215.648 C 43.383 216.000 43.383 216.352 43.383 216.703 C 43.734 216.703 44.086 216.703 44.438 216.703 C 44.438 217.055 44.438 217.406 44.438 217.758 C 44.789 217.758 45.141 217.758 45.492 217.758 C 45.492 218.461 45.492 219.164 45.492 219.867 C 45.844 219.867 46.195 219.867 46.547 219.867 C 46.547 220.219 46.547 220.570 46.547 220.922 C 46.898 220.922 47.250 220.922 47.602 220.922 C 47.602 221.625 47.602 222.328 47.602 223.031 C 47.953 223.031 48.305 223.031 48.656 223.031 C 48.656 223.734 48.656 224.438 48.656 225.141 C 49.008 225.141 49.359 225.141 49.711 225.141 C 49.711 226.195 49.711 227.250 49.711 228.305 C 50.062 228.305 50.414 228.305 50.766 228.305 C 50.766 230.062 50.766 231.820 50.766 233.578 C 51.117 233.578 51.469 233.578 51.820 233.578 C 51.820 236.039 51.820 238.500 51.820 240.961 C 52.172 240.961 52.523 240.961 52.875 240.961 C 52.875 242.719 52.875 244.477 52.875 246.234 C 53.227 246.234 53.578 246.234 53.930 246.234 C 53.930 247.289 53.930 248.344 53.930 249.398 C 54.281 249.398 54.633 249.398 54.984 249.398 C 54.984 250.453 54.984 251.508 54.984 252.562 C 55.336 252.562 55.688 252.562 56.039 252.562 C 56.039 253.266 56.039 253.969 56.039 254.672 C 56.391 254.672 56.742 254.672 57.094 254.672 C 57.094 255.023 57.094 255.375 57.094 255.727 C 57.445 255.727 57.797 255.727 58.148 255.727 C 58.148 256.430 58.148 257.133 58.148 257.836 C 58.500 257.836 58.852 257.836 59.203 257.836 C 59.203 258.188 59.203 258.539 59.203 258.891 C 59.555 258.891 59.906 258.891 60.258 258.891 C 60.258 259.242 60.258 259.594 60.258 259.945 C 60.609 259.945 60.961 259.945 61.312 259.945 C 61.312 260.297 61.312 260.648 61.312 261.000 C 61.664 261.000 62.016 261.000 62.367 261.000 C 62.367 261.352 62.367 261.703 62.367 262.055 C 62.719 262.055 63.070 262.055 63.422 262.055 C 63.422 262.406 63.422 262.758 63.422 263.109 C 64.125 263.109 64.828 263.109 65.531 263.109 C 65.531 263.461 65.531 263.812 65.531 264.164 C 66.234 264.164 66.938 264.164 67.641 264.164 C 67.641 264.516 67.641 264.867 67.641 265.219 C 68.344 265.219 69.047 265.219 69.750 265.219 C 69.750 265.570 69.750 265.922 69.750 266.273 C 73.617 266.273 77.484 266.273 81.352 266.273"/>
<path id="arc-9" data-left="1" data-right="7" d="M 426.234 305.297 C 430.102 305.297 433.969 305.297 437.836 305.297 C 437.836 305.648 437.836 306.000 437.836 306.352 C 438.539 306.352 439.242 306.352 439.945 306.352 C 439.945 306.703 439.945 307.055 439.945 307.406 C 440.648 307.406 441.352 307.406 442.055 307.406 C 442.055 307.758 442.055 308.109 442.055 308.461 C 442.758 308.461 443.461 308.461 444.164 308.461 C 444.164 308.812 444.164 309.164 444.164 309.516 C 444.516 309.516 444.867 309.516 445.219 309.516 C 445.219 309.867 445.219 310.219 445.219 310.570 C 445.570 310.570 445.922 310.570 446.273 310.570 C 446.273 310.922 446.273 311.273 446.273 311.625 C 446.625 311.625 446.977 311.625 447.328 311.625 C 447.328 311.977 447.328 312.328 447.328 312.680 C 447.680 312.680 448.031 312.680 448.383 312.680 C 448.383 313.031 448.383 313.383 448.383 313.734 C 448.734 313.734 449.086 313.734 449.438 313.734 C 449.438 314.438 449.438 315.141 449.438 315.844 C 449.789 315.844 450.141 315.844 450.492 315.844 C 450.492 316.195 450.492 316.547 450.492 316.898 C 450.844 316.898 451.195 316.898 451.547 316.898 C 451.547 317.602 451.547 318.305 451.547 319.008 C 451.898 319.008 452.250 319.008 452.602 319.008 C 452.602 320.062 452.602 321.117 452.602 322.172 C 452.953 322.172 453.305 322.172 453.656 322.172 C 453.656 323.227 453.656 324.281 453.656 325.336 C 454.008 325.336 454.359 325.336 454.711 325.336 C 454.711 327.094 454.711 328.852 454.711 330.609 C 455.062 330.609 455.414 330.609 455.766 330.609 C 455.766 333.070 455.766 335.531 455.766 337.992 C 456.117 337.992 456.469 337.992 456.820 337.992 C 456.820 339.750 456.820 341.508 456.820 343.266 C 457.172 343.266 457.523 343.266 457.875 343.266 C 457.875 344.320 457.875 345.375 457.875 346.430 C 458.227 346.430 458.578 346.430 458.930 346.430 C 458.930 347.133 458.930 347.836 458.930 348.539 C 459.281 348.539 459.633 348.539 459.984 348.539 C 459.984 349.242 459.984 349.945 459.984 350.648 C 460.336 350.648 460.688 350.648 461.039 350.648 C 461.039 351.000 461.039 351.352 461.039 351.703 C 461.391 351.703 461.742 351.703 462.094 351.703 C 462.094 352.406 462.094 353.109 462.094 353.812 C 462.445 353.812 462.797 353.812 463.148 353.812 C 463.148 354.164 463.148 354.516 463.148 354.867 C 463.500 354.867 463.852 354.867 464.203 354.867 C 464.203 355.219 464.203 355.570 464.203 355.922 C 464.555 355.922 464.906 355.922 465.258 355.922 C 465.258 356.625 465.258 357.328 465.258 358.031 C 465.609 358.031 465.961 358.031 466.312 358.031 C 466.312 358.383 466.312 358.734 466.312 359.086 C 466.664 359.086 467.016 359.086 467.367 359.086 C 467.367 359.438 467.367 359.789 467.367 360.141 C 467.719 360.141 468.070 360.141 468.422 360.141 C 468.422 360.844 468.422 361.547 468.422 362.250 C 468.773 362.250 469.125 362.250 469.477 362.250 C 469.477 362.602 469.477 362.953 469.477 363.305 C 469.828 363.305 470.180 363.305 470.531 363.305 C 470.531 364.008 470.531 364.711 470.531 365.414 C 470.883 365.414 471.234 365.414 471.586 365.414 C 471.586 366.117 471.586 366.820 471.586 367.523 C 471.938 367.523 472.289 367.523 472.641 367.523 C 472.641 368.578 472.641 369.633 472.641 370.688 C 472.992 370.688 473.344 370.688 473.695 370.688 C 473.695 371.742 473.695 372.797 473.695 373.852 C 474.047 373.852 474.398 373.852 474.750 373.852 C 474.750 377.719 474.750 381.586 474.750 385.453 C 474.398 385.453 474.047 385.453 473.695 385.453 C 473.695 386.156 473.695 386.859 473.695 387.562 C 473.344 387.562 472.992 387.562 472.641 387.562 C 472.641 388.266 472.641 388.969 472.641 389.672 C 472.289 389.672 471.938 389.672 471.586 389.672 C 471.586 390.375 471.586 391.078 471.586 391.781 C 471.234 391.781 470.883 391.781 470.531 391.781 C 470.531 392.133 470.531 392.484 470.531 392.836 C 470.180 392.836 469.828 392.836 469.477 392.836 C 469.477 393.188 469.477 393.539 469.477 393.891 C 469.125 393.891 468.773 393.891 468.422 393.891 C 468.422 394.242 468.422 394.594 468.422 394.945 C 468.070 394.945 467.719 394.945 467.367 394.945 C 467.367 395.297 467.367 395.648 467.367 396.000 C 467.016 396.000 466.664 396.000 466.312 396.000 C 466.312 396.352 466.312 396.703 466.312 397.055 C 465.609 397.055 464.906 397.055 464.203 397.055 C 464.203 397.406 464.203 397.758 464.203 398.109 C 463.852 398.109 463.500 398.109 463.148 398.109 C 463.148 398.461 463.148 398.812 463.148 399.164 C 462.445 399.164 461.742 399.164 461.039 399.164 C 461.039 399.516 461.039 399.867 461.039 400.219 C 459.984 400.219 458.930 400.219 457.875 400.219 C 457.875 400.570 457.875 400.922 457.875 401.273 C 456.820 401.273 455.766 401.273 454.711 401.273 C 454.711 401.625 454.711 401.977 454.711 402.328 C 452.953 402.328 451.195 402.328 449.438 402.328 C 449.438 402.680 449.438 403.031 449.438 403.383 C 446.977 403.383 444.516 403.383 442.055 403.383 C 442.055 403.734 442.055 404.086 442.055 404.438 C 440.297 404.438 438.539 404.438 436.781 404.438 C 436.781 404.789 436.781 405.141 436.781 405.492 C 435.727 405.492 434.672 405.492 433.617 405.492 C 433.617 405.844 433.617 406.195 433.617 406.547 C 432.914 406.547 432.211 406.547 431.508 406.547 C 431.508 406.898 431.508 407.250 431.508 407.602 C 430.805 407.602 430.102 407.602 429.398 407.602 C 429.398 407.953 429.398 408.305 429.398 408.656 C 429.047 408.656 428.695 408.656 428.344 408.656 C 428.344 409.008 428.344 409.359 428.344 409.711 C 427.641 409.711 426.938 409.711 426.234 409.711 C 426.234 410.062 426.234 410.414 426.234 410.766 C 425.883 410.766 425.531 410.766 425.180 410.766 C 425.180 411.117 425.180 411.469 425.180 411.820 C 424.828 411.820 424.477 411.820 424.125 411.820 C 424.125 412.172 424.125 412.523 424.125 412.875 C 423.422 412.875 422.719 412.875 422.016 412.875 C 422.016 413.227 422.016 413.578 422.016 413.930 C 421.664 413.930 421.312 413.930 420.961 413.930 C 420.961 414.281 420.961 414.633 420.961 414.984 C 420.609 414.984 420.258 414.984 419.906 414.984 C 419.906 415.336 419.906 415.688 419.906 416.039 C 419.203 416.039 418.500 416.039 417.797 416.039 C 417.797 416.391 417.797 416.742 417.797 417.094 C 417.445 417.094 417.094 417.094 416.742 417.094 C 416.742 417.445 416.742 417.797 416.742 418.148 C 416.039 418.148 415.336 418.148 414.633 418.148 C 414.633 418.500 414.633 418.852 414.633 419.203 C 413.930 419.203 413.227 419.203 412.523 419.203 C 412.523 419.555 412.523 419.906 412.523 420.258 C 411.469 420.258 410.414 420.258 409.359 420.258 C 409.359 420.609 409.359 420.961 409.359 421.312 C 408.305 421.312 407.250 421.312 406.195 421.312 C 406.195 421.664 406.195 422.016 406.195 422.367 C 402.328 422.367 398.461 422.367 394.594 422.367 C 394.594 422.016 394.594 421.664 394.594 421.312 C 393.891 421.312 393.188 421.312 392.484 421.312 C 392.484 420.961 392.484 420.609 392.484 420.258 C 391.781 420.258 391.078 420.258 390.375 420.258 C 390.375 419.906 390.375 419.555 390.375 419.203 C 389.672 419.203 388.969 419.203 388.266 419.203 C 388.266 418.852 388.266 418.500 388.266 418.148 C 387.914 418.148 387.562 418.148 387.211 418.148 C 387.211 417.797 387.211 417.445 387.211 417.094 C 386.859 417.094 386.508 417.094 386.156 417.094 C 386.156 416.742 386.156 416.391 386.156 416.039 C 385.805 416.039 385.453 416.039 385.102 416.039 C 385.102 415.688 385.102 415.336 385.102 414.984 C 384.750 414.984 384.398 414.984 384.047 414.984 C 384.047 414.633 384.047 414.281 384.047 413.930 C 383.695 413.930 383.344 413.930 382.992 413.930 C 382.992 413.227 382.992 412.523 382.992 411.820 C 382.641 411.820 382.289 411.820 381.938 411.820 C 381.938 411.469 381.938 411.117 381.938 410.766 C 381.586 410.766 381.234 410.766 380.883 410.766 C 380.883 410.062 380.883 409.359 380.883 408.656 C 380.531 408.656 380.180 408.656 379.828 408.656 C 379.828 407.602 379.828 406.547 379.828 405.492 C 379.477 405.492 379.125 405.492 378.773 405.492 C 378.773 404.437 378.773 403.383 378.773 402.328 C 378.422 402.328 378.070 402.328 377.719 402.328 C 377.719 400.570 377.719 398.813 377.719 397.055 C 377.367 397.055 377.016 397.055 376.664 397.055 C 376.664 394.594 376.664 392.133 376.664 389.672 C 376.312 389.672 375.961 389.672 375.609 389.672 C 375.609 387.914 375.609 386.156 375.609 384.398 C 375.258 384.398 374.906 384.398 374.555 384.398 C 374.555 383.344 374.555 382.289 374.555 381.234 C 374.203 381.234 373.852 381.234 373.500 381.234 C 373.500 380.531 373.500 379.828 373.500 379.125 C 373.148 379.125 372.797 379.125 372.445 379.125 C 372.445 378.422 372.445 377.719 372.445 377.016 C 372.094 377.016 371.742 377.016 371.391 377.016 C 371.391 376.664 371.391 376.312 371.391 375.961 C 371.039 375.961 370.688 375.961 370.336 375.961 C 370.336 375.258 370.336 374.555 370.336 373.852 C 369.984 373.852 369.633 373.852 369.281 373.852 C 369.281 373.500 369.281 373.148 369.281 372.797 C 368.930 372.797 368.578 372.797 368.227 372.797 C 368.227 372.445 368.227 372.094 368.227 371.742 C 367.875 371.742 367.523 371.742 367.172 371.742 C 367.172 371.039 367.172 370.336 367.172 369.633 C 366.820 369.633 366.469 369.633 366.117 369.633 C 366.117 369.281 366.117 368.930 366.117 368.578 C 365.766 368.578 365.414 368.578 365.062 368.578 C 365.062 368.227 365.062 367.875 365.062 367.523 C 364.711 367.523 364.359 367.523 364.008 367.523 C 364.008 366.820 364.008 366.117 364.008 365.414 C 363.656 365.414 363.305 365.414 362.953 365.414 C 362.953 364.711 362.953 364.008 362.953 363.305 C 362.602 363.305 362.250 363.305 361.898 363.305 C 361.898 362.953 361.898 362.602 361.898 362.250 C 361.547 362.250 361.195 362.250 360.844 362.250 C 360.844 361.547 360.844 360.844 360.844 360.141 C 360.492 360.141 360.141 360.141 359.789 360.141 C 359.789 359.086 359.789 358.031 359.789 356.977 C 359.438 356.977 359.086 356.977 358.734 356.977 C 358.734 355.922 358.734 354.867 358.734 353.812 C 358.383 353.812 358.031 353.812 357.680 353.812 C 357.680 349.945 357.680 346.078 357.680 342.211 C 358.031 342.211 358.383 342.211 358.734 342.211 C 358.734 341.508 358.734 340.805 358.734 340.102 C 359.086 340.102 359.438 340.102 359.789 340.102 C 359.789 339.398 359.789 338.695 359.789 337.992 C 360.141 337.992 360.492 337.992 360.844 337.992 C 360.844 337.289 360.844 336.586 360.844 335.883 C 361.195 335.883 361.547 335.883 361.898 335.883 C 361.898 335.531 361.898 335.180 361.898 334.828 C 362.250 334.828 362.602 334.828 362.953 334.828 C 362.953 334.477 362.953 334.125 362.953 333.773 C 363.305 333.773 363.656 333.773 364.008 333.773 C 364.008 333.422 364.008 333.070 364.008 332.719 C 364.359 332.719 364.711 332.719 365.062 332.719 C 365.062 332.367 365.062 332.016 365.062 331.664 C 365.414 331.664 365.766 331.664 366.117 331.664 C 366.117 331.312 366.117 330.961 366.117 330.609 C 366.820 330.609 367.523 330.609 368.227 330.609 C 368.227 330.258 368.227 329.906 368.227 329.555 C 368.578 329.555 368.930 329.555 369.281 329.555 C 369.281 329.203 369.281 328.852 369.281 328.500 C 369.984 328.500 370.688 328.500 371.391 328.500 C 371.391 328.148 371.391 327.797 371.391 327.445 C 372.445 327.445 373.500 327.445 374.555 327.445 C 374.555 327.094 374.555 326.742 374.555 326.391 C 375.609 326.391 376.664 326.391 377.719 326.391 C 377.719 326.039 377.719 325.688 377.719 325.336 C 379.477 325.336 381.234 325.336 382.992 325.336 C 382.992 324.984 382.992 324.633 382.992 324.281 C 385.453 324.281 387.914 324.281 390.375 324.281 C 390.375 323.930 390.375 323.578 390.375 323.227 C 392.133 323.227 393.891 323.227 395.648 323.227 C 395.648 322.875 395.648 322.523 395.648 322.172 C 396.703 322.172 397.758 322.172 398.812 322.172 C 398.812 321.820 398.812 321.469 398.812 321.117 C 399.516 321.117 400.219 321.117 400.922 321.117 C 400.922 320.766 400.922 320.414 400.922 320.062 C 401.625 320.062 402.328 320.062 403.031 320.062 C 403.031 319.711 403.031 319.359 403.031 319.008 C 403.383 319.008 403.734 319.008 404.086 319.008 C 404.086 318.656 404.086 318.305 404.086 317.953 C 404.789 317.953 405.492 317.953 406.195 317.953 C 406.195 317.602 406.195 317.250 406.195 316.898 C 406.547 316.898 406.898 316.898 407.250 316.898 C 407.250 316.547 407.250 316.195 407.250 315.844 C 407.602 315.844 407.953 315.844 408.305 315.844 C 408.305 315.492 408.305 315.141 408.305 314.789 C 409.008 314.789 409.711 314.789 410.414 314.789 C 410.414 314.438 410.414 314.086 410.414 313.734 C 410.766 313.734 411.117 313.734 411.469 313.734 C 411.469 313.383 411.469 313.031 411.469 312.680 C 411.820 312.680 412.172 312.680 412.523 312.680 C 412.523 312.328 412.523 311.977 412.523 311.625 C 413.227 311.625 413.930 311.625 414.633 311.625 C 414.633 311.273 414.633 310.922 414.633 310.570 C 414.984 310.570 415.336 310.570 415.688 310.570 C 415.688 310.219 415.688 309.867 415.688 309.516 C 416.391 309.516 417.094 309.516 417.797 309.516 C 417.797 309.164 417.797 308.812 417.797 308.461 C 418.500 308.461 419.203 308.461 419.906 308.461 C 419.906 308.109 419.906 307.758 419.906 307.406 C 420.961 307.406 422.016 307.406 423.070 307.406 C 423.070 307.055 423.070 306.703 423.070 306.352 C 424.125 306.352 425.180 306.352 426.234 306.352 C 426.234 306.000 426.234 305.648 426.234 305.297 Z"/>
<path id="arc-10" data-left="1" data-right="6" d="M 210.023 325.336 C 213.891 325.336 217.758 325.336 221.625 325.336 C 221.625 325.688 221.625 326.039 221.625 326.391 C 222.328 326.391 223.031 326.391 223.734 326.391 C 223.734 326.742 223.734 327.094 223.734 327.445 C 224.438 327.445 225.141 327.445 225.844 327.445 C 225.844 327.797 225.844 328.148 225.844 328.500 C 226.547 328.500 227.250 328.500 227.953 328.500 C 227.953 328.852 227.953 329.203 227.953 329.555 C 228.305 329.555 228.656 329.555 229.008 329.555 C 229.008 329.906 229.008 330.258 229.008 330.609 C 229.359 330.609 229.711 330.609 230.062 330.609 C 230.062 330.961 230.062 331.312 230.062 331.664 C 230.414 331.664 230.766 331.664 231.117 331.664 C 231.117 332.016 231.117 332.367 231.117 332.719 C 231.469 332.719 231.820 332.719 232.172 332.719 C 232.172 333.070 232.172 333.422 232.172 333.773 C 232.523 333.773 232.875 333.773 233.227 333.773 C 233.227 334.477 233.227 335.180 233.227 335.883 C 233.578 335.883 233.930 335.883 234.281 335.883 C 234.281 336.234 234.281 336.586 234.281 336.938 C 234.633 336.938 234.984 336.938 235.336 336.938 C 235.336 337.641 235.336 338.344 235.336 339.047 C 235.688 339.047 236.039 339.047 236.391 339.047 C 236.391 340.102 236.391 341.156 236.391 342.211 C 236.742 342.211 237.094 342.211 237.445 342.211 C 237.445 343.266 237.445 344.320 237.445 345.375 C 237.797 345.375 238.148 345.375 238.500 345.375 C 238.500 347.133 238.500 348.891 238.500 350.648 C 238.852 350.648 239.203 350.648 239.555 350.648 C 239.555 353.109 239.555 355.570 239.555 358.031 C 239.906 358.031 240.258 358.031 240.609 358.031 C 240.609 359.789 240.609 361.547 240.609 363.305 C 240.961 363.305 241.312 363.305 241.664 363.305 C 241.664 364.359 241.664 365.414 241.664 366.469 C 242.016 366.469 242.367 366.469 242.719 366.469 C 242.719 367.172 242.719 367.875 242.719 368.578 C 243.070 368.578 243.422 368.578 243.773 368.578 C 243.773 369.281 243.773 369.984 243.773 370.688 C 244.125 370.688 244.477 370.688 244.828 370.688 C 244.828 371.039 244.828 371.391 244.828 371.742 C 245.180 371.742 245.531 371.742 245.883 371.742 C 245.883 372.445 245.883 373.148 245.883 373.852 C 246.234 373.852 246.586 373.852 246.938 373.852 C 246.938 374.203 246.938 374.555 246.938 374.906 C 247.289 374.906 247.641 374.906 247.992 374.906 C 247.992 375.258 247.992 375.609 247.992 375.961 C 248.344 375.961 248.695 375.961 249.047 375.961 C 249.047 376.664 249.047 377.367 249.047 378.070 C 249.398 378.070 249.750 378.070 250.102 378.070 C 250.102 378.422 250.102 378.773 250.102 379.125 C 250.453 379.125 250.805 379.125 251.156 379.125 C 251.156 379.477 251.156 379.828 251.156 380.180 C 251.508 380.180 251.859 380.180 252.211 380.180 C 252.211 380.883 252.211 381.586 252.211 382.289 C 252.562 382.289 252.914 382.289 253.266 382.289 C 253.266 382.641 253.266 382.992 253.266 383.344 C 253.617 383.344 253.969 383.344 254.320 383.344 C 254.320 384.047 254.320 384.750 254.320 385.453 C 254.672 385.453 255.023 385.453 255.375 385.453 C 255.375 386.156 255.375 386.859 255.375 387.562 C 255.727 387.562 256.078 387.562 256.430 387.562 C 256.430 388.617 256.430 389.672 256.430 390.727 C 256.781 390.727 257.133 390.727 257.484 390.727 C 257.484 391.781 257.484 392.836 257.484 393.891 C 257.836 393.891 258.188 393.891 258.539 393.891 C 258.539 397.758 258.539 401.625 258.539 405.492 C 258.188 405.492 257.836 405.492 257.484 405.492 C 257.484 406.195 257.484 406.898 257.484 407.602 C 257.133 407.602 256.781 407.602 256.430 407.602 C 256.430 408.305 256.430 409.008 256.430 409.711 C 256.078 409.711 255.727 409.711 255.375 409.711 C 255.375 410.414 255.375 411.117 255.375 411.820 C 255.023 411.820 254.672 411.820 254.320 411.820 C 254.320 412.172 254.320 412.523 254.320 412.875 C 253.969 412.875 253.617 412.875 253.266 412.875 C 253.266 413.227 253.266 413.578 253.266 413.930 C 252.914 413.930 252.562 413.930 252.211 413.930 C 252.211 414.281 252.211 414.633 252.211 414.984 C 251.859 414.984 251.508 414.984 251.156 414.984 C 251.156 415.336 251.156 415.688 251.156 416.039 C 250.805 416.039 250.453 416.039 250.102 416.039 C 250.102 416.391 250.102 416.742 250.102 417.094 C 249.398 417.094 248.695 417.094 247.992 417.094 C 247.992 417.445 247.992 417.797 247.992 418.148 C 247.641 418.148 247.289 418.148 246.938 418.148 C 246.938 418.500 246.938 418.852 246.938 419.203 C 246.234 419.203 245.531 419.203 244.828 419.203 C 244.828 419.555 244.828 419.906 244.828 420.258 C 243.773 420.258 242.719 420.258 241.664 420.258 C 241.664 420.609 241.664 420.961 241.664 421.312 C 240.609 421.312 239.555 421.312 238.500 421.312 C 238.500 421.664 238.500 422.016 238.500 422.367 C 236.742 422.367 234.984 422.367 233.227 422.367 C 233.227 422.719 233.227 423.070 233.227 423.422 C 230.766 423.422 228.305 423.422 225.844 423.422 C 225.844 423.773 225.844 424.125 225.844 424.477 C 224.086 424.477 222.328 424.477 220.570 424.477 C 220.570 424.828 220.570 425.180 220.570 425.531 C 219.516 425.531 218.461 425.531 217.406 425.531 C 217.406 425.883 217.406 426.234 217.406 426.586 C 216.703 426.586 216.000 426.586 215.297 426.586 C 215.297 426.938 215.297 427.289 215.297 427.641 C 214.594 427.641 213.891 427.641 213.188 427.641 C 213.188 427.992 213.188 428.344 213.188 428.695 C 212.836 428.695 212.484 428.695 212.133 428.695 C 212.133 429.047 212.133 429.398 212.133 429.750 C 211.430 429.750 210.727 429.750 210.023 429.750 C 210.023 430.102 210.023 430.453 210.023 430.805 C 209.672 430.805 209.320 430.805 208.969 430.805 C 208.969 431.156 208.969 431.508 208.969 431.859 C 208.617 431.859 208.266 431.859 207.914 431.859 C 207.914 432.211 207.914 432.562 207.914 432.914 C 207.211 432.914 206.508 432.914 205.805 432.914 C 205.805 433.266 205.805 433.617 205.805 433.969 C 205.453 433.969 205.102 433.969 204.750 433.969 C 204.750 434.320 204.750 434.672 204.750 435.023 C 204.398 435.023 204.047 435.023 203.695 435.023 C 203.695 435.375 203.695 435.727 203.695 436.078 C 202.992 436.078 202.289 436.078 201.586 436.078 C 201.586 436.430 201.586 436.781 201.586 437.133 C 201.234 437.133 200.883 437.133 200.531 437.133 C 200.531 437.484 200.531 437.836 200.531 438.188 C 199.828 438.188 199.125 438.188 198.422 438.188 C 198.422 438.539 198.422 438.891 198.422 439.242 C 197.719 439.242 197.016 439.242 196.312 439.242 C 196.312 439.594 196.312 439.945 196.312 440.297 C 195.258 440.297 194.203 440.297 193.148 440.297 C 193.148 440.648 193.148 441.000 193.148 441.352 C 192.094 441.352 191.039 441.352 189.984 441.352 C 189.984 441.703 189.984 442.055 189.984 442.406 C 186.117 442.406 182.250 442.406 178.383 442.406 C 178.383 442.055 178.383 441.703 178.383 441.352 C 177.680 441.352 176.977 441.352 176.273 441.352 C 176.273 441.000 176.273 440.648 176.273 440.297 C 175.570 440.297 174.867 440.297 174.164 440.297 C 174.164 439.945 174.164 439.594 174.164 439.242 C 173.461 439.242 172.758 439.242 172.055 439.242 C 172.055 438.891 172.055 438.539 172.055 438.188 C 171.703 438.188 171.352 438.188 171.000 438.188 C 171.000 437.836 171.000 437.484 171.000 437.133 C 170.648 437.133 170.297 437.133 169.945 437.133 C 169.945 436.781 169.945 436.430 169.945 436.078 C 169.594 436.078 169.242 436.078 168.891 436.078 C 168.891 435.727 168.891 435.375 168.891 435.023 C 168.539 435.023 168.188 435.023 167.836 435.023 C 167.836 434.672 167.836 434.320 167.836 433.969 C 167.484 433.969 167.133 433.969 166.781 433.969 C 166.781 433.266 166.781 432.562 166.781 431.859 C 166.430 431.859 166.078 431.859 165.727 431.859 C 165.727 431.508 165.727 431.156 165.727 430.805 C 165.375 430.805 165.023 430.805 164.672 430.805 C 164.672 430.102 164.672 429.398 164.672 428.695 C 164.320 428.695 163.969 428.695 163.617 428.695 C 163.617 427.641 163.617 426.586 163.617 425.531 C 163.266 425.531 162.914 425.531 162.562 425.531 C 162.562 424.477 162.562 423.422 162.562 422.367 C 162.211 422.367 161.859 422.367 161.508 422.367 C 161.508 420.609 161.508 418.852 161.508 417.094 C 161.156 417.094 160.805 417.094 160.453 417.094 C 160.453 414.633 160.453 412.172 160.453 409.711 C 160.102 409.711 159.750 409.711 159.398 409.711 C 159.398 407.953 159.398 406.195 159.398 404.438 C 159.047 404.438 158.695 404.438 158.344 404.438 C 158.344 403.383 158.344 402.328 158.344 401.273 C 157.992 401.273 157.641 401.273 157.289 401.273 C 157.289 400.570 157.289 399.867 157.289 399.164 C 156.938 399.164 156.586 399.164 156.234 399.164 C 156.234 398.461 156.234 397.758 156.234 397.055 C 155.883 397.055 155.531 397.055 155.180 397.055 C 155.180 396.703 155.180 396.352 155.180 396.000 C 154.828 396.000 154.477 396.000 154.125 396.000 C 154.125 395.297 154.125 394.594 154.125 393.891 C 153.773 393.891 153.422 393.891 153.070 393.891 C 153.070 393.539 153.070 393.188 153.070 392.836 C 152.719 392.836 152.367 392.836 152.016 392.836 C 152.016 392.484 152.016 392.133 152.016 391.781 C 151.664 391.781 151.312 391.781 150.961 391.781 C 150.961 391.078 150.961 390.375 150.961 389.672 C 150.609 389.672 150.258 389.672 149.906 389.672 C 149.906 389.320 149.906 388.969 149.906 388.617 C 149.555 388.617 149.203 388.617 148.852 388.617 C 148.852 388.266 148.852 387.914 148.852 387.562 C 148.500 387.562 148.148 387.562 147.797 387.562 C 147.797 386.859 147.797 386.156 147.797 385.453 C 147.445 385.453 147.094 385.453 146.742 385.453 C 146.742 384.750 146.742 384.047 146.742 383.344 C 146.391 383.344 146.039 383.344 145.688 383.344 C 145.688 382.992 145.688 382.641 145.688 382.289 C 145.336 382.289 144.984 382.289 144.633 382.289 C 144.633 381.586 144.633 380.883 144.633 380.180 C 144.281 380.180 143.930 380.180 143.578 380.180 C 143.578 379.125 143.578 378.070 143.578 377.016 C 143.227 377.016 142.875 377.016 142.523 377.016 C 142.523 375.961 142.523 374.906 142.523 373.852 C 142.172 373.852 141.820 373.852 141.469 373.852 C 141.469 369.984 141.469 366.117 141.469 362.250 C 141.820 362.250 142.172 362.250 142.523 362.250 C 142.523 361.547 142.523 360.844 142.523 360.141 C 142.875 360.141 143.227 360.141 143.578 360.141 C 143.578 359.438 143.578 358.734 143.578 358.031 C 143.930 358.031 144.281 358.031 144.633 358.031 C 144.633 357.328 144.633 356.625 144.633 355.922 C 144.984 355.922 145.336 355.922 145.688 355.922 C 145.688 355.570 145.688 355.219 145.688 354.867 C 146.039 354.867 146.391 354.867 146.742 354.867 C 146.742 354.516 146.742 354.164 146.742 353.812 C 147.094 353.812 147.445 353.812 147.797 353.812 C 147.797 353.461 147.797 353.109 147.797 352.758 C 148.148 352.758 148.500 352.758 148.852 352.758 C 148.852 352.406 148.852 352.055 148.852 351.703 C 149.203 351.703 149.555 351.703 149.906 351.703 C 149.906 351.352 149.906 351.000 149.906 350.648 C 150.609 350.648 151.312 350.648 152.016 350.648 C 152.016 350.297 152.016 349.945 152.016 349.594 C 152.367 349.594 152.719 349.594 153.070 349.594 C 153.070 349.242 153.070 348.891 153.070 348.539 C 153.773 348.539 154.477 348.539 155.180 348.539 C 155.180 348.188 155.180 347.836 155.180 347.484 C 156.234 347.484 157.289 347.484 158.344 347.484 C 158.344 347.133 158.344 346.781 158.344 346.430 C 159.398 346.430 160.453 346.430 161.508 346.430 C 161.508 346.078 161.508 345.727 161.508 345.375 C 163.266 345.375 165.023 345.375 166.781 345.375 C 166.781 345.023 166.781 344.672 166.781 344.320 C 169.242 344.320 171.703 344.320 174.164 344.320 C 174.164 343.969 174.164 343.617 174.164 343.266 C 175.922 343.266 177.680 343.266 179.438 343.266 C 179.438 342.914 179.438 342.562 179.438 342.211 C 180.492 342.211 181.547 342.211 182.602 342.211 C 182.602 341.859 182.602 341.508 182.602 341.156 C 183.305 341.156 184.008 341.156 184.711 341.156 C 184.711 340.805 184.711 340.453 184.711 340.102 C 185.414 340.102 186.117 340.102 186.820 340.102 C 186.820 339.750 186.820 339.398 186.820 339.047 C 187.172 339.047 187.523 339.047 187.875 339.047 C 187.875 338.695 187.875 338.344 187.875 337.992 C 188.578 337.992 189.281 337.992 189.984 337.992 C 189.984 337.641 189.984 337.289 189.984 336.938 C 190.336 336.938 190.688 336.938 191.039 336.938 C 191.039 336.586 191.039 336.234 191.039 335.883 C 191.391 335.883 191.742 335.883 192.094 335.883 C 192.094 335.531 192.094 335.180 192.094 334.828 C 192.797 334.828 193.500 334.828 194.203 334.828 C 194.203 334.477 194.203 334.125 194.203 333.773 C 194.555 333.773 194.906 333.773 195.258 333.773 C 195.258 333.422 195.258 333.070 195.258 332.719 C 195.609 332.719 195.961 332.719 196.312 332.719 C 196.312 332.367 196.312 332.016 196.312 331.664 C 197.016 331.664 197.719 331.664 198.422 331.664 C 198.422 331.312 198.422 330.961 198.422 330.609 C 198.773 330.609 199.125 330.609 199.477 330.609 C 199.477 330.258 199.477 329.906 199.477 329.555 C 200.180 329.555 200.883 329.555 201.586 329.555 C 201.586 329.203 201.586 328.852 201.586 328.500 C 202.289 328.500 202.992 328.500 203.695 328.500 C 203.695 328.148 203.695 327.797 203.695 327.445 C 204.750 327.445 205.805 327.445 206.859 327.445 C 206.859 327.094 206.859 326.742 206.859 326.391 C 207.914 326.391 208.969 326.391 210.023 326.391 C 210.023 326.039 210.023 325.688 210.023 325.336 Z"/>
<path id="arc-11" data-left="1" data-right="4" d="M 141.469 430.805 C 145.336 430.805 149.203 430.805 153.070 430.805 C 153.070 431.156 153.070 431.508 153.070 431.859 C 153.773 431.859 154.477 431.859 155.180 431.859 C 155.180 432.211 155.180 432.562 155.180 432.914 C 155.883 432.914 156.586 432.914 157.289 432.914 C 157.289 433.266 157.289 433.617 157.289 433.969 C 157.992 433.969 158.695 433.969 159.398 433.969 C 159.398 434.320 159.398 434.672 159.398 435.023 C 159.750 435.023 160.102 435.023 160.453 435.023 C 160.453 435.375 160.453 435.727 160.453 436.078 C 160.805 436.078 161.156 436.078 161.508 436.078 C 161.508 436.430 161.508 436.781 161.508 437.133 C 161.859 437.133 162.211 437.133 162.562 437.133 C 162.562 437.484 162.562 437.836 162.562 438.188 C 162.914 438.188 163.266 438.188 163.617 438.188 C 163.617 438.539 163.617 438.891 163.617 439.242 C 163.969 439.242 164.320 439.242 164.672 439.242 C 164.672 439.945 164.672 440.648 164.672 441.352 C 165.023 441.352 165.375 441.352 165.727 441.352 C 165.727 441.703 165.727 442.055 165.727 442.406 C 166.078 442.406 166.430 442.406 166.781 442.406 C 166.781 443.109 166.781 443.812 166.781 444.516 C 167.133 444.516 167.484 444.516 167.836 444.516 C 167.836 445.570 167.836 446.625 167.836 447.680 C 168.188 447.680 168.539 447.680 168.891 447.680 C 168.891 448.734 168.891 449.789 168.891 450.844 C 169.242 450.844 169.594 450.844 169.945 450.844 C 169.945 452.602 169.945 454.359 169.945 456.117 C 170.297 456.117 170.648 456.117 171.000 456.117 C 171.000 458.578 171.000 461.039 171.000 463.500 C 171.352 463.500 171.703 463.500 172.055 463.500 C 172.055 465.258 172.055 467.016 172.055 468.773 C 172.406 468.773 172.758 468.773 173.109 468.773 C 173.109 469.828 173.109 470.883 173.109 471.938 C 173.461 471.938 173.812 471.938 174.164 471.938 C 174.164 472.641 174.164 473.344 174.164 474.047 C 174.516 474.047 174.867 474.047 175.219 474.047 C 175.219 474.750 175.219 475.453 175.219 476.156 C 175.570 476.156 175.922 476.156 176.273 476.156 C 176.273 476.508 176.273 476.859 176.273 477.211 C 176.625 477.211 176.977 477.211 177.328 477.211 C 177.328 477.914 177.328 478.617 177.328 479.320 C 177.680 479.320 178.031 479.320 178.383 479.320 C 178.383 479.672 178.383 480.023 178.383 480.375 C 178.734 480.375 179.086 480.375 179.438 480.375 C 179.438 480.727 179.438 481.078 179.438 481.430 C 179.789 481.430 180.141 481.430 180.492 481.430 C 180.492 482.133 180.492 482.836 180.492 483.539 C 180.844 483.539 181.195 483.539 181.547 483.539 C 181.547 483.891 181.547 484.242 181.547 484.594 C 181.898 484.594 182.250 484.594 182.602 484.594 C 182.602 484.945 182.602 485.297 182.602 485.648 C 182.953 485.648 183.305 485.648 183.656 485.648 C 183.656 486.352 183.656 487.055 183.656 487.758 C 184.008 487.758 184.359 487.758 184.711 487.758 C 184.711 488.109 184.711 488.461 184.711 488.812 C 185.062 488.812 185.414 488.812 185.766 488.812 C 185.766 489.516 185.766 490.219 185.766 490.922 C 186.117 490.922 186.469 490.922 186.820 490.922 C 186.820 491.625 186.820 492.328 186.820 493.031 C 187.172 493.031 187.523 493.031 187.875 493.031 C 187.875 494.086 187.875 495.141 187.875 496.195 C 188.227 496.195 188.578 496.195 188.930 496.195 C 188.930 497.250 188.930 498.305 188.930 499.359 C 189.281 499.359 189.633 499.359 189.984 499.359 C 189.984 503.227 189.984 507.094 189.984 510.961 C 189.633 510.961 189.281 510.961 188.930 510.961 C 188.930 511.664 188.930 512.367 188.930 513.070 C 188.578 513.070 188.227 513.070 187.875 513.070 C 187.875 513.773 187.875 514.477 187.875 515.180 C 187.523 515.180 187.172 515.180 186.820 515.180 C 186.820 515.883 186.820 516.586 186.820 517.289 C 186.469 517.289 186.117 517.289 185.766 517.289 C 185.766 517.641 185.766 517.992 185.766 518.344 C 185.414 518.344 185.062 518.344 184.711 518.344 C 184.711 518.695 184.711 519.047 184.711 519.398 C 184.359 519.398 184.008 519.398 183.656 519.398 C 183.656 519.750 183.656 520.102 183.656 520.453 C 183.305 520.453 182.953 520.453 182.602 520.453 C 182.602 520.805 182.602 521.156 182.602 521.508 C 182.250 521.508 181.898 521.508 181.547 521.508 C 181.547 521.859 181.547 522.211 181.547 522.562 C 180.844 522.562 180.141 522.562 179.438 522.562 C 179.438 522.914 179.438 523.266 179.438 523.617 C 179.086 523.617 178.734 523.617 178.383 523.617 C 178.383 523.969 178.383 524.320 178.383 524.672 C 177.680 524.672 176.977 524.672 176.273 524.672 C 176.273 525.023 176.273 525.375 176.273 525.727 C 175.219 525.727 174.164 525.727 173.109 525.727 C 173.109 526.078 173.109 526.430 173.109 526.781 C 172.055 526.781 171.000 526.781 169.945 526.781 C 169.945 527.133 169.945 527.484 169.945 527.836 C 168.187 527.836 166.430 527.836 164.672 527.836 C 164.672 528.188 164.672 528.539 164.672 528.891 C 162.211 528.891 159.750 528.891 157.289 528.891 C 157.289 529.242 157.289 529.594 157.289 529.945 C 155.531 529.945 153.773 529.945 152.016 529.945 C 152.016 530.297 152.016 530.648 152.016 531.000 C 150.961 531.000 149.906 531.000 148.852 531.000 C 148.852 531.352 148.852 531.703 148.852 532.055 C 148.148 532.055 147.445 532.055 146.742 532.055 C 146.742 532.406 146.742 532.758 146.742 533.109 C 146.039 533.109 145.336 533.109 144.633 533.109 C 144.633 533.461 144.633 533.812 144.633 534.164 C 144.281 534.164 143.930 534.164 143.578 534.164 C 143.578 534.516 143.578 534.867 143.578 535.219 C 142.875 535.219 142.172 535.219 141.469 535.219 C 141.469 535.570 141.469 535.922 141.469 536.273 C 141.117 536.273 140.766 536.273 140.414 536.273 C 140.414 536.625 140.414 536.977 140.414 537.328 C 140.062 537.328 139.711 537.328 139.359 537.328 C 139.359 537.680 139.359 538.031 139.359 538.383 C 138.656 538.383 137.953 538.383 137.250 538.383 C 137.250 538.734 137.250 539.086 137.250 539.438 C 136.898 539.438 136.547 539.438 136.195 539.438 C 136.195 539.789 136.195 540.141 136.195 540.492 C 135.844 540.492 135.492 540.492 135.141 540.492 C 135.141 540.844 135.141 541.195 135.141 541.547 C 134.438 541.547 133.734 541.547 133.031 541.547 C 133.031 541.898 133.031 542.250 133.031 542.602 C 132.680 542.602 132.328 542.602 131.977 542.602 C 131.977 542.953 131.977 543.305 131.977 543.656 C 131.273 543.656 130.570 543.656 129.867 543.656 C 129.867 544.008 129.867 544.359 129.867 544.711 C 129.164 544.711 128.461 544.711 127.758 544.711 C 127.758 545.062 127.758 545.414 127.758 545.766 C 126.703 545.766 125.648 545.766 124.594 545.766 C 124.594 546.117 124.594 546.469 124.594 546.820 C 123.539 546.820 122.484 546.820 121.430 546.820 C 121.430 547.172 121.430 547.523 121.430 547.875 C 117.563 547.875 113.695 547.875 109.828 547.875 C 109.828 547.523 109.828 547.172 109.828 546.820 C 109.125 546.820 108.422 546.820 107.719 546.820 C 107.719 546.469 107.719 546.117 107.719 545.766 C 107.016 545.766 106.312 545.766 105.609 545.766 C 105.609 545.414 105.609 545.062 105.609 544.711 C 104.906 544.711 104.203 544.711 103.500 544.711 C 103.500 544.359 103.500 544.008 103.500 543.656 C 103.148 543.656 102.797 543.656 102.445 543.656 C 102.445 543.305 102.445 542.953 102.445 542.602 C 102.094 542.602 101.742 542.602 101.391 542.602 C 101.391 542.250 101.391 541.898 101.391 541.547 C 101.039 541.547 100.688 541.547 100.336 541.547 C 100.336 541.195 100.336 540.844 100.336 540.492 C 99.984 540.492 99.633 540.492 99.281 540.492 C 99.281 540.141 99.281 539.789 99.281 539.438 C 98.930 539.438 98.578 539.438 98.227 539.438 C 98.227 538.734 98.227 538.031 98.227 537.328 C 97.875 537.328 97.523 537.328 97.172 537.328 C 97.172 536.977 97.172 536.625 97.172 536.273 C 96.820 536.273 96.469 536.273 96.117 536.273 C 96.117 535.570 96.117 534.867 96.117 534.164 C 95.766 534.164 95.414 534.164 95.062 534.164 C 95.062 533.109 95.062 532.055 95.062 531.000 C 94.711 531.000 94.359 531.000 94.008 531.000 C 94.008 529.945 94.008 528.891 94.008 527.836 C 93.656 527.836 93.305 527.836 92.953 527.836 C 92.953 526.078 92.953 524.320 92.953 522.562 C 92.602 522.562 92.250 522.562 91.898 522.562 C 91.898 520.102 91.898 517.641 91.898 515.180 C 91.547 515.180 91.195 515.180 90.844 515.180 C 90.844 513.422 90.844 511.664 90.844 509.906 C 90.492 509.906 90.141 509.906 89.789 509.906 C 89.789 508.852 89.789 507.797 89.789 506.742 C 89.438 506.742 89.086 506.742 88.734 506.742 C 88.734 506.039 88.734 505.336 88.734 504.633 C 88.383 504.633 88.031 504.633 87.680 504.633 C 87.680 503.930 87.680 503.227 87.680 502.523 C 87.328 502.523 86.977 502.523 86.625 502.523 C 86.625 502.172 86.625 501.820 86.625 501.469 C 86.273 501.469 85.922 501.469 85.570 501.469 C 85.570 500.766 85.570 500.062 85.570 499.359 C 85.219 499.359 84.867 499.359 84.516 499.359 C 84.516 499.008 84.516 498.656 84.516 498.305 C 84.164 498.305 83.812 498.305 83.461 498.305 C 83.461 497.953 83.461 497.602 83.461 497.250 C 83.109 497.250 82.758 497.250 82.406 497.250 C 82.406 496.547 82.406 495.844 82.406 495.141 C 82.055 495.141 81.703 495.141 81.352 495.141 C 81.352 494.789 81.352 494.438 81.352 494.086 C 81.000 494.086 80.648 494.086 80.297 494.086 C 80.297 493.734 80.297 493.383 80.297 493.031 C 79.945 493.031 79.594 493.031 79.242 493.031 C 79.242 492.328 79.242 491.625 79.242 490.922 C 78.891 490.922 78.539 490.922 78.188 490.922 C 78.188 490.219 78.188 489.516 78.188 488.812 C 77.836 488.812 77.484 488.812 77.133 488.812 C 77.133 488.461 77.133 488.109 77.133 487.758 C 76.781 487.758 76.430 487.758 76.078 487.758 C 76.078 487.055 76.078 486.352 76.078 485.648 C 75.727 485.648 75.375 485.648 75.023 485.648 C 75.023 484.594 75.023 483.539 75.023 482.484 C 74.672 482.484 74.320 482.484 73.969 482.484 C 73.969 481.430 73.969 480.375 73.969 479.320 C 73.617 479.320 73.266 479.320 72.914 479.320 C 72.914 475.453 72.914 471.586 72.914 467.719 C 73.266 467.719 73.617 467.719 73.969 467.719 C 73.969 467.016 73.969 466.312 73.969 465.609 C 74.320 465.609 74.672 465.609 75.023 465.609 C 75.023 464.906 75.023 464.203 75.023 463.500 C 75.375 463.500 75.727 463.500 76.078 463.500 C 76.078 462.797 76.078 462.094 76.078 461.391 C 76.430 461.391 76.781 461.391 77.133 461.391 C 77.133 461.039 77.133 460.688 77.133 460.336 C 77.484 460.336 77.836 460.336 78.188 460.336 C 78.188 459.984 78.188 459.633 78.188 459.281 C 78.539 459.281 78.891 459.281 79.242 459.281 C 79.242 458.930 79.242 458.578 79.242 458.227 C 79.594 458.227 79.945 458.227 80.297 458.227 C 80.297 457.875 80.297 457.523 80.297 457.172 C 80.648 457.172 81.000 457.172 81.352 457.172 C 81.352 456.820 81.352 456.469 81.352 456.117 C 82.055 456.117 82.758 456.117 83.461 456.117 C 83.461 455.766 83.461 455.414 83.461 455.062 C 83.812 455.062 84.164 455.062 84.516 455.062 C 84.516 454.711 84.516 454.359 84.516 454.008 C 85.219 454.008 85.922 454.008 86.625 454.008 C 86.625 453.656 86.625 453.305 86.625 452.953 C 87.680 452.953 88.734 452.953 89.789 452.953 C 89.789 452.602 89.789 452.250 89.789 451.898 C 90.844 451.898 91.898 451.898 92.953 451.898 C 92.953 451.547 92.953 451.195 92.953 450.844 C 94.711 450.844 96.469 450.844 98.227 450.844 C 98.227 450.492 98.227 450.141 98.227 449.789 C 100.688 449.789 103.148 449.789 105.609 449.789 C 105.609 449.438 105.609 449.086 105.609 448.734 C 107.367 448.734 109.125 448.734 110.883 448.734 C 110.883 448.383 110.883 448.031 110.883 447.680 C 111.937 447.680 112.992 447.680 114.047 447.680 C 114.047 447.328 114.047 446.977 114.047 446.625 C 114.750 446.625 115.453 446.625 116.156 446.625 C 116.156 446.273 116.156 445.922 116.156 445.570 C 116.859 445.570 117.562 445.570 118.266 445.570 C 118.266 445.219 118.266 444.867 118.266 444.516 C 118.617 444.516 118.969 444.516 119.320 444.516 C 119.320 444.164 119.320 443.812 119.320 443.461 C 120.023 443.461 120.727 443.461 121.430 443.461 C 121.430 443.109 121.430 442.758 121.430 442.406 C 121.781 442.406 122.133 442.406 122.484 442.406 C 122.484 442.055 122.484 441.703 122.484 441.352 C 122.836 441.352 123.188 441.352 123.539 441.352 C 123.539 441.000 123.539 440.648 123.539 440.297 C 124.242 440.297 124.945 440.297 125.648 440.297 C 125.648 439.945 125.648 439.594 125.648 439.242 C 126.000 439.242 126.352 439.242 126.703 439.242 C 126.703 438.891 126.703 438.539 126.703 438.188 C 127.055 438.188 127.406 438.188 127.758 438.188 C 127.758 437.836 127.758 437.484 127.758 437.133 C 128.461 437.133 129.164 437.133 129.867 437.133 C 129.867 436.781 129.867 436.430 129.867 436.078 C 130.219 436.078 130.570 436.078 130.922 436.078 C 130.922 435.727 130.922 435.375 130.922 435.023 C 131.625 435.023 132.328 435.023 133.031 435.023 C 133.031 434.672 133.031 434.320 133.031 433.969 C 133.734 433.969 134.438 433.969 135.141 433.969 C 135.141 433.617 135.141 433.266 135.141 432.914 C 136.195 432.914 137.250 432.914 138.305 432.914 C 138.305 432.562 138.305 432.211 138.305 431.859 C 139.359 431.859 140.414 431.859 141.469 431.859 C 141.469 431.508 141.469 431.156 141.469 430.805 Z"/>
<path id="arc-12" data-left="1" data-right="2" d="M 159.398 543.656 C 163.266 543.656 167.133 543.656 171.000 543.656 C 171.000 544.008 171.000 544.359 171.000 544.711 C 171.703 544.711 172.406 544.711 173.109 544.711 C 173.109 545.062 173.109 545.414 173.109 545.766 C 173.812 545.766 174.516 545.766 175.219 545.766 C 175.219 546.117 175.219 546.469 175.219 546.820 C 175.922 546.820 176.625 546.820 177.328 546.820 C 177.328 547.172 177.328 547.523 177.328 547.875 C 177.680 547.875 178.031 547.875 178.383 547.875 C 178.383 548.227 178.383 548.578 178.383 548.930 C 178.734 548.930 179.086 548.930 179.438 548.930 C 179.438 549.281 179.438 549.633 179.438 549.984 C 179.789 549.984 180.141 549.984 180.492 549.984 C 180.492 550.336 180.492 550.688 180.492 551.039 C 180.844 551.039 181.195 551.039 181.547 551.039 C 181.547 551.391 181.547 551.742 181.547 552.094 C 181.898 552.094 182.250 552.094 182.602 552.094 C 182.602 552.797 182.602 553.500 182.602 554.203 C 182.953 554.203 183.305 554.203 183.656 554.203 C 183.656 554.555 183.656 554.906 183.656 555.258 C 184.008 555.258 184.359 555.258 184.711 555.258 C 184.711 555.961 184.711 556.664 184.711 557.367 C 185.062 557.367 185.414 557.367 185.766 557.367 C 185.766 558.422 185.766 559.477 185.766 560.531 C 186.117 560.531 186.469 560.531 186.820 560.531 C 186.820 561.586 186.820 562.641 186.820 563.695 C 187.172 563.695 187.523 563.695 187.875 563.695 C 187.875 565.453 187.875 567.211 187.875 568.969 C 188.227 568.969 188.578 568.969 188.930 568.969 C 188.930 571.430 188.930 573.891 188.930 576.352 C 189.281 576.352 189.633 576.352 189.984 576.352 C 189.984 578.109 189.984 579.867 189.984 581.625 C 190.336 581.625 190.688 581.625 191.039 581.625 C 191.039 582.680 191.039 583.734 191.039 584.789 C 191.391 584.789 191.742 584.789 192.094 584.789 C 192.094 585.492 192.094 586.195 192.094 586.898 C 192.445 586.898 192.797 586.898 193.148 586.898 C 193.148 587.602 193.148 588.305 193.148 589.008 C 193.500 589.008 193.852 589.008 194.203 589.008 C 194.203 589.359 194.203 589.711 194.203 590.062 C 194.555 590.062 194.906 590.062 195.258 590.062 C 195.258 590.766 195.258 591.469 195.258 592.172 C 195.609 592.172 195.961 592.172 196.312 592.172 C 196.312 592.523 196.312 592.875 196.312 593.227 C 196.664 593.227 197.016 593.227 197.367 593.227 C 197.367 593.578 197.367 593.930 197.367 594.281 C 197.719 594.281 198.070 594.281 198.422 594.281 C 198.422 594.984 198.422 595.688 198.422 596.391 C 198.773 596.391 199.125 596.391 199.477 596.391 C 199.477 596.742 199.477 597.094 199.477 597.445 C 199.828 597.445 200.180 597.445 200.531 597.445 C 200.531 597.797 200.531 598.148 200.531 598.500 C 200.883 598.500 201.234 598.500 201.586 598.500 C 201.586 599.203 201.586 599.906 201.586 600.609 C 201.938 600.609 202.289 600.609 202.641 600.609 C 202.641 600.961 202.641 601.312 202.641 601.664 C 202.992 601.664 203.344 601.664 203.695 601.664 C 203.695 602.367 203.695 603.070 203.695 603.773 C 204.047 603.773 204.398 603.773 204.750 603.773 C 204.750 604.477 204.750 605.180 204.750 605.883 C 205.102 605.883 205.453 605.883 205.805 605.883 C 205.805 606.937 205.805 607.992 205.805 609.047 C 206.156 609.047 206.508 609.047 206.859 609.047 C 206.859 610.102 206.859 611.156 206.859 612.211 C 207.211 612.211 207.562 612.211 207.914 612.211 C 207.914 616.078 207.914 619.945 207.914 623.812 C 207.562 623.812 207.211 623.812 206.859 623.812 C 206.859 624.516 206.859 625.219 206.859 625.922 C 206.508 625.922 206.156 625.922 205.805 625.922 C 205.805 626.625 205.805 627.328 205.805 628.031 C 205.453 628.031 205.102 628.031 204.750 628.031 C 204.750 628.734 204.750 629.438 204.750 630.141 C 204.398 630.141 204.047 630.141 203.695 630.141 C 203.695 630.492 203.695 630.844 203.695 631.195 C 203.344 631.195 202.992 631.195 202.641 631.195 C 202.641 631.547 202.641 631.898 202.641 632.250 C 202.289 632.250 201.938 632.250 201.586 632.250 C 201.586 632.602 201.586 632.953 201.586 633.305 C 201.234 633.305 200.883 633.305 200.531 633.305 C 200.531 633.656 200.531 634.008 200.531 634.359 C 200.180 634.359 199.828 634.359 199.477 634.359 C 199.477 634.711 199.477 635.062 199.477 635.414 C 198.773 635.414 198.070 635.414 197.367 635.414 C 197.367 635.766 197.367 636.117 197.367 636.469 C 197.016 636.469 196.664 636.469 196.312 636.469 C 196.312 636.820 196.312 637.172 196.312 637.523 C 195.609 637.523 194.906 637.523 194.203 637.523 C 194.203 637.875 194.203 638.227 194.203 638.578 C 193.148 638.578 192.094 638.578 191.039 638.578 C 191.039 638.930 191.039 639.281 191.039 639.633 C 189.984 639.633 188.930 639.633 187.875 639.633 C 187.875 639.984 187.875 640.336 187.875 640.688 C 186.117 640.688 184.359 640.688 182.602 640.688 C 182.602 641.039 182.602 641.391 182.602 641.742 C 180.141 641.742 177.680 641.742 175.219 641.742 C 175.219 642.094 175.219 642.445 175.219 642.797 C 173.461 642.797 171.703 642.797 169.945 642.797 C 169.945 643.148 169.945 643.500 169.945 643.852 C 168.891 643.852 167.836 643.852 166.781 643.852 C 166.781 644.203 166.781 644.555 166.781 644.906 C 166.078 644.906 165.375 644.906 164.672 644.906 C 164.672 645.258 164.672 645.609 164.672 645.961 C 163.969 645.961 163.266 645.961 162.562 645.961 C 162.562 646.312 162.562 646.664 162.562 647.016 C 162.211 647.016 161.859 647.016 161.508 647.016 C 161.508 647.367 161.508 647.719 161.508 648.070 C 160.805 648.070 160.102 648.070 159.398 648.070 C 159.398 648.422 159.398 648.773 159.398 649.125 C 159.047 649.125 158.695 649.125 158.344 649.125 C 158.344 649.477 158.344 649.828 158.344 650.180 C 157.992 650.180 157.641 650.180 157.289 650.180 C 157.289 650.531 157.289 650.883 157.289 651.234 C 156.586 651.234 155.883 651.234 155.180 651.234 C 155.180 651.586 155.180 651.938 155.180 652.289 C 154.828 652.289 154.477 652.289 154.125 652.289 C 154.125 652.641 154.125 652.992 154.125 653.344 C 153.773 653.344 153.422 653.344 153.070 653.344 C 153.070 653.695 153.070 654.047 153.070 654.398 C 152.367 654.398 151.664 654.398 150.961 654.398 C 150.961 654.750 150.961 655.102 150.961 655.453 C 150.609 655.453 150.258 655.453 149.906 655.453 C 149.906 655.805 149.906 656.156 149.906 656.508 C 149.203 656.508 148.500 656.508 147.797 656.508 C 147.797 656.859 147.797 657.211 147.797 657.562 C 147.094 657.562 146.391 657.562 145.688 657.562 C 145.688 657.914 145.688 658.266 145.688 658.617 C 144.633 658.617 143.578 658.617 142.523 658.617 C 142.523 658.969 142.523 659.320 142.523 659.672 C 141.469 659.672 140.414 659.672 139.359 659.672 C 139.359 660.023 139.359 660.375 139.359 660.727 C 135.492 660.727 131.625 660.727 127.758 660.727 C 127.758 660.375 127.758 660.023 127.758 659.672 C 127.055 659.672 126.352 659.672 125.648 659.672 C 125.648 659.320 125.648 658.969 125.648 658.617 C 124.945 658.617 124.242 658.617 123.539 658.617 C 123.539 658.266 123.539 657.914 123.539 657.562 C 122.836 657.562 122.133 657.562 121.430 657.562 C 121.430 657.211 121.430 656.859 121.430 656.508 C 121.078 656.508 120.727 656.508 120.375 656.508 C 120.375 656.156 120.375 655.805 120.375 655.453 C 120.023 655.453 119.672 655.453 119.320 655.453 C 119.320 655.102 119.320 654.750 119.320 654.398 C 118.969 654.398 118.617 654.398 118.266 654.398 C 118.266 654.047 118.266 653.695 118.266 653.344 C 117.914 653.344 117.562 653.344 117.211 653.344 C 117.211 652.992 117.211 652.641 117.211 652.289 C 116.859 652.289 116.508 652.289 116.156 652.289 C 116.156 651.586 116.156 650.883 116.156 650.180 C 115.805 650.180 115.453 650.180 115.102 650.180 C 115.102 649.828 115.102 649.477 115.102 649.125 C 114.750 649.125 114.398 649.125 114.047 649.125 C 114.047 648.422 114.047 647.719 114.047 647.016 C 113.695 647.016 113.344 647.016 112.992 647.016 C 112.992 645.961 112.992 644.906 112.992 643.852 C 112.641 643.852 112.289 643.852 111.938 643.852 C 111.938 642.797 111.938 641.742 111.938 640.688 C 111.586 640.688 111.234 640.688 110.883 640.688 C 110.883 638.930 110.883 637.172 110.883 635.414 C 110.531 635.414 110.180 635.414 109.828 635.414 C 109.828 632.953 109.828 630.492 109.828 628.031 C 109.477 628.031 109.125 628.031 108.773 628.031 C 108.773 626.273 108.773 624.516 108.773 622.758 C 108.422 622.758 108.070 622.758 107.719 622.758 C 107.719 621.703 107.719 620.648 107.719 619.594 C 107.367 619.594 107.016 619.594 106.664 619.594 C 106.664 618.891 106.664 618.188 106.664 617.484 C 106.312 617.484 105.961 617.484 105.609 617.484 C 105.609 616.781 105.609 616.078 105.609 615.375 C 105.258 615.375 104.906 615.375 104.555 615.375 C 104.555 615.023 104.555 614.672 104.555 614.320 C 104.203 614.320 103.852 614.320 103.500 614.320 C 103.500 613.617 103.500 612.914 103.500 612.211 C 103.148 612.211 102.797 612.211 102.445 612.211 C 102.445 611.859 102.445 611.508 102.445 611.156 C 102.094 611.156 101.742 611.156 101.391 611.156 C 101.391 610.805 101.391 610.453 101.391 610.102 C 101.039 610.102 100.688 610.102 100.336 610.102 C 100.336 609.398 100.336 608.695 100.336 607.992 C 99.984 607.992 99.633 607.992 99.281 607.992 C 99.281 607.641 99.281 607.289 99.281 606.938 C 98.930 606.938 98.578 606.938 98.227 606.938 C 98.227 606.586 98.227 606.234 98.227 605.883 C 97.875 605.883 97.523 605.883 97.172 605.883 C 97.172 605.180 97.172 604.477 97.172 603.773 C 96.820 603.773 96.469 603.773 96.117 603.773 C 96.117 603.070 96.117 602.367 96.117 601.664 C 95.766 601.664 95.414 601.664 95.062 601.664 C 95.062 601.312 95.062 600.961 95.062 600.609 C 94.711 600.609 94.359 600.609 94.008 600.609 C 94.008 599.906 94.008 599.203 94.008 598.500 C 93.656 598.500 93.305 598.500 92.953 598.500 C 92.953 597.445 92.953 596.391 92.953 595.336 C 92.602 595.336 92.250 595.336 91.898 595.336 C 91.898 594.281 91.898 593.227 91.898 592.172 C 91.547 592.172 91.195 592.172 90.844 592.172 C 90.844 588.305 90.844 584.438 90.844 580.570 C 91.195 580.570 91.547 580.570 91.898 580.570 C 91.898 579.867 91.898 579.164 91.898 578.461 C 92.250 578.461 92.602 578.461 92.953 578.461 C 92.953 577.758 92.953 577.055 92.953 576.352 C 93.305 576.352 93.656 576.352 94.008 576.352 C 94.008 575.648 94.008 574.945 94.008 574.242 C 94.359 574.242 94.711 574.242 95.062 574.242 C 95.062 573.891 95.062 573.539 95.062 573.188 C 95.414 573.188 95.766 573.188 96.117 573.188 C 96.117 572.836 96.117 572.484 96.117 572.133 C 96.469 572.133 96.820 572.133 97.172 572.133 C 97.172 571.781 97.172 571.430 97.172 571.078 C 97.523 571.078 97.875 571.078 98.227 571.078 C 98.227 570.727 98.227 570.375 98.227 570.023 C 98.578 570.023 98.930 570.023 99.281 570.023 C 99.281 569.672 99.281 569.320 99.281 568.969 C 99.984 568.969 100.688 568.969 101.391 568.969 C 101.391 568.617 101.391 568.266 101.391 567.914 C 101.742 567.914 102.094 567.914 102.445 567.914 C 102.445 567.562 102.445 567.211 102.445 566.859 C 103.148 566.859 103.852 566.859 104.555 566.859 C 104.555 566.508 104.555 566.156 104.555 565.805 C 105.609 565.805 106.664 565.805 107.719 565.805 C 107.719 565.453 107.719 565.102 107.719 564.750 C 108.773 564.750 109.828 564.750 110.883 564.750 C 110.883 564.398 110.883 564.047 110.883 563.695 C 112.641 563.695 114.398 563.695 116.156 563.695 C 116.156 563.344 116.156 562.992 116.156 562.641 C 118.617 562.641 121.078 562.641 123.539 562.641 C 123.539 562.289 123.539 561.938 123.539 561.586 C 125.297 561.586 127.055 561.586 128.812 561.586 C 128.812 561.234 128.812 560.883 128.812 560.531 C 129.867 560.531 130.922 560.531 131.977 560.531 C 131.977 560.180 131.977 559.828 131.977 559.477 C 132.680 559.477 133.383 559.477 134.086 559.477 C 134.086 559.125 134.086 558.773 134.086 558.422 C 134.789 558.422 135.492 558.422 136.195 558.422 C 136.195 558.070 136.195 557.719 136.195 557.367 C 136.547 557.367 136.898 557.367 137.250 557.367 C 137.250 557.016 137.250 556.664 137.250 556.312 C 137.953 556.312 138.656 556.312 139.359 556.312 C 139.359 555.961 139.359 555.609 139.359 555.258 C 139.711 555.258 140.062 555.258 140.414 555.258 C 140.414 554.906 140.414 554.555 140.414 554.203 C 140.766 554.203 141.117 554.203 141.469 554.203 C 141.469 553.852 141.469 553.500 141.469 553.148 C 142.172 553.148 142.875 553.148 143.578 553.148 C 143.578 552.797 143.578 552.445 143.578 552.094 C 143.930 552.094 144.281 552.094 144.633 552.094 C 144.633 551.742 144.633 551.391 144.633 551.039 C 144.984 551.039 145.336 551.039 145.688 551.039 C 145.688 550.688 145.688 550.336 145.688 549.984 C 146.391 549.984 147.094 549.984 147.797 549.984 C 147.797 549.633 147.797 549.281 147.797 548.930 C 148.148 548.930 148.500 548.930 148.852 548.930 C 148.852 548.578 148.852 548.227 148.852 547.875 C 149.555 547.875 150.258 547.875 150.961 547.875 C 150.961 547.523 150.961 547.172 150.961 546.820 C 151.664 546.820 152.367 546.820 153.070 546.820 C 153.070 546.469 153.070 546.117 153.070 545.766 C 154.125 545.766 155.180 545.766 156.234 545.766 C 156.234 545.414 156.234 545.062 156.234 544.711 C 157.289 544.711 158.344 544.711 159.398 544.711 C 159.398 544.359 159.398 544.008 159.398 543.656 Z"/>
<path id="arc-13" data-left="1" data-right="0" d="M 36.000 666.000 C 216.000 666.000 396.000 666.000 576.000 666.000"/>
</g>
<g id="labels" font-family="DejaVu Sans" fill="#000" text-anchor="middle" dominant-baseline="central">
<text id="label-0" x="321.029" y="533.373" font-size="14.000">1</text>
<text id="label-1" x="102.281" y="174.812" font-size="14.000">3</text>
<text id="label-2" x="121.957" y="243.598" font-size="14.000">5</text>
<text id="label-3" x="416.215" y="363.832" font-size="14.000">7</text>
<text id="label-4" x="200.004" y="383.871" font-size="14.000">6</text>
<text id="label-5" x="131.449" y="489.340" font-size="14.000">4</text>
<text id="label-6" x="149.379" y="602.191" font-size="14.000">2</text>
</g>
<g id="leaders" stroke="#000" stroke-width="0.250">
</g>
<g id="legend" font-family="DejaVu Sans" font-size="8.000">
<rect id="chip-0" x="20.000" y="20.000" width="20.000" height="20.000" rx="1.500" fill="#ca6285" stroke="#000" stroke-width="0.300"/>
<text id="chip-number-0" x="42.000" y="30.000" fill="#000" dominant-baseline="central">1</text>
<rect id="chip-1" x="46.000" y="20.000" width="20.000" height="20.000" rx="1.500" fill="#c86858" stroke="#000" stroke-width="0.300"/>
<text id="chip-number-1" x="68.000" y="30.000" fill="#000" dominant-baseline="central">2</text>
<rect id="chip-2" x="72.000" y="20.000" width="20.000" height="20.000" rx="1.500" fill="#ad7938" stroke="#000" stroke-width="0.300"/>
<text id="chip-number-2" x="94.000" y="30.000" fill="#000" dominant-baseline="central">3</text>
<rect id="chip-3" x="98.000" y="20.000" width="20.000" height="20.000" rx="1.500" fill="#838936" stroke="#000" stroke-width="0.300"/>
<text id="chip-number-3" x="120.000" y="30.000" fill="#000" dominant-baseline="central">4</text>
<rect id="chip-4" x="124.000" y="20.000" width="20.000" height="20.000" rx="1.500" fill="#4b9354" stroke="#000" stroke-width="0.300"/>
<text id="chip-number-4" x="146.000" y="30.000" fill="#000" dominant-baseline="central">5</text>
<rect id="chip-5" x="150.000" y="20.000" width="20.000" height="20.000" rx="1.500" fill="#009782" stroke="#000" stroke-width="0.300"/>
<text id="chip-number-5" x="172.000" y="30.000" fill="#000" dominant-baseline="central">6</text>
<rect id="chip-6" x="176.000" y="20.000" width="20.000" height="20.000" rx="1.500" fill="#0096b0" stroke="#000" stroke-width="0.300"/>
<text id="chip-number-6" x="198.000" y="30.000" fill="#000" dominant-baseline="central">7</text>
<rect id="chip-7" x="202.000" y="20.000" width="20.000" height="20.000" rx="1.500" fill="#008ecd" stroke="#000" stroke-width="0.300"/>
<text id="chip-number-7" x="224.000" y="30.000" fill="#000" dominant-baseline="central">8</text>
<rect id="chip-8" x="228.000" y="20.000" width="20.000" height="20.000" rx="1.500" fill="#6c80ce" stroke="#000" stroke-width="0.300"/>
<text id="chip-number-8" x="250.000" y="30.000" fill="#000" dominant-baseline="central">9</text>
<rect id="chip-9" x="254.000" y="20.000" width="20.000" height="20.000" rx="1.500" fill="#ac6db2" stroke="#000" stroke-width="0.300"/>
<text id="chip-number-9" x="276.000" y="30.000" fill="#000" dominant-baseline="central">10</text>
</g>
<g id="frame" fill="none" stroke="#000" stroke-width="0.300">
<rect id="content-frame" x="36.000" y="36.000" width="540.000" height="720.000"/>
</g>
</svg>
